<?xml version="1.0" encoding="UTF-8" standalone="no"?>
<!-- Generator: Adobe Illustrator 28.3.0, SVG Export Plug-In . SVG Version: 6.00 Build 0)  -->

<svg
   version="1.1"
   id="Warstwa_1"
   x="0px"
   y="0px"
   viewBox="0 0 141.73 141.73"
   style="enable-background:new 0 0 141.73 141.73;"
   xml:space="preserve"
   sodipodi:docname="wlepki_WI_final_bez_kolek_Obszar roboczy 1 kopia 2.svgz"
   xmlns:inkscape="http://www.inkscape.org/namespaces/inkscape"
   xmlns:sodipodi="http://sodipodi.sourceforge.net/DTD/sodipodi-0.dtd"
   xmlns="http://www.w3.org/2000/svg"
   xmlns:svg="http://www.w3.org/2000/svg"><defs
   id="defs467" /><sodipodi:namedview
   id="namedview465"
   pagecolor="#ffffff"
   bordercolor="#000000"
   borderopacity="0.25"
   inkscape:showpageshadow="2"
   inkscape:pageopacity="0.0"
   inkscape:pagecheckerboard="0"
   inkscape:deskcolor="#d1d1d1" />
<style
   type="text/css"
   id="style2">
	.st0{fill:#FFFFFF;}
	
		.st1{clip-path:url(#SVGID_00000113340618423459120230000005978084347118566564_);fill:none;stroke:#766357;stroke-width:0;stroke-miterlimit:10;}
	.st2{fill:#2C130C;}
	
		.st3{clip-path:url(#SVGID_00000115498608616988739650000006720496915604841371_);fill:none;stroke:#E0965B;stroke-width:0;stroke-miterlimit:10;}
	
		.st4{clip-path:url(#SVGID_00000115498608616988739650000006720496915604841371_);fill:none;stroke:#B9723E;stroke-width:0;stroke-miterlimit:10;}
	
		.st5{clip-path:url(#SVGID_00000115498608616988739650000006720496915604841371_);fill:none;stroke:#B66F3B;stroke-width:0;stroke-miterlimit:10;}
	
		.st6{clip-path:url(#SVGID_00000115498608616988739650000006720496915604841371_);fill:none;stroke:#AF6734;stroke-width:0;stroke-miterlimit:10;}
	
		.st7{clip-path:url(#SVGID_00000115498608616988739650000006720496915604841371_);fill:none;stroke:#B06B37;stroke-width:0;stroke-miterlimit:10;}
	
		.st8{clip-path:url(#SVGID_00000115498608616988739650000006720496915604841371_);fill:none;stroke:#BA8151;stroke-width:0;stroke-miterlimit:10;}
	
		.st9{clip-path:url(#SVGID_00000115498608616988739650000006720496915604841371_);fill:none;stroke:#BC7D4B;stroke-width:0;stroke-miterlimit:10;}
	
		.st10{clip-path:url(#SVGID_00000115498608616988739650000006720496915604841371_);fill:none;stroke:#B87542;stroke-width:0;stroke-miterlimit:10;}
	
		.st11{clip-path:url(#SVGID_00000115498608616988739650000006720496915604841371_);fill:none;stroke:#BB7D4B;stroke-width:0;stroke-miterlimit:10;}
	
		.st12{clip-path:url(#SVGID_00000115498608616988739650000006720496915604841371_);fill:none;stroke:#86512C;stroke-width:0;stroke-miterlimit:10;}
	
		.st13{clip-path:url(#SVGID_00000115498608616988739650000006720496915604841371_);fill:none;stroke:#C37D47;stroke-width:0;stroke-miterlimit:10;}
	
		.st14{clip-path:url(#SVGID_00000115498608616988739650000006720496915604841371_);fill:none;stroke:#CC8A54;stroke-width:0;stroke-miterlimit:10;}
	
		.st15{clip-path:url(#SVGID_00000115498608616988739650000006720496915604841371_);fill:none;stroke:#B37447;stroke-width:0;stroke-miterlimit:10;}
	
		.st16{clip-path:url(#SVGID_00000115498608616988739650000006720496915604841371_);fill:none;stroke:#A86734;stroke-width:0;stroke-miterlimit:10;}
	
		.st17{clip-path:url(#SVGID_00000115498608616988739650000006720496915604841371_);fill:none;stroke:#E9AF79;stroke-width:0;stroke-miterlimit:10;}
	
		.st18{clip-path:url(#SVGID_00000115498608616988739650000006720496915604841371_);fill:none;stroke:#AB6531;stroke-width:0;stroke-miterlimit:10;}
	
		.st19{clip-path:url(#SVGID_00000115498608616988739650000006720496915604841371_);fill:none;stroke:#B97C4B;stroke-width:0;stroke-miterlimit:10;}
	
		.st20{clip-path:url(#SVGID_00000115498608616988739650000006720496915604841371_);fill:none;stroke:#975A2D;stroke-width:0;stroke-miterlimit:10;}
	
		.st21{clip-path:url(#SVGID_00000115498608616988739650000006720496915604841371_);fill:none;stroke:#BE7F50;stroke-width:0;stroke-miterlimit:10;}
	
		.st22{clip-path:url(#SVGID_00000115498608616988739650000006720496915604841371_);fill:none;stroke:#9D6339;stroke-width:0;stroke-miterlimit:10;}
	
		.st23{clip-path:url(#SVGID_00000115498608616988739650000006720496915604841371_);fill:none;stroke:#B98559;stroke-width:0;stroke-miterlimit:10;}
	
		.st24{clip-path:url(#SVGID_00000115498608616988739650000006720496915604841371_);fill:none;stroke:#B36B38;stroke-width:0;stroke-miterlimit:10;}
	
		.st25{clip-path:url(#SVGID_00000115498608616988739650000006720496915604841371_);fill:none;stroke:#F2B681;stroke-width:0;stroke-miterlimit:10;}
	
		.st26{clip-path:url(#SVGID_00000115498608616988739650000006720496915604841371_);fill:none;stroke:#B16D3B;stroke-width:0;stroke-miterlimit:10;}
	
		.st27{clip-path:url(#SVGID_00000115498608616988739650000006720496915604841371_);fill:none;stroke:#C58451;stroke-width:0;stroke-miterlimit:10;}
	
		.st28{clip-path:url(#SVGID_00000115498608616988739650000006720496915604841371_);fill:none;stroke:#B77E55;stroke-width:0;stroke-miterlimit:10;}
	
		.st29{clip-path:url(#SVGID_00000115498608616988739650000006720496915604841371_);fill:none;stroke:#99633E;stroke-width:0;stroke-miterlimit:10;}
	
		.st30{clip-path:url(#SVGID_00000115498608616988739650000006720496915604841371_);fill:none;stroke:#6A3D23;stroke-width:0;stroke-miterlimit:10;}
	
		.st31{clip-path:url(#SVGID_00000115498608616988739650000006720496915604841371_);fill:none;stroke:#836346;stroke-width:0;stroke-miterlimit:10;}
	
		.st32{clip-path:url(#SVGID_00000115498608616988739650000006720496915604841371_);fill:none;stroke:#9F7049;stroke-width:0;stroke-miterlimit:10;}
	
		.st33{clip-path:url(#SVGID_00000115498608616988739650000006720496915604841371_);fill:none;stroke:#B77746;stroke-width:0;stroke-miterlimit:10;}
	
		.st34{clip-path:url(#SVGID_00000115498608616988739650000006720496915604841371_);fill:none;stroke:#794525;stroke-width:0;stroke-miterlimit:10;}
	
		.st35{clip-path:url(#SVGID_00000115498608616988739650000006720496915604841371_);fill:none;stroke:#9B6842;stroke-width:0;stroke-miterlimit:10;}
	
		.st36{clip-path:url(#SVGID_00000115498608616988739650000006720496915604841371_);fill:none;stroke:#98633E;stroke-width:0;stroke-miterlimit:10;}
	
		.st37{clip-path:url(#SVGID_00000115498608616988739650000006720496915604841371_);fill:none;stroke:#9A643F;stroke-width:0;stroke-miterlimit:10;}
	
		.st38{clip-path:url(#SVGID_00000115498608616988739650000006720496915604841371_);fill:none;stroke:#6B3F23;stroke-width:0;stroke-miterlimit:10;}
	
		.st39{clip-path:url(#SVGID_00000115498608616988739650000006720496915604841371_);fill:none;stroke:#B0784C;stroke-width:0;stroke-miterlimit:10;}
	
		.st40{clip-path:url(#SVGID_00000115498608616988739650000006720496915604841371_);fill:none;stroke:#836347;stroke-width:0;stroke-miterlimit:10;}
	
		.st41{clip-path:url(#SVGID_00000115498608616988739650000006720496915604841371_);fill:none;stroke:#805B3F;stroke-width:0;stroke-miterlimit:10;}
	
		.st42{clip-path:url(#SVGID_00000115498608616988739650000006720496915604841371_);fill:none;stroke:#9D6F4A;stroke-width:0;stroke-miterlimit:10;}
	
		.st43{clip-path:url(#SVGID_00000115498608616988739650000006720496915604841371_);fill:none;stroke:#69432B;stroke-width:0;stroke-miterlimit:10;}
	
		.st44{clip-path:url(#SVGID_00000115498608616988739650000006720496915604841371_);fill:none;stroke:#816247;stroke-width:0;stroke-miterlimit:10;}
	
		.st45{clip-path:url(#SVGID_00000115498608616988739650000006720496915604841371_);fill:none;stroke:#683D22;stroke-width:0;stroke-miterlimit:10;}
	
		.st46{clip-path:url(#SVGID_00000115498608616988739650000006720496915604841371_);fill:none;stroke:#4B2F1F;stroke-width:0;stroke-miterlimit:10;}
	
		.st47{clip-path:url(#SVGID_00000115498608616988739650000006720496915604841371_);fill:none;stroke:#64361E;stroke-width:0;stroke-miterlimit:10;}
	
		.st48{clip-path:url(#SVGID_00000115498608616988739650000006720496915604841371_);fill:none;stroke:#AA6F46;stroke-width:0;stroke-miterlimit:10;}
	
		.st49{clip-path:url(#SVGID_00000115498608616988739650000006720496915604841371_);fill:none;stroke:#A9724F;stroke-width:0;stroke-miterlimit:10;}
	
		.st50{clip-path:url(#SVGID_00000115498608616988739650000006720496915604841371_);fill:none;stroke:#695342;stroke-width:0;stroke-miterlimit:10;}
	
		.st51{clip-path:url(#SVGID_00000115498608616988739650000006720496915604841371_);fill:none;stroke:#675241;stroke-width:0;stroke-miterlimit:10;}
	
		.st52{clip-path:url(#SVGID_00000115498608616988739650000006720496915604841371_);fill:none;stroke:#7A604E;stroke-width:0;stroke-miterlimit:10;}
	.st53{fill:#E99D63;}
	.st54{fill:#854016;}
	.st55{fill:#88471B;}
	.st56{fill:#9D7550;}
	.st57{fill:#D79054;}
	
		.st58{clip-path:url(#SVGID_00000116219271478747412470000008708344617544210873_);fill:none;stroke:#825032;stroke-width:0;stroke-miterlimit:10;}
	
		.st59{clip-path:url(#SVGID_00000116219271478747412470000008708344617544210873_);fill:none;stroke:#A86E45;stroke-width:0;stroke-miterlimit:10;}
	
		.st60{clip-path:url(#SVGID_00000116219271478747412470000008708344617544210873_);fill:none;stroke:#5B2F17;stroke-width:0;stroke-miterlimit:10;}
	
		.st61{clip-path:url(#SVGID_00000116219271478747412470000008708344617544210873_);fill:none;stroke:#BB865A;stroke-width:0;stroke-miterlimit:10;}
	.st62{fill:#31140D;}
	.st63{fill:#634E3C;}
	.st64{fill:#9B6842;}
	.st65{fill:#552410;}
	.st66{fill:#CF8F5E;}
	.st67{fill:#834E29;}
	.st68{fill:#F1EBE4;}
	.st69{fill:#9D744E;}
	.st70{fill:#7B3F17;}
	.st71{fill:#67513D;}
	.st72{fill:#FCCF9F;}
	.st73{fill:#7E3B11;}
	.st74{fill:#783D14;}
	.st75{fill:#F8C795;}
	.st76{fill:#8E4E22;}
	.st77{fill:#7C431B;}
	.st78{fill:#975A2F;}
	.st79{fill:#A06B43;}
	.st80{fill:#A2602F;}
	.st81{fill:#BF8353;}
	.st82{fill:#A16B42;}
	
		.st83{clip-path:url(#SVGID_00000036244777470864054740000009009020667634695052_);fill:none;stroke:#AA6F46;stroke-width:0;stroke-miterlimit:10;}
	.st84{fill:#DB935D;}
	.st85{fill:#AC7748;}
	.st86{fill:#9F6942;}
	.st87{fill:#AF6B39;}
	.st88{fill:#905A39;}
	.st89{fill:#CF9368;}
	.st90{fill:#935C3A;}
	.st91{fill:#BD845E;}
	.st92{fill:#956141;}
	.st93{fill:#564233;}
	.st94{fill:#7A6451;}
	.st95{fill:#523E30;}
	.st96{fill:#7A5C4A;}
	.st97{fill:#BBB4A8;}
	.st98{fill:#DBE2EE;}
	.st99{fill:#38276B;}
	.st100{opacity:0.25;}
	.st101{fill:#D79D77;}
	.st102{fill:#BD8560;}
	.st103{fill:#253168;}
	.st104{fill:#71B744;}
	.st105{opacity:0.3;}
	.st106{fill:#3A343F;}
	.st107{fill:#B17F4F;}
	.st108{fill:#8E5C3A;}
	.st109{opacity:0.6;}
	.st110{fill:#CECCD4;}
	.st111{fill:#FEEDE5;}
	.st112{fill:#A96B40;}
	.st113{fill:#252A5B;}
	.st114{fill:#EAE9F6;}
	.st115{fill:#888BAE;}
	.st116{fill:#262D60;}
	.st117{fill:#FFDF45;}
	.st118{fill:#E9487A;}
	.st119{fill:#7BC39F;}
	.st120{opacity:0.15;}
	.st121{fill:#F7A42D;}
	.st122{fill:#6C7092;}
	.st123{fill:#5698D2;}
	.st124{opacity:0.2;}
	.st125{fill:#262B5F;}
	.st126{fill:#9E9E9E;}
	.st127{fill:#8F90B3;}
	.st128{fill:#6A6A69;}
	.st129{fill:#3B3A3A;}
	.st130{fill:#E9E8E8;}
	.st131{opacity:0.5;}
	.st132{fill:#EF7E81;}
	.st133{fill:#EB5E67;}
	.st134{fill:#78CCF2;}
	.st135{fill:#61A2D9;}
	.st136{fill:#87CFE5;}
	.st137{fill:#4F5C6C;}
	.st138{fill:#605F82;}
	.st139{fill:#F7D5D5;}
	.st140{fill:#6F7189;}
	.st141{fill:#434880;}
	.st142{fill:#EFEFEF;}
	.st143{fill:none;stroke:#262B5F;stroke-width:47.1961;stroke-linejoin:round;stroke-miterlimit:10;}
	.st144{filter:url(#Adobe_OpacityMaskFilter);}
	.st145{filter:url(#Adobe_OpacityMaskFilter_00000038379355055071778220000002926010884755731621_);}
	
		.st146{mask:url(#SVGID_00000016787094907691037500000012003646680139406508_);fill:url(#SVGID_00000071525152499192354130000001216771616106739328_);}
	.st147{fill:url(#SVGID_00000010269427848871965320000005181434456643470482_);}
	.st148{fill:#C0BECC;}
	.st149{opacity:0.7;}
</style>
<polygon
   class="st0"
   points="49.65,42.25 54.62,44.58 56.24,39.57 "
   id="polygon4" />
<g
   id="g408">
	<g
   id="g380">
		<g
   id="g8">
			<path
   class="st101"
   d="M82.81,63.99c0,0-2.61,17.58-8.73,23.74c-6.12,6.16-7.8-18.87-6.45-20.42s4.66-5.59,4.75-5.67     c0.1-0.08,3.73-0.03,3.73-0.03"
   id="path6" />
		</g>
		<g
   id="g12">
			<path
   class="st102"
   d="M76.83,67.96c0,0,4.13,2.48,3.76,6.13l1.09-5.41l-5.07-4.05"
   id="path10" />
		</g>
		<g
   id="g16">
			<path
   class="st103"
   d="M71.66,89.29c-0.49-0.13-0.89-0.42-1.16-0.68c-2.22-2.07-3.2-8.15-3.59-11.58     c-0.27-2.44-0.76-9.01,0.24-10.15c0.79-0.91,2.28-2.7,3.37-4.01c1.38-1.66,1.39-1.67,1.47-1.74c0.22-0.18,0.28-0.23,4.15-0.17     c0.36,0.01,0.65,0.3,0.65,0.67c-0.01,0.36-0.3,0.65-0.67,0.65c-1.34-0.02-2.84-0.02-3.39,0c-0.23,0.28-0.71,0.85-1.2,1.44     c-1.08,1.31-2.57,3.09-3.37,4.02c-0.34,0.61-0.47,4.74,0.12,9.63c0.66,5.45,1.88,9.35,3.27,10.42c0.27,0.21,0.89,0.69,2.08-0.51     c5.9-5.94,8.52-23.2,8.55-23.38c0.05-0.36,0.39-0.61,0.75-0.55c0.36,0.05,0.61,0.39,0.55,0.75c-0.11,0.73-2.71,17.87-8.91,24.11     C73.41,89.35,72.42,89.5,71.66,89.29z M68.14,67.74C68.13,67.74,68.13,67.74,68.14,67.74C68.13,67.74,68.13,67.74,68.14,67.74z"
   id="path14" />
		</g>
		<g
   id="g20">
			<path
   class="st101"
   d="M86.84,70.4c0,0-3.81,13.18-10.75,20.03c-6.93,6.86,6.5,7.67,6.71,7.28c0.21-0.39,7.3-4.94,7.25-5.86     s6.45-9.87,6.61-13.72C96.82,74.28,86.84,70.4,86.84,70.4z"
   id="path18" />
		</g>
		<g
   id="g24">
			<path
   class="st102"
   d="M85.69,74.61c0,0,6.4,4.58,6.68,9.65c0.28,5.08,3.4-2.98,3.4-2.98l0.45-1.08l-9.4-7.36"
   id="path22" />
		</g>
		<g
   id="g28">
			<path
   class="st103"
   d="M77.87,97.84c-1.77-0.49-3.67-1.36-4.25-2.93c-0.53-1.44,0.15-3.1,2.01-4.95     c6.73-6.65,10.54-19.62,10.58-19.75c0.05-0.18,0.17-0.32,0.34-0.41c0.17-0.08,0.36-0.09,0.53-0.02     c1.07,0.41,10.42,4.17,10.24,8.37c-0.11,2.69-2.9,7.34-4.94,10.74c-0.74,1.23-1.57,2.62-1.67,2.99     c-0.02,0.78-1.17,1.78-5.56,4.89c-0.76,0.54-1.61,1.14-1.81,1.33c-0.18,0.27-0.52,0.43-2.15,0.31     C80.69,98.37,79.32,98.24,77.87,97.84z M87.26,71.28c-0.9,2.85-4.57,13.55-10.71,19.62c-1.57,1.56-2.11,2.83-1.6,3.77     c1.11,2.04,6.45,2.55,7.5,2.46c0.24-0.22,0.75-0.58,1.93-1.42c1.5-1.07,4.6-3.26,5.01-3.94c0.04-0.47,0.46-1.21,1.86-3.54     c1.85-3.09,4.65-7.76,4.75-10.12C96.1,75.78,90.94,72.81,87.26,71.28z M89.42,91.73L89.42,91.73     C89.42,91.73,89.42,91.73,89.42,91.73z M90.7,91.91L90.7,91.91L90.7,91.91z M90.71,91.82C90.71,91.82,90.71,91.82,90.71,91.82     C90.71,91.82,90.71,91.82,90.71,91.82z"
   id="path26" />
		</g>
		<g
   id="g98">
			<g
   id="g32">
				<path
   class="st104"
   d="M43.73,35.63c0,0-4.22,0.15-4.16-3.7c0.06-3.85,2.87-8.82,1.69-10.85c0,0,6.74,4.9,7.37,9.24      C49.1,33.48,47.85,35.94,43.73,35.63z"
   id="path30" />
			</g>
			<g
   class="st105"
   id="g36">
				<path
   class="st106"
   d="M43.73,35.63c0,0-4.22,0.15-4.16-3.7c0.01-0.72,0.12-1.47,0.28-2.24c0.45,3.1,4.12,2.97,4.12,2.97      c2.64,0.2,4.1-0.74,4.68-2.27C49.08,33.51,47.82,35.94,43.73,35.63z"
   id="path34" />
			</g>
			<g
   id="g40">
				<path
   class="st104"
   d="M110.62,76.91c0,0-4.05-2.51-2.09-6.78c1.97-4.27,6.29-6.92,8.98-7.32c0,0-1.17,1.65-0.99,5      C116.7,71.14,118.07,76.82,110.62,76.91z"
   id="path38" />
			</g>
			<g
   class="st105"
   id="g44">
				<path
   class="st106"
   d="M110.62,76.9c0,0-3.37-2.09-2.47-5.7c0.6,2.05,2.44,3.19,2.44,3.19c4.65-0.05,5.87-2.28,6.08-4.76      C116.91,72.88,116.82,76.84,110.62,76.9z"
   id="path42" />
			</g>
			<g
   id="g48">
				<path
   class="st103"
   d="M110.44,77.54c-0.06-0.02-0.12-0.04-0.17-0.08c-1.57-0.97-4.08-3.82-2.34-7.62      c1.94-4.22,6.34-7.23,9.48-7.7c0.26-0.04,0.52,0.08,0.66,0.31c0.14,0.22,0.13,0.51-0.02,0.73c-0.01,0.01-1.03,1.54-0.87,4.58      c0.02,0.34,0.05,0.71,0.08,1.11c0.19,2.21,0.42,4.96-1.26,6.81c-1.12,1.24-2.88,1.85-5.37,1.88      C110.56,77.56,110.5,77.56,110.44,77.54z M116.34,63.78c-2.38,0.84-5.59,3.09-7.21,6.62c-1.52,3.3,1.01,5.37,1.68,5.85      c1.97-0.05,3.39-0.54,4.21-1.45c1.3-1.43,1.1-3.76,0.93-5.82c-0.03-0.4-0.07-0.78-0.09-1.15      C115.76,66.03,116.04,64.68,116.34,63.78z"
   id="path46" />
			</g>
			<g
   id="g52">
				<path
   class="st104"
   d="M36.68,40.08c0,0-3.73-2.01-5.84,0.29s-1.94,5.76-3.8,7.15c0,0,4.06,1.79,7.63,0.58      C38.24,46.89,42.89,43.33,36.68,40.08z"
   id="path50" />
			</g>
			<g
   class="st105"
   id="g56">
				<path
   class="st106"
   d="M34.67,48.1c-3.57,1.21-7.63-0.58-7.63-0.58c0.19-0.15,0.37-0.32,0.52-0.5c1.47,0.31,3.42,0.47,5.24-0.15      c3.14-1.06,7.1-3.93,3.82-6.81c0.04,0.02,0.06,0.03,0.06,0.03C42.88,43.34,38.24,46.89,34.67,48.1z"
   id="path54" />
			</g>
			<g
   id="g60">
				<path
   class="st103"
   d="M28.4,48.68c-0.95-0.26-1.57-0.53-1.63-0.56c-0.21-0.09-0.36-0.29-0.39-0.53      c-0.03-0.23,0.07-0.46,0.26-0.6c0.78-0.58,1.16-1.69,1.6-2.97c0.46-1.34,0.98-2.86,2.12-4.1c2.41-2.63,6.42-0.54,6.63-0.42      c2.37,1.24,3.5,2.68,3.38,4.27c-0.17,2.19-2.88,4.07-5.49,4.95C32.51,49.52,30,49.11,28.4,48.68z M28.22,47.25      c1.34,0.42,3.93,1.01,6.24,0.23c2.2-0.75,4.48-2.29,4.6-3.81c0.1-1.27-1.4-2.33-2.68-3c0,0,0,0-0.01,0      c-0.04-0.02-3.32-1.73-5.04,0.15c-0.95,1.03-1.4,2.36-1.84,3.63C29.13,45.48,28.79,46.47,28.22,47.25z"
   id="path58" />
			</g>
			<g
   id="g64">
				<path
   class="st103"
   d="M42.06,36.06c-0.66-0.18-1.4-0.51-2-1.1c-0.78-0.76-1.16-1.78-1.14-3.05c0.03-1.77,0.58-3.67,1.11-5.51      c0.58-2.01,1.19-4.09,0.66-4.99c-0.16-0.27-0.1-0.61,0.13-0.82c0.23-0.21,0.58-0.23,0.83-0.04c0.28,0.21,6.97,5.12,7.64,9.67      c0.29,2.01-0.08,3.63-1.07,4.7c-0.98,1.05-2.49,1.51-4.5,1.37C43.54,36.29,42.86,36.28,42.06,36.06z M42.2,22.67      c-0.06,1.17-0.47,2.57-0.91,4.1c-0.51,1.76-1.04,3.58-1.06,5.17c-0.01,0.9,0.23,1.58,0.75,2.09c1,0.98,2.72,0.94,2.73,0.94      c0.02,0,0.05,0,0.07,0c1.6,0.12,2.77-0.2,3.47-0.95c0.9-0.96,0.89-2.5,0.73-3.61C47.56,27.54,44.14,24.3,42.2,22.67z"
   id="path62" />
			</g>
			<g
   id="g68">
				<path
   class="st107"
   d="M136.14,104.27c0,0-13.36-2.29-22.25-9.27C105,88.02,84.64,71.01,79.66,66.88      c-4.98-4.13-19.3-16.53-29.61-21.81c-3.35-1.72-6.84-3.35-10.03-4.77c-2.53,1.28-9.6,6.14-9.6,6.14      c2.09-3.01,4.32-5.63,6.88-7.34c-3.69-1.6-6.71-2.82-8.21-3.4c-0.61-0.24-0.88-0.94-0.6-1.53c0.19-0.38,0.4-0.69,0.58-0.92      c0.29-0.36,0.77-0.51,1.21-0.36c3.84,1.22,8.16,2.86,12.61,4.7c0.9-2.78,1.1-6.68,0.61-11.7c2.05,3.91,2.3,8.1,1.27,12.49      c14.05,5.95,28.83,13.66,33.14,16.89c5.94,4.47,24.42,19.19,34.57,24.46c10.15,5.27,28.2,12.03,28.2,12.03      C142.38,99.73,136.14,104.27,136.14,104.27z"
   id="path66" />
			</g>
			<g
   id="g72">
				<path
   class="st108"
   d="M35.94,38.52c-3.07-1.31-5.54-2.3-6.84-2.82c-0.61-0.24-0.88-0.94-0.6-1.53      c0.01-0.02,0.02-0.03,0.02-0.05c0.1,0.09,0.22,0.16,0.35,0.21c1.5,0.56,4.54,1.73,8.26,3.27C36.73,37.89,36.34,38.2,35.94,38.52      z"
   id="path70" />
			</g>
			<g
   id="g76">
				<path
   class="st108"
   d="M136.14,104.27c0,0-13.36-2.29-22.25-9.27C105,88.02,84.64,71.01,79.66,66.88      c-4.98-4.13-19.3-16.53-29.61-21.81c-3.35-1.72-6.84-3.35-10.03-4.77c-2.53,1.28-9.6,6.14-9.6,6.14      c0.74-1.06,1.49-2.08,2.28-3.02c2.27-1.58,5.59-3.84,7.17-4.66c3.21,1.37,6.73,2.94,10.11,4.61      c10.39,5.11,24.91,17.29,29.95,21.33c5.05,4.05,25.67,20.73,34.68,27.56c9,6.83,22.39,8.91,22.39,8.91s2.58-1.94,3.91-5.47      C140.35,101.21,136.14,104.27,136.14,104.27z"
   id="path74" />
			</g>
			<g
   class="st109"
   id="g80">
				<path
   class="st0"
   d="M42.59,37.46c-0.1,0.47-0.23,0.92-0.36,1.35c-4.45-1.84-8.77-3.47-12.61-4.7c-0.44-0.14-0.92,0-1.21,0.36      l0,0c0.02-0.1,0.05-0.2,0.1-0.3c0.19-0.38,0.4-0.69,0.58-0.92c0.29-0.36,0.77-0.51,1.21-0.36      C34.04,34.08,38.26,35.67,42.59,37.46z"
   id="path78" />
			</g>
			<g
   class="st109"
   id="g84">
				<path
   class="st0"
   d="M139.09,100.93c0.99-2.03,1.62-4.71,0.93-7.95c0,0-18.04-6.76-28.2-12.03s-28.63-20-34.57-24.46      c-4.3-3.23-19.08-10.94-33.14-16.89c0.85-3.63,0.82-7.12-0.37-10.43c-0.04-1.03-0.11-2.12-0.23-3.27      c2.05,3.91,2.3,8.1,1.27,12.49c14.05,5.95,28.83,13.66,33.14,16.89c5.94,4.47,24.42,19.19,34.57,24.46      c10.15,5.27,28.2,12.03,28.2,12.03C141.53,95.7,140.42,98.8,139.09,100.93z"
   id="path82" />
			</g>
			<g
   id="g88">
				<path
   class="st107"
   d="M109.58,78.1c0.54-4.05,2.13-8.02,4.95-11.91c-1.78,5.48-2.81,10.07-2.63,13.23L109.58,78.1z"
   id="path86" />
			</g>
			<g
   id="g92">
				<path
   class="st103"
   d="M131.19,103.8c-4.74-1.3-12.06-3.85-17.71-8.28c-7.53-5.91-23.35-19.07-30.96-25.4      c-1.39-1.16-2.52-2.1-3.28-2.73c-0.52-0.43-1.14-0.95-1.85-1.55c-6-5.03-18.47-15.49-27.63-20.19      c-2.86-1.47-6.13-3.02-9.71-4.62c-2.67,1.43-9.18,5.91-9.24,5.96c-0.26,0.18-0.62,0.15-0.84-0.08      c-0.22-0.23-0.26-0.58-0.07-0.84c2.13-3.07,4.09-5.27,6.09-6.82c-3.44-1.47-6.08-2.53-7.12-2.94c-0.46-0.18-0.83-0.55-1-1.01      c-0.18-0.46-0.16-0.98,0.06-1.42c0.19-0.38,0.41-0.73,0.66-1.04c0.46-0.57,1.23-0.81,1.93-0.58c3.48,1.11,7.51,2.6,11.98,4.44      c0.7-2.64,0.82-6.25,0.38-10.75c-0.03-0.31,0.16-0.6,0.47-0.7c0.3-0.09,0.63,0.05,0.77,0.33c1.95,3.73,2.43,7.79,1.45,12.4      c14.27,6.08,28.66,13.67,32.77,16.76c1,0.75,2.36,1.8,3.95,3.02C90,63.71,104.4,74.79,112.8,79.15c10,5.19,27.95,11.93,28.13,12      c0.21,0.08,0.37,0.26,0.41,0.48c1.75,8.29-4.75,13.13-4.81,13.18c-0.14,0.1-0.32,0.15-0.5,0.12      C135.82,104.89,133.94,104.55,131.19,103.8z M136.14,104.27L136.14,104.27L136.14,104.27z M136.14,104.27L136.14,104.27      L136.14,104.27z M40.2,39.67c0.03,0.01,0.06,0.02,0.09,0.03c3.71,1.66,7.1,3.27,10.06,4.79c9.29,4.76,21.84,15.29,27.88,20.35      c0.71,0.59,1.33,1.11,1.85,1.55c0.76,0.63,1.89,1.57,3.29,2.73c7.6,6.32,23.41,19.48,30.93,25.38      c7.95,6.24,19.7,8.71,21.67,9.08c1.05-0.86,5.35-4.83,4.16-11.32c-2.55-0.97-18.63-7.11-27.93-11.94      c-8.51-4.41-22.96-15.54-30.73-21.51c-1.58-1.21-2.94-2.26-3.93-3.01c-4.09-3.08-18.65-10.74-33-16.81      c-0.3-0.12-0.46-0.44-0.38-0.76c0.66-2.8,0.75-5.37,0.28-7.78c0.02,2.96-0.28,5.42-0.9,7.35c-0.06,0.17-0.18,0.32-0.35,0.39      c-0.17,0.08-0.36,0.08-0.53,0.01c-4.71-1.95-8.94-3.52-12.56-4.68c-0.18-0.06-0.38,0-0.49,0.15c-0.19,0.24-0.36,0.51-0.5,0.8      c-0.07,0.15-0.04,0.29-0.01,0.36c0.03,0.07,0.1,0.2,0.26,0.26c1.15,0.45,4.25,1.69,8.23,3.41c0.22,0.1,0.37,0.3,0.39,0.54      c0.02,0.24-0.09,0.47-0.29,0.61c-1.44,0.96-2.85,2.27-4.32,4.02c2.21-1.47,4.96-3.25,6.38-3.96      C39.87,39.64,40.04,39.62,40.2,39.67z"
   id="path90" />
			</g>
			<g
   id="g96">
				<path
   class="st103"
   d="M111.73,80.05c-0.05-0.01-0.1-0.03-0.15-0.06l-2.32-1.32c-0.23-0.13-0.36-0.39-0.33-0.66      c0.57-4.24,2.28-8.35,5.07-12.21c0.19-0.26,0.54-0.35,0.83-0.2c0.29,0.15,0.43,0.48,0.33,0.79c-1.91,5.89-2.76,10.14-2.6,12.99      c0.01,0.24-0.11,0.47-0.31,0.6C112.09,80.07,111.9,80.1,111.73,80.05z M110.3,77.75l0.93,0.53c0.05-1.96,0.46-4.4,1.23-7.37      C111.38,73.13,110.65,75.42,110.3,77.75z"
   id="path94" />
			</g>
		</g>
		<g
   id="g102">
			<path
   class="st101"
   d="M100.1,115.08c-15.34,26.16-64.44,19.48-65.86-17.33l-0.57-8.73l22.1,2.54"
   id="path100" />
		</g>
		<g
   id="g106">
			<path
   class="st102"
   d="M38.07,94.21c0,0,12.31,5.14,26.3,2.98l-0.86-2.09C56.73,97.38,47.89,96.54,38.07,94.21z"
   id="path104" />
		</g>
		<g
   id="g110">
			<path
   class="st102"
   d="M100.1,115.08c-15.34,26.16-64.44,19.48-65.86-17.33l-0.57-8.73l1.61,0.18l0.27,4.18     c0.34,8.86,3.45,15.98,8.18,21.31l-0.09-0.21l2.75,1.02c0,0,17.82,5.93,28.81-1.82l1.88,0.62c-8.18,5.62-16.73,7.31-25.61,5.51     c-0.61-0.12-0.94,0.69-0.41,1.02c13.37,8.3,32.31,7.57,44.08-2.6c0.63-0.54,0.02-2.63,0.6-3.22c0.66-0.67,2.5,0.14,3.1-0.6     L100.1,115.08z"
   id="path108" />
		</g>
		<g
   id="g114">
			<path
   class="st103"
   d="M59.4,130.09c-6.97-1.91-12.99-5.55-17.46-10.58c-5.14-5.79-8.03-13.3-8.35-21.73l-0.57-8.71     c-0.01-0.19,0.06-0.38,0.2-0.52c0.14-0.13,0.33-0.2,0.53-0.18l22.1,2.54c0.36,0.04,0.62,0.37,0.58,0.73     c-0.04,0.36-0.37,0.62-0.73,0.58l-21.32-2.45l0.52,7.94c0.6,15.74,10.19,27.45,25.65,31.33c15.71,3.94,31.74-1.93,38.98-14.28     c0.18-0.31,0.59-0.42,0.9-0.23c0.31,0.18,0.42,0.59,0.23,0.9c-3.85,6.57-9.96,11.43-17.66,14.06     c-7.15,2.43-15.24,2.73-22.78,0.84C59.95,130.23,59.68,130.16,59.4,130.09z"
   id="path112" />
		</g>
		<g
   id="g118">
			<path
   class="st110"
   d="M95.42,117.15l-0.56,0.61c-0.48,0.52-1.2,0.73-1.88,0.56l-21.38-5.51c-0.58-0.15-1.06-0.57-1.29-1.13     l-6.02-14.69l-3.53-8.63c-0.61-1.5,0.79-3.03,2.33-2.56L73.8,89.1l8.92,2.74c0.48,0.15,0.89,0.48,1.13,0.93l11.86,22.18     C96.08,115.67,95.97,116.55,95.42,117.15z"
   id="path116" />
		</g>
		<g
   id="g140">
			<g
   id="g122">
				<path
   class="st103"
   d="M75.58,108.94c-0.17-0.05-0.31-0.17-0.37-0.33l-6.88-18.08c-0.07-0.2-0.03-0.42,0.11-0.57      c0.14-0.15,0.36-0.21,0.56-0.15l12.1,3.76c0.14,0.04,0.26,0.14,0.33,0.27l9.04,17.65c0.1,0.19,0.08,0.42-0.06,0.59      c-0.13,0.17-0.35,0.24-0.56,0.2l-14.26-3.33C75.59,108.94,75.58,108.94,75.58,108.94z M69.76,91.19l6.37,16.75l12.83,3      l-8.4-16.39L69.76,91.19z"
   id="path120" />
			</g>
			<g
   id="g126">
				<path
   class="st103"
   d="M86.67,111.42c-0.12-0.03-0.22-0.12-0.28-0.24l-8.3-17.67c-0.1-0.22-0.01-0.48,0.21-0.58      c0.22-0.1,0.48-0.01,0.58,0.21l8.3,17.67c0.1,0.22,0.01,0.48-0.21,0.58C86.87,111.44,86.77,111.44,86.67,111.42z"
   id="path124" />
			</g>
			<g
   id="g130">
				<path
   class="st103"
   d="M82.61,110.47c-0.13-0.03-0.24-0.13-0.29-0.26l-7.17-17.63c-0.09-0.22,0.02-0.48,0.24-0.57      c0.22-0.09,0.48,0.02,0.57,0.24l7.17,17.63c0.09,0.22-0.02,0.48-0.24,0.57C82.79,110.49,82.7,110.49,82.61,110.47z"
   id="path128" />
			</g>
			<g
   id="g134">
				<path
   class="st103"
   d="M74.28,97.07c-0.13-0.04-0.24-0.13-0.3-0.27l-1.93-5.2c-0.08-0.23,0.03-0.48,0.26-0.56      c0.23-0.08,0.48,0.03,0.56,0.26l1.93,5.2c0.08,0.23-0.03,0.48-0.26,0.56C74.45,97.1,74.36,97.1,74.28,97.07z"
   id="path132" />
			</g>
			<g
   id="g138">
				<path
   class="st103"
   d="M82.13,97.99L82.13,97.99l-11.89-3.25c-0.23-0.06-0.37-0.31-0.31-0.54c0.06-0.23,0.31-0.37,0.54-0.31l0,0      l11.89,3.25c0.23,0.06,0.37,0.31,0.31,0.54C82.61,97.91,82.37,98.05,82.13,97.99z"
   id="path136" />
			</g>
		</g>
		<g
   id="g144">
			<path
   class="st103"
   d="M72.47,110.4c-0.17-0.05-0.3-0.16-0.36-0.32L64.8,91.91c-0.11-0.28,0.02-0.6,0.3-0.71     c0.28-0.11,0.6,0.02,0.71,0.3l7.2,17.9l23,5.56c0.29,0.07,0.48,0.37,0.4,0.66c-0.07,0.29-0.37,0.48-0.66,0.4l-23.28-5.63     C72.48,110.4,72.47,110.4,72.47,110.4z"
   id="path142" />
		</g>
		<g
   id="g148">
			<path
   class="st111"
   d="M77.81,97.44c0,0,9.89-2.3,10.11,9.19l0.27,2.12c0,0-3.03-1.81-7.1-0.77     C77.01,109.03,77.81,97.44,77.81,97.44z"
   id="path146" />
		</g>
		<g
   id="g152">
			<path
   class="st103"
   d="M71.4,113.43c-0.77-0.21-1.4-0.77-1.7-1.51l-9.55-23.32c-0.38-0.93-0.2-1.97,0.48-2.71     c0.68-0.74,1.7-1.02,2.65-0.72l19.63,6.04c0.65,0.2,1.19,0.64,1.51,1.25l11.86,22.18c0.52,0.96,0.36,2.15-0.38,2.96l-0.56,0.61     c-0.64,0.7-1.61,0.98-2.53,0.75l-21.38-5.51C71.42,113.44,71.41,113.43,71.4,113.43z M62.86,86.42     c-0.46-0.13-0.93,0.01-1.26,0.37c-0.34,0.37-0.42,0.86-0.24,1.32l9.55,23.32c0.15,0.37,0.46,0.65,0.85,0.74l21.38,5.51     c0.45,0.12,0.92-0.02,1.24-0.36l0.56-0.61c0.36-0.39,0.44-0.97,0.18-1.44L83.26,93.08c-0.16-0.29-0.42-0.51-0.74-0.61L62.9,86.43     l0,0C62.88,86.43,62.87,86.42,62.86,86.42z"
   id="path150" />
		</g>
		<g
   id="g156">
			<path
   class="st103"
   d="M79.99,108.63c-0.31-0.09-0.61-0.24-0.87-0.46c-2.48-2.07-2.02-9.88-1.96-10.77     c0.02-0.29,0.23-0.53,0.51-0.6c0.18-0.04,4.38-0.98,7.56,1.5c2.15,1.67,3.27,4.46,3.35,8.28l0.27,2.09     c0.03,0.25-0.08,0.5-0.29,0.63c-0.21,0.14-0.48,0.14-0.7,0.01c-0.03-0.02-2.86-1.66-6.6-0.7     C80.81,108.73,80.38,108.73,79.99,108.63z M78.44,98c-0.15,3.13,0.11,7.98,1.52,9.15c0.28,0.23,0.58,0.29,0.97,0.19     c2.81-0.72,5.15-0.17,6.46,0.32l-0.12-0.95c0-0.02,0-0.05-0.01-0.07c-0.06-3.42-1.02-5.87-2.84-7.29     C82.31,97.69,79.54,97.86,78.44,98z"
   id="path154" />
		</g>
		<g
   id="g160">
			<path
   class="st103"
   d="M87.76,107.41c-0.18-0.05-0.34-0.18-0.43-0.37c-1.07-2.37-4.27-2.63-4.3-2.63     c-0.36-0.03-0.64-0.34-0.61-0.7c0.02-0.36,0.34-0.64,0.7-0.61c0.16,0.01,4.02,0.3,5.41,3.41c0.15,0.33,0,0.72-0.33,0.87     C88.06,107.44,87.91,107.45,87.76,107.41z"
   id="path158" />
		</g>
		<g
   id="g164">
			<path
   class="st103"
   d="M86.81,102.32c-0.07-0.02-0.14-0.05-0.21-0.1c-1.52-1.08-3.8-1.03-3.83-1.03     c-0.36,0.01-0.66-0.28-0.67-0.64c-0.01-0.36,0.28-0.66,0.64-0.67c0.11,0,2.75-0.05,4.62,1.28c0.3,0.21,0.37,0.62,0.16,0.92     C87.35,102.3,87.07,102.39,86.81,102.32z"
   id="path162" />
		</g>
		<g
   id="g168">
			<path
   class="st110"
   d="M84,93.06l11.61,21.71c0.08,0.15,0.18,0.3,0.29,0.43c0.51,0.6,2.01,1.98,4.31,0.91     c0.21-0.1,0.4-0.22,0.58-0.38l14.71-12.69c0.85-0.73,1.11-1.94,0.63-2.96c-3.97-8.47-8.56-15.64-14.14-20.74     c-0.89-0.81-2.23-0.86-3.19-0.14L84.7,89.88C83.71,90.63,83.42,91.98,84,93.06z"
   id="path166" />
		</g>
		<g
   class="st109"
   id="g172">
			<path
   class="st0"
   d="M116.23,101.94c-0.04-0.16-0.09-0.33-0.17-0.48c-3.96-8.47-8.56-15.64-14.14-20.74     c-0.89-0.81-2.23-0.86-3.19-0.14l-14.1,10.67c-0.42,0.31-0.71,0.74-0.86,1.2c-0.23-0.95,0.12-1.97,0.92-2.58l14.1-10.67     c0.96-0.72,2.3-0.68,3.19,0.14c5.58,5.1,10.17,12.27,14.14,20.74C116.41,100.69,116.43,101.35,116.23,101.94z"
   id="path170" />
		</g>
		<g
   class="st105"
   id="g176">
			<path
   class="st106"
   d="M115.49,103.05l-14.71,12.7c-0.18,0.15-0.37,0.28-0.58,0.37c-2.29,1.07-3.79-0.31-4.3-0.91     c-0.11-0.13-0.21-0.28-0.29-0.43L84,93.06c-0.43-0.81-0.38-1.77,0.09-2.51c0.04,0.11,0.09,0.22,0.14,0.32l11.61,21.71     c0.08,0.15,0.18,0.3,0.29,0.43c0.51,0.6,2.01,1.98,4.3,0.91c0.21-0.1,0.4-0.23,0.58-0.38l14.71-12.69     c0.19-0.17,0.35-0.36,0.49-0.57C116.56,101.26,116.28,102.36,115.49,103.05z"
   id="path174" />
		</g>
		<g
   id="g180">
			<path
   class="st0"
   d="M112.04,101.47l-12.5,10.77c-0.74,0.64-1.88,0.43-2.35-0.42l-6.5-11.84l-1.42-2.59l-0.02-0.04c0,0,0,0,0,0     L87,93.27c-0.37-0.67-0.19-1.51,0.42-1.97l11.34-8.55c0.61-0.46,1.45-0.4,2,0.13c4.27,4.13,8.04,10.05,11.61,16.69     C112.73,100.2,112.58,101,112.04,101.47z"
   id="path178" />
		</g>
		<g
   class="st105"
   id="g184">
			<path
   class="st106"
   d="M112.29,101.19c-3.57-6.63-7.34-12.55-11.6-16.67c-0.55-0.53-1.39-0.59-2-0.13l-11.34,8.55     c-0.13,0.1-0.24,0.21-0.33,0.34L87,93.27c-0.37-0.67-0.19-1.51,0.42-1.97l11.34-8.55c0.61-0.46,1.45-0.4,2,0.13     c4.27,4.13,8.04,10.05,11.61,16.69C112.67,100.09,112.62,100.72,112.29,101.19z"
   id="path182" />
		</g>
		<g
   id="g188">
			<path
   class="st103"
   d="M97.56,117.03c-1.13-0.31-1.87-1.06-2.16-1.4c-0.14-0.16-0.26-0.35-0.37-0.55L83.42,93.37l0,0     c-0.74-1.38-0.37-3.07,0.88-4.01l14.1-10.67c1.22-0.92,2.91-0.85,4.03,0.17c5.27,4.82,9.95,11.67,14.29,20.95     c0.6,1.28,0.27,2.81-0.8,3.74l-14.71,12.69c-0.22,0.19-0.47,0.35-0.73,0.47C99.34,117.24,98.35,117.25,97.56,117.03z      M84.58,92.75l11.61,21.71c0.06,0.12,0.13,0.22,0.21,0.31c0.54,0.64,1.73,1.58,3.53,0.74c0.15-0.07,0.29-0.16,0.42-0.28     l14.71-12.69c0.62-0.54,0.82-1.44,0.47-2.18c-4.27-9.12-8.84-15.84-13.99-20.53c-0.65-0.59-1.64-0.63-2.35-0.1l-14.1,10.67     C84.36,90.96,84.15,91.95,84.58,92.75L84.58,92.75z"
   id="path186" />
		</g>
		<g
   id="g192">
			<path
   class="st103"
   d="M97.98,113.08c-0.54-0.15-1-0.51-1.28-1.01L86.52,93.53c-0.49-0.9-0.25-2.05,0.57-2.67l11.35-8.55l0,0     c0.83-0.62,1.97-0.55,2.71,0.17c3.78,3.66,7.5,9.01,11.71,16.83c0.46,0.86,0.26,1.94-0.47,2.57l-12.5,10.77     c-0.48,0.41-1.11,0.58-1.73,0.47C98.1,113.11,98.04,113.1,97.98,113.08z M99.1,83.19l-11.34,8.55c-0.39,0.29-0.51,0.84-0.27,1.27     l10.18,18.55c0.14,0.26,0.4,0.44,0.69,0.5c0.29,0.05,0.59-0.03,0.82-0.22l12.5-10.77c0.35-0.3,0.44-0.81,0.22-1.22     c-4.16-7.72-7.81-12.98-11.51-16.56C100.03,82.93,99.49,82.89,99.1,83.19z"
   id="path190" />
		</g>
		<g
   id="g196">
			<path
   class="st101"
   d="M116.1,94.76c-0.31,0.98-0.76,1.83-1.37,2.46c-0.96-1.87-1.88-3.6-2.69-4.97     c-0.04-0.07-0.08-0.14-0.12-0.2l-0.67-8.08C115.77,83.15,117.52,90.24,116.1,94.76z"
   id="path194" />
		</g>
		<g
   id="g200">
			<path
   class="st102"
   d="M116.1,94.76c-0.31,0.98-0.76,1.83-1.37,2.46c-0.96-1.87-1.88-3.6-2.69-4.97l0.78-0.41l0.99-1.35     c0,0-0.55,3.57,2.06,4.2C115.96,94.72,116.03,94.74,116.1,94.76z"
   id="path198" />
		</g>
		<g
   class="st109"
   id="g204">
			<path
   class="st0"
   d="M114.74,97.22c-0.02-0.03-0.03-0.07-0.05-0.1c2.42-3.94,1.13-12.4-3.37-12.47l-0.06-0.69     C116.75,82.98,118.15,93.67,114.74,97.22z"
   id="path202" />
		</g>
		<g
   id="g208">
			<path
   class="st103"
   d="M114.56,97.86c-0.18-0.05-0.33-0.17-0.41-0.33c-1.18-2.3-2.07-3.94-2.79-5.14     c-0.19-0.31-0.09-0.72,0.22-0.9c0.31-0.19,0.72-0.09,0.9,0.22c0.64,1.06,1.39,2.44,2.36,4.29c1.41-2.34,1.49-6.61,0.03-9.35     c-0.59-1.11-1.68-2.36-3.5-2.03c-0.36,0.06-0.7-0.17-0.76-0.53c-0.06-0.36,0.17-0.7,0.53-0.76c2.02-0.36,3.76,0.6,4.89,2.71     c1.72,3.21,1.73,9-0.82,11.65c-0.15,0.15-0.36,0.23-0.57,0.19C114.61,97.87,114.59,97.86,114.56,97.86z"
   id="path206" />
		</g>
		<g
   id="g230">
			<g
   id="g212">
				<path
   class="st111"
   d="M113.31,91.29c-0.58,1.69-4.36-1.11-6.42,0.6c0,0-0.03-0.19-0.04-0.47c-0.02-0.57,0.02-1.52,0.47-2.14      l-2.55,1.23c0,0-0.61-0.99,0.23-2.81l-1.27,0.61c0,0,1.44-5.26,7.39-4.48c0,0,1.03,0.28,0.85,2.08c0,0,1.54,0.82,1.11,2.6      c0,0,0.19,0.26,0.32,0.71C113.54,89.72,113.61,90.43,113.31,91.29z"
   id="path210" />
			</g>
			<g
   id="g216">
				<path
   class="st103"
   d="M106.72,92.53c-0.02-0.01-0.04-0.01-0.06-0.02c-0.22-0.08-0.38-0.28-0.42-0.52      c-0.02-0.11-0.1-0.73-0.02-1.44l-1.17,0.56c-0.3,0.15-0.67,0.04-0.85-0.25c-0.06-0.1-0.44-0.76-0.27-1.91      c-0.22,0.07-0.46,0.03-0.64-0.12c-0.2-0.16-0.28-0.43-0.21-0.68c0.02-0.06,1.67-5.81,8.11-4.96c0.03,0,0.06,0.01,0.09,0.02      c0.06,0.02,1.39,0.4,1.36,2.38c0.62,0.49,1.34,1.46,1.12,2.82c0.26,0.49,0.67,1.61,0.17,3.1c-0.46,1.36-2.01,1.03-3.25,0.76      c-1.19-0.26-2.54-0.55-3.37,0.14C107.15,92.54,106.93,92.59,106.72,92.53z M107.5,88.65c0.13,0.03,0.24,0.11,0.33,0.21      c0.19,0.23,0.2,0.57,0.02,0.81c-0.21,0.29-0.3,0.73-0.33,1.15c1.12-0.35,2.38-0.08,3.44,0.15c0.73,0.16,1.64,0.36,1.73,0.1      c0.45-1.31-0.12-2.13-0.15-2.16c-0.11-0.16-0.15-0.36-0.11-0.54c0.3-1.23-0.67-1.81-0.78-1.87c-0.23-0.13-0.37-0.38-0.34-0.64      c0.1-1.02-0.26-1.31-0.37-1.37c-3.35-0.4-5.09,1.26-5.92,2.57c0.16,0.01,0.31,0.07,0.43,0.19c0.2,0.19,0.25,0.49,0.14,0.74      c-0.32,0.69-0.39,1.22-0.38,1.58l1.83-0.88C107.19,88.62,107.35,88.61,107.5,88.65z"
   id="path214" />
			</g>
			<g
   id="g220">
				<path
   class="st103"
   d="M104.83,88.35c-0.1-0.03-0.2-0.08-0.28-0.16c-0.26-0.25-0.27-0.67-0.02-0.93      c0.13-0.14,3.29-3.4,7.65-1.96c0.34,0.11,0.53,0.49,0.42,0.83c-0.11,0.34-0.48,0.53-0.83,0.42c-3.56-1.17-6.18,1.51-6.29,1.62      C105.3,88.35,105.05,88.41,104.83,88.35z"
   id="path218" />
			</g>
			<g
   id="g224">
				<path
   class="st103"
   d="M107.15,89.92c-0.12-0.03-0.24-0.11-0.33-0.21c-0.23-0.28-0.2-0.69,0.08-0.92      c0.11-0.09,2.72-2.24,6.46-0.79c0.34,0.13,0.51,0.51,0.38,0.85c-0.13,0.34-0.51,0.51-0.85,0.38c-3-1.16-5.06,0.5-5.14,0.57      C107.58,89.93,107.35,89.97,107.15,89.92z"
   id="path222" />
			</g>
			<g
   class="st105"
   id="g228">
				<path
   class="st106"
   d="M113.31,91.29c-0.58,1.69-4.36-1.11-6.42,0.6c0,0-0.03-0.19-0.04-0.47l0.25-0.41c0,0,0.67-1.3,2.26-0.97      c1.6,0.32,3.6,0.74,3.68-0.35c0.02-0.31,0.16-0.45,0.35-0.46C113.54,89.72,113.61,90.43,113.31,91.29z"
   id="path226" />
			</g>
		</g>
		<g
   id="g234">
			<path
   class="st106"
   d="M89.25,97.35c0.01,0.01,0.01,0.02,0.02,0.04L89.25,97.35C89.24,97.35,89.25,97.35,89.25,97.35z"
   id="path232" />
		</g>
		<g
   class="st105"
   id="g238">
			<path
   class="st106"
   d="M112.04,101.47l-12.5,10.77c-0.74,0.64-1.88,0.43-2.35-0.42l-6.5-11.84     C96.12,108.79,103.36,108.71,112.04,101.47z"
   id="path236" />
		</g>
		<g
   class="st105"
   id="g242">
			<path
   class="st106"
   d="M95.42,117.15l-0.56,0.61c-0.48,0.52-1.2,0.73-1.88,0.56l-21.38-5.51c-0.58-0.15-1.06-0.57-1.29-1.13     l-6.02-14.69l-3.53-8.63c-0.17-0.42-0.19-0.84-0.08-1.22c0.01-0.05,0.03-0.09,0.04-0.14c0.02-0.06,0.05-0.12,0.07-0.18     c0.02-0.04,0.04-0.08,0.06-0.11c0.03-0.05,0.06-0.1,0.09-0.15c0.02-0.03,0.04-0.05,0.06-0.08c0.01-0.01,0.01-0.02,0.02-0.02     c0.01-0.02,0.02-0.03,0.04-0.05c0.09-0.11,0.2-0.22,0.32-0.31c0.46-0.35,1.07-0.49,1.71-0.3L73.8,89.1     c-0.79,1.4-3.81,6.29-8.13,7.6l5.39,13.16c0.23,0.56,0.71,0.98,1.29,1.13l4.85,1.25c1.71-1.22,3.93-3.05,4.58-4.68l5.05,0.74     l1.08,0.3l1.23,1.5c0,0-5.2-1.55-7.3,0.38c-0.89,0.82-1.5,1.71-1.91,2.46l13.79,3.55c0.68,0.18,1.41-0.04,1.88-0.56l0.3-0.33     C95.98,116.16,95.81,116.73,95.42,117.15z"
   id="path240" />
		</g>
		<g
   id="g246">
			<path
   class="st101"
   d="M31.98,91.63c0,0-2.58,15.51,12.04,22.77s26.7,2.15,31.6-1.1c4.9-3.24,7.89-6.97,7.49-11.33     c-0.4-4.35-5.93-6.02-8.49-5.39c-2.56,0.63-9.67,6.41-15.3,5.93c-5.63-0.48-9.95-3.78-9.95-3.78"
   id="path244" />
		</g>
		<g
   id="g250">
			<path
   class="st102"
   d="M75.62,113.31c-4.9,3.24-16.99,8.35-31.6,1.09c-14.61-7.26-12.04-22.77-12.04-22.77l2.44,1     c0.1,4.99,1.73,14.13,11.62,19.13c14.06,7.11,25.79,1.9,30.56-1.38c3.06-2.1,5.35-4.39,6.52-6.91     C82.79,107.19,79.95,110.44,75.62,113.31z"
   id="path248" />
		</g>
		<g
   id="g276">
			<g
   id="g254">
				<path
   class="st111"
   d="M83.55,59.62c0,0-5.49-2.22-9.1,1.41l-0.47-0.43l-3.1-2.86c0,0-0.06-7.25,5.82-6.18      c0,0,3.97-0.51,4.52,2.3c0,0,0.45,0.22,0.98,0.65c0,0,0,0,0,0C83.29,55.38,84.72,57.11,83.55,59.62z"
   id="path252" />
			</g>
			<g
   id="g258">
				<path
   class="st103"
   d="M74.28,61.67c-0.1-0.03-0.19-0.08-0.27-0.15l-3.57-3.29c-0.13-0.12-0.21-0.3-0.21-0.48      c0-0.16-0.01-3.97,2.27-5.89c1.1-0.93,2.52-1.25,4.22-0.96c1.54-0.17,4.38,0.17,5.07,2.52c1.61,0.91,3.87,3.23,2.36,6.47      c-0.15,0.32-0.52,0.46-0.84,0.33l0,0c-0.05-0.02-5.14-2.01-8.39,1.27C74.75,61.67,74.5,61.73,74.28,61.67z M71.55,57.47      l2.9,2.67c3.12-2.67,7.17-1.81,8.72-1.34c0.85-2.77-2.1-4.27-2.23-4.34c-0.18-0.09-0.32-0.26-0.36-0.46      c-0.43-2.17-3.76-1.78-3.8-1.77c-0.07,0.01-0.13,0.01-0.2-0.01c-1.34-0.25-2.43-0.03-3.24,0.65      C71.85,54.13,71.59,56.63,71.55,57.47z"
   id="path256" />
			</g>
			<g
   id="g262">
				<path
   class="st103"
   d="M73.87,60.38c-0.08-0.02-0.15-0.06-0.22-0.11c-0.29-0.22-0.35-0.63-0.13-0.92      c3.48-4.63,7.32-6.05,7.48-6.1c0.34-0.12,0.72,0.06,0.84,0.4c0.12,0.34-0.06,0.72-0.4,0.84c-0.05,0.02-3.66,1.37-6.88,5.66      C74.41,60.37,74.12,60.45,73.87,60.38z"
   id="path260" />
			</g>
			<g
   id="g266">
				<path
   class="st103"
   d="M73.11,58.89c-0.29-0.08-0.5-0.35-0.48-0.66c0.24-5.32,4.07-7.2,4.23-7.28c0.33-0.16,0.72-0.02,0.88,0.31      c0.16,0.33,0.02,0.72-0.31,0.88c-0.14,0.07-3.28,1.65-3.49,6.15c-0.02,0.36-0.32,0.64-0.69,0.63      C73.2,58.91,73.15,58.9,73.11,58.89z"
   id="path264" />
			</g>
			<g
   class="st105"
   id="g270">
				<path
   class="st106"
   d="M83.55,59.62c0,0-5.49-2.22-9.1,1.41l-0.47-0.43c0.02-0.13,0.12-0.27,0.32-0.41      c2.16-1.57,5.55-2.63,7.5-3.32c1.91-0.67,0.47-2.28,0.4-2.35C83.29,55.38,84.72,57.11,83.55,59.62z"
   id="path268" />
			</g>
			<g
   class="st105"
   id="g274">
				<path
   class="st106"
   d="M78,51.77c0,0,1.98,0.97,0.78,1.81c-1.2,0.84-3.62,3.8-4.25,5.01c-0.63,1.22,2.07-1.84,2.07-1.84      s3.39-2.46,3.44-2.48c0.05-0.03,0.72-0.39,0.73-0.68c0.01-0.3,0.04-0.77-0.14-0.95c-0.18-0.19-1.42-0.85-1.42-0.85"
   id="path272" />
			</g>
		</g>
		<g
   id="g280">
			<path
   class="st103"
   d="M32.63,91.74c-0.04,0.25-0.07,0.55-0.09,0.83c-0.02,0.28-0.04,0.57-0.05,0.86     c-0.02,0.57-0.03,1.15-0.01,1.72c0.03,1.15,0.15,2.3,0.35,3.43c0.2,1.13,0.48,2.25,0.85,3.34c0.37,1.09,0.83,2.14,1.37,3.15     c0.26,0.51,0.57,0.99,0.87,1.48l0.49,0.71c0.16,0.24,0.35,0.45,0.52,0.68l0.26,0.34l0.28,0.32c0.19,0.21,0.37,0.43,0.57,0.64     c0.4,0.41,0.8,0.82,1.23,1.19c0.42,0.39,0.88,0.74,1.32,1.1c0.22,0.18,0.47,0.33,0.7,0.5c0.24,0.16,0.46,0.34,0.71,0.48     c0.49,0.29,0.97,0.62,1.49,0.87l0.76,0.41c0.26,0.13,0.52,0.25,0.79,0.37c1.05,0.51,2.13,0.93,3.21,1.34     c1.1,0.38,2.2,0.74,3.33,1c0.56,0.15,1.13,0.25,1.7,0.38c0.57,0.09,1.14,0.21,1.72,0.27c1.15,0.16,2.3,0.24,3.46,0.27     c1.16,0.03,2.32-0.01,3.47-0.13c1.15-0.11,2.3-0.28,3.43-0.52c2.26-0.48,4.48-1.21,6.57-2.19c1.05-0.49,2.07-1.04,3.03-1.66     c0.97-0.63,1.91-1.31,2.8-2.04c0.88-0.74,1.71-1.53,2.42-2.41c0.72-0.87,1.32-1.83,1.73-2.85c0.4-1.02,0.59-2.11,0.55-3.2     l-0.02-0.41c-0.02-0.13-0.03-0.26-0.05-0.38c-0.05-0.25-0.11-0.5-0.2-0.74c-0.18-0.48-0.44-0.93-0.78-1.33     c-0.67-0.81-1.6-1.42-2.62-1.83c-1.01-0.41-2.13-0.65-3.19-0.62c-0.26,0.01-0.52,0.04-0.76,0.09c-0.23,0.05-0.46,0.13-0.72,0.25     c-0.5,0.22-1.02,0.49-1.53,0.77l-3.09,1.74c-2.09,1.14-4.26,2.23-6.66,2.85c-0.6,0.15-1.21,0.27-1.84,0.34     c-0.31,0.03-0.63,0.05-0.95,0.05c-0.16,0-0.32,0-0.48-0.01c-0.16-0.01-0.32-0.01-0.47-0.04c-1.22-0.17-2.41-0.48-3.55-0.88     c-1.14-0.4-2.24-0.9-3.3-1.47c-0.53-0.29-1.04-0.6-1.54-0.93c-0.5-0.33-0.98-0.67-1.45-1.05c-0.05-0.04-0.05-0.11-0.02-0.15     c0.04-0.04,0.1-0.05,0.14-0.02l0,0c0.49,0.32,1,0.61,1.52,0.88c0.52,0.27,1.05,0.52,1.59,0.74c1.08,0.45,2.18,0.83,3.31,1.1     c1.12,0.27,2.26,0.45,3.4,0.49c0.14,0.01,0.28,0.01,0.41,0.02l0.2,0.01l0.2,0c0.27,0,0.55-0.02,0.82-0.04     c0.55-0.06,1.1-0.17,1.65-0.3c2.2-0.57,4.3-1.61,6.35-2.73l3.09-1.74c0.53-0.29,1.06-0.57,1.64-0.83     c0.28-0.13,0.61-0.25,0.96-0.32c0.34-0.07,0.67-0.11,1-0.12c1.31-0.03,2.55,0.25,3.73,0.72c1.17,0.48,2.28,1.19,3.13,2.21     c0.43,0.5,0.77,1.09,1,1.72c0.12,0.31,0.2,0.64,0.26,0.97c0.03,0.16,0.05,0.33,0.07,0.49l0.02,0.48     c0.06,1.27-0.17,2.56-0.64,3.74c-0.47,1.18-1.15,2.24-1.93,3.2c-0.78,0.95-1.67,1.81-2.6,2.59c-0.94,0.78-1.92,1.47-2.93,2.14     c-1.02,0.66-2.09,1.23-3.19,1.74c-2.19,1.02-4.5,1.78-6.86,2.28c-1.18,0.25-2.38,0.43-3.58,0.54c-1.2,0.12-2.41,0.16-3.62,0.13     c-1.21-0.03-2.41-0.11-3.61-0.28c-0.6-0.07-1.19-0.19-1.79-0.29c-0.59-0.13-1.18-0.24-1.77-0.39c-1.17-0.28-2.32-0.65-3.46-1.04     c-1.13-0.42-2.25-0.87-3.33-1.39c-0.27-0.13-0.54-0.25-0.81-0.39l-0.8-0.43c-0.54-0.27-1.05-0.61-1.57-0.92     c-0.26-0.15-0.5-0.34-0.76-0.51c-0.25-0.18-0.51-0.34-0.74-0.53c-0.48-0.38-0.96-0.75-1.41-1.16c-0.46-0.4-0.89-0.84-1.31-1.27     c-0.21-0.22-0.41-0.46-0.61-0.68l-0.3-0.34l-0.28-0.36c-0.18-0.24-0.38-0.48-0.55-0.73l-0.52-0.75     c-0.32-0.52-0.65-1.03-0.93-1.58c-0.58-1.07-1.06-2.2-1.46-3.35c-0.39-1.15-0.68-2.34-0.9-3.53c-0.21-1.2-0.34-2.41-0.37-3.62     c-0.02-0.61-0.02-1.21,0.01-1.82c0.01-0.3,0.03-0.61,0.06-0.91c0.03-0.31,0.06-0.6,0.11-0.93c0.05-0.36,0.39-0.61,0.75-0.55     c0.36,0.05,0.61,0.39,0.55,0.75L32.63,91.74z"
   id="path278" />
		</g>
		<g
   id="g344">
			<g
   id="g284">
				<path
   class="st101"
   d="M55.27,37.11c0,0-2.73,6.79-13.64,8.43c-10.91,1.64-21.93,9.54-23.94,23.5s5.24,24.4,30.6,26.67      c24.3,2.17,28.8-11.07,29.15-17.34c0.35-6.27,0.65-20.81-13.49-31.05c0.78-2.84,0.37-5.41-1.88-7.56c0,0-0.51,3.41-4.86,5.49      C57.17,42.17,56.77,39.3,55.27,37.11z"
   id="path282" />
			</g>
			<g
   class="st105"
   id="g288">
				<path
   class="st106"
   d="M62.05,39.88c0.02-0.08,0.02-0.11,0.02-0.11c2.12,2.02,2.6,4.4,2.01,7.03c-0.5,0.94-1.46,0.59-2.02,0.19      C63.25,44.6,62.98,41.59,62.05,39.88z"
   id="path286" />
			</g>
			<g
   id="g292">
				<path
   class="st102"
   d="M48.29,95.71c-14.6-1.31-23.19-5.32-27.47-11.16c4.66,4.88,12.92,8.22,25.99,9.39      c24.3,2.17,28.8-11.07,29.15-17.34c0.28-5.01,0.53-15.31-6.61-24.47c8.65,9.57,8.39,20.9,8.09,26.24      C77.09,84.64,72.59,97.89,48.29,95.71z"
   id="path290" />
			</g>
			<g
   class="st109"
   id="g296">
				<path
   class="st0"
   d="M56.69,40.42c-0.26-0.69-0.59-1.34-1-1.95c0,0-2.73,6.79-13.64,8.43c-10.91,1.64-21.93,9.54-23.94,23.5      c-0.5,3.49-0.42,6.76,0.37,9.74c-1.18-3.33-1.37-7.07-0.79-11.11c2-13.97,13.03-21.86,23.94-23.5      c10.91-1.64,13.64-8.43,13.64-8.43C55.94,38.09,56.39,39.2,56.69,40.42z"
   id="path294" />
			</g>
			<g
   class="st109"
   id="g300">
				<path
   class="st0"
   d="M64.2,43.5c-0.36-0.84-0.92-1.63-1.7-2.37c0,0-0.51,3.41-4.85,5.49c-0.01-0.52-0.02-1.04-0.06-1.55      c4.01-2.09,4.49-5.31,4.49-5.31C63.26,40.9,63.94,42.15,64.2,43.5z"
   id="path298" />
			</g>
			<g
   id="g304">
				<path
   class="st111"
   d="M48.19,91.67c-31.06-1.56-30.35-23.53-20.63-31.24s21.32,1.3,21.32,1.3s9.5-6.09,19.73,0.17      C79.71,68.69,75.3,93.97,48.19,91.67z"
   id="path302" />
			</g>
			<g
   id="g308">
				<path
   class="st112"
   d="M21.74,71.11c0,0,3.25-5.17,10.69-5.98s9.84,3.71,9.81,6.1s-0.16,5.98-6.9,7.55s-7.96,6.26-7.96,6.26      C23.29,81.38,21.1,76.87,21.74,71.11z"
   id="path306" />
			</g>
			<g
   id="g312">
				<path
   class="st112"
   d="M74.27,73.2c-4.89-7.91-19.28-9.74-20.89-0.52c0,0-0.52,4.27,3.39,5.91c3.91,1.64,10.59,3.75,10.69,8.34      C72,82.96,74.28,78.39,74.27,73.2z"
   id="path310" />
			</g>
			<g
   id="g326">
				<g
   id="g316">
					<path
   class="st103"
   d="M48.34,76.52c-0.49,0.19-1.03,0.19-1.52,0.02c-4.09-1.43-4.55-4.17,0.59-4.27       C52.05,71.94,53.28,74.63,48.34,76.52z"
   id="path314" />
				</g>
				<g
   id="g320">
					<path
   class="st103"
   d="M42.99,78.11c0.28,0.26,0.62,0.46,0.98,0.62c0.35,0.17,0.73,0.31,1.11,0.43       c0.76,0.24,1.54,0.4,2.32,0.46c0.78,0.06,1.55,0.02,2.27-0.18c0.72-0.2,1.38-0.58,1.96-1.18l0,0c0.09-0.09,0.23-0.09,0.32,0       c0.06,0.06,0.08,0.15,0.05,0.23c-0.15,0.44-0.42,0.84-0.75,1.18c-0.34,0.34-0.74,0.62-1.18,0.82c-0.88,0.4-1.85,0.51-2.77,0.43       c-0.92-0.08-1.82-0.33-2.64-0.73c-0.41-0.2-0.8-0.45-1.16-0.75c-0.35-0.3-0.69-0.65-0.88-1.11c-0.05-0.11,0.01-0.24,0.12-0.29       c0.08-0.03,0.17-0.01,0.23,0.04L42.99,78.11z"
   id="path318" />
				</g>
				<g
   id="g324">
					<path
   class="st103"
   d="M47.46,80.93c-0.3-0.08-0.51-0.37-0.48-0.7c0.24-2.6,0.05-4.02,0.04-4.03c-0.05-0.36,0.2-0.69,0.56-0.75       c0.36-0.05,0.69,0.2,0.75,0.56c0.01,0.06,0.22,1.59-0.04,4.34c-0.03,0.36-0.35,0.63-0.72,0.59       C47.53,80.94,47.49,80.93,47.46,80.93z"
   id="path322" />
				</g>
			</g>
			<g
   id="g330">
				<path
   class="st103"
   d="M35.8,94.25c-6.93-1.89-11.99-4.83-15.12-8.78c-3.38-4.27-4.6-9.82-3.64-16.52      c0.95-6.63,4.01-12.43,8.84-16.77c4.26-3.82,9.82-6.41,15.65-7.29c10.41-1.57,13.1-7.96,13.12-8.03      c0.09-0.23,0.3-0.38,0.54-0.41c0.24-0.03,0.48,0.08,0.61,0.28c1.53,2.22,1.93,5.03,2.03,7.44c3.15-1.9,3.57-4.48,3.58-4.51      c0.04-0.24,0.2-0.45,0.44-0.53c0.23-0.08,0.49-0.02,0.67,0.15c2.17,2.07,2.9,4.68,2.17,7.77C79.25,57.85,78.38,73.3,78.1,78.41      c-0.13,2.3-0.99,8.13-6.15,12.59c-5.21,4.51-13.19,6.31-23.72,5.37C43.58,95.95,39.44,95.25,35.8,94.25z M55.29,38.45      c-1.29,2.07-4.97,6.45-13.57,7.74c-9.47,1.42-21.28,8.29-23.38,22.95c-0.92,6.41,0.18,11.49,3.37,15.52      c4.53,5.73,13.5,9.23,26.63,10.41c10.15,0.91,17.81-0.79,22.74-5.06c4.78-4.13,5.57-9.53,5.69-11.67      c0.28-4.97,1.12-20.1-13.21-30.48c-0.22-0.16-0.32-0.44-0.25-0.71c0.66-2.41,0.35-4.42-0.96-6.1c-0.54,1.29-1.83,3.35-4.86,4.8      c-0.2,0.1-0.44,0.08-0.63-0.03c-0.19-0.12-0.31-0.33-0.31-0.55C56.52,42.27,56.12,40.11,55.29,38.45z"
   id="path328" />
			</g>
			<g
   id="g334">
				<path
   class="st103"
   d="M37.34,90.6c-10.64-2.91-14.28-8.9-15.51-12.76C19.78,71.48,22,64.14,27.21,60      c4.12-3.27,9.24-4.08,14.81-2.33c3.44,1.08,6.03,2.8,6.89,3.41c0.79-0.45,2.92-1.54,5.89-2.14c3.43-0.7,8.66-0.83,14.1,2.5      c5.15,3.15,7.27,10.37,5.04,17.17c-0.98,2.98-3.21,7.18-8.27,10.25c-4.67,2.82-10.56,3.96-17.51,3.37      C43.92,92,40.35,91.42,37.34,90.6z M40.94,58.49c-4.97-1.36-9.35-0.56-13.05,2.37c-4.79,3.8-6.9,10.8-5.03,16.65      c1.17,3.63,4.61,9.26,14.76,12.04c2.93,0.8,6.43,1.37,10.59,1.58c0.01,0,0.01,0,0.02,0c6.71,0.57,12.39-0.51,16.86-3.22      c4.78-2.89,6.88-6.84,7.8-9.65c2.07-6.32,0.15-13.01-4.57-15.89c-9.83-6.01-19.06-0.23-19.15-0.17      c-0.2,0.13-0.45,0.11-0.63-0.03c-0.03-0.02-2.89-2.22-6.88-3.46C41.42,58.63,41.18,58.56,40.94,58.49z"
   id="path332" />
			</g>
			<g
   id="g338">
				<path
   class="st103"
   d="M30.26,73.66c0.16-1,0.58-1.99,1.33-2.8c0.37-0.4,0.84-0.75,1.36-0.99c0.53-0.24,1.11-0.37,1.7-0.36      c1.18,0,2.28,0.53,3.06,1.29c0.78,0.77,1.28,1.79,1.34,2.83c0.01,0.12-0.09,0.23-0.21,0.24c-0.09,0.01-0.17-0.04-0.21-0.11l0,0      c-0.46-0.82-1.05-1.49-1.75-1.97c-0.69-0.47-1.47-0.75-2.23-0.74c-0.76,0-1.5,0.28-2.16,0.79c-0.33,0.25-0.64,0.56-0.94,0.9      c-0.3,0.34-0.57,0.72-0.87,1.1l-0.01,0.01c-0.08,0.1-0.22,0.12-0.32,0.04C30.28,73.83,30.25,73.74,30.26,73.66z"
   id="path336" />
			</g>
			<g
   id="g342">
				<path
   class="st103"
   d="M57,74.81c0.08-0.51,0.24-1.01,0.47-1.49c0.24-0.48,0.55-0.93,0.96-1.33c0.4-0.39,0.9-0.72,1.45-0.92      c0.55-0.2,1.15-0.29,1.74-0.24c1.18,0.08,2.26,0.69,3,1.53c0.73,0.85,1.13,1.97,1.02,3.02c-0.01,0.12-0.12,0.21-0.25,0.2      c-0.09-0.01-0.16-0.07-0.19-0.15l0,0c-0.32-0.9-0.84-1.63-1.49-2.16c-0.65-0.53-1.42-0.87-2.2-0.91      c-0.78-0.05-1.54,0.17-2.23,0.65c-0.34,0.24-0.67,0.53-0.98,0.87c-0.31,0.33-0.59,0.71-0.89,1.11l-0.01,0.01      c-0.08,0.1-0.22,0.12-0.32,0.04C57.02,74.97,56.99,74.89,57,74.81z"
   id="path340" />
			</g>
		</g>
		<g
   id="g374">
			<g
   id="g348">
				<path
   class="st111"
   d="M92.96,62.62c0,0-2.51-0.91-3.63,1.22c0,0,2.45,3.51,3.3,7.27l0.05,1.18l1.13-0.49      c0,0,5.26-0.1,5.98-2.44s-2.2-4.62-2.2-4.62C97.14,62.51,94.39,61.75,92.96,62.62z"
   id="path346" />
			</g>
			<g
   id="g352">
				<path
   class="st103"
   d="M92.51,72.93c-0.06-0.02-0.12-0.04-0.18-0.08c-0.18-0.12-0.3-0.31-0.31-0.53l-0.04-1.12      c-0.82-3.56-3.16-6.95-3.18-6.98c-0.14-0.2-0.16-0.47-0.04-0.68c1.01-1.92,3.01-1.93,4.15-1.63c0.9-0.42,2.1-0.4,3.14,0.06      c1.08,0.47,1.85,1.34,2.14,2.4c0.69,0.59,2.98,2.79,2.24,5.18c-0.8,2.57-5.47,2.87-6.47,2.9l-1.01,0.44      C92.8,72.96,92.65,72.96,92.51,72.93z M90.12,63.83c0.66,1.01,2.44,3.96,3.16,7.13c0.01,0.04,0.01,0.08,0.02,0.12l0.01,0.22      l0.25-0.11c0.08-0.03,0.16-0.05,0.25-0.05c1.24-0.03,4.89-0.44,5.37-1.98c0.58-1.88-1.95-3.89-1.98-3.91      c-0.12-0.1-0.21-0.24-0.24-0.39c-0.2-1.02-0.98-1.5-1.43-1.69c-0.77-0.34-1.65-0.33-2.2,0.01c-0.17,0.1-0.38,0.13-0.57,0.06      C92.55,63.17,91,62.67,90.12,63.83z"
   id="path350" />
			</g>
			<g
   id="g356">
				<path
   class="st103"
   d="M92.48,72.31c-0.33-0.09-0.54-0.43-0.47-0.77c1.39-6.58,0.41-8.55,0.4-8.57      c-0.19-0.31-0.1-0.71,0.21-0.91c0.31-0.19,0.71-0.1,0.91,0.21c0.14,0.22,1.29,2.35-0.23,9.54c-0.07,0.36-0.42,0.58-0.78,0.51      C92.51,72.32,92.49,72.31,92.48,72.31z"
   id="path354" />
			</g>
			<g
   id="g360">
				<path
   class="st103"
   d="M93.63,72.44c-0.12-0.03-0.23-0.1-0.31-0.19c-0.24-0.27-0.22-0.68,0.04-0.93      c3.32-3.02,3.56-6.58,3.57-6.62c0.02-0.36,0.33-0.64,0.7-0.62c0.36,0.02,0.64,0.33,0.62,0.7c-0.01,0.17-0.28,4.14-3.99,7.51      C94.08,72.45,93.84,72.5,93.63,72.44z"
   id="path358" />
			</g>
			<g
   class="st105"
   id="g364">
				<path
   class="st106"
   d="M93.14,71.81c1.91-1.54,3.55-3.56,4.32-7.11c0,0-0.32-1.29-2.26-2.33c1.81,2.08,0.01,6.4-1.94,9.46"
   id="path362" />
			</g>
			<g
   class="st105"
   id="g368">
				<path
   class="st106"
   d="M95.67,69.98c1.67,0.14,2.9-0.7,3.46-3c0,0,1.45,1.67,0.06,3c-1.39,1.33-3.92,1.43-3.92,1.43l-0.24-0.07"
   id="path366" />
			</g>
			<g
   class="st105"
   id="g372">
				<path
   class="st106"
   d="M90.53,62.81c1.77,0.91,1.97,3.95,1.87,7.39c0.62-2.33,1.03-4.71,0.08-7.41"
   id="path370" />
			</g>
		</g>
		<g
   id="g378">
			<path
   class="st0"
   d="M49.53,73.33c0-0.23-0.75-0.43-1.69-0.44c-0.94-0.02-1.7,0.15-1.7,0.38c0,0.23,0.75,0.43,1.69,0.44     C48.76,73.73,49.52,73.56,49.53,73.33z"
   id="path376" />
		</g>
	</g>
	<g
   id="g406">
		<rect
   x="99.95"
   y="94.32"
   transform="matrix(0.7948 -0.6069 0.6069 0.7948 -37.0477 80.6585)"
   width="1.57"
   height="1.57"
   id="rect382" />
		<rect
   x="101.72"
   y="92.99"
   transform="matrix(0.7948 -0.6069 0.6069 0.7948 -35.8748 81.4531)"
   width="1.57"
   height="1.57"
   id="rect384" />
		<rect
   x="94.68"
   y="98.35"
   transform="matrix(0.7948 -0.6069 0.6069 0.7948 -40.5748 78.2838)"
   width="1.57"
   height="1.57"
   id="rect386" />
		<rect
   x="98.2"
   y="95.66"
   transform="matrix(0.7948 -0.6069 0.6069 0.7948 -38.2222 79.8677)"
   width="1.57"
   height="1.57"
   id="rect388" />
		<rect
   x="96.44"
   y="97.01"
   transform="matrix(0.7948 -0.6069 0.6069 0.7948 -39.3982 79.076)"
   width="1.57"
   height="1.57"
   id="rect390" />
		<rect
   x="104.82"
   y="93.41"
   transform="matrix(0.7948 -0.6069 0.6069 0.7948 -35.4941 83.4244)"
   width="1.57"
   height="1.57"
   id="rect392" />
		<rect
   x="96.86"
   y="93.91"
   transform="matrix(0.7948 -0.6069 0.6069 0.7948 -37.4341 78.6955)"
   width="1.57"
   height="1.57"
   id="rect394" />
		<rect
   x="98.62"
   y="92.57"
   transform="matrix(0.7948 -0.6069 0.6069 0.7948 -36.2581 79.4872)"
   width="1.57"
   height="1.57"
   id="rect396" />
		<rect
   x="91.58"
   y="97.94"
   transform="matrix(0.7948 -0.6069 0.6069 0.7948 -40.9604 76.3213)"
   width="1.57"
   height="1.57"
   id="rect398" />
		<rect
   x="95.1"
   y="95.26"
   transform="matrix(0.7948 -0.6069 0.6069 0.7948 -38.61 77.9038)"
   width="1.57"
   height="1.57"
   id="rect400" />
		<rect
   x="93.34"
   y="96.6"
   transform="matrix(0.7948 -0.6069 0.6069 0.7948 -39.7896 77.1096)"
   width="1.57"
   height="1.57"
   id="rect402" />
		<rect
   x="99.58"
   y="95.24"
   transform="matrix(0.6069 0.7948 -0.7948 0.6069 117.5209 -41.1333)"
   width="1.53"
   height="5.99"
   id="rect404" />
	</g>
</g>
<g
   id="g462">
	<path
   d="M50.18,9.72l0.96-0.25l1.5,2.85l0.17-2.73l-0.13-0.51l0.73-0.19l1.68,2.8l-0.06-3.22l0.95-0.24l-0.02,4.45l-0.9,0.23   l-1.59-2.5l-0.2,2.96l-0.91,0.23L50.18,9.72z"
   id="path410" />
	<path
   d="M56.94,8.04l0.98-0.14l1.19,2.99l0.45-2.7l-0.08-0.52l0.74-0.11l1.38,2.96l0.28-3.21l0.97-0.14l-0.49,4.42l-0.93,0.14   l-1.32-2.65l-0.52,2.92l-0.93,0.14L56.94,8.04z"
   id="path412" />
	<path
   d="M63.82,7.08l0.99-0.04l0.87,3.1l0.74-2.64L66.4,6.97l0.75-0.03l1.06,3.09l0.62-3.16l0.98-0.04l-0.95,4.34l-0.93,0.04   l-1.03-2.77l-0.82,2.85l-0.94,0.04L63.82,7.08z"
   id="path414" />
	<path
   d="M70.92,10.44l0.83,0.02l-0.02,0.77l-0.83-0.02L70.92,10.44z"
   id="path416" />
	<path
   d="M73.76,7.79L73.1,7.74L73.24,7l1.55,0.1L74.5,11.4l-0.99-0.07L73.76,7.79z M73.84,5.32l1.08,0.07l-0.05,0.81l-1.08-0.07   L73.84,5.32z"
   id="path418" />
	<path
   d="M76.34,7.22l0.9,0.12L77.22,7.8c0.22-0.13,0.48-0.23,0.76-0.3c0.28-0.06,0.58-0.07,0.88-0.03   c0.55,0.07,0.94,0.26,1.15,0.55c0.22,0.29,0.29,0.71,0.22,1.26l-0.37,2.76l-0.97-0.13l0.37-2.71c0.04-0.33,0.01-0.57-0.11-0.72   s-0.36-0.25-0.73-0.3c-0.22-0.03-0.44-0.01-0.67,0.05c-0.22,0.06-0.42,0.15-0.58,0.28l-0.42,3.12l-0.98-0.13L76.34,7.22z"
   id="path420" />
	<path
   d="M82.04,8.87l-0.61-0.13l0.16-0.75l0.61,0.13L82.3,7.6c0.09-0.43,0.28-0.74,0.57-0.95c0.29-0.21,0.66-0.26,1.12-0.17   c0.3,0.06,0.58,0.17,0.83,0.33l-0.14,0.69c-0.17-0.1-0.35-0.17-0.54-0.21c-0.28-0.06-0.48-0.05-0.61,0.03   c-0.13,0.08-0.22,0.24-0.27,0.49l-0.1,0.51l1.1,0.23l-0.2,0.75L83,9.07l-0.71,3.46l-0.96-0.2L82.04,8.87z"
   id="path422" />
	<path
   d="M84.38,10.75c0.39-1.44,1.31-1.96,2.75-1.57c1.45,0.4,1.97,1.31,1.58,2.75c-0.39,1.44-1.32,1.96-2.76,1.57   C84.51,13.11,83.99,12.2,84.38,10.75z M87.19,12.64c0.24-0.16,0.43-0.48,0.56-0.97c0.13-0.48,0.13-0.85,0.01-1.11   c-0.13-0.26-0.41-0.45-0.85-0.57c-0.43-0.12-0.77-0.1-1.01,0.06c-0.24,0.16-0.43,0.48-0.56,0.96c-0.13,0.48-0.14,0.86-0.01,1.12   c0.13,0.26,0.41,0.45,0.84,0.57C86.61,12.82,86.95,12.8,87.19,12.64z"
   id="path424" />
	<path
   d="M90.58,10.31l0.86,0.3l-0.11,0.49c0.24-0.06,0.51-0.09,0.81-0.1c0.3-0.01,0.59,0.01,0.87,0.06l-0.25,0.71   c-0.26-0.04-0.55-0.06-0.87-0.07c-0.32-0.01-0.58,0.01-0.77,0.06l-1.03,2.93l-0.93-0.33L90.58,10.31z"
   id="path426" />
	<path
   d="M94.19,11.55l0.82,0.38l-0.15,0.43c0.57-0.14,1.1-0.09,1.6,0.13c0.27,0.12,0.46,0.26,0.59,0.42s0.19,0.34,0.2,0.55   c0.27-0.07,0.54-0.09,0.83-0.08c0.28,0.02,0.58,0.1,0.88,0.24c0.45,0.21,0.73,0.47,0.84,0.8c0.11,0.33,0.05,0.73-0.16,1.21   l-1.18,2.58l-0.88-0.4l1.14-2.49c0.14-0.3,0.17-0.54,0.1-0.72s-0.25-0.34-0.53-0.47c-0.19-0.09-0.38-0.13-0.58-0.15   c-0.2-0.01-0.39,0.02-0.57,0.1c-0.02,0.12-0.07,0.26-0.14,0.42l-1.14,2.51l-0.83-0.38l1.13-2.49c0.14-0.3,0.18-0.53,0.14-0.71   c-0.04-0.17-0.2-0.32-0.47-0.44c-0.35-0.16-0.75-0.16-1.23,0l-1.3,2.85l-0.88-0.4L94.19,11.55z"
   id="path428" />
	<path
   d="M99.7,18.69c-0.14-0.34-0.1-0.7,0.12-1.06c0.21-0.37,0.51-0.58,0.88-0.65c0.37-0.07,0.8,0.05,1.3,0.34l1.19,0.7l0.1-0.16   c0.11-0.18,0.16-0.34,0.17-0.48c0-0.13-0.05-0.27-0.17-0.4c-0.12-0.13-0.31-0.28-0.58-0.44c-0.44-0.26-0.89-0.43-1.34-0.52   l0.37-0.63c0.22,0.04,0.46,0.1,0.72,0.2c0.26,0.1,0.53,0.23,0.8,0.38c0.55,0.32,0.9,0.68,1.05,1.07c0.15,0.39,0.08,0.83-0.21,1.31   l-1.4,2.39l-0.73-0.43l0.17-0.41c-0.25,0.06-0.5,0.06-0.77,0.01c-0.27-0.06-0.56-0.18-0.89-0.37   C100.09,19.31,99.83,19.03,99.7,18.69z M101.78,19.31c0.24,0.03,0.47,0.01,0.69-0.07l0.38-0.65l-1.17-0.69   c-0.25-0.15-0.46-0.21-0.63-0.18c-0.17,0.03-0.31,0.14-0.43,0.35c-0.11,0.19-0.13,0.36-0.05,0.52c0.08,0.16,0.24,0.31,0.49,0.46   C101.3,19.2,101.54,19.28,101.78,19.31z"
   id="path430" />
	<path
   d="M104.17,21.4c-0.06-0.33,0.04-0.67,0.28-1.03l1.26-1.86l-0.53-0.36l0.43-0.64l0.53,0.36l0.55-0.82l0.98,0.3l-0.72,1.07   l0.95,0.64l-0.49,0.6l-0.89-0.61l-1.23,1.82c-0.14,0.21-0.19,0.38-0.16,0.53c0.04,0.15,0.17,0.29,0.39,0.44   c0.13,0.09,0.29,0.16,0.48,0.22l-0.39,0.58c-0.25-0.05-0.52-0.17-0.79-0.36C104.44,22.02,104.23,21.73,104.17,21.4z"
   id="path432" />
	<path
   d="M105.21,24.2l0.45-0.58c0.1,0.15,0.22,0.29,0.38,0.41c0.14,0.11,0.28,0.18,0.4,0.21c0.13,0.02,0.26,0.02,0.4-0.03   c0.14-0.04,0.33-0.12,0.56-0.23l1.1-4.53l0.81,0.63l-0.87,3.37l3.07-1.66l0.8,0.62l-3.87,2.12c-0.58,0.33-1.08,0.52-1.49,0.59   c-0.41,0.07-0.79-0.04-1.15-0.32C105.53,24.61,105.33,24.41,105.21,24.2z"
   id="path434" />
	<path
   d="M114.21,21.69l0.73,0.67l-2.39,2.61l2.5-0.05l0.84,0.77l-2.46,0.09l-0.37,3.14l-0.77-0.7l0.33-2.47l-0.79,0.01l-1.01,1.1   l-0.73-0.67L114.21,21.69z"
   id="path436" />
	<path
   d="M113.81,29.34c-0.03-0.37,0.1-0.7,0.41-0.98c0.31-0.29,0.65-0.41,1.02-0.37c0.38,0.04,0.76,0.27,1.15,0.69l0.95,1   l0.14-0.13c0.15-0.15,0.25-0.28,0.29-0.41c0.04-0.13,0.03-0.27-0.05-0.43c-0.08-0.16-0.22-0.36-0.44-0.58   c-0.35-0.37-0.73-0.66-1.14-0.88l0.54-0.5c0.2,0.1,0.41,0.23,0.64,0.4c0.22,0.17,0.44,0.37,0.66,0.59   c0.44,0.47,0.67,0.91,0.71,1.32c0.03,0.41-0.16,0.81-0.57,1.2l-2.02,1.9l-0.58-0.61l0.27-0.34c-0.25-0.01-0.5-0.08-0.74-0.21   c-0.24-0.13-0.49-0.33-0.75-0.6C114.01,30.05,113.84,29.71,113.81,29.34z M115.63,30.53c0.22,0.1,0.45,0.14,0.68,0.12l0.55-0.52   l-0.93-0.99c-0.2-0.21-0.38-0.33-0.55-0.35c-0.17-0.02-0.34,0.05-0.51,0.21c-0.16,0.15-0.22,0.31-0.2,0.49   c0.03,0.17,0.14,0.37,0.34,0.58C115.2,30.28,115.41,30.43,115.63,30.53z"
   id="path438" />
	<path
   d="M117.36,32.46l0.54,0.64l-0.59,0.5l-0.54-0.64L117.36,32.46z"
   id="path440" />
	<path
   d="M118.38,34.49c0.01-0.37,0.18-0.68,0.52-0.93c0.34-0.25,0.69-0.34,1.06-0.26c0.37,0.08,0.72,0.35,1.07,0.81l0.83,1.1   l0.15-0.11c0.17-0.13,0.28-0.25,0.34-0.37c0.06-0.12,0.06-0.27,0-0.44c-0.06-0.17-0.18-0.38-0.37-0.63c-0.3-0.41-0.65-0.74-1.04-1   l0.59-0.44c0.19,0.12,0.38,0.27,0.59,0.47c0.21,0.19,0.4,0.41,0.59,0.66c0.38,0.51,0.57,0.98,0.56,1.39   c-0.01,0.42-0.24,0.79-0.69,1.13l-2.21,1.66l-0.51-0.67l0.31-0.31c-0.25-0.04-0.49-0.14-0.71-0.29c-0.23-0.16-0.45-0.38-0.68-0.68   C118.5,35.21,118.37,34.86,118.38,34.49z M120.06,35.87c0.21,0.12,0.43,0.19,0.66,0.2l0.6-0.45l-0.82-1.09   c-0.17-0.23-0.34-0.37-0.51-0.41c-0.17-0.04-0.34,0.01-0.53,0.16c-0.17,0.13-0.26,0.28-0.25,0.46c0.01,0.18,0.1,0.38,0.27,0.61   C119.66,35.57,119.85,35.75,120.06,35.87z"
   id="path442" />
	<path
   d="M120.15,39.98c-0.13-0.29-0.23-0.55-0.28-0.77l0.64-0.41c0.06,0.24,0.15,0.5,0.28,0.79s0.28,0.56,0.44,0.81   c0.25,0.39,0.44,0.65,0.58,0.78c0.14,0.13,0.29,0.15,0.42,0.07c0.11-0.07,0.16-0.16,0.15-0.27c-0.01-0.11-0.08-0.28-0.23-0.51   l-0.62-0.98c-0.2-0.32-0.3-0.61-0.29-0.85c0.01-0.24,0.13-0.44,0.36-0.58c0.16-0.1,0.33-0.14,0.51-0.13   c0.18,0.01,0.36,0.09,0.54,0.23c-0.06-0.54,0.17-0.96,0.68-1.29c0.46-0.29,0.88-0.36,1.27-0.22c0.39,0.14,0.76,0.49,1.11,1.06   c0.13,0.2,0.24,0.44,0.34,0.72l0.84,1.33l-0.56,0.32l-0.39-0.61c-0.05,0.3-0.22,0.54-0.53,0.73c-0.4,0.25-0.78,0.33-1.15,0.23   c-0.37-0.1-0.7-0.39-1-0.86c-0.08-0.12-0.16-0.28-0.25-0.48c-0.12-0.15-0.25-0.27-0.39-0.34c-0.14-0.07-0.27-0.08-0.38-0.01   c-0.08,0.05-0.11,0.11-0.11,0.2c0.01,0.08,0.05,0.19,0.14,0.34l0.65,1.02c0.23,0.36,0.33,0.69,0.3,0.99   c-0.03,0.3-0.2,0.54-0.49,0.72c-0.35,0.22-0.7,0.23-1.05,0.04c-0.35-0.2-0.71-0.6-1.09-1.2C120.44,40.56,120.28,40.27,120.15,39.98   z M124.27,39.59c0.19,0.06,0.43,0,0.7-0.17c0.28-0.17,0.43-0.37,0.47-0.57s-0.05-0.48-0.26-0.8c-0.2-0.32-0.41-0.51-0.61-0.57   c-0.21-0.07-0.45-0.01-0.73,0.16c-0.27,0.17-0.41,0.36-0.44,0.56c-0.03,0.21,0.06,0.48,0.27,0.8   C123.88,39.33,124.08,39.53,124.27,39.59z"
   id="path444" />
	<path
   d="M129.15,40.04l0.46,0.88l-1.98,1.03c0.23,0.1,0.44,0.24,0.65,0.44c0.2,0.19,0.37,0.43,0.52,0.71   c0.25,0.48,0.32,0.9,0.21,1.25c-0.11,0.35-0.41,0.65-0.9,0.91l-2.47,1.29l-0.45-0.87l2.43-1.26c0.29-0.15,0.47-0.32,0.52-0.51   c0.05-0.19,0-0.44-0.16-0.75c-0.1-0.19-0.24-0.37-0.43-0.52c-0.19-0.16-0.38-0.26-0.58-0.32l-2.78,1.44l-0.46-0.88L129.15,40.04z"
   id="path446" />
	<path
   d="M126.76,47.21l0.34,0.76l-0.7,0.32l-0.34-0.76L126.76,47.21z"
   id="path448" />
	<path
   d="M127.46,49.52c0.2-0.51,0.66-0.9,1.36-1.17c0.66-0.25,1.24-0.29,1.73-0.09c0.49,0.19,0.87,0.62,1.12,1.27   c0.23,0.59,0.25,1.11,0.06,1.54c-0.19,0.44-0.54,0.75-1.06,0.95l-0.74,0.29l-1.13-2.94c-0.37,0.19-0.58,0.43-0.64,0.72   c-0.06,0.29,0,0.68,0.2,1.18c0.08,0.2,0.18,0.4,0.3,0.6c0.12,0.2,0.24,0.36,0.37,0.5l-0.68,0.26c-0.29-0.29-0.55-0.72-0.76-1.28   C127.29,50.64,127.25,50.03,127.46,49.52z M130.2,51.26l0.28-0.11c0.29-0.11,0.48-0.27,0.56-0.49c0.09-0.22,0.07-0.5-0.07-0.85   c-0.16-0.42-0.36-0.67-0.61-0.77c-0.25-0.1-0.57-0.07-0.98,0.09L130.2,51.26z"
   id="path450" />
	<path
   d="M129.09,54.14c0.22-0.42,0.69-0.74,1.4-0.94c0.48-0.14,0.92-0.18,1.31-0.11c0.39,0.07,0.72,0.22,0.98,0.47   c0.26,0.24,0.45,0.56,0.56,0.94c0.07,0.24,0.11,0.47,0.11,0.69s-0.04,0.43-0.1,0.65l2.01-0.59l0.28,0.95l-5.87,1.72l-0.24-0.81   l0.39-0.18c-0.23-0.14-0.42-0.31-0.56-0.51c-0.14-0.2-0.26-0.44-0.34-0.74C128.85,55.07,128.87,54.56,129.09,54.14z M130.56,56.65   l2.06-0.6c0.16-0.34,0.18-0.72,0.06-1.13c-0.12-0.4-0.34-0.66-0.67-0.79c-0.33-0.12-0.75-0.11-1.26,0.04   c-0.48,0.14-0.79,0.33-0.93,0.57c-0.14,0.24-0.15,0.57-0.02,0.99C129.93,56.14,130.18,56.45,130.56,56.65z"
   id="path452" />
	<path
   d="M130.47,59.41c0.23-0.33,0.61-0.54,1.14-0.65l2.66-0.53l0.2,0.97l-2.66,0.53c-0.32,0.06-0.53,0.19-0.65,0.37   s-0.14,0.44-0.08,0.76c0.05,0.23,0.13,0.44,0.26,0.62c0.13,0.18,0.28,0.34,0.47,0.46l3.09-0.62l0.19,0.96l-4.22,0.85l-0.18-0.88   l0.43-0.13c-0.44-0.37-0.72-0.86-0.84-1.46C130.18,60.15,130.24,59.74,130.47,59.41z"
   id="path454" />
	<path
   d="M131.77,64.09l0.12,0.83l-0.76,0.11l-0.12-0.83L131.77,64.09z"
   id="path456" />
	<path
   d="M135.58,65.79l0.07,0.85l-0.42,0.09c0.19,0.18,0.34,0.39,0.44,0.61c0.1,0.22,0.17,0.49,0.19,0.79   c0.05,0.64-0.08,1.14-0.39,1.5c-0.32,0.36-0.85,0.57-1.61,0.63c-0.76,0.06-1.35-0.07-1.76-0.38c-0.42-0.32-0.65-0.79-0.7-1.42   c-0.04-0.52,0.04-0.97,0.25-1.36l-2.22,0.18l-0.08-0.98L135.58,65.79z M132.58,69.06c0.28,0.18,0.68,0.25,1.21,0.21   c0.51-0.04,0.86-0.16,1.06-0.37c0.2-0.21,0.28-0.53,0.24-0.97c-0.04-0.44-0.22-0.79-0.54-1.07l-2.14,0.18   c-0.23,0.31-0.33,0.68-0.29,1.11C132.15,68.57,132.31,68.87,132.58,69.06z"
   id="path458" />
	<path
   d="M131.83,71.78c0.17-0.18,0.46-0.27,0.85-0.28l5.09-0.09l0.02,0.99l-5,0.08c-0.16,0-0.28,0.03-0.34,0.09   c-0.06,0.06-0.09,0.15-0.09,0.28c0,0.15,0.02,0.28,0.06,0.42l-0.72,0.01c-0.08-0.2-0.12-0.43-0.12-0.7   C131.58,72.23,131.66,71.95,131.83,71.78z"
   id="path460" />
</g>
</svg>
