<?xml version="1.0" encoding="UTF-8" standalone="no"?>
<!-- Generator: Adobe Illustrator 28.3.0, SVG Export Plug-In . SVG Version: 6.00 Build 0)  -->

<svg
   version="1.1"
   id="Warstwa_1"
   x="0px"
   y="0px"
   viewBox="0 0 141.73 141.73"
   style="enable-background:new 0 0 141.73 141.73;"
   xml:space="preserve"
   sodipodi:docname="wlepki_WI_final_bez_kolek_Obszar roboczy 1 kopia 4.svgz"
   xmlns:inkscape="http://www.inkscape.org/namespaces/inkscape"
   xmlns:sodipodi="http://sodipodi.sourceforge.net/DTD/sodipodi-0.dtd"
   xmlns="http://www.w3.org/2000/svg"
   xmlns:svg="http://www.w3.org/2000/svg"><defs
   id="defs665" /><sodipodi:namedview
   id="namedview663"
   pagecolor="#ffffff"
   bordercolor="#000000"
   borderopacity="0.25"
   inkscape:showpageshadow="2"
   inkscape:pageopacity="0.0"
   inkscape:pagecheckerboard="0"
   inkscape:deskcolor="#d1d1d1" />
<style
   type="text/css"
   id="style2">
	.st0{fill:#FFFFFF;}
	
		.st1{clip-path:url(#SVGID_00000119834818133235347950000016424541607246535060_);fill:none;stroke:#766357;stroke-width:0;stroke-miterlimit:10;}
	.st2{fill:#2C130C;}
	
		.st3{clip-path:url(#SVGID_00000111157021818380660810000002765857277619266997_);fill:none;stroke:#E0965B;stroke-width:0;stroke-miterlimit:10;}
	
		.st4{clip-path:url(#SVGID_00000111157021818380660810000002765857277619266997_);fill:none;stroke:#B9723E;stroke-width:0;stroke-miterlimit:10;}
	
		.st5{clip-path:url(#SVGID_00000111157021818380660810000002765857277619266997_);fill:none;stroke:#B66F3B;stroke-width:0;stroke-miterlimit:10;}
	
		.st6{clip-path:url(#SVGID_00000111157021818380660810000002765857277619266997_);fill:none;stroke:#AF6734;stroke-width:0;stroke-miterlimit:10;}
	
		.st7{clip-path:url(#SVGID_00000111157021818380660810000002765857277619266997_);fill:none;stroke:#B06B37;stroke-width:0;stroke-miterlimit:10;}
	
		.st8{clip-path:url(#SVGID_00000111157021818380660810000002765857277619266997_);fill:none;stroke:#BA8151;stroke-width:0;stroke-miterlimit:10;}
	
		.st9{clip-path:url(#SVGID_00000111157021818380660810000002765857277619266997_);fill:none;stroke:#BC7D4B;stroke-width:0;stroke-miterlimit:10;}
	
		.st10{clip-path:url(#SVGID_00000111157021818380660810000002765857277619266997_);fill:none;stroke:#B87542;stroke-width:0;stroke-miterlimit:10;}
	
		.st11{clip-path:url(#SVGID_00000111157021818380660810000002765857277619266997_);fill:none;stroke:#BB7D4B;stroke-width:0;stroke-miterlimit:10;}
	
		.st12{clip-path:url(#SVGID_00000111157021818380660810000002765857277619266997_);fill:none;stroke:#86512C;stroke-width:0;stroke-miterlimit:10;}
	
		.st13{clip-path:url(#SVGID_00000111157021818380660810000002765857277619266997_);fill:none;stroke:#C37D47;stroke-width:0;stroke-miterlimit:10;}
	
		.st14{clip-path:url(#SVGID_00000111157021818380660810000002765857277619266997_);fill:none;stroke:#CC8A54;stroke-width:0;stroke-miterlimit:10;}
	
		.st15{clip-path:url(#SVGID_00000111157021818380660810000002765857277619266997_);fill:none;stroke:#B37447;stroke-width:0;stroke-miterlimit:10;}
	
		.st16{clip-path:url(#SVGID_00000111157021818380660810000002765857277619266997_);fill:none;stroke:#A86734;stroke-width:0;stroke-miterlimit:10;}
	
		.st17{clip-path:url(#SVGID_00000111157021818380660810000002765857277619266997_);fill:none;stroke:#E9AF79;stroke-width:0;stroke-miterlimit:10;}
	
		.st18{clip-path:url(#SVGID_00000111157021818380660810000002765857277619266997_);fill:none;stroke:#AB6531;stroke-width:0;stroke-miterlimit:10;}
	
		.st19{clip-path:url(#SVGID_00000111157021818380660810000002765857277619266997_);fill:none;stroke:#B97C4B;stroke-width:0;stroke-miterlimit:10;}
	
		.st20{clip-path:url(#SVGID_00000111157021818380660810000002765857277619266997_);fill:none;stroke:#975A2D;stroke-width:0;stroke-miterlimit:10;}
	
		.st21{clip-path:url(#SVGID_00000111157021818380660810000002765857277619266997_);fill:none;stroke:#BE7F50;stroke-width:0;stroke-miterlimit:10;}
	
		.st22{clip-path:url(#SVGID_00000111157021818380660810000002765857277619266997_);fill:none;stroke:#9D6339;stroke-width:0;stroke-miterlimit:10;}
	
		.st23{clip-path:url(#SVGID_00000111157021818380660810000002765857277619266997_);fill:none;stroke:#B98559;stroke-width:0;stroke-miterlimit:10;}
	
		.st24{clip-path:url(#SVGID_00000111157021818380660810000002765857277619266997_);fill:none;stroke:#B36B38;stroke-width:0;stroke-miterlimit:10;}
	
		.st25{clip-path:url(#SVGID_00000111157021818380660810000002765857277619266997_);fill:none;stroke:#F2B681;stroke-width:0;stroke-miterlimit:10;}
	
		.st26{clip-path:url(#SVGID_00000111157021818380660810000002765857277619266997_);fill:none;stroke:#B16D3B;stroke-width:0;stroke-miterlimit:10;}
	
		.st27{clip-path:url(#SVGID_00000111157021818380660810000002765857277619266997_);fill:none;stroke:#C58451;stroke-width:0;stroke-miterlimit:10;}
	
		.st28{clip-path:url(#SVGID_00000111157021818380660810000002765857277619266997_);fill:none;stroke:#B77E55;stroke-width:0;stroke-miterlimit:10;}
	
		.st29{clip-path:url(#SVGID_00000111157021818380660810000002765857277619266997_);fill:none;stroke:#99633E;stroke-width:0;stroke-miterlimit:10;}
	
		.st30{clip-path:url(#SVGID_00000111157021818380660810000002765857277619266997_);fill:none;stroke:#6A3D23;stroke-width:0;stroke-miterlimit:10;}
	
		.st31{clip-path:url(#SVGID_00000111157021818380660810000002765857277619266997_);fill:none;stroke:#836346;stroke-width:0;stroke-miterlimit:10;}
	
		.st32{clip-path:url(#SVGID_00000111157021818380660810000002765857277619266997_);fill:none;stroke:#9F7049;stroke-width:0;stroke-miterlimit:10;}
	
		.st33{clip-path:url(#SVGID_00000111157021818380660810000002765857277619266997_);fill:none;stroke:#B77746;stroke-width:0;stroke-miterlimit:10;}
	
		.st34{clip-path:url(#SVGID_00000111157021818380660810000002765857277619266997_);fill:none;stroke:#794525;stroke-width:0;stroke-miterlimit:10;}
	
		.st35{clip-path:url(#SVGID_00000111157021818380660810000002765857277619266997_);fill:none;stroke:#9B6842;stroke-width:0;stroke-miterlimit:10;}
	
		.st36{clip-path:url(#SVGID_00000111157021818380660810000002765857277619266997_);fill:none;stroke:#98633E;stroke-width:0;stroke-miterlimit:10;}
	
		.st37{clip-path:url(#SVGID_00000111157021818380660810000002765857277619266997_);fill:none;stroke:#9A643F;stroke-width:0;stroke-miterlimit:10;}
	
		.st38{clip-path:url(#SVGID_00000111157021818380660810000002765857277619266997_);fill:none;stroke:#6B3F23;stroke-width:0;stroke-miterlimit:10;}
	
		.st39{clip-path:url(#SVGID_00000111157021818380660810000002765857277619266997_);fill:none;stroke:#B0784C;stroke-width:0;stroke-miterlimit:10;}
	
		.st40{clip-path:url(#SVGID_00000111157021818380660810000002765857277619266997_);fill:none;stroke:#836347;stroke-width:0;stroke-miterlimit:10;}
	
		.st41{clip-path:url(#SVGID_00000111157021818380660810000002765857277619266997_);fill:none;stroke:#805B3F;stroke-width:0;stroke-miterlimit:10;}
	
		.st42{clip-path:url(#SVGID_00000111157021818380660810000002765857277619266997_);fill:none;stroke:#9D6F4A;stroke-width:0;stroke-miterlimit:10;}
	
		.st43{clip-path:url(#SVGID_00000111157021818380660810000002765857277619266997_);fill:none;stroke:#69432B;stroke-width:0;stroke-miterlimit:10;}
	
		.st44{clip-path:url(#SVGID_00000111157021818380660810000002765857277619266997_);fill:none;stroke:#816247;stroke-width:0;stroke-miterlimit:10;}
	
		.st45{clip-path:url(#SVGID_00000111157021818380660810000002765857277619266997_);fill:none;stroke:#683D22;stroke-width:0;stroke-miterlimit:10;}
	
		.st46{clip-path:url(#SVGID_00000111157021818380660810000002765857277619266997_);fill:none;stroke:#4B2F1F;stroke-width:0;stroke-miterlimit:10;}
	
		.st47{clip-path:url(#SVGID_00000111157021818380660810000002765857277619266997_);fill:none;stroke:#64361E;stroke-width:0;stroke-miterlimit:10;}
	
		.st48{clip-path:url(#SVGID_00000111157021818380660810000002765857277619266997_);fill:none;stroke:#AA6F46;stroke-width:0;stroke-miterlimit:10;}
	
		.st49{clip-path:url(#SVGID_00000111157021818380660810000002765857277619266997_);fill:none;stroke:#A9724F;stroke-width:0;stroke-miterlimit:10;}
	
		.st50{clip-path:url(#SVGID_00000111157021818380660810000002765857277619266997_);fill:none;stroke:#695342;stroke-width:0;stroke-miterlimit:10;}
	
		.st51{clip-path:url(#SVGID_00000111157021818380660810000002765857277619266997_);fill:none;stroke:#675241;stroke-width:0;stroke-miterlimit:10;}
	
		.st52{clip-path:url(#SVGID_00000111157021818380660810000002765857277619266997_);fill:none;stroke:#7A604E;stroke-width:0;stroke-miterlimit:10;}
	.st53{fill:#E99D63;}
	.st54{fill:#854016;}
	.st55{fill:#88471B;}
	.st56{fill:#9D7550;}
	.st57{fill:#D79054;}
	
		.st58{clip-path:url(#SVGID_00000143579504321108028690000004170074967330938803_);fill:none;stroke:#825032;stroke-width:0;stroke-miterlimit:10;}
	
		.st59{clip-path:url(#SVGID_00000143579504321108028690000004170074967330938803_);fill:none;stroke:#A86E45;stroke-width:0;stroke-miterlimit:10;}
	
		.st60{clip-path:url(#SVGID_00000143579504321108028690000004170074967330938803_);fill:none;stroke:#5B2F17;stroke-width:0;stroke-miterlimit:10;}
	
		.st61{clip-path:url(#SVGID_00000143579504321108028690000004170074967330938803_);fill:none;stroke:#BB865A;stroke-width:0;stroke-miterlimit:10;}
	.st62{fill:#31140D;}
	.st63{fill:#634E3C;}
	.st64{fill:#9B6842;}
	.st65{fill:#552410;}
	.st66{fill:#CF8F5E;}
	.st67{fill:#834E29;}
	.st68{fill:#F1EBE4;}
	.st69{fill:#9D744E;}
	.st70{fill:#7B3F17;}
	.st71{fill:#67513D;}
	.st72{fill:#FCCF9F;}
	.st73{fill:#7E3B11;}
	.st74{fill:#783D14;}
	.st75{fill:#F8C795;}
	.st76{fill:#8E4E22;}
	.st77{fill:#7C431B;}
	.st78{fill:#975A2F;}
	.st79{fill:#A06B43;}
	.st80{fill:#A2602F;}
	.st81{fill:#BF8353;}
	.st82{fill:#A16B42;}
	
		.st83{clip-path:url(#SVGID_00000005246396298536439320000016950733121193438368_);fill:none;stroke:#AA6F46;stroke-width:0;stroke-miterlimit:10;}
	.st84{fill:#DB935D;}
	.st85{fill:#AC7748;}
	.st86{fill:#9F6942;}
	.st87{fill:#AF6B39;}
	.st88{fill:#905A39;}
	.st89{fill:#CF9368;}
	.st90{fill:#935C3A;}
	.st91{fill:#BD845E;}
	.st92{fill:#956141;}
	.st93{fill:#564233;}
	.st94{fill:#7A6451;}
	.st95{fill:#523E30;}
	.st96{fill:#7A5C4A;}
	.st97{fill:#BBB4A8;}
	.st98{fill:#DBE2EE;}
	.st99{fill:#38276B;}
	.st100{opacity:0.25;}
	.st101{fill:#D79D77;}
	.st102{fill:#BD8560;}
	.st103{fill:#253168;}
	.st104{fill:#71B744;}
	.st105{opacity:0.3;}
	.st106{fill:#3A343F;}
	.st107{fill:#B17F4F;}
	.st108{fill:#8E5C3A;}
	.st109{opacity:0.6;}
	.st110{fill:#CECCD4;}
	.st111{fill:#FEEDE5;}
	.st112{fill:#A96B40;}
	.st113{fill:#252A5B;}
	.st114{fill:#EAE9F6;}
	.st115{fill:#888BAE;}
	.st116{fill:#262D60;}
	.st117{fill:#FFDF45;}
	.st118{fill:#E9487A;}
	.st119{fill:#7BC39F;}
	.st120{opacity:0.15;}
	.st121{fill:#F7A42D;}
	.st122{fill:#6C7092;}
	.st123{fill:#5698D2;}
	.st124{opacity:0.2;}
	.st125{fill:#262B5F;}
	.st126{fill:#9E9E9E;}
	.st127{fill:#8F90B3;}
	.st128{fill:#6A6A69;}
	.st129{fill:#3B3A3A;}
	.st130{fill:#E9E8E8;}
	.st131{opacity:0.5;}
	.st132{fill:#EF7E81;}
	.st133{fill:#EB5E67;}
	.st134{fill:#78CCF2;}
	.st135{fill:#61A2D9;}
	.st136{fill:#87CFE5;}
	.st137{fill:#4F5C6C;}
	.st138{fill:#605F82;}
	.st139{fill:#F7D5D5;}
	.st140{fill:#6F7189;}
	.st141{fill:#434880;}
	.st142{fill:#EFEFEF;}
	.st143{fill:none;stroke:#262B5F;stroke-width:47.1961;stroke-linejoin:round;stroke-miterlimit:10;}
	.st144{filter:url(#Adobe_OpacityMaskFilter);}
	.st145{filter:url(#Adobe_OpacityMaskFilter_00000112607922449140940820000000448316245273843077_);}
	
		.st146{mask:url(#SVGID_00000033358312137013653850000009068672713609005190_);fill:url(#SVGID_00000094607522267272233470000017699838493588191375_);}
	.st147{fill:url(#SVGID_00000159427711929386399160000016489207420704582276_);}
	.st148{fill:#C0BECC;}
	.st149{opacity:0.7;}
</style>
<polygon
   class="st0"
   points="49.65,42.25 54.62,44.58 56.24,39.57 "
   id="polygon4" />
<g
   id="g170">
	<g
   id="g8">
		<path
   class="st114"
   d="M72.07,93.9c0,0.66-0.46,1.23-1.1,1.38l-20.95,4.81c-0.41,0.09-0.83,0.11-1.24,0.03l-25.83-4.48    c-1.05-0.18-1.9-0.98-2.14-2.02c-0.13-0.53-0.08-1.05,0.09-1.52c0.34-0.93,1.19-1.64,2.26-1.73l27.19-2.39l14.87,3.27l5.75,1.26    c0.32,0.07,0.6,0.25,0.8,0.49C71.96,93.25,72.07,93.57,72.07,93.9"
   id="path6" />
	</g>
	<g
   id="g12">
		<path
   class="st115"
   d="M43.31,95.53l-11.92-2.52c-0.21-0.04-0.2-0.35,0.01-0.38l20.45-3.02c0.02,0,0.05,0,0.07,0l9.17,2.11    c0.2,0.05,0.2,0.34-0.01,0.38l-17.69,3.43C43.36,95.54,43.34,95.54,43.31,95.53"
   id="path10" />
	</g>
	<g
   id="g16">
		<path
   class="st116"
   d="M47.23,95.06c-0.02,0-0.04,0-0.05-0.01L34.12,92.5c-0.15-0.03-0.25-0.18-0.22-0.33    c0.03-0.15,0.18-0.25,0.33-0.22l13.06,2.56c0.15,0.03,0.25,0.18,0.22,0.33C47.48,94.97,47.36,95.06,47.23,95.06z"
   id="path14" />
	</g>
	<g
   id="g20">
		<path
   class="st116"
   d="M33.48,93.73c-0.13,0-0.25-0.1-0.27-0.23c-0.02-0.15,0.08-0.29,0.23-0.32l20.66-3.33    c0.15-0.02,0.29,0.08,0.32,0.23c0.02,0.15-0.08,0.29-0.23,0.32l-20.66,3.33C33.51,93.73,33.5,93.73,33.48,93.73z"
   id="path18" />
	</g>
	<g
   id="g24">
		<path
   class="st116"
   d="M36.73,94.42c-0.13,0-0.25-0.1-0.27-0.23c-0.03-0.15,0.08-0.29,0.23-0.32l19.37-3.33    c0.15-0.03,0.29,0.08,0.32,0.23c0.03,0.15-0.08,0.29-0.23,0.32l-19.37,3.33C36.76,94.42,36.74,94.42,36.73,94.42z"
   id="path22" />
	</g>
	<g
   id="g28">
		<path
   class="st116"
   d="M40.07,95.12c-0.13,0-0.25-0.09-0.27-0.23c-0.03-0.15,0.07-0.3,0.22-0.32l18.94-3.6    c0.15-0.03,0.3,0.07,0.32,0.22c0.03,0.15-0.07,0.3-0.22,0.32l-18.94,3.6C40.1,95.12,40.08,95.12,40.07,95.12z"
   id="path26" />
	</g>
	<g
   id="g32">
		<path
   class="st116"
   d="M50.35,94.46c-0.02,0-0.04,0-0.06-0.01L38.13,91.9c-0.15-0.03-0.25-0.18-0.21-0.33    c0.03-0.15,0.18-0.25,0.33-0.21l12.17,2.55c0.15,0.03,0.25,0.18,0.21,0.33C50.6,94.37,50.48,94.46,50.35,94.46z"
   id="path30" />
	</g>
	<g
   id="g36">
		<path
   class="st116"
   d="M56.47,93.03c-0.02,0-0.04,0-0.06-0.01l-10.06-2.34c-0.15-0.03-0.24-0.18-0.21-0.33    c0.03-0.15,0.18-0.24,0.33-0.21l10.06,2.34c0.15,0.03,0.24,0.18,0.21,0.33C56.71,92.95,56.6,93.03,56.47,93.03z"
   id="path34" />
	</g>
	<g
   id="g40">
		<path
   class="st116"
   d="M50.81,93.08c-0.02,0-0.04,0-0.06-0.01l-8.32-1.81c-0.15-0.03-0.24-0.18-0.21-0.33    c0.03-0.15,0.18-0.24,0.33-0.21l8.32,1.81c0.15,0.03,0.24,0.18,0.21,0.33C51.06,92.99,50.94,93.08,50.81,93.08z"
   id="path38" />
	</g>
	<g
   id="g44">
		<path
   class="st116"
   d="M58.17,92.32c-0.02,0-0.04,0-0.07-0.01l-8.64-2.08c-0.15-0.04-0.24-0.19-0.2-0.33    c0.04-0.15,0.19-0.24,0.33-0.2l8.64,2.08c0.15,0.04,0.24,0.19,0.2,0.33C58.41,92.23,58.3,92.32,58.17,92.32z"
   id="path42" />
	</g>
	<g
   id="g48">
		<path
   class="st116"
   d="M43.35,95.81c-0.03,0-0.06,0-0.1-0.01c0,0,0,0,0,0l-11.92-2.52c-0.23-0.05-0.38-0.24-0.37-0.47    c0.01-0.23,0.17-0.42,0.4-0.45l20.44-3.02c0.06-0.01,0.12-0.01,0.17,0.01l9.17,2.11c0.22,0.05,0.37,0.24,0.36,0.47    c0,0.22-0.16,0.41-0.38,0.45L43.44,95.8C43.41,95.81,43.38,95.81,43.35,95.81z M43.37,95.26L43.37,95.26L43.37,95.26z M31.9,92.84    l11.45,2.42l17.28-3.35l-8.77-2.02L31.9,92.84z"
   id="path46" />
	</g>
	<g
   class="st105"
   id="g56">
		<g
   id="g54">
			<g
   id="g52">
				<path
   class="st113"
   d="M72.07,93.9c0,0.66-0.46,1.23-1.1,1.38l-20.95,4.81c-0.41,0.09-0.83,0.11-1.24,0.03l-25.83-4.48      c-1.05-0.18-1.9-0.98-2.14-2.02c-0.13-0.53-0.08-1.05,0.09-1.52c0.35,0.01,0.78,0.07,1.33,0.21c0,0,35.43,6.92,42.99-1.07      l5.75,1.26c0.32,0.07,0.6,0.25,0.8,0.49C71.96,93.25,72.07,93.57,72.07,93.9"
   id="path50" />
			</g>
		</g>
	</g>
	<g
   id="g60">
		<path
   class="st116"
   d="M49.22,98.52c-0.17,0-0.35-0.02-0.52-0.05l-27.9-5.9c-0.29-0.06-0.48-0.35-0.42-0.64    c0.06-0.29,0.35-0.48,0.64-0.42l27.9,5.9c0.2,0.04,0.4,0.04,0.59,0l22.17-4.86c0.29-0.06,0.58,0.12,0.65,0.41    c0.06,0.29-0.12,0.58-0.41,0.65l-22.17,4.86C49.58,98.5,49.4,98.52,49.22,98.52z"
   id="path58" />
	</g>
	<g
   id="g64">
		<path
   class="st116"
   d="M49.32,100.71c-0.21,0-0.42-0.02-0.63-0.05l-25.83-4.48c-1.27-0.22-2.28-1.17-2.58-2.43    c-0.21-0.9-0.03-1.85,0.52-2.61c0.54-0.75,1.39-1.23,2.31-1.31l27.19-2.39c0.05,0,0.11,0,0.16,0.01l20.62,4.54    c0.89,0.2,1.54,1,1.54,1.91c0,0.92-0.62,1.7-1.52,1.91l-20.95,4.81C49.88,100.68,49.6,100.71,49.32,100.71z M50.3,88.53    l-27.1,2.38c-0.61,0.05-1.17,0.37-1.53,0.87c-0.36,0.5-0.48,1.12-0.34,1.72c0.2,0.83,0.87,1.46,1.71,1.61l25.83,4.48    c0.34,0.06,0.69,0.05,1.03-0.03l20.95-4.81c0.4-0.09,0.68-0.44,0.68-0.85c0-0.41-0.29-0.76-0.68-0.85L50.3,88.53z"
   id="path62" />
	</g>
	<g
   id="g68">
		<path
   class="st114"
   d="M22.82,91.91l26.98-3.56c1.47-0.19,2.42-1.67,1.97-3.09l-6.52-20.83c-0.3-0.97-1.18-1.64-2.2-1.68    l-28.43-1.07c-1.94-0.07-3.36,1.8-2.77,3.65l7.94,24.65C20.21,91.28,21.48,92.08,22.82,91.91"
   id="path66" />
	</g>
	<g
   class="st105"
   id="g76">
		<g
   id="g74">
			<g
   id="g72">
				<path
   class="st113"
   d="M50.25,86.85l-26.64,3.51c-1.32,0.17-2.58-0.62-2.99-1.89l-7.84-24.34c-0.21-0.66-0.16-1.32,0.07-1.9      c-0.92,0.68-1.4,1.9-1.01,3.11l7.94,24.65c0.41,1.29,1.69,2.09,3.03,1.92l26.98-3.56c1.27-0.17,2.14-1.28,2.08-2.49      C51.51,86.38,50.94,86.76,50.25,86.85"
   id="path70" />
			</g>
		</g>
	</g>
	<g
   class="st109"
   id="g84">
		<g
   id="g82">
			<g
   id="g80">
				<path
   class="st0"
   d="M14.79,63.04l28.43,1.07c1.01,0.04,1.89,0.71,2.2,1.68l6.43,20.55c0.05-0.35,0.03-0.71-0.08-1.08      l-6.52-20.83c-0.3-0.97-1.18-1.64-2.2-1.68l-28.43-1.07c-1.94-0.07-3.36,1.8-2.77,3.65l0.05,0.17      C12.08,64.12,13.28,62.99,14.79,63.04"
   id="path78" />
			</g>
		</g>
	</g>
	<g
   id="g88">
		<path
   class="st113"
   d="M47.51,84.33l-3.29,0.35l-2.84,0.31l-3.83,0.41l-4.8,0.52l-9.28,1c-0.6,0.07-1.16-0.31-1.34-0.88    l-5.73-18.83c-0.25-0.82,0.37-1.64,1.23-1.63l2.26,0.04l5.19,0.1l4.14,0.08l3.08,0.06l10.08,0.2c0.54,0.01,1.01,0.36,1.18,0.88    l5.02,15.74C48.82,83.45,48.31,84.24,47.51,84.33"
   id="path86" />
	</g>
	<g
   id="g92">
		<path
   class="st117"
   d="M30.84,68.93C30.84,68.93,30.84,68.93,30.84,68.93l-6.47-0.06c-0.19,0-0.34-0.16-0.34-0.34    c0-0.19,0.15-0.34,0.34-0.34c0,0,0,0,0,0l6.47,0.06c0.19,0,0.34,0.16,0.34,0.34C31.18,68.78,31.03,68.93,30.84,68.93z"
   id="path90" />
	</g>
	<g
   id="g96">
		<path
   class="st117"
   d="M21.6,68.84C21.6,68.84,21.6,68.84,21.6,68.84l-2.32-0.02c-0.19,0-0.34-0.16-0.34-0.34    c0-0.19,0.15-0.34,0.34-0.34c0,0,0,0,0,0l2.32,0.02c0.19,0,0.34,0.16,0.34,0.34C21.94,68.69,21.79,68.84,21.6,68.84z"
   id="path94" />
	</g>
	<g
   id="g100">
		<path
   class="st118"
   d="M23.02,79.4c-0.18,0-0.33-0.14-0.34-0.32c-0.01-0.19,0.13-0.35,0.32-0.36l2.31-0.12    c0.18-0.01,0.35,0.13,0.36,0.32c0.01,0.19-0.13,0.35-0.32,0.36l-2.31,0.12C23.03,79.4,23.02,79.4,23.02,79.4z"
   id="path98" />
	</g>
	<g
   id="g104">
		<path
   class="st119"
   d="M29.33,79.02c-0.18,0-0.33-0.14-0.34-0.33c-0.01-0.19,0.14-0.35,0.33-0.35l4.99-0.2    c0.19-0.01,0.35,0.14,0.35,0.33c0.01,0.19-0.14,0.35-0.33,0.35l-4.99,0.2C29.34,79.02,29.34,79.02,29.33,79.02z"
   id="path102" />
	</g>
	<g
   id="g108">
		<path
   class="st118"
   d="M37.46,78.72c-0.18,0-0.33-0.14-0.34-0.33c-0.01-0.19,0.14-0.35,0.33-0.35l3.01-0.12    c0.19-0.01,0.35,0.14,0.35,0.33c0.01,0.19-0.14,0.35-0.33,0.35l-3.01,0.12C37.47,78.72,37.47,78.72,37.46,78.72z"
   id="path106" />
	</g>
	<g
   id="g112">
		<path
   class="st118"
   d="M21.64,75.72c-0.19,0-0.34-0.15-0.34-0.34c0-0.19,0.15-0.34,0.33-0.34l2.32-0.03c0,0,0,0,0.01,0    c0.19,0,0.34,0.15,0.34,0.34c0,0.19-0.15,0.34-0.33,0.34L21.64,75.72C21.65,75.72,21.64,75.72,21.64,75.72z"
   id="path110" />
	</g>
	<g
   id="g116">
		<path
   class="st118"
   d="M38.86,75.39c-0.19,0-0.34-0.15-0.34-0.34c0-0.19,0.15-0.34,0.34-0.34l4.99-0.01c0,0,0,0,0,0    c0.19,0,0.34,0.15,0.34,0.34c0,0.19-0.15,0.34-0.34,0.34L38.86,75.39C38.86,75.39,38.86,75.39,38.86,75.39z"
   id="path114" />
	</g>
	<g
   id="g120">
		<path
   class="st119"
   d="M27.5,75.56c-0.19,0-0.34-0.15-0.34-0.34c0-0.19,0.15-0.34,0.33-0.34l8.06-0.12c0,0,0,0,0.01,0    c0.19,0,0.34,0.15,0.34,0.34c0,0.19-0.15,0.34-0.33,0.34L27.5,75.56C27.51,75.56,27.5,75.56,27.5,75.56z"
   id="path118" />
	</g>
	<g
   id="g124">
		<path
   class="st117"
   d="M24.21,82.97c-0.18,0-0.33-0.14-0.34-0.32c-0.01-0.19,0.13-0.35,0.32-0.36l2.31-0.15    c0.19-0.01,0.35,0.13,0.36,0.32c0.01,0.19-0.13,0.35-0.32,0.36l-2.31,0.15C24.22,82.97,24.22,82.97,24.21,82.97z"
   id="path122" />
	</g>
	<g
   id="g128">
		<path
   class="st119"
   d="M30.33,82.56c-0.18,0-0.33-0.14-0.34-0.32c-0.01-0.19,0.13-0.35,0.32-0.36l8.05-0.47    c0.18-0.02,0.35,0.13,0.36,0.32c0.01,0.19-0.13,0.35-0.32,0.36l-8.05,0.47C30.35,82.56,30.34,82.56,30.33,82.56z"
   id="path126" />
	</g>
	<g
   id="g132">
		<path
   class="st117"
   d="M20.48,72.24c-0.19,0-0.34-0.15-0.34-0.34c0-0.19,0.15-0.34,0.34-0.34l2.32,0c0,0,0,0,0,0    c0.19,0,0.34,0.15,0.34,0.34c0,0.19-0.15,0.34-0.34,0.34L20.48,72.24C20.48,72.24,20.48,72.24,20.48,72.24z"
   id="path130" />
	</g>
	<g
   id="g136">
		<path
   class="st117"
   d="M27.64,71.96c-0.19,0-0.34-0.15-0.34-0.34c0-0.19,0.15-0.34,0.34-0.34l4.99-0.01c0,0,0,0,0,0    c0.19,0,0.34,0.15,0.34,0.34c0,0.19-0.15,0.34-0.34,0.34L27.64,71.96C27.64,71.96,27.64,71.96,27.64,71.96z"
   id="path134" />
	</g>
	<g
   id="g140">
		<path
   class="st119"
   d="M36.33,72c-0.19,0-0.34-0.15-0.34-0.34c0-0.19,0.15-0.34,0.34-0.34l4.99-0.01c0,0,0,0,0,0    c0.19,0,0.34,0.15,0.34,0.34c0,0.19-0.15,0.34-0.34,0.34L36.33,72C36.33,72,36.33,72,36.33,72z"
   id="path138" />
	</g>
	<g
   class="st120"
   id="g148">
		<g
   id="g146">
			<g
   id="g144">
				<polygon
   class="st0"
   points="37.56,85.4 32.76,85.92 19.9,65.63 25.09,65.73     "
   id="polygon142" />
			</g>
		</g>
	</g>
	<g
   class="st120"
   id="g156">
		<g
   id="g154">
			<g
   id="g152">
				<polygon
   class="st0"
   points="44.23,84.68 41.38,84.99 29.23,65.81 32.31,65.87     "
   id="polygon150" />
			</g>
		</g>
	</g>
	<g
   id="g160">
		<path
   class="st116"
   d="M23.35,87.47c-0.78,0-1.49-0.51-1.72-1.28l-5.73-18.83c-0.17-0.56-0.07-1.15,0.29-1.61    c0.35-0.47,0.89-0.74,1.47-0.71l24.75,0.49c0.77,0.02,1.45,0.52,1.68,1.26l5.01,15.74c0.17,0.52,0.09,1.08-0.21,1.53    c-0.3,0.46-0.78,0.75-1.32,0.81l-24.03,2.6C23.48,87.47,23.41,87.47,23.35,87.47z M17.61,66.12c-0.23,0-0.43,0.1-0.57,0.28    c-0.14,0.18-0.18,0.42-0.11,0.64l5.73,18.83c0.1,0.33,0.42,0.54,0.76,0.5l24.03-2.6c0.21-0.02,0.41-0.14,0.52-0.32    c0.12-0.18,0.15-0.4,0.08-0.61l-5.01-15.74c-0.09-0.29-0.36-0.49-0.67-0.5l-24.75-0.49l0,0C17.62,66.12,17.62,66.12,17.61,66.12z"
   id="path158" />
	</g>
	<g
   id="g164">
		<path
   class="st116"
   d="M22.45,92.48c-1.43,0-2.73-0.92-3.18-2.32L11.34,65.5c-0.33-1.04-0.14-2.17,0.52-3.04    c0.67-0.88,1.69-1.36,2.79-1.32l28.43,1.07c1.24,0.05,2.32,0.87,2.69,2.06l6.52,20.83c0.26,0.83,0.14,1.73-0.33,2.46    s-1.23,1.22-2.09,1.33l-26.98,3.56C22.75,92.47,22.6,92.48,22.45,92.48z M14.51,62.22c-0.71,0-1.36,0.32-1.79,0.89    c-0.45,0.59-0.58,1.34-0.35,2.05l7.94,24.65c0.33,1.04,1.36,1.69,2.44,1.54c0,0,0,0,0,0l26.98-3.56c0.54-0.07,1.02-0.38,1.32-0.84    c0.29-0.46,0.37-1.03,0.21-1.55L44.73,64.6c-0.23-0.75-0.92-1.27-1.7-1.3L14.6,62.23C14.57,62.22,14.54,62.22,14.51,62.22z"
   id="path162" />
	</g>
	<g
   id="g168">
		<path
   class="st116"
   d="M55.61,91.58c-0.2-0.32-0.4-0.65-0.67-0.93c-0.26-0.29-0.55-0.55-0.88-0.78c-0.66-0.46-1.42-0.81-2.25-1.1    c0,0-0.01-0.01-0.01-0.01c0,0,0-0.01,0.01-0.01c0.44-0.07,0.89-0.05,1.34,0.02c0.45,0.07,0.88,0.22,1.3,0.41    c0.42,0.19,0.82,0.45,1.18,0.76c0.37,0.3,0.66,0.69,0.92,1.09c0.16,0.25,0.09,0.59-0.16,0.75c-0.25,0.16-0.59,0.09-0.75-0.16    c0,0,0,0,0,0L55.61,91.58z"
   id="path166" />
	</g>
</g>
<g
   id="g560">
	<g
   class="st124"
   id="g174">
		<ellipse
   class="st125"
   cx="89.96"
   cy="95.52"
   rx="35.72"
   ry="3.64"
   id="ellipse172" />
	</g>
	<g
   id="g178">
		<path
   class="st126"
   d="M116.71,96.04c-11.4,0-29.87,0-34.15,0c-9.51,0-14.5-4.83-16.49-10.97c-2.08-6.44,3.2-16.29,3.2-16.29    s12.76,0.47,22.64,1.2c7.82,0.58,9.79,1.39,12.67,4.05c4.55,4.19,4.46,10.45,4.46,10.45s5.36-0.04,10.28,1.32    C125.14,87.4,126.36,96.04,116.71,96.04z"
   id="path176" />
	</g>
	<g
   id="g182">
		<path
   class="st127"
   d="M116.71,96.04H82.56c-9.51,0-14.5-4.83-16.49-10.97c-1.74-5.39,1.67-13.16,2.83-15.56    c0.23-0.47,0.37-0.73,0.37-0.73s11.15,0.41,20.68,1.06c0.66,0.04,1.32,0.09,1.96,0.14c7.81,0.58,9.79,1.39,12.67,4.05    c4.55,4.19,4.46,10.45,4.46,10.45s2.44-0.02,5.54,0.39c1.49,0.19,3.14,0.49,4.74,0.93C125.14,87.4,126.36,96.04,116.71,96.04z"
   id="path180" />
	</g>
	<g
   class="st120"
   id="g186">
		<path
   class="st125"
   d="M105.01,96.04H82.56c-9.51,0-14.5-4.83-16.49-10.97c-1.74-5.39,1.67-13.16,2.83-15.56    c0.23-0.47,0.37-0.73,0.37-0.73s11.15,0.41,20.68,1.06c1,1.56,1.83,3.35,1.35,4.47c-1.44,3.38-12.91,6.28-14.5,10.44    c-1.36,3.54,1.52,6.02,4.67,6.59c9.48,1.72,13.96-10.37,17.37-7.42C100.81,85.63,103.28,91.44,105.01,96.04z"
   id="path184" />
	</g>
	<g
   id="g190">
		<path
   class="st128"
   d="M102.03,96.04H82.56c-9.51,0-14.5-4.83-16.49-10.97c-1.74-5.39,1.67-13.16,2.83-15.56    c8.65,1.02,17.48,4.5,17.79,6.27c0.12,0.69-0.13,1.47-0.47,2.37c-3.8,1.99-8.45,4.06-9.42,6.6c-1.36,3.54,1.52,6.02,4.67,6.59    c2.83,0.51,5.22-0.2,7.26-1.38c4.53,2.94,11.73,3.24,11.73,3.24L102.03,96.04z"
   id="path188" />
	</g>
	<g
   id="g194">
		<path
   class="st0"
   d="M116.71,96.04h-2.82c1.19-1.77,2.61-5.36,0.71-11.17c1.49,0.19,3.14,0.49,4.74,0.93    C125.14,87.4,126.36,96.04,116.71,96.04z"
   id="path192" />
	</g>
	<g
   class="st120"
   id="g198">
		<path
   class="st125"
   d="M116.71,96.04h-2.82c1.19-1.77,2.61-5.36,0.71-11.17c0.53,0.07,1.09,0.15,1.65,0.25    c1.68,1.18,4.27,2.9,4.6,6.58c0.07,0.81,1.13,1.09,1.57,0.41c0.46-0.7,0.85-1.7,0.9-3.06C124.78,92.1,123.22,96.04,116.71,96.04z"
   id="path196" />
	</g>
	<g
   id="g202">
		<path
   class="st125"
   d="M119.9,93.86c0.12,0.02,0.27,0.04,0.4,0.04c0.14,0.01,0.28,0,0.42,0c0.28-0.02,0.55-0.06,0.8-0.14    c0.13-0.03,0.25-0.09,0.37-0.13c0.06-0.03,0.12-0.06,0.17-0.09c0.06-0.03,0.11-0.06,0.17-0.1c0.22-0.13,0.41-0.31,0.58-0.48    l0.02-0.02c0.22-0.23,0.59-0.23,0.81,0c0.23,0.22,0.23,0.59,0,0.81c-0.02,0.02-0.04,0.04-0.06,0.06    c-0.28,0.21-0.58,0.41-0.91,0.54c-0.08,0.04-0.16,0.07-0.24,0.09c-0.08,0.03-0.16,0.05-0.25,0.08c-0.17,0.04-0.33,0.08-0.5,0.1    c-0.33,0.04-0.67,0.05-0.99,0.01c-0.16-0.02-0.32-0.04-0.48-0.08c-0.16-0.03-0.31-0.07-0.48-0.13c-0.15-0.05-0.23-0.21-0.18-0.36    c0.05-0.13,0.18-0.21,0.32-0.19L119.9,93.86z"
   id="path200" />
	</g>
	<g
   id="g206">
		<path
   class="st125"
   d="M120.83,89.43c0.27-0.02,0.51-0.02,0.77-0.01c0.25,0.01,0.51,0.03,0.77,0.07c0.26,0.04,0.52,0.09,0.78,0.17    c0.26,0.08,0.52,0.19,0.78,0.34l0,0c0.28,0.16,0.37,0.51,0.22,0.79c-0.16,0.28-0.51,0.37-0.79,0.22    c-0.03-0.02-0.07-0.04-0.09-0.07c-0.14-0.12-0.31-0.24-0.5-0.34c-0.19-0.1-0.39-0.19-0.6-0.26c-0.21-0.07-0.43-0.14-0.66-0.19    c-0.22-0.05-0.46-0.1-0.68-0.12l-0.01,0c-0.16-0.02-0.27-0.16-0.25-0.32C120.59,89.54,120.7,89.44,120.83,89.43z"
   id="path204" />
	</g>
	<g
   id="g210">
		<path
   class="st0"
   d="M102.03,96.04H82.56c-9.51,0-14.5-4.83-16.49-10.97c-1.74-5.39,1.67-13.16,2.83-15.56    c8.65,1.02,17.48,4.49,17.79,6.27c0.4,2.31-3.35,5.72-1,10.88c2.75,6.03,14.76,6.54,14.76,6.54L102.03,96.04z"
   id="path208" />
	</g>
	<g
   class="st120"
   id="g214">
		<path
   class="st125"
   d="M102.03,96.04H82.56c-9.51,0-14.5-4.83-16.49-10.97c-1.74-5.39,1.67-13.16,2.83-15.56    c8.65,1.02,17.48,4.5,17.79,6.27c0.12,0.69-0.13,1.47-0.47,2.37c-3.8,1.99-8.45,4.06-9.42,6.6c-1.36,3.54,1.52,6.02,4.67,6.59    c2.83,0.51,5.22-0.2,7.26-1.38c4.53,2.94,11.73,3.24,11.73,3.24L102.03,96.04z"
   id="path212" />
	</g>
	<g
   id="g218">
		<path
   class="st129"
   d="M116.71,96.61H82.56c-4.6,0-8.43-1.11-11.4-3.29c-2.63-1.93-4.52-4.65-5.63-8.07    c-2.13-6.6,3.02-16.32,3.24-16.73l0.17-0.31l0.36,0.01c0.13,0,12.88,0.48,22.66,1.2c7.99,0.59,10.06,1.47,13.02,4.2    c3.92,3.61,4.54,8.61,4.63,10.3c1.51,0.03,5.81,0.21,9.88,1.34c3.11,0.86,5.25,3.76,4.87,6.6    C124.21,92.97,123.21,96.61,116.71,96.61z M69.62,69.37c-0.86,1.71-4.78,10.02-3,15.52c1.56,4.82,5.59,10.57,15.94,10.57h34.15    c3.76,0,6.19-1.41,6.51-3.77c0.27-2-1.16-4.55-4.04-5.34c-4.78-1.32-10.08-1.3-10.13-1.3l-0.58,0l0.01-0.58    c0-0.06,0.02-6.06-4.28-10.02c-2.77-2.55-4.62-3.33-12.33-3.9C83.05,69.9,71.78,69.45,69.62,69.37z"
   id="path216" />
	</g>
	<g
   id="g222">
		<path
   class="st125"
   d="M116.71,96.61H82.56c-4.6,0-8.43-1.11-11.4-3.29c-2.63-1.93-4.52-4.65-5.63-8.07    c-2.13-6.6,3.02-16.32,3.24-16.73l0.17-0.31l0.36,0.01c0.13,0,12.88,0.48,22.66,1.2c7.99,0.59,10.06,1.47,13.02,4.2    c3.92,3.61,4.54,8.61,4.63,10.3c1.51,0.03,5.81,0.21,9.88,1.34c3.11,0.86,5.25,3.76,4.87,6.6    C124.21,92.97,123.21,96.61,116.71,96.61z M69.62,69.37c-0.86,1.71-4.78,10.02-3,15.52c1.56,4.82,5.59,10.57,15.94,10.57h34.15    c3.76,0,6.19-1.41,6.51-3.77c0.27-2-1.16-4.55-4.04-5.34c-4.78-1.32-10.08-1.3-10.13-1.3l-0.58,0l0.01-0.58    c0-0.06,0.02-6.06-4.28-10.02c-2.77-2.55-4.62-3.33-12.33-3.9C83.05,69.9,71.78,69.45,69.62,69.37z"
   id="path220" />
	</g>
	<g
   id="g226">
		<path
   class="st127"
   d="M125.61,58.07c-0.01,0.09-0.02,0.18-0.04,0.26c-0.04,0.25-0.09,0.49-0.15,0.72    c-1.35,5.2-7.75,4.57-7.87-1.18c-0.09-4.1-1.98-5.4-3.76-5.15c-0.28,0.04-0.55,0.11-0.81,0.22c-0.59,0.24-1.13,0.65-1.54,1.17    c-0.34,0.44-0.59,0.95-0.71,1.52c-0.21,1.07-0.12,2.14,0.17,3.21c0.61,2.26,2.13,4.51,3.78,6.75c0.47,0.64,0.95,1.28,1.43,1.92    c0.54,0.72,0.96,1.46,1.29,2.21c0.55,1.27,0.82,2.57,0.82,3.83c0,1.11-0.19,2.18-0.57,3.19c-1.78,4.85-7.6,8.15-14.76,5.63    l0.76-6.28c1.41,0.95,2.84,1.3,4.11,1.25c0.15,0,0.29-0.02,0.44-0.03h0c0.05-0.01,0.1-0.01,0.15-0.02    c1.89-0.26,3.31-1.38,3.63-2.54c1-3.68-4.12-9.97-5.75-13.51c-3.04-6.59-0.52-12.75,4.88-14.88c0.74-0.29,1.53-0.5,2.36-0.64    c0.45-0.07,0.92-0.12,1.39-0.14c0.35-0.01,0.69-0.01,1.02,0C123.08,45.93,126.19,53.35,125.61,58.07z"
   id="path224" />
	</g>
	<g
   class="st120"
   id="g230">
		<path
   class="st125"
   d="M117.67,76.74c-1.78,4.85-7.6,8.15-14.76,5.63l0.76-6.28c1.41,0.95,2.84,1.3,4.11,1.25    C109.53,79.85,115.03,81,117.67,76.74z"
   id="path228" />
	</g>
	<g
   class="st120"
   id="g234">
		<path
   class="st125"
   d="M108.52,57.33c1.11,4.1,4.63,7.1,6.17,8.26c-1.65-2.24-3.17-4.5-3.78-6.75c-0.29-1.07-0.37-2.14-0.17-3.21    c0.11-0.56,0.36-1.08,0.7-1.52c0.59-0.75,1.45-1.26,2.35-1.39c1.78-0.25,3.67,1.05,3.76,5.15c0.12,5.76,6.52,6.39,7.87,1.18    c0.06-0.23,0.11-0.47,0.15-0.72c-0.97,1.05-3.51,3.01-5.38,1.57c-2.64-2.03-0.4-6.64-3.83-9.11    C113.75,48.91,107.08,52.01,108.52,57.33z"
   id="path232" />
	</g>
	<g
   id="g238">
		<path
   class="st128"
   d="M111.91,51.03c0.07,0.05,0.74-0.27,0.74-0.19c-0.02,0.36-0.05,1.07,0.34,2.1c0,0,0.01,0,0.01,0    c0.05-0.02,0.1-0.04,0.15-0.06c0.04-0.02,0.09-0.03,0.14-0.05c0.04-0.01,0.07-0.02,0.11-0.03c0.03-0.01,0.07-0.02,0.1-0.03    c0.1-0.02,0.2-0.04,0.3-0.06c1.78-0.25,3.67,1.05,3.76,5.15c0.12,5.76,6.52,6.39,7.87,1.18c0.06-0.23,0.11-0.47,0.15-0.72    c-0.97,1.05-3.51,3.01-5.38,1.57c-2.64-2.03-0.4-6.65-3.83-9.11c-1.09-0.78-2.88-0.7-4.5,0.05    C111.86,50.93,111.87,51,111.91,51.03z"
   id="path236" />
	</g>
	<g
   id="g242">
		<path
   class="st0"
   d="M112.99,52.94c0.26-0.11,0.53-0.18,0.81-0.22c1.78-0.25,3.67,1.05,3.76,5.15c0.12,5.76,6.52,6.39,7.87,1.18    c0.06-0.23,0.11-0.47,0.15-0.72c0.01-0.09,0.02-0.18,0.04-0.26c0.57-4.72-2.53-12.14-9.73-12.49c-0.33-0.02-0.67-0.02-1.02,0    c-0.48,0.02-0.94,0.07-1.39,0.14c-0.4,0.37-1.34,1.68-1.44,2.9c-0.01,0.15,0.66-0.26,0.63-0.1c-0.1,0.55-1.04,2.31-0.76,2.51    c0.07,0.05,0.74-0.27,0.74-0.19C112.63,51.2,112.6,51.91,112.99,52.94z"
   id="path240" />
	</g>
	<g
   class="st120"
   id="g246">
		<path
   class="st125"
   d="M111.91,51.03c0.07,0.05,0.74-0.27,0.74-0.19c-0.02,0.36-0.05,1.07,0.34,2.1c0,0,0.01,0,0.01,0    c0.05-0.02,0.1-0.04,0.15-0.06c0.04-0.02,0.09-0.03,0.14-0.05c0.04-0.01,0.07-0.02,0.11-0.03c0.03-0.01,0.07-0.02,0.1-0.03    c0.1-0.02,0.2-0.04,0.3-0.06c1.78-0.25,3.67,1.05,3.76,5.15c0.12,5.76,6.52,6.39,7.87,1.18c0.06-0.23,0.11-0.47,0.15-0.72    c-0.97,1.05-3.51,3.01-5.38,1.57c-2.64-2.03-0.4-6.65-3.83-9.11c-1.09-0.78-2.88-0.7-4.5,0.05    C111.86,50.93,111.87,51,111.91,51.03z"
   id="path244" />
	</g>
	<g
   id="g250">
		<path
   class="st125"
   d="M107.74,83.81c-1.63,0-3.33-0.3-5.03-0.9c-0.3-0.11-0.46-0.43-0.35-0.73c0.11-0.3,0.43-0.46,0.73-0.35    c5.09,1.79,10.14,0.58,12.84-3.09c2.4-3.25,2.29-7.43-0.28-10.89c-0.18-0.24-0.36-0.48-0.54-0.72c-2.81-3.76-5.71-7.65-4.94-11.61    c0.39-2,2.36-3.55,4.32-3.39c0.82,0.07,3.52,0.69,3.62,5.73c0.06,2.81,1.65,3.99,3,4.15c1.42,0.17,3.13-0.73,3.74-3.1    c0.63-2.41,0.01-6.4-2.37-9.35c-1.33-1.65-3.73-3.58-7.61-3.41c-3.47,0.15-6.39,1.76-8.02,4.43c-1.78,2.91-1.82,6.7-0.11,10.41    c0.45,0.98,1.21,2.22,2,3.53c2.14,3.52,4.56,7.51,3.78,10.37c-0.3,1.1-1.36,2.1-2.76,2.63c-2.05,0.76-4.39,0.42-6.43-0.95    c-0.26-0.18-0.33-0.53-0.16-0.8c0.18-0.26,0.53-0.33,0.8-0.16c1.73,1.16,3.7,1.46,5.39,0.83c1.05-0.39,1.86-1.12,2.06-1.86    c0.65-2.39-1.74-6.32-3.66-9.47c-0.81-1.34-1.58-2.6-2.06-3.65c-1.87-4.06-1.81-8.25,0.17-11.49c1.83-3,5.1-4.81,8.95-4.98    c4.36-0.18,7.06,1.99,8.55,3.84c2.35,2.91,3.42,7.17,2.59,10.36c-0.79,3.04-3.07,4.17-4.98,3.95c-1.95-0.23-3.95-1.94-4.02-5.26    c-0.06-2.75-1.02-4.48-2.58-4.61c-1.37-0.12-2.82,1.03-3.09,2.46c-0.67,3.47,2.08,7.15,4.73,10.71c0.18,0.24,0.36,0.48,0.54,0.72    c2.84,3.82,2.95,8.63,0.28,12.25c-1.41,1.91-3.41,3.27-5.79,3.94C110.01,83.66,108.89,83.81,107.74,83.81z"
   id="path248" />
	</g>
	<g
   id="g254">
		<path
   class="st127"
   d="M118.13,95.28c-1.67,1.46-4.73,0.25-7.01-0.78c-0.02,0.01-0.05,0.03-0.07,0.04    c-2.44,1.42-6.74,2.25-9.75,1.1c-6.75-2.59-4.33-12.19-2.82-13.76l0.9-8.32l0.27-2.47c10.71,3.2,10.13,13.72,10.13,13.72    s0.23-0.06,0.62-0.1c1.11-0.13,3.56-0.17,6.01,1.42c1.14,0.74,1.94,1.58,2.45,2.45v0C120.43,91.21,119.48,94.1,118.13,95.28z"
   id="path252" />
	</g>
	<g
   class="st120"
   id="g258">
		<path
   class="st125"
   d="M118.13,95.28c-1.67,1.46-4.73,0.25-7.01-0.78c-0.02,0.01-0.05,0.03-0.07,0.04    c-2.44,1.42-6.74,2.25-9.75,1.1c-6.75-2.59-4.33-12.19-2.82-13.76l0.9-8.32l0.51-0.63c0,0,1.73,2.43,1.07,7.84    c-0.15,1.19-2.18,3.97-2.44,5.45c-1.33,7.77,5.79,7.96,8.38,7.61c3.24-0.44,5.81-3.66,5.81-3.66s0.16,1.96,1.32,3.22    c1.48,1.61,5.88-0.11,4.82-4.81C120.43,91.21,119.48,94.1,118.13,95.28z"
   id="path256" />
	</g>
	<g
   id="g262">
		<path
   class="st130"
   d="M118.13,95.28c-1.67,1.46-4.73,0.25-7.01-0.78c-0.02,0.01-0.05,0.03-0.07,0.04    c0.59-0.87,1.51-2.47,1.69-4.15c0.08,0.55,0.37,1.99,1.29,3c1.48,1.61,5.88-0.11,4.82-4.81c0.04,0.06,0.07,0.12,0.1,0.18    c0.07,0.12,0.13,0.24,0.18,0.37c0.03,0.06,0.05,0.12,0.08,0.18c0,0,0,0,0,0c0.02,0.06,0.05,0.12,0.07,0.18    c0.02,0.06,0.05,0.12,0.07,0.18c0,0,0,0,0,0c0.02,0.06,0.04,0.12,0.06,0.18c0.02,0.06,0.04,0.12,0.05,0.18c0,0,0,0.01,0,0.01    c0.02,0.06,0.03,0.12,0.04,0.18c0.01,0.05,0.02,0.1,0.03,0.15c0.02,0.07,0.03,0.15,0.04,0.22c0.01,0.05,0.02,0.1,0.02,0.15    C119.88,92.66,119.11,94.42,118.13,95.28z"
   id="path260" />
	</g>
	<g
   id="g266">
		<path
   class="st0"
   d="M118.13,95.28c-1.67,1.46-4.73,0.25-7.01-0.78c-0.02,0.01-0.05,0.03-0.07,0.04c0.85-1.27,2.39-4.04,1.41-6.38    c-0.93-2.21-1.66-2.88-2.07-3.45c1.11-0.13,3.56-0.17,6.01,1.42C121.01,89.11,119.92,93.71,118.13,95.28z"
   id="path264" />
	</g>
	<g
   class="st120"
   id="g270">
		<path
   class="st125"
   d="M118.13,95.28c-1.67,1.46-4.73,0.25-7.01-0.78c-0.02,0.01-0.05,0.03-0.07,0.04    c0.59-0.87,1.51-2.47,1.69-4.15c0.08,0.55,0.37,1.99,1.29,3c1.48,1.61,5.88-0.11,4.82-4.81c0.04,0.06,0.07,0.12,0.1,0.18    c0.07,0.12,0.13,0.25,0.18,0.37c0.03,0.06,0.05,0.12,0.08,0.18c0,0,0,0,0,0c0.02,0.06,0.05,0.12,0.07,0.18    c0.02,0.06,0.05,0.12,0.07,0.18c0,0,0,0,0,0c0.02,0.06,0.04,0.12,0.06,0.18c0.02,0.06,0.04,0.12,0.05,0.18c0,0,0,0.01,0,0.01    c0.02,0.06,0.03,0.12,0.04,0.18c0.01,0.05,0.02,0.1,0.03,0.15c0.02,0.07,0.03,0.15,0.04,0.22c0.01,0.05,0.02,0.1,0.02,0.15    C119.88,92.66,119.11,94.42,118.13,95.28z"
   id="path268" />
	</g>
	<g
   id="g274">
		<path
   class="st125"
   d="M98.69,82.07c-0.14,0.18-0.25,0.41-0.36,0.64c-0.1,0.23-0.2,0.48-0.28,0.73c-0.16,0.5-0.29,1.01-0.4,1.52    c-0.2,1.03-0.31,2.08-0.29,3.12c0.01,1.04,0.15,2.07,0.46,3.03c0.3,0.96,0.8,1.85,1.49,2.56c0.68,0.71,1.57,1.23,2.53,1.54    c0.96,0.31,1.99,0.41,3.03,0.39c1.04-0.03,2.08-0.18,3.09-0.45c1.01-0.27,2-0.64,2.87-1.15l0,0c0.17-0.1,0.37-0.1,0.53-0.03    c0.94,0.43,1.89,0.83,2.84,1.1c0.48,0.14,0.96,0.24,1.43,0.28c0.47,0.04,0.93,0.02,1.34-0.1c0.2-0.06,0.39-0.14,0.56-0.25    c0.09-0.06,0.16-0.12,0.24-0.19l0.12-0.11l0.11-0.12c0.15-0.17,0.28-0.35,0.4-0.55c0.12-0.2,0.22-0.41,0.31-0.62    c0.36-0.87,0.46-1.84,0.31-2.77c-0.16-0.93-0.58-1.8-1.2-2.54c-0.61-0.74-1.41-1.35-2.26-1.83c-0.86-0.48-1.8-0.8-2.77-0.96    c-0.48-0.08-0.98-0.12-1.47-0.11c-0.25,0-0.49,0.01-0.73,0.04c-0.12,0.01-0.24,0.03-0.36,0.04l-0.18,0.03    c-0.05,0.01-0.12,0.02-0.16,0.03l0,0c-0.31,0.07-0.62-0.12-0.7-0.43c-0.01-0.05-0.02-0.11-0.01-0.16c0.01-0.15,0.01-0.35,0-0.53    c-0.01-0.18-0.01-0.37-0.03-0.55c-0.03-0.37-0.07-0.73-0.12-1.1c-0.11-0.73-0.27-1.45-0.48-2.16c-0.43-1.41-1.07-2.75-1.93-3.94    c-0.86-1.19-1.93-2.21-3.15-3.02c-1.22-0.82-2.59-1.42-4.01-1.84l0,0c-0.3-0.09-0.48-0.41-0.38-0.71c0.09-0.3,0.41-0.48,0.71-0.38    c1.51,0.45,2.98,1.1,4.31,1.99c1.33,0.88,2.51,2.01,3.45,3.31c0.94,1.3,1.64,2.76,2.1,4.28c0.23,0.76,0.4,1.54,0.52,2.32    c0.06,0.39,0.1,0.79,0.13,1.19c0.01,0.2,0.02,0.4,0.03,0.6c0,0.2,0.01,0.39,0,0.62l-0.71-0.59c0.09-0.02,0.15-0.03,0.23-0.05    l0.21-0.04c0.14-0.02,0.28-0.04,0.42-0.05c0.28-0.03,0.56-0.04,0.83-0.04c0.56,0,1.11,0.04,1.66,0.13    c1.1,0.18,2.16,0.55,3.14,1.09c0.24,0.14,0.48,0.28,0.71,0.43c0.11,0.08,0.23,0.16,0.34,0.24l0.33,0.25    c0.43,0.35,0.84,0.74,1.2,1.18c0.73,0.87,1.25,1.94,1.44,3.08c0.19,1.14,0.06,2.32-0.38,3.39c-0.11,0.27-0.24,0.53-0.39,0.78    c-0.15,0.25-0.33,0.49-0.53,0.72l-0.15,0.17l-0.17,0.16c-0.12,0.1-0.25,0.21-0.38,0.29c-0.27,0.18-0.56,0.31-0.86,0.39    c-0.6,0.17-1.2,0.19-1.77,0.14c-0.57-0.05-1.11-0.17-1.64-0.32c-1.05-0.3-2.04-0.72-3-1.16l0.53-0.03c-1,0.59-2.07,0.98-3.17,1.27    c-1.09,0.28-2.22,0.45-3.35,0.48c-1.14,0.03-2.29-0.08-3.41-0.44c-0.56-0.18-1.09-0.42-1.6-0.72c-0.51-0.3-0.98-0.67-1.4-1.09    c-0.42-0.42-0.79-0.9-1.09-1.41c-0.3-0.51-0.53-1.05-0.71-1.61c-0.36-1.11-0.47-2.27-0.45-3.4c0.03-1.14,0.21-2.26,0.52-3.34    c0.15-0.54,0.34-1.07,0.58-1.59c0.12-0.26,0.25-0.51,0.4-0.76c0.15-0.25,0.32-0.49,0.55-0.71c0.12-0.11,0.3-0.1,0.41,0.01    c0.1,0.1,0.1,0.26,0.02,0.37L98.69,82.07z"
   id="path272" />
	</g>
	<g
   id="g278">
		<path
   class="st127"
   d="M100.76,78.6c-0.3,1.37-0.92,2.49-1.62,3.38c-1.4,1.79-3.11,2.61-3.11,2.61s-0.23,3.43-2.78,5.33    c-1.38,1.03-5.44,1.59-6.97-1.61c-0.78-1.62-0.93-4.97,0.51-7.63c0.92-1.7,2.49-3.11,4.97-3.6l-1.29-6.58    C98.26,68.83,101.88,73.58,100.76,78.6z"
   id="path276" />
	</g>
	<g
   class="st120"
   id="g282">
		<path
   class="st125"
   d="M100.96,76.99c-0.01,0.53-0.08,1.07-0.2,1.61c-0.3,1.37-0.92,2.49-1.62,3.38c-1.4,1.79-3.11,2.61-3.11,2.61    s-0.23,3.43-2.78,5.33c-1.38,1.03-5.44,1.59-6.97-1.61c-0.22-0.46-0.39-1.07-0.49-1.76c0.03,0.07,0.06,0.13,0.08,0.19    c1.54,3.2,5.59,2.64,6.97,1.61c2.55-1.91,1.63-4.72,1.86-5.57c0.23-0.85,2.11-1.16,4.03-2.37    C99.69,79.81,100.65,78.37,100.96,76.99C100.96,76.99,100.96,76.99,100.96,76.99z"
   id="path280" />
	</g>
	<g
   id="g286">
		<path
   class="st130"
   d="M97.74,83.43c-0.01,0.01-0.01,0.01-0.02,0.01c-0.05,0.04-0.1,0.08-0.14,0.12c-0.06,0.05-0.12,0.1-0.18,0.14    c-0.05,0.04-0.11,0.08-0.16,0.12c-0.05,0.04-0.1,0.08-0.16,0.11c-0.04,0.03-0.08,0.06-0.12,0.09c-0.01,0.01-0.02,0.01-0.02,0.02    c-0.05,0.03-0.1,0.06-0.14,0.09c-0.45,0.3-0.75,0.45-0.75,0.45s-0.23,3.43-2.78,5.33c-1.38,1.03-5.44,1.59-6.97-1.61    c-0.01-0.03-0.03-0.06-0.04-0.09c-0.01-0.03-0.03-0.06-0.04-0.09c-0.06-0.14-0.11-0.29-0.16-0.44c-0.01-0.05-0.03-0.09-0.04-0.14    c-0.02-0.09-0.05-0.18-0.07-0.27c-0.02-0.06-0.03-0.13-0.04-0.2c-0.01-0.02-0.01-0.04-0.01-0.07c-0.01-0.07-0.03-0.13-0.04-0.2v0    c-0.01-0.08-0.03-0.17-0.04-0.25c0.03,0.07,0.06,0.13,0.08,0.19c1.54,3.2,5.59,2.64,6.97,1.61c2.55-1.91,1.63-4.72,1.86-5.57    c0.03-0.12,0.09-0.22,0.18-0.32C95.96,83.47,96.06,84.19,97.74,83.43z"
   id="path284" />
	</g>
	<g
   id="g290">
		<path
   class="st0"
   d="M97.74,83.43c-0.93,0.79-1.7,1.16-1.7,1.16s-0.23,3.43-2.78,5.33c-1.38,1.03-5.44,1.59-6.97-1.61    c-0.78-1.62-0.93-4.97,0.51-7.63c1.61-0.68,4.58-0.74,7.24,1.07C95.99,83.09,95.69,84.36,97.74,83.43z"
   id="path288" />
	</g>
	<g
   class="st120"
   id="g294">
		<path
   class="st125"
   d="M97.74,83.43c-0.01,0.01-0.01,0.01-0.02,0.01c-0.05,0.04-0.1,0.08-0.14,0.12c-0.06,0.05-0.12,0.1-0.18,0.14    c-0.05,0.04-0.11,0.08-0.16,0.12c-0.05,0.04-0.1,0.08-0.16,0.11c-0.04,0.03-0.08,0.06-0.12,0.09c-0.01,0.01-0.02,0.01-0.02,0.02    c-0.05,0.03-0.1,0.06-0.14,0.09c-0.45,0.3-0.75,0.45-0.75,0.45s-0.23,3.43-2.78,5.33c-1.38,1.03-5.44,1.59-6.97-1.61    c-0.01-0.03-0.03-0.06-0.04-0.09c-0.01-0.03-0.03-0.06-0.04-0.09c-0.06-0.14-0.11-0.29-0.16-0.44c-0.01-0.05-0.03-0.09-0.04-0.14    c-0.02-0.09-0.05-0.18-0.07-0.27c-0.02-0.06-0.03-0.13-0.04-0.2c-0.01-0.02-0.01-0.04-0.01-0.07c-0.01-0.07-0.03-0.13-0.04-0.2v0    c-0.01-0.08-0.03-0.17-0.04-0.25c0.03,0.07,0.06,0.13,0.08,0.19c1.54,3.2,5.59,2.64,6.97,1.61c2.55-1.91,1.63-4.72,1.86-5.57    c0.03-0.12,0.09-0.22,0.18-0.32C95.96,83.47,96.06,84.19,97.74,83.43z"
   id="path292" />
	</g>
	<g
   id="g298">
		<path
   class="st125"
   d="M90.34,69.93c1.01-0.21,2.04-0.34,3.09-0.35l0.39,0l0.39,0.02c0.26,0.01,0.52,0.05,0.79,0.08    c0.52,0.08,1.05,0.18,1.56,0.35c1.02,0.32,1.99,0.86,2.8,1.6c0.8,0.75,1.41,1.69,1.77,2.72c0.35,1.03,0.47,2.12,0.38,3.19    c-0.01,0.13-0.02,0.27-0.04,0.4c-0.02,0.13-0.03,0.27-0.06,0.4l-0.08,0.39l-0.1,0.39l-0.11,0.39c-0.04,0.13-0.09,0.25-0.14,0.38    l-0.14,0.37c-0.05,0.12-0.11,0.24-0.17,0.36c-0.46,0.96-1.09,1.83-1.83,2.59c-0.37,0.37-0.77,0.72-1.19,1.04    c-0.21,0.16-0.43,0.31-0.65,0.45c-0.11,0.07-0.22,0.14-0.34,0.21c-0.12,0.07-0.23,0.13-0.37,0.2l0.32-0.48l0,0    c-0.01,0.1-0.02,0.17-0.03,0.25c-0.01,0.08-0.02,0.16-0.03,0.24c-0.02,0.16-0.06,0.31-0.09,0.47c-0.07,0.31-0.14,0.61-0.24,0.91    c-0.19,0.6-0.44,1.19-0.76,1.74c-0.08,0.14-0.16,0.28-0.25,0.41l-0.28,0.39c-0.2,0.25-0.4,0.5-0.64,0.73l-0.17,0.17    C94.06,90,94,90.05,93.93,90.1c-0.13,0.1-0.24,0.21-0.38,0.31c-0.3,0.21-0.61,0.36-0.92,0.48c-0.62,0.24-1.26,0.36-1.91,0.4    c-0.65,0.04-1.31-0.02-1.95-0.2c-0.64-0.18-1.26-0.49-1.79-0.92c-0.26-0.22-0.5-0.47-0.71-0.74c-0.21-0.27-0.38-0.56-0.53-0.86    c-0.29-0.62-0.45-1.25-0.54-1.88c-0.09-0.63-0.12-1.26-0.1-1.89c0.06-1.25,0.32-2.5,0.82-3.66c0.26-0.58,0.58-1.13,0.96-1.64    c0.39-0.5,0.84-0.97,1.35-1.35c0.51-0.38,1.07-0.7,1.65-0.92c0.59-0.22,1.19-0.37,1.8-0.45c0.16-0.02,0.3,0.09,0.32,0.25    c0.02,0.14-0.07,0.27-0.2,0.31l-0.01,0c-0.55,0.17-1.08,0.37-1.58,0.62l-0.37,0.2l-0.35,0.23c-0.23,0.16-0.45,0.32-0.65,0.51    c-0.83,0.73-1.45,1.66-1.87,2.68c-0.42,1.02-0.64,2.14-0.67,3.26c-0.02,0.56,0.01,1.12,0.09,1.66c0.08,0.54,0.22,1.08,0.43,1.53    c0.12,0.23,0.24,0.46,0.4,0.66c0.15,0.2,0.32,0.39,0.52,0.55c0.39,0.32,0.84,0.57,1.35,0.71c0.5,0.14,1.04,0.19,1.57,0.17    c0.53-0.03,1.07-0.13,1.56-0.32c0.24-0.09,0.47-0.21,0.66-0.34c0.1-0.07,0.2-0.17,0.31-0.25c0.05-0.04,0.11-0.08,0.15-0.13    l0.14-0.14c0.2-0.18,0.36-0.4,0.53-0.61l0.23-0.33c0.08-0.11,0.14-0.23,0.21-0.35c0.27-0.48,0.49-0.99,0.66-1.52    c0.09-0.26,0.15-0.53,0.21-0.81c0.03-0.14,0.06-0.27,0.08-0.41c0.01-0.07,0.02-0.14,0.03-0.2c0.01-0.06,0.02-0.14,0.02-0.19l0,0    l0-0.01c0.02-0.21,0.15-0.38,0.32-0.47c0.08-0.04,0.19-0.1,0.29-0.16c0.1-0.06,0.2-0.12,0.3-0.18c0.2-0.13,0.39-0.26,0.58-0.4    c0.38-0.29,0.73-0.6,1.06-0.93c0.66-0.67,1.21-1.44,1.61-2.28c0.05-0.11,0.1-0.21,0.15-0.31l0.12-0.33    c0.04-0.11,0.08-0.22,0.12-0.33l0.09-0.34l0.09-0.34l0.07-0.34c0.03-0.11,0.03-0.23,0.05-0.34c0.02-0.11,0.03-0.23,0.04-0.35    c0.09-0.92-0.03-1.85-0.32-2.72c-0.3-0.86-0.8-1.64-1.46-2.26c-0.67-0.61-1.48-1.07-2.36-1.34c-0.44-0.15-0.9-0.23-1.36-0.31    c-0.23-0.02-0.47-0.06-0.7-0.07l-0.35-0.02l-0.36,0c-0.95,0-1.91,0.12-2.85,0.32c-0.31,0.07-0.61-0.13-0.68-0.44    C89.84,70.3,90.03,70,90.34,69.93L90.34,69.93z"
   id="path296" />
	</g>
	<g
   id="g422">
		<g
   id="g302">
			<path
   class="st127"
   d="M96.73,63.81C97.03,74.93,84.15,78,78.16,80.01L70.39,81c-4.08-0.28-11.05-0.27-16.15-3.15     c-1.23-0.7-2.35-1.56-3.3-2.64c-0.67-0.77-1.26-1.65-1.73-2.65c-0.32-0.68-0.58-1.42-0.79-2.22c-0.08-0.3-0.15-0.62-0.21-0.94     c-0.18-0.94-0.28-1.97-0.29-3.08c-0.01-0.96,0.3-4.29,0.88-7.6c0.2-1.12,0.43-2.25,0.69-3.27c-2.2-6.05-3.77-13.83-2.01-16.81     c1.15-1.93,5.09-0.64,11.33,3.46c3.79-2.28,9.29-3.09,10.14-3.2c0.85-0.11,6.37-0.71,10.62,0.55c5.01-5.54,8.5-7.78,10.1-6.2     c2.46,2.44,2.89,10.36,2.28,16.77c2,3.64,3.94,8.87,4.25,10.12C96.53,61.47,96.7,62.68,96.73,63.81z"
   id="path300" />
		</g>
		<g
   class="st131"
   id="g306">
			<path
   class="st0"
   d="M91.99,40.39c-0.39-2.48-1.07-4.51-2.11-5.55c-1.6-1.58-5.09,0.66-10.1,6.2c-4.25-1.26-9.77-0.66-10.62-0.55     c-0.85,0.1-6.34,0.91-10.14,3.2c-6.25-4.1-10.19-5.39-11.33-3.46c-0.75,1.26-0.9,3.4-0.65,5.9c-0.48-3.16-0.46-5.94,0.45-7.47     c1.15-1.93,5.09-0.64,11.33,3.46c3.79-2.28,9.29-3.09,10.14-3.2c0.85-0.11,6.37-0.71,10.62,0.55c5.01-5.54,8.5-7.78,10.1-6.2     C90.93,34.52,91.66,37.21,91.99,40.39z"
   id="path304" />
		</g>
		<g
   id="g310">
			<path
   class="st0"
   d="M96.73,63.81C97.03,74.93,84.15,78,78.16,80.01L70.39,81c-4.08-0.28-11.05-0.27-16.15-3.15     c-1.23-0.7-2.35-1.56-3.3-2.64c-0.67-0.77-1.26-1.65-1.73-2.65c-0.32-0.68-0.58-1.42-0.79-2.22c10.55,6.95,16.94,2.41,19.22-4.22     c0.88-2.56,3.18-3.09,4.19-3.22c1.01-0.13,3.37-0.2,4.87,2.06C80.63,70.9,88.11,73.68,96.73,63.81z"
   id="path308" />
		</g>
		<g
   class="st120"
   id="g314">
			<path
   class="st125"
   d="M96.16,67.94c-2.53,7.81-12.83,10.33-18.01,12.06L70.39,81c-4.08-0.28-11.05-0.27-16.15-3.15     c-1.23-0.7-2.35-1.56-3.3-2.64c-0.37-0.42-0.71-0.87-1.02-1.35c0.57,0.43,1.16,0.83,1.79,1.18c3.88,2.19,16.37,1.95,22.01,1.23     C79.38,75.54,93,72.02,96.16,67.94z"
   id="path312" />
		</g>
		<g
   id="g318">
			<path
   class="st125"
   d="M56.41,53.58c-0.34-0.41,1.04-4.63,4.76-3.91c1.34,0.26,1.62,1.5,0.66,1.89     c-0.92,0.38-1.37,0.22-2.77,0.93C58.26,52.89,56.76,53.99,56.41,53.58z"
   id="path316" />
		</g>
		<g
   id="g322">
			<path
   class="st125"
   d="M84.79,49.96c0.23-0.48-2.17-4.22-5.59-2.59c-1.23,0.59-1.19,1.85-0.16,1.99c0.98,0.13,1.38-0.13,2.92,0.2     C82.83,49.75,84.56,50.44,84.79,49.96z"
   id="path320" />
		</g>
		<g
   id="g326">
			<path
   class="st132"
   d="M53.62,47.57c-1.5,2.07-2.26,4.79-2.45,4.51c-0.02-0.03-0.04-0.06-0.06-0.1c-0.44-0.8-1.41-4.09-1.78-7.08     c-0.06-0.48-0.1-0.91-0.12-1.29c-0.06-1.02,0-1.69,0.12-2.13c0.16-0.54,0.63-0.75,1.09-0.64c1.22,0.31,4.78,2.06,6.03,3.31     C56.68,44.38,55.12,45.5,53.62,47.57z"
   id="path324" />
		</g>
		<g
   id="g330">
			<path
   class="st133"
   d="M53.62,47.57c-1.5,2.07-2.26,4.79-2.45,4.51c-0.02-0.03-0.04-0.06-0.06-0.1c0.19-1.62,0.97-3.92,1.59-5.59     c0.84-2.28-0.9-3.79-2.3-4.13c-0.48-0.12-0.92,0.7-1.2,1.35c-0.06-1.02,0-1.69,0.12-2.13c0.16-0.54,0.63-0.75,1.09-0.64     c1.22,0.31,4.78,2.06,6.03,3.31C56.68,44.38,55.12,45.5,53.62,47.57z"
   id="path328" />
		</g>
		<g
   id="g334">
			<path
   class="st125"
   d="M51.21,52.75c-0.23,0-0.44-0.11-0.57-0.3c-0.49-0.72-1.56-4.35-1.95-7.46l0,0     c-0.21-1.68-0.2-2.89,0.02-3.67c0.24-0.84,1.03-1.3,1.87-1.09c1.29,0.33,4.96,2.11,6.34,3.48c0.15,0.15,0.43,0.55-0.08,1.18     c-0.15,0.18-0.36,0.4-0.63,0.68c-0.55,0.57-1.31,1.35-2.06,2.39c-0.82,1.14-1.42,2.5-1.82,3.41c-0.44,1-0.59,1.34-1.06,1.38     C51.25,52.75,51.23,52.75,51.21,52.75z M49.98,44.82c0.28,2.21,0.85,4.43,1.28,5.74c0.42-0.94,1.01-2.24,1.83-3.37     c0.8-1.11,1.63-1.97,2.18-2.53c0.12-0.12,0.24-0.25,0.35-0.36c-1.4-1.13-4.38-2.56-5.36-2.81c-0.15-0.04-0.25,0.02-0.3,0.19     C49.85,42.08,49.75,42.97,49.98,44.82L49.98,44.82z"
   id="path332" />
		</g>
		<g
   id="g338">
			<path
   class="st132"
   d="M86.04,43.43c1.97,1.62,3.39,4.07,3.5,3.75c0.01-0.03,0.02-0.07,0.03-0.11c0.22-0.89,0.33-4.31-0.06-7.3     c-0.06-0.48-0.13-0.91-0.2-1.28c-0.2-1-0.42-1.63-0.66-2.03c-0.28-0.48-0.8-0.57-1.21-0.34c-1.1,0.6-4.11,3.2-5.01,4.72     C82.28,41.11,84.07,41.8,86.04,43.43z"
   id="path336" />
		</g>
		<g
   id="g342">
			<path
   class="st133"
   d="M86.04,43.43c1.97,1.62,3.39,4.07,3.5,3.75c0.01-0.03,0.02-0.07,0.03-0.11c-0.59-1.52-1.93-3.55-2.94-5.01     c-1.39-1.99-0.08-3.89,1.18-4.57c0.43-0.23,1.07,0.44,1.5,1.01c-0.2-1-0.42-1.63-0.66-2.03c-0.28-0.48-0.8-0.57-1.21-0.34     c-1.1,0.6-4.11,3.2-5.01,4.72C82.28,41.11,84.07,41.8,86.04,43.43z"
   id="path340" />
		</g>
		<g
   id="g346">
			<path
   class="st125"
   d="M89.48,47.86c-0.39,0-0.63-0.31-1.24-1.08c-0.61-0.78-1.54-1.95-2.62-2.84c-0.99-0.81-1.92-1.38-2.6-1.79     c-0.33-0.2-0.59-0.36-0.78-0.5c-0.65-0.48-0.48-0.95-0.37-1.13c0.98-1.68,4.09-4.32,5.26-4.96c0.76-0.42,1.64-0.17,2.08,0.58     c0.42,0.71,0.73,1.87,0.95,3.55l0,0c0.41,3.11,0.29,6.89-0.01,7.71c-0.09,0.24-0.29,0.41-0.54,0.45     C89.57,47.85,89.53,47.86,89.48,47.86z M83.28,40.76c0.13,0.08,0.28,0.18,0.43,0.26c0.67,0.41,1.69,1.03,2.75,1.9     c1.08,0.89,1.98,1.99,2.62,2.8c0.08-1.38,0.08-3.67-0.2-5.88c-0.24-1.85-0.55-2.68-0.78-3.06c-0.09-0.14-0.2-0.18-0.34-0.1     C86.87,37.18,84.35,39.31,83.28,40.76z"
   id="path344" />
		</g>
		<g
   id="g350">
			<path
   class="st125"
   d="M78.07,79.74c1.6-0.68,3.23-1.23,4.83-1.84c1.6-0.61,3.18-1.24,4.7-2c0.38-0.19,0.75-0.38,1.12-0.6     c0.37-0.2,0.73-0.43,1.09-0.65c0.7-0.46,1.4-0.94,2.02-1.48l0.24-0.2c0.08-0.07,0.15-0.14,0.23-0.21l0.45-0.43l0.42-0.45     c0.07-0.08,0.14-0.15,0.21-0.23l0.2-0.24c0.54-0.63,0.98-1.33,1.36-2.05l0.27-0.55c0.02-0.05,0.05-0.09,0.07-0.14l0.05-0.14     l0.11-0.29l0.11-0.29c0.02-0.05,0.04-0.1,0.05-0.14l0.04-0.15l0.17-0.59l0.04-0.15l0.03-0.15l0.06-0.3     c0.03-0.2,0.08-0.4,0.11-0.61l0.06-0.61l0.03-0.31l0-0.31l0.01-0.62c0-0.1,0-0.21-0.01-0.31l-0.02-0.31l-0.04-0.62     c-0.02-0.21-0.06-0.41-0.09-0.62l-0.09-0.62l-0.13-0.61l-0.13-0.61l-0.08-0.29l-0.09-0.3c-0.26-0.8-0.56-1.61-0.87-2.4     c-0.31-0.8-0.63-1.59-0.97-2.38c-0.67-1.57-1.39-3.13-2.21-4.61l-0.09-0.16l0.02-0.18c0.23-2.46,0.3-4.94,0.18-7.4     c-0.06-1.23-0.17-2.46-0.36-3.66c-0.19-1.2-0.45-2.4-0.89-3.49c-0.22-0.54-0.49-1.05-0.82-1.47c-0.04-0.06-0.08-0.1-0.13-0.15     l-0.07-0.07c-0.02-0.02-0.04-0.05-0.06-0.06c-0.04-0.03-0.07-0.07-0.12-0.1l-0.06-0.04c-0.02-0.01-0.04-0.02-0.06-0.03     c-0.17-0.09-0.37-0.13-0.6-0.12c-0.47,0.01-1,0.22-1.51,0.48c-0.51,0.26-1.01,0.59-1.49,0.95c-0.97,0.72-1.88,1.54-2.76,2.4     c-0.88,0.86-1.73,1.76-2.56,2.68l-0.26,0.29l-0.39-0.11c-0.82-0.23-1.66-0.4-2.52-0.52c-0.86-0.12-1.73-0.18-2.6-0.21     c-0.87-0.03-1.75-0.03-2.62,0.01c-0.87,0.04-1.75,0.1-2.61,0.21c-0.85,0.12-1.72,0.27-2.58,0.46c-0.86,0.18-1.71,0.4-2.54,0.65     c-0.84,0.25-1.66,0.53-2.46,0.86c-0.8,0.33-1.58,0.7-2.31,1.14l-0.35,0.2l-0.33-0.22c-1.03-0.68-2.08-1.34-3.15-1.95     c-1.07-0.61-2.16-1.18-3.28-1.62c-0.56-0.22-1.12-0.42-1.68-0.54c-0.56-0.12-1.13-0.18-1.58-0.08c-0.23,0.05-0.41,0.14-0.55,0.27     c-0.02,0.02-0.04,0.03-0.05,0.05l-0.05,0.06c-0.04,0.03-0.06,0.08-0.09,0.12c-0.01,0.02-0.03,0.05-0.04,0.08l-0.05,0.09     c-0.03,0.06-0.06,0.11-0.09,0.18c-0.22,0.49-0.35,1.05-0.42,1.63c-0.15,1.16-0.1,2.38,0.02,3.6c0.12,1.21,0.32,2.43,0.57,3.63     c0.51,2.41,1.2,4.79,2.04,7.11l0.06,0.18l-0.05,0.18c-0.42,1.64-0.72,3.33-0.97,5.02c-0.13,0.85-0.24,1.7-0.34,2.55     c-0.1,0.85-0.18,1.7-0.23,2.54c-0.01,0.21-0.02,0.42-0.02,0.61c0,0.21,0.01,0.42,0.02,0.63c0.02,0.42,0.05,0.83,0.1,1.25     c0.09,0.83,0.25,1.64,0.49,2.43c0.46,1.58,1.25,3.06,2.35,4.27c1.09,1.22,2.47,2.18,3.97,2.9c1.51,0.72,3.13,1.21,4.78,1.57     c1.65,0.36,3.35,0.57,5.05,0.74l2.56,0.27c0.86,0.09,1.72,0.19,2.58,0.34c0.15,0.03,0.26,0.17,0.23,0.32     c-0.02,0.13-0.14,0.23-0.27,0.23h0c-1.72,0.06-3.46,0.06-5.19-0.06c-1.74-0.12-3.48-0.34-5.2-0.71     c-1.72-0.37-3.42-0.88-5.04-1.64c-1.61-0.77-3.13-1.81-4.34-3.16c-1.22-1.35-2.1-2.99-2.61-4.72c-0.26-0.86-0.43-1.75-0.53-2.63     c-0.05-0.44-0.09-0.89-0.11-1.33c-0.01-0.22-0.02-0.44-0.02-0.67c0-0.24,0.01-0.47,0.02-0.69c0.05-0.88,0.14-1.75,0.23-2.61     c0.1-0.86,0.21-1.73,0.34-2.59c0.26-1.72,0.56-3.44,0.99-5.14l0.02,0.36c-0.86-2.37-1.57-4.8-2.1-7.27     c-0.26-1.24-0.47-2.49-0.6-3.76c-0.13-1.27-0.18-2.56-0.02-3.88c0.08-0.66,0.23-1.33,0.52-1.98c0.03-0.08,0.08-0.16,0.12-0.24     l0.06-0.12c0.02-0.04,0.04-0.08,0.07-0.13c0.06-0.09,0.11-0.18,0.19-0.26l0.11-0.12c0.04-0.04,0.08-0.07,0.12-0.11     c0.32-0.29,0.72-0.48,1.11-0.56c0.38-0.09,0.76-0.1,1.11-0.08c0.35,0.02,0.69,0.08,1.02,0.15c0.66,0.15,1.28,0.36,1.88,0.6     c1.2,0.48,2.33,1.07,3.43,1.69c1.1,0.63,2.17,1.29,3.22,1.98l-0.68-0.01c1.61-0.95,3.32-1.61,5.06-2.14     c0.87-0.26,1.75-0.49,2.64-0.68c0.89-0.19,1.77-0.36,2.69-0.48c0.91-0.11,1.81-0.17,2.72-0.21c0.91-0.04,1.81-0.04,2.72,0     c1.82,0.07,3.64,0.28,5.44,0.8l-0.65,0.18c0.85-0.93,1.71-1.85,2.62-2.73c0.91-0.88,1.86-1.73,2.9-2.5     c0.52-0.38,1.07-0.74,1.67-1.05c0.3-0.15,0.62-0.29,0.95-0.4c0.34-0.11,0.7-0.19,1.09-0.21c0.39-0.01,0.82,0.06,1.21,0.26     c0.05,0.03,0.1,0.05,0.14,0.08l0.13,0.09c0.09,0.06,0.17,0.13,0.24,0.2c0.04,0.04,0.07,0.07,0.1,0.1l0.09,0.1     c0.06,0.07,0.12,0.13,0.18,0.21c0.44,0.56,0.76,1.17,1,1.79c0.49,1.23,0.76,2.5,0.95,3.76c0.2,1.26,0.3,2.53,0.36,3.79     c0.11,2.53,0.03,5.05-0.2,7.57l-0.07-0.34c0.84,1.54,1.57,3.13,2.25,4.73c0.34,0.8,0.66,1.61,0.98,2.42     c0.31,0.81,0.61,1.63,0.88,2.47l0.1,0.32l0.09,0.34l0.14,0.65l0.14,0.65L97.15,62c0.03,0.22,0.06,0.44,0.09,0.66l0.04,0.67     l0.02,0.34c0.01,0.11,0.01,0.22,0.01,0.34l-0.01,0.67l-0.01,0.34l-0.03,0.34l-0.07,0.67c-0.03,0.22-0.08,0.45-0.12,0.67L97,67.03     l-0.03,0.17l-0.05,0.16l-0.19,0.65l-0.05,0.16c-0.02,0.05-0.04,0.11-0.06,0.16l-0.12,0.32l-0.12,0.32l-0.06,0.16     c-0.02,0.05-0.05,0.1-0.07,0.15l-0.3,0.61c-0.43,0.8-0.92,1.57-1.5,2.25l-0.21,0.26c-0.07,0.09-0.15,0.16-0.23,0.25l-0.46,0.49     l-0.49,0.46c-0.08,0.08-0.16,0.15-0.25,0.23l-0.26,0.21c-0.68,0.58-1.41,1.09-2.15,1.57c-0.38,0.23-0.75,0.47-1.14,0.67     c-0.38,0.22-0.77,0.42-1.17,0.62c-0.79,0.39-1.58,0.76-2.4,1.08c-0.4,0.17-0.81,0.32-1.22,0.47c-0.41,0.14-0.82,0.29-1.24,0.42     c-1.65,0.54-3.33,0.98-5,1.39l0,0c-0.15,0.04-0.3-0.06-0.34-0.21C77.87,79.93,77.94,79.79,78.07,79.74z"
   id="path348" />
		</g>
		<g
   id="g354">
			<path
   class="st130"
   d="M76.79,66.73c0,0,0.33,2.57-1.98,2.72c-1.64,0.11-2.15-1.18-2.18-1.29c-0.01,0.11-0.18,1.49-1.79,1.8     c-2.28,0.43-2.61-2.14-2.61-2.14l3.84-3.87l0.04,0L76.79,66.73z"
   id="path352" />
		</g>
		<g
   id="g358">
			<path
   class="st0"
   d="M76.77,66.75c0,0-0.5,2.05-2.3,1.82c-2.05-0.26-2.11-2.66-2.11-2.66l-0.07,0.01c0,0,0.54,2.34-1.38,3.1     c-1.69,0.67-2.68-1.19-2.68-1.19s-1.05-4.32,3.7-4.93C76.68,62.29,76.77,66.75,76.77,66.75z"
   id="path356" />
		</g>
		<g
   class="st120"
   id="g362">
			<path
   class="st125"
   d="M76.6,67.21c-0.27,0.59-0.89,1.51-2.13,1.35c-2.05-0.26-2.11-2.66-2.11-2.66l-0.07,0.01     c0,0,0.54,2.34-1.38,3.1c-1.16,0.46-1.99-0.28-2.4-0.78c0.34-0.01,0.7-0.08,1.08-0.24c3.17-1.26,2.37-4.42,2.37-4.42l0.12-0.02     c0,0,0.01,3.26,3.39,3.7C75.89,67.31,76.27,67.29,76.6,67.21z"
   id="path360" />
		</g>
		<g
   id="g366">
			<path
   class="st125"
   d="M68.51,67.67c0.07,0.08,0.16,0.19,0.25,0.28c0.09,0.09,0.18,0.18,0.28,0.26c0.19,0.16,0.4,0.28,0.6,0.36     c0.21,0.08,0.41,0.1,0.62,0.09c0.1-0.02,0.21-0.02,0.31-0.07c0.05-0.02,0.11-0.03,0.16-0.05l0.16-0.07     c0.42-0.2,0.7-0.54,0.88-0.98c0.09-0.22,0.14-0.47,0.17-0.72c0.02-0.13,0.02-0.26,0.03-0.39c0-0.13,0-0.27-0.01-0.38l0-0.03     c-0.01-0.18,0.13-0.33,0.3-0.35c0.15-0.01,0.29,0.09,0.33,0.23c0.05,0.17,0.08,0.31,0.11,0.47c0.03,0.16,0.04,0.31,0.04,0.47     c0.01,0.32-0.02,0.65-0.12,0.98c-0.17,0.65-0.66,1.29-1.29,1.59l-0.23,0.11c-0.08,0.04-0.17,0.06-0.25,0.08     c-0.17,0.06-0.35,0.07-0.53,0.1c-0.37,0.02-0.74-0.07-1.07-0.22c-0.32-0.16-0.59-0.38-0.81-0.62c-0.11-0.12-0.21-0.25-0.29-0.39     c-0.09-0.14-0.16-0.27-0.23-0.44c-0.07-0.17,0.01-0.36,0.17-0.43c0.13-0.06,0.28-0.02,0.37,0.09L68.51,67.67z"
   id="path364" />
		</g>
		<g
   id="g370">
			<path
   class="st125"
   d="M77.09,66.83c-0.03,0.18-0.06,0.32-0.11,0.48c-0.05,0.15-0.11,0.3-0.19,0.45     c-0.15,0.29-0.35,0.57-0.63,0.81c-0.27,0.23-0.61,0.4-0.98,0.48c-0.18,0.02-0.36,0.05-0.54,0.04c-0.09-0.01-0.18-0.01-0.26-0.02     L74.12,69c-0.68-0.13-1.32-0.63-1.64-1.22c-0.18-0.29-0.28-0.6-0.35-0.92c-0.04-0.16-0.06-0.31-0.08-0.47     c-0.02-0.16-0.02-0.31-0.01-0.49c0.01-0.18,0.16-0.32,0.34-0.31c0.15,0.01,0.28,0.12,0.3,0.26l0.01,0.03     c0.02,0.11,0.06,0.25,0.09,0.37c0.04,0.13,0.07,0.25,0.12,0.37c0.09,0.24,0.21,0.47,0.35,0.66c0.28,0.39,0.64,0.65,1.1,0.73     l0.17,0.03c0.06,0.01,0.11,0.01,0.17,0.01c0.11,0.02,0.21-0.01,0.32-0.01c0.2-0.04,0.4-0.11,0.58-0.24     c0.18-0.12,0.35-0.3,0.49-0.5c0.07-0.1,0.14-0.21,0.21-0.32c0.07-0.11,0.13-0.24,0.18-0.33l0.02-0.04     c0.08-0.16,0.27-0.23,0.44-0.15C77.04,66.55,77.11,66.69,77.09,66.83z"
   id="path368" />
		</g>
		<g
   id="g380">
			<g
   id="g374">
				<path
   class="st125"
   d="M74.56,64.37c0.07,0.56-0.6,1.15-1.23,1.57c-0.66,0.44-1.44,0.54-2.19,0.28      c-0.71-0.25-1.51-0.65-1.58-1.21C69.36,63.31,74.35,62.68,74.56,64.37z"
   id="path372" />
			</g>
			<g
   class="st131"
   id="g378">
				<path
   class="st0"
   d="M73.01,64.23c0.02,0.16-0.25,0.34-0.51,0.47c-0.27,0.14-0.58,0.18-0.87,0.11      c-0.28-0.06-0.59-0.17-0.61-0.33C70.97,63.99,72.95,63.74,73.01,64.23z"
   id="path376" />
			</g>
		</g>
		<g
   id="g384">
			
				<ellipse
   transform="matrix(0.9919 -0.1267 0.1267 0.9919 -7.6401 8.3203)"
   class="st129"
   cx="61.59"
   cy="64.22"
   rx="3.87"
   ry="4.06"
   id="ellipse382" />
		</g>
		<g
   id="g388">
			
				<ellipse
   transform="matrix(0.9919 -0.1267 0.1267 0.9919 -7.7459 8.4058)"
   class="st0"
   cx="62.2"
   cy="65.09"
   rx="1.64"
   ry="1.72"
   id="ellipse386" />
		</g>
		<g
   id="g392">
			
				<ellipse
   transform="matrix(0.9919 -0.1267 0.1267 0.9919 -7.4616 8.1323)"
   class="st0"
   cx="60.19"
   cy="62.71"
   rx="0.95"
   ry="0.99"
   id="ellipse390" />
		</g>
		<g
   id="g396">
			
				<ellipse
   transform="matrix(0.9919 -0.1267 0.1267 0.9919 -7.1371 10.9302)"
   class="st129"
   cx="82.35"
   cy="61.57"
   rx="3.87"
   ry="4.06"
   id="ellipse394" />
		</g>
		<g
   id="g400">
			
				<ellipse
   transform="matrix(0.9919 -0.1267 0.1267 0.9919 -7.2411 11.013)"
   class="st0"
   cx="82.97"
   cy="62.44"
   rx="1.64"
   ry="1.72"
   id="ellipse398" />
		</g>
		<g
   id="g404">
			
				<ellipse
   transform="matrix(0.9919 -0.1267 0.1267 0.9919 -6.9581 10.7419)"
   class="st0"
   cx="80.95"
   cy="60.06"
   rx="0.95"
   ry="0.99"
   id="ellipse402" />
		</g>
		<g
   id="g408">
			<path
   class="st125"
   d="M51.17,68.81c-0.1-0.04-0.22-0.08-0.33-0.12c-0.11-0.04-0.23-0.08-0.34-0.12     c-0.11-0.04-0.23-0.07-0.35-0.11c-0.12-0.03-0.23-0.07-0.35-0.1c-0.47-0.12-0.95-0.24-1.43-0.33c-0.96-0.17-1.93-0.3-2.91-0.32     c-0.24-0.01-0.49,0-0.73,0l-0.37,0c-0.12,0-0.24,0.01-0.37,0.02c-0.24,0.02-0.49,0.03-0.73,0.04l-0.73,0.08     c-0.49,0.04-0.97,0.16-1.45,0.23l-0.18,0.03l-0.18,0.04l-0.36,0.09c-0.24,0.06-0.48,0.11-0.72,0.17l-0.02,0     c-0.15,0.03-0.31-0.06-0.34-0.22c-0.03-0.14,0.05-0.29,0.19-0.33c0.24-0.08,0.48-0.16,0.73-0.23l0.36-0.11l0.18-0.06l0.19-0.05     c0.25-0.06,0.5-0.12,0.75-0.17c0.12-0.03,0.25-0.06,0.37-0.08l0.38-0.06l0.76-0.12c0.25-0.03,0.51-0.05,0.77-0.07     c0.13-0.01,0.26-0.02,0.38-0.03l0.38-0.01c0.26,0,0.51-0.02,0.77-0.01l0.77,0.03c0.26,0.02,0.51,0.05,0.77,0.07     c0.26,0.02,0.51,0.07,0.76,0.11c0.25,0.04,0.5,0.1,0.76,0.15c1,0.23,1.97,0.55,2.9,1.08c0.14,0.08,0.19,0.25,0.11,0.39     c-0.07,0.13-0.23,0.18-0.36,0.13L51.17,68.81z"
   id="path406" />
		</g>
		<g
   id="g412">
			<path
   class="st125"
   d="M52.31,72.52c-0.42,0.01-0.86,0.03-1.29,0.07c-0.43,0.04-0.86,0.09-1.28,0.15     c-0.85,0.13-1.69,0.31-2.5,0.58c-0.41,0.13-0.81,0.28-1.19,0.46c-0.2,0.08-0.38,0.18-0.57,0.28c-0.18,0.1-0.37,0.2-0.55,0.32     c-0.73,0.44-1.39,0.98-1.98,1.6l0,0c-0.11,0.11-0.29,0.12-0.41,0.01c-0.11-0.1-0.12-0.27-0.03-0.38c0.56-0.73,1.23-1.37,2-1.88     c0.38-0.26,0.78-0.49,1.2-0.69c0.41-0.2,0.84-0.38,1.27-0.52c0.87-0.3,1.76-0.49,2.67-0.59c0.91-0.09,1.81-0.11,2.73,0.02     c0.16,0.02,0.27,0.17,0.24,0.32c-0.02,0.14-0.14,0.25-0.28,0.25L52.31,72.52z"
   id="path410" />
		</g>
		<g
   id="g416">
			<path
   class="st125"
   d="M93.31,62.95c0.76-0.74,1.62-1.29,2.54-1.77c0.23-0.12,0.46-0.24,0.69-0.34c0.24-0.1,0.47-0.21,0.71-0.3     c0.24-0.09,0.48-0.18,0.72-0.26l0.74-0.22c0.24-0.08,0.5-0.13,0.75-0.19l0.37-0.09c0.13-0.03,0.25-0.04,0.38-0.07     c0.25-0.04,0.5-0.09,0.76-0.13l0.76-0.08l0.38-0.04c0.13-0.01,0.26-0.01,0.38-0.02c0.26-0.01,0.51-0.02,0.77-0.02l0.19,0     l0.19,0.01l0.38,0.02c0.25,0.01,0.51,0.03,0.76,0.04c0.16,0.01,0.28,0.15,0.27,0.3c-0.01,0.15-0.13,0.26-0.27,0.27l-0.02,0     c-0.25,0.01-0.49,0.02-0.74,0.02l-0.37,0.01l-0.18,0l-0.18,0.02c-0.49,0.05-0.98,0.06-1.47,0.14l-0.73,0.1     c-0.24,0.05-0.48,0.1-0.72,0.14c-0.12,0.02-0.24,0.04-0.36,0.07l-0.35,0.09c-0.24,0.07-0.48,0.11-0.71,0.19     c-0.94,0.27-1.85,0.63-2.73,1.04c-0.44,0.2-0.87,0.44-1.3,0.67c-0.11,0.06-0.21,0.13-0.31,0.19c-0.11,0.06-0.21,0.12-0.31,0.19     c-0.1,0.06-0.2,0.13-0.3,0.2c-0.1,0.07-0.2,0.14-0.29,0.2l-0.02,0.01c-0.13,0.09-0.31,0.07-0.4-0.06     C93.19,63.21,93.2,63.05,93.31,62.95z"
   id="path414" />
		</g>
		<g
   id="g420">
			<path
   class="st125"
   d="M93.33,66.71c0.86-0.35,1.73-0.57,2.63-0.71c0.9-0.14,1.82-0.17,2.73-0.1c0.46,0.03,0.91,0.09,1.36,0.18     c0.45,0.09,0.9,0.21,1.33,0.36c0.87,0.3,1.69,0.75,2.41,1.32c0.12,0.1,0.15,0.28,0.05,0.4c-0.09,0.12-0.25,0.14-0.38,0.07     l-0.01,0c-0.73-0.45-1.5-0.81-2.32-1.05c-0.2-0.07-0.41-0.11-0.61-0.17c-0.21-0.04-0.41-0.09-0.63-0.12     c-0.42-0.07-0.84-0.12-1.27-0.15c-0.85-0.06-1.71-0.02-2.57,0.07c-0.43,0.04-0.86,0.1-1.28,0.17c-0.42,0.07-0.86,0.16-1.26,0.25     l-0.02,0c-0.15,0.04-0.31-0.06-0.35-0.21C93.13,66.91,93.2,66.77,93.33,66.71z"
   id="path418" />
		</g>
	</g>
	<g
   id="g426">
		<path
   class="st127"
   d="M63.95,96.04C54.53,96.51,58.93,85.47,59,85.3l0,0c0,0-0.45-0.07-1.07-0.32c-1.18-0.48-3.01-1.62-3.67-4.18    c-0.91-3.51,2.91-5.78,5.5-1.33c0,0,7.38-2.71,8.58,3.42c0.18,0.92,0.36,1.91,0.49,2.91c0.11,0.81,0.19,1.63,0.23,2.43    C69.25,92.21,68.33,95.82,63.95,96.04z"
   id="path424" />
	</g>
	<g
   class="st120"
   id="g430">
		<path
   class="st125"
   d="M63.95,96.04C54.53,96.51,58.93,85.47,59,85.3l0,0c0,0-0.45-0.07-1.07-0.32c3.12,0.8,4.96,0.49,5.03,0.48    c-0.08,0.06-3.23,2.4-1.85,5.97c1.1,2.84,7.26,2.56,7.95-3.2C69.25,92.21,68.33,95.82,63.95,96.04z"
   id="path428" />
	</g>
	<g
   id="g434">
		<path
   class="st0"
   d="M68.82,85.79c-1.02-0.42-2.44-0.73-4.23-0.49c-3.63,0.47-5.59,0-5.59,0s-3.73-0.59-4.74-4.5    c-0.19-0.73-0.17-1.4-0.01-1.97c0.63-2.19,3.45-2.88,5.5,0.64c0,0,6.43-2.37,8.26,2.31c0.13,0.33,0.24,0.7,0.32,1.11    C68.51,83.81,68.69,84.79,68.82,85.79z"
   id="path432" />
	</g>
	<g
   class="st120"
   id="g438">
		<path
   class="st125"
   d="M68.01,81.77c-2.33-2.24-6.04-2.13-6.8-1.59c-0.36,0.25,0.07,0.71-0.14,0.98    c-0.14,0.18-1.11-0.72-1.72-0.76c-0.73-0.05-1.35,0.52-1.44,0.19c-0.11-0.41,0.75-2.01-1.13-2.62c-0.76-0.25-1.75,0.28-2.54,0.84    c0.63-2.19,3.45-2.88,5.5,0.64C59.75,79.46,66.19,77.1,68.01,81.77z"
   id="path436" />
	</g>
	<g
   id="g442">
		<path
   class="st125"
   d="M63.38,96.63c-2.31,0-3.99-0.72-5-2.13c-1.93-2.72-0.7-7.17-0.14-8.8c-1.21-0.38-3.71-1.53-4.54-4.76    c-0.49-1.88,0.24-3.69,1.73-4.31c1.23-0.51,3.05-0.18,4.57,2.15c1.13-0.33,4.13-1.03,6.4,0.25c1.31,0.74,2.15,2,2.49,3.74    c0.85,4.34,1.42,9.15-0.7,11.86c-0.96,1.22-2.37,1.88-4.22,1.98C63.77,96.62,63.58,96.63,63.38,96.63z M56.48,77.57    c-0.22,0-0.43,0.04-0.61,0.12c-0.82,0.34-1.45,1.46-1.06,2.96c0.9,3.49,4.14,4.06,4.28,4.08c0.17,0.03,0.32,0.13,0.41,0.29    c0.09,0.15,0.1,0.33,0.03,0.5c-0.02,0.05-2.2,5.53-0.21,8.32c0.85,1.19,2.4,1.74,4.6,1.63c1.52-0.08,2.62-0.58,3.37-1.54    c1.85-2.36,1.23-7.08,0.48-10.94c-0.27-1.4-0.92-2.39-1.92-2.96c-2.32-1.31-5.86-0.04-5.9-0.03c-0.26,0.1-0.55-0.01-0.69-0.25    C58.32,78.14,57.29,77.57,56.48,77.57z"
   id="path440" />
	</g>
	<g
   id="g446">
		<path
   class="st125"
   d="M59.13,84.74c0.13,0.04,0.31,0.08,0.47,0.12c0.16,0.04,0.33,0.07,0.5,0.1c0.34,0.06,0.67,0.1,1.02,0.13    c0.34,0.03,0.69,0.05,1.03,0.06c0.35,0.01,0.69,0,1.04-0.01l0.01,0c0.16-0.01,0.29,0.12,0.3,0.28c0,0.15-0.1,0.27-0.24,0.29    c-0.35,0.06-0.71,0.12-1.07,0.15c-0.36,0.04-0.72,0.07-1.08,0.08c-0.36,0.01-0.73,0.02-1.09,0c-0.18-0.01-0.37-0.02-0.55-0.03    c-0.19-0.02-0.36-0.03-0.57-0.06c-0.31-0.05-0.53-0.34-0.48-0.66c0.05-0.31,0.34-0.53,0.66-0.48    C59.08,84.72,59.11,84.73,59.13,84.74z"
   id="path444" />
	</g>
	<g
   id="g450">
		<path
   class="st125"
   d="M113,90.19c-0.02,0.28-0.05,0.54-0.1,0.81c-0.04,0.26-0.11,0.53-0.17,0.79c-0.14,0.52-0.34,1.03-0.59,1.52    c-0.24,0.49-0.57,0.95-0.95,1.37l-0.3,0.31c-0.11,0.09-0.22,0.18-0.33,0.27l-0.17,0.14l-0.18,0.12l-0.36,0.23    c-0.27,0.17-0.62,0.1-0.79-0.17s-0.1-0.62,0.17-0.79c0.01-0.01,0.03-0.02,0.04-0.03l0.06-0.03l0.3-0.16l0.15-0.08l0.14-0.1    l0.29-0.2l0.26-0.23c0.34-0.32,0.66-0.67,0.91-1.09c0.26-0.41,0.48-0.85,0.65-1.31c0.09-0.23,0.16-0.47,0.23-0.7    c0.07-0.24,0.12-0.49,0.16-0.71l0-0.02c0.02-0.16,0.17-0.26,0.33-0.24C112.91,89.91,113.01,90.05,113,90.19z"
   id="path448" />
	</g>
	<g
   id="g454">
		<path
   class="st125"
   d="M108.56,85.28c-0.01,0.01-0.02,0.01-0.03,0.02c-0.01,0.01-0.02,0.01-0.01,0.01l0,0c0,0,0-0.01,0-0.01    l0.02-0.04l0.04-0.08c0.03-0.06,0.06-0.11,0.1-0.16c0.07-0.11,0.15-0.21,0.25-0.32c0.1-0.1,0.21-0.2,0.38-0.29    c0.09-0.04,0.21-0.08,0.37-0.08c0.08,0,0.17,0.02,0.25,0.06c0.04,0.02,0.07,0.04,0.11,0.06c0.03,0.02,0.1,0.08,0.12,0.12    c0.02,0.02,0.03,0.04,0.04,0.07c0.01,0.02,0.02,0.04,0.03,0.06c0.02,0.04,0.03,0.07,0.04,0.1c0.02,0.06,0.02,0.11,0.03,0.16    c0.01,0.09,0,0.17,0,0.24c-0.02,0.15-0.04,0.27-0.08,0.4c-0.07,0.25-0.16,0.47-0.29,0.7c-0.08,0.14-0.26,0.19-0.4,0.1    c-0.09-0.06-0.15-0.16-0.14-0.26l0-0.02c0-0.23,0.03-0.46,0.05-0.67c0.01-0.11,0.02-0.21,0.01-0.3c0-0.04,0-0.08-0.01-0.11    c0-0.02-0.02-0.03,0.03,0.05c0.01,0.02,0.05,0.06,0.06,0.06c0.01,0.01,0.02,0.01,0.03,0.02c0.03,0.01,0.06,0.02,0.08,0.02    c0.05,0,0.05-0.01,0.03,0c-0.04,0.01-0.11,0.06-0.19,0.11c-0.08,0.06-0.16,0.12-0.25,0.19l-0.34,0.27    c-0.13,0.09-0.31,0.05-0.4-0.08C108.39,85.55,108.43,85.37,108.56,85.28z"
   id="path452" />
	</g>
	<g
   id="g458">
		<path
   class="st125"
   d="M92.71,87.3c0.05,0.38,0.06,0.73,0.03,1.1c-0.03,0.37-0.08,0.74-0.2,1.11c-0.12,0.37-0.31,0.74-0.59,1.06    c-0.14,0.16-0.31,0.3-0.49,0.42c-0.18,0.12-0.38,0.21-0.59,0.29l0,0c-0.3,0.11-0.63-0.05-0.74-0.34c-0.11-0.3,0.05-0.63,0.34-0.74    c0.03-0.01,0.06-0.02,0.09-0.02c0.25-0.05,0.48-0.15,0.68-0.31c0.2-0.17,0.37-0.4,0.5-0.67c0.13-0.27,0.23-0.57,0.29-0.88    c0.06-0.31,0.1-0.65,0.11-0.95l0-0.02c0-0.16,0.13-0.28,0.29-0.28C92.57,87.05,92.69,87.16,92.71,87.3z"
   id="path456" />
	</g>
	<g
   id="g462">
		<path
   class="st125"
   d="M88.36,86.84c-0.03,0.33-0.02,0.68,0,1.02c0.03,0.34,0.09,0.67,0.18,0.98c0.09,0.31,0.23,0.59,0.4,0.81    c0.09,0.11,0.18,0.2,0.29,0.28c0.11,0.07,0.22,0.13,0.34,0.18c0.3,0.11,0.45,0.44,0.33,0.74c-0.11,0.3-0.44,0.45-0.74,0.33    c-0.02-0.01-0.05-0.02-0.07-0.03l-0.01,0c-0.21-0.11-0.4-0.25-0.56-0.41c-0.17-0.16-0.3-0.34-0.42-0.53    c-0.22-0.38-0.34-0.78-0.41-1.18c-0.07-0.39-0.08-0.78-0.06-1.16c0.02-0.38,0.06-0.75,0.15-1.13c0.03-0.15,0.19-0.25,0.34-0.22    c0.14,0.03,0.24,0.16,0.22,0.3L88.36,86.84z"
   id="path460" />
	</g>
	<g
   id="g466">
		<path
   class="st125"
   d="M115.84,94.06c0.26,0.07,0.57,0.12,0.85,0.14c0.29,0.02,0.57,0,0.84-0.05c0.27-0.05,0.51-0.15,0.72-0.27    c0.21-0.12,0.37-0.31,0.51-0.49l0.02-0.03c0.19-0.25,0.56-0.3,0.81-0.1c0.25,0.19,0.3,0.56,0.1,0.81    c-0.02,0.02-0.03,0.04-0.05,0.06c-0.28,0.27-0.59,0.51-0.95,0.66c-0.35,0.14-0.72,0.21-1.07,0.23c-0.35,0.01-0.7-0.03-1.03-0.1    c-0.33-0.07-0.64-0.17-0.96-0.31c-0.14-0.07-0.21-0.23-0.14-0.38c0.06-0.13,0.2-0.2,0.34-0.16L115.84,94.06z"
   id="path464" />
	</g>
	<g
   id="g470">
		<path
   class="st125"
   d="M116.51,90.02c0.3-0.09,0.58-0.15,0.88-0.2c0.3-0.04,0.61-0.05,0.93-0.02c0.32,0.03,0.65,0.11,0.97,0.28    c0.16,0.09,0.31,0.19,0.45,0.32c0.14,0.13,0.26,0.28,0.36,0.44l0.01,0.01c0.17,0.27,0.08,0.63-0.19,0.79    c-0.27,0.17-0.63,0.08-0.79-0.19c-0.02-0.03-0.03-0.06-0.05-0.09c-0.03-0.08-0.07-0.16-0.12-0.24c-0.05-0.07-0.12-0.14-0.19-0.2    c-0.16-0.12-0.36-0.22-0.59-0.28c-0.23-0.06-0.48-0.1-0.74-0.11c-0.26-0.01-0.53,0-0.78,0.04l-0.02,0    c-0.16,0.02-0.3-0.09-0.32-0.25C116.3,90.19,116.38,90.06,116.51,90.02z"
   id="path468" />
	</g>
	<g
   class="st131"
   id="g474">
		<path
   class="st0"
   d="M100.34,89.02c0.43,2.13,2.61,4.19,5.51,3.11c2.23-0.83-1.69-1.49-3.36-3.24    C101.34,87.68,99.94,87.03,100.34,89.02z"
   id="path472" />
	</g>
	<g
   class="st131"
   id="g478">
		<path
   class="st0"
   d="M97.85,73.27c-0.11,0,0.46,1.55,0.12,3.56c-0.15,0.88,1.49-0.1,1.32-1.61    C99.13,73.88,97.96,73.27,97.85,73.27z"
   id="path476" />
	</g>
	<g
   id="g546">
		<g
   id="g482">
			<path
   class="st129"
   d="M56.79,71.92c-1.77,0-3.16-0.4-4.15-1.21c-3.19-2.58-3.05-6.9-2.68-9.25c0.01-0.05,0.01-0.09,0.02-0.11     c0-0.02,0.01-0.04,0.01-0.07c0.19-1.24,1.04-2.31,2.22-2.78c0.81-0.33,1.71-0.56,2.69-0.7c3.17-0.44,6.34-0.31,8.71,0.36     c1.49,0.42,2.58,1.68,2.8,3.21l0.47,3.38c0.36,2.59-1.16,5.08-3.63,5.92c-1.59,0.54-3.09,0.91-4.44,1.1     C58.09,71.87,57.42,71.92,56.79,71.92z M58.57,58.4c-1.15,0-2.35,0.08-3.55,0.25c-0.91,0.13-1.74,0.34-2.48,0.64     c-0.9,0.36-1.55,1.17-1.69,2.11l-0.01,0.05c0,0.03-0.01,0.08-0.02,0.14c-0.34,2.17-0.48,6.14,2.37,8.45     c1.15,0.93,3,1.22,5.5,0.87c1.3-0.18,2.74-0.54,4.28-1.06c2.08-0.7,3.36-2.8,3.06-4.98l-0.47-3.38     c-0.17-1.19-1.02-2.18-2.18-2.51C62,58.6,60.34,58.4,58.57,58.4z"
   id="path480" />
		</g>
		<g
   id="g486">
			<path
   class="st134"
   d="M95.4,60.53c0.04,1.78-0.33,3.73-1.57,5.49c-2.28,3.24-7.45,3.74-11.57,3.54     c-2.85-0.13-5.27-1.97-6.23-4.56c-0.18-0.47-0.3-0.97-0.37-1.48l-0.55-3.93c-0.3-0.13-0.6-0.24-0.9-0.33     c-0.94-0.27-1.91-0.34-2.86-0.21c-0.95,0.13-1.86,0.46-2.69,0.98c-0.27,0.17-0.53,0.36-0.78,0.57l0.55,3.93     c0.07,0.51,0.09,1.03,0.05,1.53c-0.21,2.75-2.03,5.18-4.74,6.1c-3.91,1.32-9.01,2.27-12.09-0.22c-1.67-1.35-2.56-3.12-3.02-4.85     c-0.63-2.42-0.4-4.75-0.27-5.67l0,0c0.04-0.27,0.07-0.42,0.07-0.42s-1.95-1.69-0.05-2.88c3.21-2.02,14.1-3.71,19.18,0.24     c2.01-1.7,4.82-2.1,7.23-1.01c3.79-5.2,14.72-6.56,18.37-5.5c2.16,0.63,0.75,2.79,0.75,2.79s0.07,0.13,0.18,0.38l0,0     C94.48,55.86,95.34,58.03,95.4,60.53z"
   id="path484" />
		</g>
		<g
   id="g490">
			<path
   class="st135"
   d="M48.64,67.09l19.85-1.03c-0.21,2.75-2.03,5.18-4.74,6.1c-3.91,1.32-9.01,2.27-12.09-0.22     C49.98,70.59,49.09,68.82,48.64,67.09z"
   id="path488" />
		</g>
		<g
   id="g494">
			<path
   class="st135"
   d="M95.4,60.53c0.04,1.78-0.33,3.73-1.57,5.49c-2.28,3.24-7.45,3.74-11.57,3.54     c-2.85-0.13-5.27-1.97-6.23-4.56L95.4,60.53z"
   id="path492" />
		</g>
		<g
   id="g498">
			<path
   class="st136"
   d="M93.91,54.63c0,0,0.07,0.13,0.18,0.38l0,0l-15.26,3.26c-2.19,0.47-4.43,0.68-6.67,0.72     c-0.27,0.01-0.55,0.03-0.82,0.06c-0.27,0.04-0.54,0.09-0.8,0.16c-2.17,0.58-4.38,0.99-6.61,1.14l-15.57,1.06l0,0     c0.04-0.27,0.07-0.42,0.07-0.42s-1.95-1.69-0.05-2.88c3.21-2.02,14.1-3.71,19.18,0.24c2.01-1.7,4.82-2.1,7.23-1.01     c3.79-5.2,14.72-6.56,18.37-5.5C95.33,52.47,93.91,54.63,93.91,54.63z"
   id="path496" />
		</g>
		<g
   id="g502">
			<path
   class="st134"
   d="M66.45,64.82c0.34,2.39-1.07,4.68-3.35,5.45c-1.57,0.53-3.04,0.89-4.36,1.08     c-2.62,0.37-4.59,0.04-5.83-0.96c-3.68-2.97-2.57-8.49-2.51-8.97c0-0.02,0.01-0.04,0.01-0.06c0.17-1.1,0.92-2.03,1.96-2.45     c0.65-0.26,1.5-0.52,2.59-0.67c2.66-0.37,5.92-0.4,8.53,0.35c1.32,0.38,2.3,1.5,2.49,2.86L66.45,64.82z"
   id="path500" />
		</g>
		<g
   id="g506">
			<path
   class="st125"
   d="M56.81,73.92c-2.02,0-3.94-0.44-5.42-1.64c-4.43-3.57-3.63-9.81-3.41-11.12c-0.31-0.33-0.9-1.06-0.84-1.9     c0.04-0.59,0.39-1.09,1.03-1.5c1.8-1.13,5.46-2.01,9.1-2.19c2.54-0.12,7.18,0.02,10.3,2.24c2.02-1.55,4.73-1.93,7.1-1     c2.38-3,6.81-4.41,9.28-4.99c3.55-0.83,7.31-0.99,9.35-0.4c0.72,0.21,1.2,0.6,1.4,1.16c0.29,0.79-0.08,1.66-0.29,2.06     c0.58,1.2,3.06,6.98-0.21,11.63c-2.41,3.43-7.82,3.92-11.94,3.72c-3.56-0.17-6.51-2.86-7.01-6.41l-0.52-3.69     c-1.05-0.43-2.19-0.57-3.31-0.41c-1.12,0.16-2.18,0.61-3.07,1.31l0.52,3.69c0.5,3.55-1.6,6.95-4.98,8.09     C61.76,73.29,59.21,73.92,56.81,73.92z M58.62,56.41c-4.16,0-8.3,1.01-10,2.08c-0.4,0.25-0.61,0.52-0.63,0.83     c-0.04,0.56,0.51,1.17,0.73,1.36c0.12,0.1,0.17,0.26,0.14,0.41c-0.01,0.07-1.38,6.93,3.06,10.51c2.96,2.39,7.99,1.4,11.69,0.15     c2.99-1.01,4.84-4.02,4.4-7.16l-0.55-3.93c-0.02-0.15,0.04-0.29,0.15-0.39c1.05-0.89,2.32-1.46,3.69-1.65     c1.36-0.19,2.74,0.01,4,0.57c0.13,0.06,0.23,0.19,0.25,0.33l0.55,3.93c0.44,3.14,3.05,5.52,6.2,5.67     c3.9,0.18,9.01-0.25,11.19-3.36c3.29-4.67,0.08-10.89,0.05-10.95c-0.07-0.14-0.06-0.3,0.02-0.43l0,0     c0.16-0.24,0.52-0.99,0.33-1.51c-0.11-0.29-0.38-0.49-0.83-0.63c-3.45-1-14.23,0.32-17.9,5.35c-0.12,0.16-0.34,0.22-0.52,0.14     c-2.24-1.01-4.9-0.64-6.77,0.95c-0.16,0.13-0.38,0.14-0.54,0.01C65.15,57.02,61.88,56.41,58.62,56.41z M56.79,71.92     c-1.77,0-3.16-0.4-4.15-1.21c-3.19-2.58-3.05-6.9-2.68-9.25c0.01-0.05,0.01-0.09,0.02-0.11c0-0.02,0.01-0.04,0.01-0.07     c0.19-1.24,1.04-2.31,2.22-2.78c0.81-0.33,1.71-0.56,2.69-0.7c3.17-0.44,6.34-0.31,8.71,0.36c1.49,0.42,2.58,1.68,2.8,3.21     l0.47,3.38c0.36,2.59-1.16,5.08-3.63,5.92c-1.59,0.54-3.09,0.91-4.44,1.1C58.09,71.87,57.42,71.92,56.79,71.92z M58.57,58.4     c-1.15,0-2.35,0.08-3.55,0.25c-0.91,0.13-1.74,0.34-2.48,0.64c-0.9,0.36-1.55,1.17-1.69,2.11l-0.01,0.05     c0,0.03-0.01,0.08-0.02,0.14c-0.34,2.17-0.48,6.14,2.37,8.45c1.15,0.93,3,1.22,5.5,0.87c1.3-0.18,2.74-0.54,4.28-1.06     c2.08-0.7,3.36-2.8,3.06-4.98l-0.47-3.38c-0.17-1.19-1.02-2.18-2.18-2.51C62,58.6,60.34,58.4,58.57,58.4z M83.79,68.03     c-0.47,0-0.95-0.01-1.44-0.04c-2.6-0.12-4.76-2.09-5.12-4.69l-0.47-3.38c-0.21-1.53,0.49-3.04,1.81-3.86     c2.09-1.3,5.11-2.3,8.28-2.74c0.98-0.14,1.91-0.16,2.78-0.07c1.26,0.14,2.37,0.93,2.9,2.06c0.01,0.03,0.02,0.05,0.03,0.07     c0.01,0.02,0.02,0.05,0.04,0.1c1,2.16,2.33,6.27-0.03,9.63l0,0c-0.99,1.41-2.89,2.32-5.64,2.71     C85.96,67.96,84.91,68.03,83.79,68.03z M88.53,54.06c-0.51,0-1.04,0.04-1.58,0.11c-3.05,0.43-5.95,1.38-7.94,2.62     c-1.02,0.64-1.58,1.82-1.41,3.01l0.47,3.38c0.31,2.18,2.12,3.84,4.31,3.95c1.63,0.08,3.11,0.02,4.41-0.16     c2.5-0.35,4.2-1.14,5.05-2.35l0,0c2.11-3,0.88-6.78-0.04-8.77c-0.03-0.06-0.05-0.1-0.06-0.13l-0.02-0.05     c-0.4-0.86-1.24-1.46-2.21-1.56C89.2,54.08,88.87,54.06,88.53,54.06z"
   id="path504" />
		</g>
		<g
   id="g510">
			<path
   class="st125"
   d="M65.98,61.44l0.47,3.38c0.34,2.39-1.07,4.68-3.35,5.45c-1.34,0.45-2.6,0.78-3.76,0.98     c-0.2,0.04-0.4,0.07-0.6,0.09c-1.71,0.24-3.13,0.19-4.27-0.16c-0.61-0.18-1.13-0.45-1.57-0.81c-0.02-0.02-0.04-0.04-0.07-0.06     c-1.2-0.99-1.88-2.27-2.25-3.54c-0.73-2.53-0.23-5.06-0.19-5.38c0-0.02,0.01-0.04,0.01-0.06c0.17-1.1,0.92-2.03,1.96-2.45     c0.65-0.26,1.5-0.52,2.59-0.67c0.72-0.1,1.48-0.18,2.26-0.22c1.57-0.08,3.22-0.03,4.74,0.22c0.53,0.09,1.04,0.2,1.53,0.34     c0.13,0.04,0.27,0.08,0.39,0.14C65,59.19,65.81,60.21,65.98,61.44z"
   id="path508" />
		</g>
		<g
   class="st105"
   id="g514">
			<path
   class="st0"
   d="M61.96,58.24l-9.12,12.09c-1.2-0.99-1.88-2.27-2.25-3.54l6.62-8.78C58.78,57.93,60.43,57.98,61.96,58.24z"
   id="path512" />
		</g>
		<g
   class="st105"
   id="g518">
			<path
   class="st0"
   d="M65.98,61.44l0.12,0.85l-6.75,8.96c-0.2,0.04-0.4,0.07-0.6,0.09c-1.71,0.24-3.13,0.19-4.27-0.16l9.4-12.47     C65,59.19,65.81,60.21,65.98,61.44z"
   id="path516" />
		</g>
		<g
   id="g522">
			<path
   class="st125"
   d="M56.79,71.92c-1.77,0-3.16-0.4-4.15-1.21c-3.19-2.58-3.05-6.9-2.68-9.25c0.01-0.05,0.01-0.09,0.02-0.11     c0-0.02,0.01-0.04,0.01-0.07c0.19-1.24,1.04-2.31,2.22-2.78c0.81-0.33,1.71-0.56,2.69-0.7c3.17-0.44,6.34-0.31,8.71,0.36     c1.49,0.42,2.58,1.68,2.8,3.21l0,0l0.47,3.38c0.36,2.59-1.16,5.08-3.63,5.92c-1.59,0.54-3.09,0.91-4.44,1.1     C58.09,71.87,57.42,71.92,56.79,71.92z M58.57,58.4c-1.15,0-2.35,0.08-3.55,0.25c-0.91,0.13-1.74,0.34-2.48,0.64     c-0.9,0.36-1.55,1.17-1.69,2.11l-0.01,0.05c0,0.03-0.01,0.08-0.02,0.14c-0.34,2.17-0.48,6.14,2.37,8.45     c1.15,0.93,3,1.22,5.5,0.87c1.3-0.18,2.74-0.54,4.28-1.06c2.08-0.7,3.36-2.8,3.06-4.98l-0.47-3.38     c-0.17-1.19-1.02-2.18-2.18-2.51C62,58.6,60.34,58.4,58.57,58.4z"
   id="path520" />
		</g>
		<g
   id="g540">
			<g
   id="g526">
				<path
   class="st125"
   d="M77.2,59.86l0.47,3.38c0.34,2.39,2.32,4.2,4.72,4.32c1.41,0.07,2.71,0.04,3.89-0.09      c0.21-0.02,0.41-0.05,0.6-0.07c1.71-0.24,3.06-0.68,4.06-1.33c0.53-0.34,0.96-0.75,1.29-1.21c0.02-0.02,0.03-0.05,0.05-0.07      c0.88-1.29,1.18-2.7,1.19-4.02c0.01-2.64-1.17-4.93-1.29-5.23c-0.01-0.02-0.02-0.04-0.03-0.06c-0.47-1.01-1.44-1.7-2.55-1.81      c-0.69-0.07-1.59-0.09-2.67,0.07c-0.72,0.1-1.47,0.24-2.23,0.41c-1.53,0.35-3.1,0.86-4.5,1.52c-0.48,0.23-0.94,0.48-1.38,0.75      c-0.12,0.07-0.23,0.16-0.34,0.24C77.52,57.43,77.03,58.64,77.2,59.86z"
   id="path524" />
			</g>
			<g
   class="st105"
   id="g530">
				<path
   class="st0"
   d="M80.18,55.68l12.09,9.12c0.88-1.29,1.18-2.7,1.19-4.02l-8.78-6.62C83.15,54.51,81.58,55.02,80.18,55.68z"
   id="path528" />
			</g>
			<g
   class="st105"
   id="g534">
				<path
   class="st0"
   d="M77.2,59.86l0.12,0.85l8.96,6.75c0.21-0.02,0.41-0.05,0.6-0.07c1.71-0.24,3.06-0.68,4.06-1.33l-12.47-9.4      C77.52,57.43,77.03,58.64,77.2,59.86z"
   id="path532" />
			</g>
			<g
   id="g538">
				<path
   class="st129"
   d="M83.81,68.03c-0.47,0-0.95-0.01-1.44-0.04c-2.6-0.12-4.76-2.09-5.12-4.69l-0.47-3.38l0,0      c-0.21-1.53,0.49-3.04,1.81-3.86c2.09-1.3,5.11-2.3,8.28-2.74c0.98-0.14,1.91-0.16,2.78-0.07c1.26,0.14,2.37,0.93,2.9,2.06      c0.01,0.03,0.02,0.05,0.03,0.07c0.01,0.02,0.02,0.05,0.04,0.1c1,2.16,2.33,6.27-0.03,9.63c-0.99,1.41-2.89,2.32-5.64,2.71      C85.98,67.96,84.93,68.03,83.81,68.03z M77.62,59.8l0.47,3.38c0.31,2.18,2.12,3.84,4.31,3.95c1.63,0.08,3.11,0.02,4.41-0.16      c2.5-0.35,4.2-1.14,5.05-2.35c2.11-3,0.88-6.78-0.04-8.77c-0.03-0.06-0.05-0.1-0.06-0.13l-0.02-0.05      c-0.4-0.86-1.24-1.46-2.21-1.56c-0.79-0.09-1.66-0.06-2.57,0.06c-3.05,0.43-5.95,1.38-7.94,2.62      C78.01,57.43,77.46,58.61,77.62,59.8L77.62,59.8z"
   id="path536" />
			</g>
		</g>
		<g
   id="g544">
			<path
   class="st125"
   d="M83.79,68.03c-0.47,0-0.95-0.01-1.44-0.04c-2.6-0.12-4.76-2.09-5.12-4.69l-0.47-3.38     c-0.21-1.53,0.49-3.04,1.81-3.86c2.09-1.3,5.11-2.3,8.28-2.74c0.98-0.14,1.91-0.16,2.78-0.07c1.26,0.14,2.37,0.93,2.9,2.06     c0.01,0.03,0.02,0.05,0.03,0.07c0.01,0.02,0.02,0.05,0.04,0.1c1,2.16,2.33,6.27-0.03,9.63l0,0c-0.99,1.41-2.89,2.32-5.64,2.71     C85.96,67.96,84.91,68.03,83.79,68.03z M88.53,54.06c-0.51,0-1.04,0.04-1.58,0.11c-3.05,0.43-5.95,1.38-7.94,2.62     c-1.02,0.64-1.58,1.82-1.41,3.01l0.47,3.38c0.31,2.18,2.12,3.84,4.31,3.95c1.63,0.08,3.11,0.02,4.41-0.16     c2.5-0.35,4.2-1.14,5.05-2.35l0,0c2.11-3,0.88-6.78-0.04-8.77c-0.03-0.06-0.05-0.1-0.06-0.13l-0.02-0.05     c-0.4-0.86-1.24-1.46-2.21-1.56C89.2,54.08,88.87,54.06,88.53,54.06z"
   id="path542" />
		</g>
	</g>
	<g
   id="g550">
		<path
   class="st125"
   d="M51.58,82.52l-1.69,0.13c-0.71,0.05-1.27,0.61-1.32,1.32l-0.13,1.69l-0.13-1.69    c-0.05-0.71-0.61-1.27-1.32-1.32l-1.69-0.13L47,82.39c0.71-0.05,1.27-0.61,1.32-1.32l0.13-1.69l0.13,1.69    c0.05,0.71,0.61,1.27,1.32,1.32L51.58,82.52z"
   id="path548" />
	</g>
	<g
   id="g554">
		<path
   class="st125"
   d="M103.12,46l-1.93,0.14c-0.81,0.06-1.45,0.7-1.51,1.51l-0.14,1.93l-0.14-1.93c-0.06-0.81-0.7-1.45-1.51-1.51    L95.95,46l1.93-0.14c0.81-0.06,1.45-0.7,1.51-1.51l0.14-1.93l0.14,1.93c0.06,0.81,0.7,1.45,1.51,1.51L103.12,46z"
   id="path552" />
	</g>
	<g
   id="g558">
		<path
   class="st125"
   d="M46.06,55.93l-1.04,0.08c-0.44,0.03-0.78,0.38-0.81,0.81l-0.08,1.04l-0.08-1.04    c-0.03-0.44-0.38-0.78-0.81-0.81l-1.04-0.08l1.04-0.08c0.44-0.03,0.78-0.38,0.81-0.81L44.12,54l0.08,1.04    c0.03,0.44,0.38,0.78,0.81,0.81L46.06,55.93z"
   id="path556" />
	</g>
</g>
<g
   id="g606">
	<path
   d="M43.14,113.21h1.55l2.89,4.5v-4.5h1.61v7.59h-1.55l-2.89-4.49v4.49h-1.61V113.21z"
   id="path562" />
	<path
   d="M50.92,113.21h4.32v1.59h-2.61v1.42h2.55v1.59h-2.55v2.99h-1.71V113.21z"
   id="path564" />
	<path
   d="M56.12,117c0-2.32,1.69-3.95,3.96-3.95c2.27,0,3.97,1.63,3.97,3.95s-1.7,3.95-3.97,3.95   C57.81,120.95,56.12,119.32,56.12,117z M60.08,119.32c1.25,0,2.2-0.93,2.2-2.32s-0.95-2.32-2.2-2.32c-1.25,0-2.18,0.93-2.18,2.32   S58.83,119.32,60.08,119.32z"
   id="path566" />
	<path
   d="M67.07,117.82v2.97h-1.71v-7.59h2.58c1.61,0,2.6,0.8,2.6,2.36c0,1.04-0.63,1.82-1.7,2.09l2.17,3.13h-2.06L67.07,117.82z    M67.85,116.45c0.58,0,0.94-0.34,0.94-0.89s-0.36-0.89-0.94-0.89h-0.78v1.77H67.85z"
   id="path568" />
	<path
   d="M72.23,113.21h1.68l2.22,3.73l2.18-3.73h1.65v7.59h-1.61v-4.66l-1.73,2.97h-1.03l-1.75-2.99v4.68h-1.61V113.21z"
   id="path570" />
	<path
   d="M83.61,113.21h1.67l2.58,7.59h-1.78l-0.35-1.14h-2.56l-0.35,1.14h-1.76L83.61,113.21z M85.27,118.18l-0.83-2.69l-0.82,2.69   H85.27z"
   id="path572" />
	<path
   d="M89.53,114.79h-1.71v-1.59h5.13v1.59h-1.71v6h-1.71V114.79z"
   id="path574" />
	<path
   d="M96.1,117.83l-2.42-4.63h1.93l1.36,2.79l1.35-2.79h1.79l-2.3,4.63v2.96H96.1V117.83z"
   id="path576" />
	<path
   d="M102.59,117.64v3.15h-1.71v-7.59h1.71v2.94l2.07-2.88h2.01l-2.61,3.56l2.75,3.97h-2.08L102.59,117.64z"
   id="path578" />
	<path
   d="M109.53,113.21h1.67l2.58,7.59H112l-0.35-1.14h-2.56l-0.35,1.14h-1.76L109.53,113.21z M111.19,118.18l-0.83-2.69   l-0.82,2.69H111.19z"
   id="path580" />
	<rect
   x="36.74"
   y="113.2"
   width="1.99"
   height="1.99"
   id="rect582" />
	<rect
   x="36.75"
   y="110.4"
   width="1.99"
   height="1.99"
   id="rect584" />
	<rect
   x="36.74"
   y="121.6"
   width="1.99"
   height="1.99"
   id="rect586" />
	<rect
   x="36.74"
   y="116"
   width="1.99"
   height="1.99"
   id="rect588" />
	<rect
   x="36.74"
   y="118.8"
   width="1.99"
   height="1.99"
   id="rect590" />
	<rect
   x="39.56"
   y="107.61"
   width="1.99"
   height="1.99"
   id="rect592" />
	<rect
   x="33.95"
   y="116"
   width="1.99"
   height="1.99"
   id="rect594" />
	<rect
   x="33.95"
   y="113.2"
   width="1.99"
   height="1.99"
   id="rect596" />
	<rect
   x="33.95"
   y="124.4"
   width="1.99"
   height="1.99"
   id="rect598" />
	<rect
   x="33.95"
   y="118.8"
   width="1.99"
   height="1.99"
   id="rect600" />
	<rect
   x="33.95"
   y="121.61"
   width="1.99"
   height="1.99"
   id="rect602" />
	<rect
   x="39.61"
   y="113.21"
   width="1.94"
   height="7.59"
   id="rect604" />
</g>
<g
   id="g660">
	<path
   d="M17.89,34.08l0.62-0.77l2.91,1.38l-1.5-2.29l-0.41-0.33l0.47-0.59L23,32.71l-1.98-2.54l0.61-0.76l2.65,3.57L23.7,33.7   l-2.77-1.04l1.61,2.49l-0.59,0.74L17.89,34.08z"
   id="path608" />
	<path
   d="M22.28,28.68l0.7-0.7l2.75,1.67l-1.26-2.43l-0.37-0.37l0.53-0.53l2.88,1.54l-1.7-2.73l0.69-0.7l2.26,3.82l-0.66,0.66   l-2.64-1.33l1.34,2.64l-0.66,0.67L22.28,28.68z"
   id="path610" />
	<path
   d="M27.21,23.77l0.77-0.63l2.56,1.95l-0.99-2.55l-0.33-0.41l0.58-0.48l2.7,1.83l-1.4-2.89l0.76-0.62l1.85,4.04l-0.72,0.59   l-2.49-1.6l1.05,2.77l-0.73,0.6L27.21,23.77z"
   id="path612" />
	<path
   d="M34.9,22.21l0.68-0.48l0.44,0.63l-0.68,0.48L34.9,22.21z"
   id="path614" />
	<path
   d="M34.16,16.36l0.9-0.59l0.45,0.68l-0.91,0.59L34.16,16.36z M35.58,18.38l-0.55,0.36l-0.33-0.68l1.3-0.85l2.34,3.61   l-0.83,0.54L35.58,18.38z"
   id="path616" />
	<path
   d="M37.3,16.37l0.79-0.44l0.26,0.37c0.1-0.24,0.24-0.47,0.43-0.69c0.19-0.22,0.42-0.4,0.69-0.56c0.49-0.27,0.9-0.36,1.25-0.25   c0.35,0.1,0.66,0.39,0.93,0.88l1.36,2.43l-0.85,0.48l-1.34-2.39c-0.16-0.29-0.34-0.46-0.52-0.51c-0.19-0.05-0.44,0.02-0.76,0.2   c-0.2,0.11-0.37,0.26-0.51,0.44c-0.14,0.18-0.24,0.38-0.3,0.57l1.54,2.75l-0.86,0.48L37.3,16.37z"
   id="path618" />
	<path
   d="M42.86,14.27l-0.57,0.27l-0.33-0.7l0.57-0.27L42.3,13.1c-0.19-0.39-0.22-0.76-0.11-1.1c0.11-0.34,0.38-0.61,0.79-0.8   c0.28-0.13,0.57-0.21,0.86-0.24l0.3,0.64c-0.2,0.02-0.38,0.07-0.56,0.15c-0.26,0.12-0.41,0.25-0.47,0.39s-0.03,0.32,0.08,0.55   l0.22,0.47l1.02-0.48l0.29,0.72l-0.98,0.46l1.5,3.19l-0.89,0.42L42.86,14.27z"
   id="path620" />
	<path
   d="M45.86,14.37c-0.55-1.39-0.13-2.36,1.26-2.91c1.4-0.55,2.37-0.13,2.92,1.26c0.55,1.39,0.13,2.36-1.27,2.91   C47.38,16.18,46.41,15.76,45.86,14.37z M49.24,14.19c0.1-0.27,0.05-0.64-0.13-1.11c-0.18-0.46-0.4-0.76-0.66-0.89   c-0.26-0.13-0.6-0.11-1.02,0.05c-0.42,0.16-0.67,0.38-0.77,0.66c-0.1,0.27-0.05,0.64,0.13,1.1c0.19,0.47,0.41,0.77,0.66,0.9   c0.26,0.13,0.59,0.12,1.01-0.05C48.88,14.69,49.14,14.47,49.24,14.19z"
   id="path622" />
	<path
   d="M50.55,10.3l0.87-0.27l0.2,0.46c0.15-0.19,0.35-0.38,0.59-0.57c0.24-0.19,0.48-0.35,0.74-0.47l0.23,0.72   c-0.23,0.13-0.48,0.28-0.74,0.47c-0.26,0.19-0.45,0.36-0.58,0.51l0.94,2.96l-0.94,0.3L50.55,10.3z"
   id="path624" />
	<path
   d="M54.17,9.12l0.89-0.19l0.14,0.43c0.37-0.45,0.83-0.74,1.36-0.86c0.29-0.06,0.53-0.07,0.72-0.01   c0.19,0.05,0.35,0.16,0.49,0.33c0.17-0.22,0.38-0.4,0.62-0.56c0.24-0.15,0.52-0.27,0.85-0.34c0.49-0.11,0.87-0.06,1.15,0.14   c0.29,0.2,0.48,0.55,0.6,1.07l0.61,2.77l-0.95,0.21l-0.59-2.68C60,9.11,59.88,8.9,59.71,8.79c-0.16-0.1-0.4-0.12-0.71-0.05   c-0.2,0.04-0.38,0.12-0.55,0.23c-0.17,0.11-0.3,0.25-0.39,0.42c0.05,0.1,0.1,0.25,0.14,0.42l0.59,2.69l-0.9,0.2l-0.58-2.67   C57.24,9.72,57.14,9.5,57,9.39c-0.14-0.11-0.35-0.14-0.64-0.07c-0.37,0.08-0.7,0.33-0.98,0.74l0.67,3.06l-0.95,0.21L54.17,9.12z"
   id="path626" />
	<path
   d="M62.87,11.52c-0.31-0.19-0.49-0.5-0.54-0.92c-0.05-0.42,0.06-0.77,0.31-1.04c0.26-0.28,0.67-0.45,1.24-0.51l1.37-0.16   L65.23,8.7c-0.02-0.21-0.07-0.37-0.15-0.48C65,8.11,64.88,8.04,64.7,8s-0.42-0.03-0.73,0c-0.5,0.06-0.97,0.19-1.39,0.39L62.5,7.66   c0.2-0.1,0.43-0.19,0.7-0.27c0.27-0.08,0.56-0.14,0.87-0.17c0.64-0.07,1.13,0,1.48,0.22c0.35,0.22,0.56,0.61,0.62,1.17l0.31,2.75   l-0.84,0.1l-0.11-0.43c-0.16,0.19-0.36,0.35-0.61,0.47c-0.25,0.12-0.56,0.2-0.93,0.24C63.56,11.78,63.18,11.71,62.87,11.52z    M64.91,10.77c0.21-0.12,0.38-0.28,0.5-0.47l-0.08-0.75l-1.35,0.15c-0.29,0.03-0.49,0.11-0.61,0.23c-0.12,0.12-0.16,0.3-0.13,0.54   c0.02,0.22,0.12,0.37,0.27,0.45c0.16,0.08,0.38,0.11,0.67,0.08C64.45,10.97,64.7,10.89,64.91,10.77z"
   id="path628" />
	<path
   d="M68.08,11.01c-0.24-0.23-0.37-0.56-0.39-0.99l-0.11-2.25L66.94,7.8L66.9,7.03L67.54,7l-0.05-0.99l0.96-0.35l0.06,1.29   l1.14-0.05l-0.03,0.77l-1.08,0.05l0.11,2.19c0.01,0.25,0.08,0.42,0.19,0.51c0.12,0.09,0.31,0.14,0.57,0.12   c0.16-0.01,0.33-0.05,0.51-0.12l0.04,0.7c-0.23,0.11-0.52,0.17-0.85,0.19C68.67,11.34,68.32,11.24,68.08,11.01z"
   id="path630" />
	<path
   d="M70.58,12.63l0.01-0.73c0.17,0.06,0.35,0.1,0.55,0.1c0.18,0,0.33-0.02,0.45-0.08c0.12-0.06,0.22-0.14,0.3-0.26   c0.09-0.12,0.19-0.29,0.31-0.52l-1.84-4.28l1.03,0.02l1.32,3.22l1.45-3.17l1.02,0.02l-1.82,4.02c-0.27,0.61-0.55,1.07-0.84,1.37   c-0.29,0.3-0.66,0.45-1.11,0.44C71.09,12.76,70.81,12.72,70.58,12.63z"
   id="path632" />
	<path
   d="M76.28,5.21l0.98,0.1l-0.35,3.52l1.96-1.54l1.13,0.11L78.1,8.95l1.59,2.74l-1.04-0.1l-1.22-2.17L76.81,9.9l-0.15,1.49   l-0.98-0.1L76.28,5.21z"
   id="path634" />
	<path
   d="M80.55,11.57c-0.25-0.27-0.33-0.62-0.26-1.04c0.07-0.42,0.27-0.72,0.6-0.91c0.32-0.19,0.77-0.24,1.34-0.14l1.36,0.24   l0.03-0.19c0.04-0.21,0.03-0.38-0.01-0.5c-0.04-0.13-0.14-0.23-0.3-0.31c-0.16-0.08-0.39-0.15-0.7-0.21   c-0.5-0.09-0.98-0.09-1.44-0.02l0.13-0.72c0.21-0.04,0.46-0.06,0.75-0.06c0.28,0,0.58,0.03,0.88,0.08C83.54,7.89,84,8.1,84.27,8.41   c0.27,0.31,0.36,0.74,0.27,1.3l-0.47,2.73l-0.83-0.14l0.01-0.44c-0.21,0.14-0.45,0.23-0.72,0.28c-0.27,0.04-0.59,0.03-0.96-0.03   C81.13,12.02,80.8,11.84,80.55,11.57z M82.72,11.43c0.24-0.06,0.44-0.16,0.61-0.31l0.13-0.74l-1.34-0.23   c-0.29-0.05-0.5-0.03-0.65,0.05c-0.15,0.08-0.24,0.24-0.28,0.48c-0.04,0.21,0.01,0.38,0.13,0.51c0.12,0.12,0.33,0.21,0.62,0.26   C82.22,11.49,82.48,11.48,82.72,11.43z"
   id="path636" />
	<path
   d="M85.26,11.93l0.81,0.19l-0.17,0.75l-0.81-0.19L85.26,11.93z"
   id="path638" />
	<path
   d="M87.3,12.94c-0.22-0.3-0.27-0.65-0.15-1.06s0.35-0.69,0.69-0.84c0.34-0.16,0.79-0.15,1.34,0.01l1.32,0.38l0.05-0.18   c0.06-0.2,0.07-0.37,0.05-0.5s-0.12-0.25-0.26-0.35c-0.15-0.1-0.37-0.19-0.67-0.28c-0.49-0.14-0.96-0.2-1.43-0.18l0.21-0.71   c0.22-0.02,0.47-0.01,0.75,0.02c0.28,0.03,0.57,0.09,0.87,0.18c0.62,0.18,1.04,0.44,1.28,0.78c0.24,0.34,0.28,0.78,0.12,1.32   l-0.77,2.66l-0.81-0.23l0.06-0.44c-0.22,0.12-0.47,0.18-0.75,0.19c-0.28,0.01-0.59-0.03-0.95-0.14   C87.83,13.45,87.51,13.24,87.3,12.94z M89.47,13.04c0.24-0.03,0.46-0.11,0.64-0.24l0.21-0.72l-1.31-0.38   c-0.28-0.08-0.5-0.09-0.65-0.02c-0.16,0.07-0.27,0.22-0.33,0.44c-0.06,0.21-0.03,0.38,0.08,0.52c0.11,0.14,0.31,0.25,0.58,0.33   C88.97,13.04,89.23,13.07,89.47,13.04z"
   id="path640" />
	<path
   d="M92.01,16.28c-0.28-0.15-0.51-0.3-0.69-0.45l0.27-0.71c0.19,0.16,0.42,0.31,0.7,0.46s0.56,0.28,0.83,0.39   c0.43,0.16,0.74,0.25,0.93,0.27c0.19,0.02,0.32-0.05,0.38-0.2c0.05-0.12,0.03-0.22-0.04-0.3c-0.08-0.08-0.24-0.17-0.48-0.27   l-1.08-0.41c-0.36-0.14-0.6-0.31-0.74-0.51c-0.14-0.2-0.16-0.43-0.06-0.68c0.07-0.18,0.18-0.31,0.33-0.41   c0.15-0.1,0.34-0.15,0.57-0.14c-0.37-0.39-0.44-0.87-0.23-1.44c0.19-0.51,0.49-0.82,0.88-0.94c0.4-0.12,0.9-0.06,1.52,0.18   c0.23,0.09,0.46,0.21,0.71,0.37l1.48,0.56l-0.26,0.59l-0.68-0.26c0.14,0.27,0.14,0.57,0.02,0.9c-0.17,0.44-0.43,0.73-0.78,0.87   c-0.35,0.14-0.79,0.11-1.31-0.09c-0.13-0.05-0.3-0.13-0.48-0.23c-0.19-0.05-0.36-0.06-0.52-0.04C93.1,13.81,93,13.89,92.95,14   c-0.03,0.09-0.02,0.16,0.03,0.22c0.05,0.06,0.16,0.12,0.32,0.18l1.13,0.43c0.4,0.15,0.68,0.36,0.83,0.61   c0.15,0.26,0.17,0.55,0.04,0.88c-0.15,0.39-0.42,0.61-0.82,0.66c-0.4,0.05-0.93-0.05-1.59-0.3C92.59,16.56,92.29,16.43,92.01,16.28   z M95.07,13.49c0.19-0.07,0.34-0.25,0.46-0.56c0.12-0.31,0.12-0.55,0.03-0.74c-0.1-0.19-0.33-0.35-0.69-0.49   c-0.35-0.13-0.63-0.16-0.83-0.09c-0.21,0.07-0.37,0.26-0.48,0.57c-0.11,0.29-0.12,0.53-0.02,0.72s0.33,0.35,0.69,0.48   C94.6,13.52,94.88,13.55,95.07,13.49z"
   id="path642" />
	<path
   d="M99.24,10.92l0.89,0.43l-0.97,2.01c0.24-0.06,0.5-0.07,0.78-0.04c0.28,0.03,0.56,0.12,0.84,0.25   c0.49,0.24,0.8,0.53,0.92,0.87c0.12,0.35,0.06,0.77-0.17,1.27l-1.21,2.51l-0.88-0.42l1.19-2.47c0.14-0.3,0.18-0.54,0.11-0.72   c-0.07-0.18-0.26-0.35-0.58-0.5c-0.2-0.09-0.42-0.15-0.66-0.16c-0.24-0.01-0.46,0.02-0.66,0.09l-1.35,2.82l-0.89-0.43L99.24,10.92z   "
   id="path644" />
	<path
   d="M101.63,18.08l0.73,0.4l-0.37,0.67l-0.73-0.4L101.63,18.08z"
   id="path646" />
	<path
   d="M103.58,19.51c-0.14-0.53-0.02-1.12,0.38-1.75c0.38-0.6,0.82-0.97,1.33-1.11c0.51-0.14,1.06-0.03,1.66,0.35   c0.54,0.34,0.86,0.74,0.97,1.2c0.11,0.46,0.02,0.93-0.28,1.4l-0.42,0.68l-2.67-1.67c-0.18,0.37-0.2,0.7-0.08,0.96   c0.12,0.27,0.41,0.54,0.87,0.82c0.18,0.12,0.38,0.22,0.6,0.3c0.21,0.08,0.41,0.15,0.6,0.18l-0.39,0.62   c-0.41-0.06-0.87-0.25-1.38-0.56C104.12,20.52,103.72,20.05,103.58,19.51z M106.82,19.26l0.16-0.25c0.16-0.26,0.22-0.51,0.16-0.73   c-0.06-0.23-0.25-0.44-0.56-0.64c-0.38-0.24-0.7-0.32-0.95-0.25c-0.25,0.07-0.5,0.29-0.73,0.67L106.82,19.26z"
   id="path648" />
	<path
   d="M107.66,22.23c-0.08-0.47,0.11-1,0.55-1.6c0.3-0.4,0.63-0.69,0.98-0.87c0.35-0.18,0.71-0.25,1.07-0.21   c0.36,0.04,0.7,0.17,1.02,0.41c0.2,0.15,0.37,0.31,0.5,0.49c0.13,0.17,0.23,0.36,0.3,0.58l1.25-1.68l0.79,0.59l-3.66,4.9   l-0.68-0.51l0.21-0.38c-0.27,0.03-0.52,0-0.75-0.07c-0.23-0.07-0.47-0.2-0.72-0.39C108.02,23.12,107.74,22.7,107.66,22.23z    M110.34,23.36l1.29-1.72c-0.08-0.37-0.29-0.69-0.63-0.95c-0.33-0.25-0.67-0.33-1-0.23c-0.34,0.1-0.66,0.36-0.98,0.78   c-0.3,0.4-0.43,0.74-0.4,1.01s0.22,0.54,0.57,0.8C109.53,23.32,109.92,23.42,110.34,23.36z"
   id="path650" />
	<path
   d="M111.93,25.61c-0.01-0.4,0.16-0.8,0.52-1.21l1.81-2.02l0.74,0.66l-1.81,2.02c-0.21,0.24-0.31,0.47-0.3,0.69   c0.02,0.22,0.15,0.43,0.39,0.65c0.18,0.16,0.37,0.27,0.58,0.34c0.21,0.07,0.43,0.1,0.65,0.09l2.1-2.35l0.73,0.65l-2.86,3.21   l-0.67-0.6l0.26-0.36c-0.58-0.04-1.09-0.26-1.55-0.66C112.14,26.38,111.94,26.01,111.93,25.61z"
   id="path652" />
	<path
   d="M115.78,28.58l0.59,0.59l-0.54,0.55l-0.59-0.59L115.78,28.58z"
   id="path654" />
	<path
   d="M119.84,27.65l0.57,0.64l-0.28,0.32c0.26,0.03,0.5,0.11,0.72,0.22c0.22,0.12,0.43,0.29,0.63,0.52   c0.43,0.48,0.62,0.96,0.58,1.44c-0.04,0.48-0.34,0.97-0.9,1.47c-0.57,0.51-1.12,0.76-1.64,0.75c-0.53,0-1-0.24-1.41-0.71   c-0.35-0.39-0.55-0.8-0.61-1.24l-1.67,1.48l-0.66-0.74L119.84,27.65z M119.41,32.06c0.33-0.02,0.7-0.21,1.09-0.56   c0.38-0.34,0.59-0.65,0.62-0.93c0.04-0.28-0.09-0.59-0.39-0.92c-0.29-0.33-0.65-0.51-1.07-0.53l-1.61,1.43   c0,0.39,0.15,0.74,0.43,1.06C118.77,31.93,119.08,32.08,119.41,32.06z"
   id="path656" />
	<path
   d="M120.44,34.69c0.03-0.25,0.2-0.49,0.51-0.73l4.02-3.12l0.61,0.78l-3.95,3.07c-0.13,0.1-0.2,0.19-0.22,0.28   c-0.02,0.08,0.02,0.18,0.09,0.28c0.09,0.12,0.19,0.21,0.3,0.3l-0.57,0.44c-0.18-0.11-0.35-0.27-0.51-0.48   C120.5,35.2,120.41,34.94,120.44,34.69z"
   id="path658" />
</g>
</svg>
