<?xml version="1.0" encoding="UTF-8" standalone="no"?>
<!-- Generator: Adobe Illustrator 28.3.0, SVG Export Plug-In . SVG Version: 6.00 Build 0)  -->

<svg
   version="1.1"
   id="Warstwa_1"
   x="0px"
   y="0px"
   viewBox="0 0 141.73 141.73"
   style="enable-background:new 0 0 141.73 141.73;"
   xml:space="preserve"
   sodipodi:docname="wlepki_WI_final_bez_kolek_Obszar roboczy 1 kopia 3.svgz"
   xmlns:inkscape="http://www.inkscape.org/namespaces/inkscape"
   xmlns:sodipodi="http://sodipodi.sourceforge.net/DTD/sodipodi-0.dtd"
   xmlns="http://www.w3.org/2000/svg"
   xmlns:svg="http://www.w3.org/2000/svg"><defs
   id="defs725" /><sodipodi:namedview
   id="namedview723"
   pagecolor="#ffffff"
   bordercolor="#000000"
   borderopacity="0.25"
   inkscape:showpageshadow="2"
   inkscape:pageopacity="0.0"
   inkscape:pagecheckerboard="0"
   inkscape:deskcolor="#d1d1d1" />
<style
   type="text/css"
   id="style2">
	.st0{fill:#FFFFFF;}
	
		.st1{clip-path:url(#SVGID_00000127019596299446016560000008470488726601002655_);fill:none;stroke:#766357;stroke-width:0;stroke-miterlimit:10;}
	.st2{fill:#2C130C;}
	
		.st3{clip-path:url(#SVGID_00000120546073224032726300000018362563911792169641_);fill:none;stroke:#E0965B;stroke-width:0;stroke-miterlimit:10;}
	
		.st4{clip-path:url(#SVGID_00000120546073224032726300000018362563911792169641_);fill:none;stroke:#B9723E;stroke-width:0;stroke-miterlimit:10;}
	
		.st5{clip-path:url(#SVGID_00000120546073224032726300000018362563911792169641_);fill:none;stroke:#B66F3B;stroke-width:0;stroke-miterlimit:10;}
	
		.st6{clip-path:url(#SVGID_00000120546073224032726300000018362563911792169641_);fill:none;stroke:#AF6734;stroke-width:0;stroke-miterlimit:10;}
	
		.st7{clip-path:url(#SVGID_00000120546073224032726300000018362563911792169641_);fill:none;stroke:#B06B37;stroke-width:0;stroke-miterlimit:10;}
	
		.st8{clip-path:url(#SVGID_00000120546073224032726300000018362563911792169641_);fill:none;stroke:#BA8151;stroke-width:0;stroke-miterlimit:10;}
	
		.st9{clip-path:url(#SVGID_00000120546073224032726300000018362563911792169641_);fill:none;stroke:#BC7D4B;stroke-width:0;stroke-miterlimit:10;}
	
		.st10{clip-path:url(#SVGID_00000120546073224032726300000018362563911792169641_);fill:none;stroke:#B87542;stroke-width:0;stroke-miterlimit:10;}
	
		.st11{clip-path:url(#SVGID_00000120546073224032726300000018362563911792169641_);fill:none;stroke:#BB7D4B;stroke-width:0;stroke-miterlimit:10;}
	
		.st12{clip-path:url(#SVGID_00000120546073224032726300000018362563911792169641_);fill:none;stroke:#86512C;stroke-width:0;stroke-miterlimit:10;}
	
		.st13{clip-path:url(#SVGID_00000120546073224032726300000018362563911792169641_);fill:none;stroke:#C37D47;stroke-width:0;stroke-miterlimit:10;}
	
		.st14{clip-path:url(#SVGID_00000120546073224032726300000018362563911792169641_);fill:none;stroke:#CC8A54;stroke-width:0;stroke-miterlimit:10;}
	
		.st15{clip-path:url(#SVGID_00000120546073224032726300000018362563911792169641_);fill:none;stroke:#B37447;stroke-width:0;stroke-miterlimit:10;}
	
		.st16{clip-path:url(#SVGID_00000120546073224032726300000018362563911792169641_);fill:none;stroke:#A86734;stroke-width:0;stroke-miterlimit:10;}
	
		.st17{clip-path:url(#SVGID_00000120546073224032726300000018362563911792169641_);fill:none;stroke:#E9AF79;stroke-width:0;stroke-miterlimit:10;}
	
		.st18{clip-path:url(#SVGID_00000120546073224032726300000018362563911792169641_);fill:none;stroke:#AB6531;stroke-width:0;stroke-miterlimit:10;}
	
		.st19{clip-path:url(#SVGID_00000120546073224032726300000018362563911792169641_);fill:none;stroke:#B97C4B;stroke-width:0;stroke-miterlimit:10;}
	
		.st20{clip-path:url(#SVGID_00000120546073224032726300000018362563911792169641_);fill:none;stroke:#975A2D;stroke-width:0;stroke-miterlimit:10;}
	
		.st21{clip-path:url(#SVGID_00000120546073224032726300000018362563911792169641_);fill:none;stroke:#BE7F50;stroke-width:0;stroke-miterlimit:10;}
	
		.st22{clip-path:url(#SVGID_00000120546073224032726300000018362563911792169641_);fill:none;stroke:#9D6339;stroke-width:0;stroke-miterlimit:10;}
	
		.st23{clip-path:url(#SVGID_00000120546073224032726300000018362563911792169641_);fill:none;stroke:#B98559;stroke-width:0;stroke-miterlimit:10;}
	
		.st24{clip-path:url(#SVGID_00000120546073224032726300000018362563911792169641_);fill:none;stroke:#B36B38;stroke-width:0;stroke-miterlimit:10;}
	
		.st25{clip-path:url(#SVGID_00000120546073224032726300000018362563911792169641_);fill:none;stroke:#F2B681;stroke-width:0;stroke-miterlimit:10;}
	
		.st26{clip-path:url(#SVGID_00000120546073224032726300000018362563911792169641_);fill:none;stroke:#B16D3B;stroke-width:0;stroke-miterlimit:10;}
	
		.st27{clip-path:url(#SVGID_00000120546073224032726300000018362563911792169641_);fill:none;stroke:#C58451;stroke-width:0;stroke-miterlimit:10;}
	
		.st28{clip-path:url(#SVGID_00000120546073224032726300000018362563911792169641_);fill:none;stroke:#B77E55;stroke-width:0;stroke-miterlimit:10;}
	
		.st29{clip-path:url(#SVGID_00000120546073224032726300000018362563911792169641_);fill:none;stroke:#99633E;stroke-width:0;stroke-miterlimit:10;}
	
		.st30{clip-path:url(#SVGID_00000120546073224032726300000018362563911792169641_);fill:none;stroke:#6A3D23;stroke-width:0;stroke-miterlimit:10;}
	
		.st31{clip-path:url(#SVGID_00000120546073224032726300000018362563911792169641_);fill:none;stroke:#836346;stroke-width:0;stroke-miterlimit:10;}
	
		.st32{clip-path:url(#SVGID_00000120546073224032726300000018362563911792169641_);fill:none;stroke:#9F7049;stroke-width:0;stroke-miterlimit:10;}
	
		.st33{clip-path:url(#SVGID_00000120546073224032726300000018362563911792169641_);fill:none;stroke:#B77746;stroke-width:0;stroke-miterlimit:10;}
	
		.st34{clip-path:url(#SVGID_00000120546073224032726300000018362563911792169641_);fill:none;stroke:#794525;stroke-width:0;stroke-miterlimit:10;}
	
		.st35{clip-path:url(#SVGID_00000120546073224032726300000018362563911792169641_);fill:none;stroke:#9B6842;stroke-width:0;stroke-miterlimit:10;}
	
		.st36{clip-path:url(#SVGID_00000120546073224032726300000018362563911792169641_);fill:none;stroke:#98633E;stroke-width:0;stroke-miterlimit:10;}
	
		.st37{clip-path:url(#SVGID_00000120546073224032726300000018362563911792169641_);fill:none;stroke:#9A643F;stroke-width:0;stroke-miterlimit:10;}
	
		.st38{clip-path:url(#SVGID_00000120546073224032726300000018362563911792169641_);fill:none;stroke:#6B3F23;stroke-width:0;stroke-miterlimit:10;}
	
		.st39{clip-path:url(#SVGID_00000120546073224032726300000018362563911792169641_);fill:none;stroke:#B0784C;stroke-width:0;stroke-miterlimit:10;}
	
		.st40{clip-path:url(#SVGID_00000120546073224032726300000018362563911792169641_);fill:none;stroke:#836347;stroke-width:0;stroke-miterlimit:10;}
	
		.st41{clip-path:url(#SVGID_00000120546073224032726300000018362563911792169641_);fill:none;stroke:#805B3F;stroke-width:0;stroke-miterlimit:10;}
	
		.st42{clip-path:url(#SVGID_00000120546073224032726300000018362563911792169641_);fill:none;stroke:#9D6F4A;stroke-width:0;stroke-miterlimit:10;}
	
		.st43{clip-path:url(#SVGID_00000120546073224032726300000018362563911792169641_);fill:none;stroke:#69432B;stroke-width:0;stroke-miterlimit:10;}
	
		.st44{clip-path:url(#SVGID_00000120546073224032726300000018362563911792169641_);fill:none;stroke:#816247;stroke-width:0;stroke-miterlimit:10;}
	
		.st45{clip-path:url(#SVGID_00000120546073224032726300000018362563911792169641_);fill:none;stroke:#683D22;stroke-width:0;stroke-miterlimit:10;}
	
		.st46{clip-path:url(#SVGID_00000120546073224032726300000018362563911792169641_);fill:none;stroke:#4B2F1F;stroke-width:0;stroke-miterlimit:10;}
	
		.st47{clip-path:url(#SVGID_00000120546073224032726300000018362563911792169641_);fill:none;stroke:#64361E;stroke-width:0;stroke-miterlimit:10;}
	
		.st48{clip-path:url(#SVGID_00000120546073224032726300000018362563911792169641_);fill:none;stroke:#AA6F46;stroke-width:0;stroke-miterlimit:10;}
	
		.st49{clip-path:url(#SVGID_00000120546073224032726300000018362563911792169641_);fill:none;stroke:#A9724F;stroke-width:0;stroke-miterlimit:10;}
	
		.st50{clip-path:url(#SVGID_00000120546073224032726300000018362563911792169641_);fill:none;stroke:#695342;stroke-width:0;stroke-miterlimit:10;}
	
		.st51{clip-path:url(#SVGID_00000120546073224032726300000018362563911792169641_);fill:none;stroke:#675241;stroke-width:0;stroke-miterlimit:10;}
	
		.st52{clip-path:url(#SVGID_00000120546073224032726300000018362563911792169641_);fill:none;stroke:#7A604E;stroke-width:0;stroke-miterlimit:10;}
	.st53{fill:#E99D63;}
	.st54{fill:#854016;}
	.st55{fill:#88471B;}
	.st56{fill:#9D7550;}
	.st57{fill:#D79054;}
	
		.st58{clip-path:url(#SVGID_00000074428389144544626400000016169552019572047534_);fill:none;stroke:#825032;stroke-width:0;stroke-miterlimit:10;}
	
		.st59{clip-path:url(#SVGID_00000074428389144544626400000016169552019572047534_);fill:none;stroke:#A86E45;stroke-width:0;stroke-miterlimit:10;}
	
		.st60{clip-path:url(#SVGID_00000074428389144544626400000016169552019572047534_);fill:none;stroke:#5B2F17;stroke-width:0;stroke-miterlimit:10;}
	
		.st61{clip-path:url(#SVGID_00000074428389144544626400000016169552019572047534_);fill:none;stroke:#BB865A;stroke-width:0;stroke-miterlimit:10;}
	.st62{fill:#31140D;}
	.st63{fill:#634E3C;}
	.st64{fill:#9B6842;}
	.st65{fill:#552410;}
	.st66{fill:#CF8F5E;}
	.st67{fill:#834E29;}
	.st68{fill:#F1EBE4;}
	.st69{fill:#9D744E;}
	.st70{fill:#7B3F17;}
	.st71{fill:#67513D;}
	.st72{fill:#FCCF9F;}
	.st73{fill:#7E3B11;}
	.st74{fill:#783D14;}
	.st75{fill:#F8C795;}
	.st76{fill:#8E4E22;}
	.st77{fill:#7C431B;}
	.st78{fill:#975A2F;}
	.st79{fill:#A06B43;}
	.st80{fill:#A2602F;}
	.st81{fill:#BF8353;}
	.st82{fill:#A16B42;}
	
		.st83{clip-path:url(#SVGID_00000009578385864752455520000000505947672770920326_);fill:none;stroke:#AA6F46;stroke-width:0;stroke-miterlimit:10;}
	.st84{fill:#DB935D;}
	.st85{fill:#AC7748;}
	.st86{fill:#9F6942;}
	.st87{fill:#AF6B39;}
	.st88{fill:#905A39;}
	.st89{fill:#CF9368;}
	.st90{fill:#935C3A;}
	.st91{fill:#BD845E;}
	.st92{fill:#956141;}
	.st93{fill:#564233;}
	.st94{fill:#7A6451;}
	.st95{fill:#523E30;}
	.st96{fill:#7A5C4A;}
	.st97{fill:#BBB4A8;}
	.st98{fill:#DBE2EE;}
	.st99{fill:#38276B;}
	.st100{opacity:0.25;}
	.st101{fill:#D79D77;}
	.st102{fill:#BD8560;}
	.st103{fill:#253168;}
	.st104{fill:#71B744;}
	.st105{opacity:0.3;}
	.st106{fill:#3A343F;}
	.st107{fill:#B17F4F;}
	.st108{fill:#8E5C3A;}
	.st109{opacity:0.6;}
	.st110{fill:#CECCD4;}
	.st111{fill:#FEEDE5;}
	.st112{fill:#A96B40;}
	.st113{fill:#252A5B;}
	.st114{fill:#EAE9F6;}
	.st115{fill:#888BAE;}
	.st116{fill:#262D60;}
	.st117{fill:#FFDF45;}
	.st118{fill:#E9487A;}
	.st119{fill:#7BC39F;}
	.st120{opacity:0.15;}
	.st121{fill:#F7A42D;}
	.st122{fill:#6C7092;}
	.st123{fill:#5698D2;}
	.st124{opacity:0.2;}
	.st125{fill:#262B5F;}
	.st126{fill:#9E9E9E;}
	.st127{fill:#8F90B3;}
	.st128{fill:#6A6A69;}
	.st129{fill:#3B3A3A;}
	.st130{fill:#E9E8E8;}
	.st131{opacity:0.5;}
	.st132{fill:#EF7E81;}
	.st133{fill:#EB5E67;}
	.st134{fill:#78CCF2;}
	.st135{fill:#61A2D9;}
	.st136{fill:#87CFE5;}
	.st137{fill:#4F5C6C;}
	.st138{fill:#605F82;}
	.st139{fill:#F7D5D5;}
	.st140{fill:#6F7189;}
	.st141{fill:#434880;}
	.st142{fill:#EFEFEF;}
	.st143{fill:none;stroke:#262B5F;stroke-width:47.1961;stroke-linejoin:round;stroke-miterlimit:10;}
	.st144{filter:url(#Adobe_OpacityMaskFilter);}
	.st145{filter:url(#Adobe_OpacityMaskFilter_00000041270566245408171910000008395608439864100235_);}
	
		.st146{mask:url(#SVGID_00000130626655591261675920000013443780237985918124_);fill:url(#SVGID_00000142863680296911605430000012270572220371136394_);}
	.st147{fill:url(#SVGID_00000170248131873222265760000016708451311053575614_);}
	.st148{fill:#C0BECC;}
	.st149{opacity:0.7;}
</style>
<polygon
   class="st0"
   points="49.65,42.25 54.62,44.58 56.24,39.57 "
   id="polygon4" />
<polygon
   class="st0"
   points="49.65,42.25 54.62,44.58 56.24,39.57 "
   id="polygon6" />
<g
   id="g620">
	<g
   class="st100"
   id="g14">
		<g
   id="g12">
			<g
   id="g10">
				<path
   class="st113"
   d="M91.1,94.75c-7.5,0-14.41,0.28-19.95,0.75l-1.96-0.48l-14.64-3.56l-26.77,2.6      c-1.05,0.1-1.89,0.88-2.22,1.89c-0.17,0.51-0.21,1.08-0.09,1.65c0.24,1.13,1.07,1.99,2.11,2.19l25.44,4.87      c0.41,0.08,0.82,0.06,1.23-0.04l14.04-3.56c5.93,0.63,13.97,1.02,22.83,1.02c18.22,0,33-1.64,33-3.67      C124.1,96.4,109.33,94.75,91.1,94.75"
   id="path8" />
			</g>
		</g>
	</g>
	<g
   id="g18">
		<path
   class="st114"
   d="M75.77,95.84c0,0.65-0.45,1.21-1.08,1.36l-20.63,4.74c-0.4,0.09-0.82,0.1-1.23,0.03l-25.44-4.41    c-1.04-0.18-1.87-0.96-2.11-1.99c-0.12-0.52-0.08-1.03,0.09-1.5c0.33-0.91,1.17-1.61,2.22-1.71l26.77-2.35l14.65,3.22l5.66,1.25    c0.32,0.07,0.59,0.25,0.79,0.49C75.65,95.21,75.77,95.52,75.77,95.84"
   id="path16" />
	</g>
	<g
   id="g22">
		<path
   class="st115"
   d="M47.44,97.45L35.7,94.97c-0.21-0.04-0.2-0.34,0.01-0.37l20.13-2.97c0.02,0,0.05,0,0.07,0l9.03,2.08    c0.2,0.05,0.2,0.33-0.01,0.37l-17.42,3.38C47.49,97.46,47.47,97.46,47.44,97.45"
   id="path20" />
	</g>
	<g
   id="g26">
		<path
   class="st116"
   d="M51.31,96.99c-0.02,0-0.04,0-0.05,0l-12.86-2.52c-0.15-0.03-0.24-0.17-0.22-0.32    c0.03-0.15,0.17-0.24,0.32-0.22l12.86,2.52c0.15,0.03,0.24,0.17,0.22,0.32C51.55,96.9,51.43,96.99,51.31,96.99z"
   id="path24" />
	</g>
	<g
   id="g30">
		<path
   class="st116"
   d="M37.76,95.68c-0.13,0-0.25-0.1-0.27-0.23c-0.02-0.15,0.08-0.29,0.23-0.31l20.34-3.28    c0.15-0.02,0.29,0.08,0.31,0.23c0.02,0.15-0.08,0.29-0.23,0.31l-20.34,3.28C37.79,95.68,37.78,95.68,37.76,95.68z"
   id="path28" />
	</g>
	<g
   id="g34">
		<path
   class="st116"
   d="M40.96,96.36c-0.13,0-0.25-0.09-0.27-0.23c-0.03-0.15,0.07-0.29,0.22-0.31l19.08-3.28    c0.15-0.03,0.29,0.07,0.31,0.22c0.03,0.15-0.07,0.29-0.22,0.31l-19.08,3.28C40.99,96.36,40.98,96.36,40.96,96.36z"
   id="path32" />
	</g>
	<g
   id="g38">
		<path
   class="st116"
   d="M44.25,97.05c-0.13,0-0.24-0.09-0.27-0.22c-0.03-0.15,0.07-0.29,0.22-0.32l18.65-3.54    c0.15-0.03,0.29,0.07,0.32,0.22c0.03,0.15-0.07,0.29-0.22,0.32L44.3,97.05C44.28,97.05,44.26,97.05,44.25,97.05z"
   id="path36" />
	</g>
	<g
   id="g42">
		<path
   class="st116"
   d="M54.38,96.4c-0.02,0-0.04,0-0.06-0.01l-11.98-2.51c-0.15-0.03-0.24-0.18-0.21-0.32    c0.03-0.15,0.18-0.24,0.32-0.21l11.98,2.51c0.15,0.03,0.24,0.18,0.21,0.32C54.62,96.31,54.5,96.4,54.38,96.4z"
   id="path40" />
	</g>
	<g
   id="g46">
		<path
   class="st116"
   d="M60.41,94.99c-0.02,0-0.04,0-0.06-0.01l-9.91-2.3c-0.15-0.03-0.24-0.18-0.2-0.33    c0.03-0.15,0.18-0.24,0.33-0.2l9.91,2.3c0.15,0.03,0.24,0.18,0.2,0.33C60.64,94.91,60.53,94.99,60.41,94.99z"
   id="path44" />
	</g>
	<g
   id="g50">
		<path
   class="st116"
   d="M54.83,95.04c-0.02,0-0.04,0-0.06-0.01l-8.19-1.78c-0.15-0.03-0.24-0.18-0.21-0.32    c0.03-0.15,0.18-0.24,0.32-0.21l8.19,1.78c0.15,0.03,0.24,0.18,0.21,0.32C55.07,94.95,54.96,95.04,54.83,95.04z"
   id="path48" />
	</g>
	<g
   id="g54">
		<path
   class="st116"
   d="M62.08,94.29c-0.02,0-0.04,0-0.06-0.01l-8.5-2.05c-0.15-0.04-0.24-0.18-0.2-0.33    c0.04-0.15,0.18-0.24,0.33-0.2l8.5,2.05c0.15,0.04,0.24,0.18,0.2,0.33C62.31,94.2,62.2,94.29,62.08,94.29z"
   id="path52" />
	</g>
	<g
   id="g58">
		<path
   class="st116"
   d="M47.48,97.73c-0.03,0-0.06,0-0.09-0.01c0,0,0,0,0,0l-11.74-2.48c-0.22-0.05-0.37-0.24-0.37-0.47    c0.01-0.23,0.17-0.41,0.39-0.44l20.13-2.97c0.06-0.01,0.12-0.01,0.17,0.01l9.03,2.08c0.22,0.05,0.36,0.24,0.36,0.46    c0,0.22-0.16,0.4-0.37,0.45l-17.42,3.38C47.54,97.73,47.51,97.73,47.48,97.73z M47.5,97.19L47.5,97.19L47.5,97.19z M36.21,94.8    l11.27,2.38l17.02-3.3l-8.63-1.99L36.21,94.8z"
   id="path56" />
	</g>
	<g
   class="st105"
   id="g66">
		<g
   id="g64">
			<g
   id="g62">
				<path
   class="st113"
   d="M75.77,95.84c0,0.65-0.45,1.21-1.08,1.36l-20.63,4.74c-0.4,0.09-0.82,0.1-1.23,0.03l-25.44-4.41      c-1.04-0.18-1.87-0.96-2.11-1.99c-0.12-0.52-0.08-1.03,0.09-1.5c0.34,0.01,0.77,0.07,1.31,0.21c0,0,34.89,6.82,42.34-1.05      l5.66,1.25c0.32,0.07,0.59,0.25,0.79,0.49C75.65,95.21,75.77,95.52,75.77,95.84"
   id="path60" />
			</g>
		</g>
	</g>
	<g
   id="g70">
		<path
   class="st116"
   d="M53.26,100.4c-0.17,0-0.34-0.02-0.51-0.05l-27.47-5.81c-0.29-0.06-0.47-0.35-0.41-0.63    c0.06-0.29,0.34-0.47,0.63-0.41l27.47,5.81c0.19,0.04,0.39,0.04,0.58,0l21.83-4.78c0.29-0.06,0.57,0.12,0.64,0.41    c0.06,0.29-0.12,0.57-0.41,0.64l-21.83,4.78C53.61,100.38,53.44,100.4,53.26,100.4z"
   id="path68" />
	</g>
	<g
   id="g74">
		<path
   class="st116"
   d="M53.36,102.55c-0.21,0-0.41-0.02-0.62-0.05L27.3,98.08c-1.25-0.22-2.25-1.15-2.54-2.39    c-0.21-0.89-0.03-1.83,0.51-2.57c0.54-0.74,1.36-1.21,2.28-1.29l26.77-2.35c0.05,0,0.11,0,0.16,0.01l20.31,4.47    c0.88,0.19,1.51,0.98,1.51,1.88c0,0.9-0.61,1.68-1.5,1.88l-20.63,4.74C53.91,102.52,53.64,102.55,53.36,102.55z M54.33,90.55    L27.64,92.9c-0.6,0.05-1.15,0.36-1.5,0.85c-0.35,0.49-0.48,1.11-0.34,1.69c0.19,0.82,0.85,1.44,1.68,1.58l25.44,4.41    c0.34,0.06,0.68,0.05,1.01-0.03l20.63-4.74c0.39-0.09,0.67-0.43,0.67-0.84c0-0.4-0.28-0.75-0.67-0.84L54.33,90.55z"
   id="path72" />
	</g>
	<g
   id="g78">
		<path
   class="st114"
   d="M27.27,93.88l26.57-3.5c1.45-0.19,2.38-1.65,1.94-3.04l-6.42-20.51c-0.3-0.95-1.16-1.61-2.16-1.65l-28-1.06    c-1.91-0.07-3.31,1.78-2.73,3.6L24.28,92C24.69,93.26,25.95,94.06,27.27,93.88"
   id="path76" />
	</g>
	<g
   class="st105"
   id="g86">
		<g
   id="g84">
			<g
   id="g82">
				<path
   class="st113"
   d="M54.28,88.9l-26.23,3.46c-1.3,0.17-2.54-0.61-2.95-1.86l-7.72-23.97c-0.21-0.65-0.16-1.3,0.07-1.87      c-0.91,0.67-1.37,1.87-0.99,3.07L24.28,92c0.41,1.27,1.66,2.06,2.98,1.89l26.57-3.5c1.25-0.16,2.11-1.26,2.05-2.45      C55.52,88.44,54.96,88.81,54.28,88.9"
   id="path80" />
			</g>
		</g>
	</g>
	<g
   class="st109"
   id="g94">
		<g
   id="g92">
			<g
   id="g90">
				<path
   class="st0"
   d="M19.36,65.46l28,1.06c1,0.04,1.86,0.7,2.16,1.65l6.33,20.23c0.05-0.34,0.03-0.7-0.08-1.06l-6.42-20.51      c-0.3-0.95-1.16-1.61-2.16-1.65l-28-1.06c-1.91-0.07-3.31,1.78-2.73,3.6l0.05,0.16C16.68,66.52,17.87,65.4,19.36,65.46"
   id="path88" />
			</g>
		</g>
	</g>
	<g
   id="g98">
		<path
   class="st113"
   d="M51.58,86.42l-3.24,0.35l-2.8,0.3l-3.77,0.41l-4.72,0.51l-9.14,0.99c-0.59,0.07-1.15-0.3-1.32-0.87    l-5.65-18.54c-0.25-0.81,0.37-1.62,1.21-1.6L24.38,68l5.11,0.1l4.08,0.08l3.03,0.06l9.93,0.2c0.53,0.01,1,0.36,1.16,0.86    l4.94,15.5C52.87,85.55,52.36,86.33,51.58,86.42"
   id="path96" />
	</g>
	<g
   id="g102">
		<path
   class="st117"
   d="M35.16,71.26C35.16,71.26,35.16,71.26,35.16,71.26l-6.37-0.06c-0.18,0-0.33-0.15-0.33-0.34    c0-0.18,0.15-0.33,0.33-0.33c0,0,0,0,0,0l6.37,0.06c0.18,0,0.33,0.15,0.33,0.34C35.5,71.11,35.35,71.26,35.16,71.26z"
   id="path100" />
	</g>
	<g
   id="g106">
		<path
   class="st117"
   d="M26.07,71.17C26.07,71.17,26.06,71.17,26.07,71.17l-2.29-0.02c-0.18,0-0.33-0.15-0.33-0.34    c0-0.18,0.15-0.33,0.33-0.33c0,0,0,0,0,0l2.28,0.02c0.18,0,0.33,0.15,0.33,0.34C26.4,71.02,26.25,71.17,26.07,71.17z"
   id="path104" />
	</g>
	<g
   id="g110">
		<path
   class="st118"
   d="M27.46,81.56c-0.18,0-0.32-0.14-0.33-0.32c-0.01-0.18,0.13-0.34,0.32-0.35l2.28-0.12    c0.18-0.01,0.34,0.13,0.35,0.32c0.01,0.18-0.13,0.34-0.32,0.35l-2.28,0.12C27.47,81.56,27.46,81.56,27.46,81.56z"
   id="path108" />
	</g>
	<g
   id="g114">
		<path
   class="st119"
   d="M33.68,81.19c-0.18,0-0.33-0.14-0.33-0.32c-0.01-0.18,0.14-0.34,0.32-0.35l4.91-0.2    c0.19-0.01,0.34,0.14,0.35,0.32c0.01,0.18-0.14,0.34-0.32,0.35l-4.91,0.2C33.69,81.19,33.68,81.19,33.68,81.19z"
   id="path112" />
	</g>
	<g
   id="g118">
		<path
   class="st118"
   d="M41.68,80.89c-0.18,0-0.33-0.14-0.33-0.32c-0.01-0.18,0.14-0.34,0.32-0.35l2.96-0.12    c0.19-0.01,0.34,0.14,0.35,0.32c0.01,0.18-0.14,0.34-0.32,0.35l-2.96,0.12C41.69,80.89,41.69,80.89,41.68,80.89z"
   id="path116" />
	</g>
	<g
   id="g122">
		<path
   class="st118"
   d="M26.1,77.95c-0.18,0-0.33-0.15-0.33-0.33c0-0.18,0.14-0.34,0.33-0.34l2.28-0.03c0,0,0,0,0.01,0    c0.18,0,0.33,0.15,0.33,0.33c0,0.18-0.14,0.34-0.33,0.34L26.1,77.95C26.11,77.95,26.11,77.95,26.1,77.95z"
   id="path120" />
	</g>
	<g
   id="g126">
		<path
   class="st118"
   d="M43.06,77.61c-0.18,0-0.33-0.15-0.33-0.33c0-0.18,0.15-0.33,0.33-0.34l4.91-0.01c0,0,0,0,0,0    c0.18,0,0.33,0.15,0.33,0.33c0,0.18-0.15,0.33-0.33,0.34L43.06,77.61C43.06,77.61,43.06,77.61,43.06,77.61z"
   id="path124" />
	</g>
	<g
   id="g130">
		<path
   class="st119"
   d="M31.87,77.79c-0.18,0-0.33-0.15-0.33-0.33c0-0.18,0.14-0.34,0.33-0.34L39.8,77c0,0,0,0,0.01,0    c0.18,0,0.33,0.15,0.33,0.33c0,0.18-0.14,0.34-0.33,0.34L31.87,77.79C31.88,77.79,31.88,77.79,31.87,77.79z"
   id="path128" />
	</g>
	<g
   id="g134">
		<path
   class="st117"
   d="M28.63,85.08c-0.18,0-0.32-0.14-0.33-0.31c-0.01-0.18,0.13-0.34,0.31-0.36l2.28-0.15    c0.18-0.01,0.34,0.13,0.36,0.31c0.01,0.18-0.13,0.34-0.31,0.36l-2.28,0.15C28.65,85.08,28.64,85.08,28.63,85.08z"
   id="path132" />
	</g>
	<g
   id="g138">
		<path
   class="st119"
   d="M34.66,84.68c-0.18,0-0.32-0.14-0.33-0.32c-0.01-0.18,0.13-0.34,0.31-0.35l7.92-0.47    c0.18-0.02,0.34,0.13,0.35,0.31c0.01,0.18-0.13,0.34-0.31,0.35l-7.92,0.47C34.68,84.68,34.67,84.68,34.66,84.68z"
   id="path136" />
	</g>
	<g
   id="g142">
		<path
   class="st117"
   d="M24.96,74.51c-0.18,0-0.33-0.15-0.33-0.33c0-0.18,0.15-0.33,0.33-0.34l2.28,0c0,0,0,0,0,0    c0.18,0,0.33,0.15,0.33,0.33c0,0.18-0.15,0.33-0.33,0.34L24.96,74.51C24.96,74.51,24.96,74.51,24.96,74.51z"
   id="path140" />
	</g>
	<g
   id="g146">
		<path
   class="st117"
   d="M32.01,74.24c-0.18,0-0.33-0.15-0.33-0.33c0-0.18,0.15-0.33,0.33-0.34l4.92-0.01c0,0,0,0,0,0    c0.18,0,0.33,0.15,0.33,0.33c0,0.18-0.15,0.33-0.33,0.34L32.01,74.24C32.01,74.24,32.01,74.24,32.01,74.24z"
   id="path144" />
	</g>
	<g
   id="g150">
		<path
   class="st119"
   d="M40.57,74.27c-0.18,0-0.33-0.15-0.33-0.33c0-0.18,0.15-0.33,0.33-0.34l4.91-0.01c0,0,0,0,0,0    c0.18,0,0.33,0.15,0.33,0.33c0,0.18-0.15,0.33-0.33,0.34L40.57,74.27C40.57,74.27,40.57,74.27,40.57,74.27z"
   id="path148" />
	</g>
	<g
   class="st120"
   id="g158">
		<g
   id="g156">
			<g
   id="g154">
				<polygon
   class="st0"
   points="41.77,87.48 37.05,87.99 24.38,68 29.5,68.1     "
   id="polygon152" />
			</g>
		</g>
	</g>
	<g
   class="st120"
   id="g166">
		<g
   id="g164">
			<g
   id="g162">
				<polygon
   class="st0"
   points="48.35,86.77 45.55,87.07 33.57,68.18 36.6,68.24     "
   id="polygon160" />
			</g>
		</g>
	</g>
	<g
   id="g170">
		<path
   class="st116"
   d="M27.78,89.52c-0.77,0-1.47-0.51-1.7-1.26l-5.65-18.54c-0.17-0.55-0.06-1.13,0.28-1.59    c0.35-0.46,0.88-0.72,1.45-0.7l24.37,0.49c0.76,0.02,1.43,0.51,1.66,1.24l4.94,15.5c0.16,0.51,0.09,1.06-0.2,1.51    c-0.29,0.45-0.76,0.74-1.3,0.8l-23.67,2.56C27.91,89.51,27.85,89.52,27.78,89.52z M22.13,68.49c-0.22,0-0.43,0.1-0.56,0.28    c-0.14,0.18-0.18,0.41-0.11,0.63l5.65,18.54c0.1,0.32,0.41,0.53,0.75,0.5l23.67-2.56c0.21-0.02,0.4-0.14,0.52-0.32    s0.15-0.4,0.08-0.6l-4.94-15.5c-0.09-0.29-0.36-0.48-0.66-0.49l-24.37-0.49l0,0C22.14,68.49,22.14,68.49,22.13,68.49z"
   id="path168" />
	</g>
	<g
   id="g174">
		<path
   class="st116"
   d="M26.9,94.44c-1.41,0-2.69-0.91-3.13-2.28l-7.82-24.28c-0.33-1.02-0.14-2.14,0.51-3    c0.66-0.87,1.66-1.34,2.75-1.3l28,1.06c1.22,0.05,2.29,0.86,2.65,2.03l6.42,20.51c0.26,0.82,0.14,1.7-0.32,2.42    c-0.46,0.72-1.21,1.2-2.06,1.31l-26.57,3.5C27.19,94.43,27.05,94.44,26.9,94.44z M19.08,64.65c-0.7,0-1.34,0.32-1.77,0.88    c-0.44,0.59-0.57,1.32-0.34,2.02l7.82,24.28c0.33,1.02,1.34,1.66,2.4,1.52c0,0,0,0,0,0l26.57-3.5c0.54-0.07,1.01-0.37,1.3-0.83    c0.29-0.45,0.36-1.01,0.2-1.53l-6.42-20.51c-0.23-0.74-0.9-1.25-1.67-1.28l-28-1.06C19.14,64.65,19.11,64.65,19.08,64.65z"
   id="path172" />
	</g>
	<g
   id="g178">
		<path
   class="st0"
   d="M93.94,93.68v6.57h-6.4c-1.53,0-2.71-1.32-2.58-2.8c0.01-0.11,0.02-0.22,0.05-0.33    c0.32-1.52,1.34-3.09,4.05-3.45H93.94z"
   id="path176" />
	</g>
	<g
   class="st105"
   id="g186">
		<g
   id="g184">
			<g
   id="g182">
				<path
   class="st113"
   d="M93.94,97.31v2.93h-6.4c-1.53,0-2.71-1.32-2.58-2.8C86.81,98.24,90.02,98.98,93.94,97.31"
   id="path180" />
			</g>
		</g>
	</g>
	<g
   id="g190">
		<path
   class="st116"
   d="M87.66,100.48c-0.06-0.1-0.09-0.16-0.12-0.24c-0.03-0.07-0.06-0.15-0.08-0.22    c-0.05-0.15-0.09-0.3-0.11-0.46c-0.05-0.31-0.06-0.62-0.02-0.93c0.04-0.31,0.11-0.61,0.24-0.88c0.12-0.28,0.29-0.53,0.5-0.75    c0.03-0.03,0.09-0.04,0.12,0c0.02,0.02,0.03,0.04,0.03,0.06l0,0.01c0.01,0.3,0.01,0.56,0.03,0.82c0.01,0.26,0.04,0.51,0.07,0.75    c0.03,0.24,0.08,0.48,0.14,0.71l0.09,0.34l0.05,0.17c0.01,0.05,0.03,0.12,0.04,0.14l0.01,0.19c0.01,0.29-0.21,0.53-0.49,0.55    C87.94,100.75,87.75,100.64,87.66,100.48"
   id="path188" />
	</g>
	<g
   id="g194">
		<path
   class="st116"
   d="M90.36,100.48c-0.06-0.1-0.09-0.16-0.12-0.24c-0.03-0.07-0.06-0.15-0.08-0.22    c-0.05-0.15-0.09-0.3-0.11-0.46c-0.05-0.31-0.06-0.62-0.02-0.93c0.04-0.31,0.11-0.61,0.24-0.88c0.12-0.28,0.29-0.53,0.5-0.75    c0.03-0.03,0.09-0.04,0.12,0c0.02,0.02,0.03,0.04,0.03,0.06l0,0.01c0.01,0.3,0.01,0.56,0.03,0.82c0.01,0.26,0.04,0.51,0.07,0.75    c0.03,0.24,0.08,0.48,0.14,0.71l0.09,0.34l0.05,0.17c0.01,0.05,0.03,0.12,0.04,0.14l0.01,0.19c0.01,0.29-0.21,0.53-0.49,0.55    C90.64,100.75,90.45,100.64,90.36,100.48"
   id="path192" />
	</g>
	<g
   id="g198">
		<path
   class="st116"
   d="M93.94,100.78h-6.4c-0.95,0-1.84-0.42-2.43-1.16c-0.59-0.73-0.82-1.68-0.63-2.61    c0.33-1.53,1.38-3.45,4.51-3.86c0.02,0,0.05,0,0.07,0h4.88c0.3,0,0.53,0.24,0.53,0.53v6.57    C94.48,100.54,94.24,100.78,93.94,100.78z M89.1,94.21c-2,0.27-3.2,1.29-3.57,3.02c-0.13,0.6,0.02,1.23,0.41,1.71    c0.39,0.49,0.98,0.76,1.6,0.76h5.87v-5.5H89.1z"
   id="path196" />
	</g>
	<g
   id="g202">
		<path
   class="st121"
   d="M107.75,99.33c-1.19,0.59-2.53,0.92-3.96,0.92H93.05c-2.1,0-3.36-2-2.88-3.75c0.13-0.49,0.4-0.96,0.82-1.36    c0.01-0.01,0.03-0.03,0.04-0.04c0.07-0.06,0.14-0.13,0.22-0.19c0.01-0.01,0.02-0.02,0.02-0.02s-13.39-1.81-21.99-10.41l0,0.01    c-0.09,0.21-3,7.06-6.35,11.59c-0.51,0.7-1.2,1.23-1.99,1.57c-0.28,0.12-0.57,0.22-0.88,0.29c-2.47,0.56-6.91,1.21-8.84-0.72    c-0.97-0.97-1.15-2.12-0.81-3.17c0.45-1.42,1.84-2.68,3.51-3.13c0.6-0.16,1.24-0.22,1.88-0.14l6.96-10.5c0,0-0.13-2.91,1.04-6.04    c0.16-0.43,0.35-0.87,0.56-1.31c0.18-0.37,0.39-0.75,0.62-1.11c1.31-2.09,3.38-3.96,6.68-4.76c0,0,6.76-1.61,14.73-1.41    c2.7,0.07,5.54,0.34,8.3,0.96c4.89,1.09,9.54,3.25,12.74,7.22c2.36,2.93,3.95,5.86,4.89,8.65    C114.94,90.29,112.5,96.96,107.75,99.33"
   id="path200" />
	</g>
	<g
   id="g206">
		<path
   class="st0"
   d="M107.75,99.33c-1.19,0.59-2.53,0.92-3.96,0.92H93.05c-2.7,0-4.01-3.33-2.02-5.15    c0.07-0.07,0.15-0.14,0.24-0.21c0,0-13.39-1.81-21.99-10.41c-4.24-4.24-4.62-9.39-4.3-12.65c1.31-2.09,3.38-3.96,6.68-4.76    c0,0,6.76-1.61,14.73-1.41c3.09,8.03-2.74,9.89-5.75,11.19c-3.07,1.33-1.52,3.5-1.52,3.5c8.82,5.41,16.14,6.16,16.14,6.16    c-2.7,5.54,1.53,7.91,1.53,7.91c4.28,1.33,9.43-0.62,10.85,1.2C108.56,96.79,108.16,98.35,107.75,99.33"
   id="path204" />
	</g>
	<g
   id="g210">
		<path
   class="st0"
   d="M60.94,97.65c-0.28,0.12-0.57,0.22-0.88,0.29c-2.47,0.56-6.91,1.21-8.84-0.72c-2.27-2.27-0.2-5.52,2.7-6.3    C54.16,90.91,61.8,90.52,60.94,97.65"
   id="path208" />
	</g>
	<g
   class="st105"
   id="g218">
		<g
   id="g216">
			<g
   id="g214">
				<path
   class="st113"
   d="M94.63,87.57c0,0-1.75,6.57,4.19,7.42c0,0-2.6,1.53-5.07-0.94c0,0-1.18,0.1-2.48,0.84      c0,0-13.39-1.81-21.99-10.41l0,0.01c-0.09,0.21-3,7.06-6.35,11.59c-0.51,0.7-1.2,1.23-1.98,1.57c-0.28,0.12-0.57,0.22-0.88,0.29      c-2.47,0.56-6.91,1.21-8.84-0.72c-0.97-0.97-1.15-2.12-0.81-3.17c0.63,1.05,1.9,2.53,4.04,2.53c3.3,0,6.48-0.56,8.58-4.25      c0.91-1.6,1.86-3.24,2.64-4.59c0.99-1.71,1.18-3.76,0.52-5.62c-0.4-1.12-0.71-2.48-0.6-3.84c0,0,6.58,10.49,13.83,0.94      c0,0-0.65,7.04,3.15,7.6c3.38,0.5,6.14-6.24,6.71-7.72c-0.31,0.87-1.19,3.57-1.24,6.28c-0.05,3.13,4.24,4.15,5.53,1.3      c0.48-1.07,1.27-2.11,2.54-2.91c4.26-2.72,8.17,0,8.31,0.09C104.26,83.81,97.47,81.72,94.63,87.57"
   id="path212" />
			</g>
		</g>
	</g>
	<g
   class="st105"
   id="g226">
		<g
   id="g224">
			<g
   id="g222">
				<path
   class="st113"
   d="M94.69,66.61c-1.45,2.36-4.18,4.79-8.81,6.44c-3.95,1.41-9.3,2.26-16.41,2.01c0,0-2.55-0.07-5.67-0.81      c0.3-0.81,0.69-1.63,1.18-2.42c1.31-2.09,3.38-3.96,6.68-4.76c0,0,6.76-1.61,14.73-1.41C89.09,65.73,91.92,66,94.69,66.61"
   id="path220" />
			</g>
		</g>
	</g>
	<g
   class="st105"
   id="g234">
		<g
   id="g232">
			<g
   id="g230">
				<path
   class="st113"
   d="M107.75,99.33c-1.19,0.59-2.53,0.92-3.96,0.92H93.05c-2.1,0-3.36-2-2.88-3.75c0,0,0.57,2.15,3.91,2.15      h9.12c1.82,0,3.6-0.61,4.98-1.81c0.56-0.48,1.09-1.09,1.55-1.85c0.73-1.22,0.73-2.74,0.04-3.99c-1.2-2.17-2.52-6.22,2.55-8.51      C114.94,90.29,112.5,96.96,107.75,99.33"
   id="path228" />
			</g>
		</g>
	</g>
	<g
   class="st109"
   id="g242">
		<g
   id="g240">
			<g
   id="g238">
				<path
   class="st0"
   d="M63.9,80.89l-6.78,10.25l-1.32-0.36l6.96-10.5c0,0-0.13-2.91,1.04-6.04c0.16-0.43,0.35-0.87,0.56-1.31      c0.12,0,0.24,0.01,0.36,0.01c0,0-1.11,3.48-0.66,7.23C64.1,80.43,64.03,80.68,63.9,80.89"
   id="path236" />
			</g>
		</g>
	</g>
	<g
   class="st109"
   id="g250">
		<g
   id="g248">
			<g
   id="g246">
				<path
   class="st0"
   d="M104.44,83.87c0,0-6.04-0.29-7.82,2.95c-1.77,3.24-0.7,6.97,2.2,8.16c0,0-3.75,0.14-4.34-4.09      C93.9,86.67,97.44,81.85,104.44,83.87"
   id="path244" />
			</g>
		</g>
	</g>
	<g
   id="g254">
		<path
   class="st116"
   d="M59.55,93.56c-0.2-0.32-0.39-0.64-0.66-0.91c-0.25-0.28-0.54-0.54-0.87-0.77c-0.65-0.45-1.4-0.8-2.22-1.08    c0,0-0.01-0.01-0.01-0.01c0,0,0-0.01,0.01-0.01c0.43-0.07,0.88-0.05,1.32,0.02c0.44,0.07,0.87,0.21,1.28,0.4    c0.42,0.18,0.81,0.44,1.17,0.74c0.36,0.3,0.65,0.68,0.91,1.08c0.16,0.25,0.09,0.58-0.16,0.74c-0.25,0.16-0.58,0.09-0.74-0.16    c0,0,0,0,0,0L59.55,93.56z"
   id="path252" />
	</g>
	<g
   id="g258">
		<path
   class="st116"
   d="M52.26,98.3c-0.03-0.1-0.05-0.16-0.07-0.24c-0.02-0.08-0.03-0.15-0.05-0.23c-0.03-0.15-0.04-0.3-0.05-0.45    c-0.01-0.3,0.01-0.61,0.07-0.9c0.06-0.3,0.14-0.59,0.29-0.86c0.13-0.27,0.33-0.51,0.56-0.7c0.05-0.04,0.12-0.03,0.16,0.02    c0.02,0.02,0.03,0.05,0.03,0.08l0,0.01c-0.02,0.29-0.06,0.54-0.07,0.8c-0.02,0.25-0.03,0.49-0.02,0.74    c0.01,0.24,0.03,0.48,0.06,0.72c0.02,0.12,0.04,0.24,0.06,0.35l0.06,0.33l0.01,0.06c0.06,0.29-0.13,0.57-0.42,0.63    C52.6,98.7,52.35,98.54,52.26,98.3"
   id="path256" />
	</g>
	<g
   id="g262">
		<path
   class="st116"
   d="M55.74,98.38c-0.03-0.1-0.06-0.16-0.07-0.24c-0.02-0.08-0.03-0.15-0.05-0.23c-0.03-0.15-0.04-0.3-0.05-0.45    c-0.01-0.3,0.01-0.61,0.07-0.9c0.06-0.3,0.14-0.59,0.29-0.86c0.13-0.27,0.33-0.51,0.56-0.7c0.05-0.04,0.12-0.03,0.16,0.02    c0.02,0.02,0.03,0.05,0.03,0.08l0,0.01c-0.02,0.29-0.06,0.54-0.07,0.8c-0.02,0.25-0.03,0.49-0.02,0.74    c0.01,0.24,0.03,0.48,0.06,0.72c0.02,0.12,0.04,0.24,0.06,0.35l0.06,0.33l0.01,0.06c0.06,0.29-0.13,0.57-0.42,0.63    C56.08,98.78,55.82,98.63,55.74,98.38"
   id="path260" />
	</g>
	<g
   id="g266">
		<path
   class="st116"
   d="M68.9,84.86c-0.24-0.24-0.43-0.48-0.63-0.72c-0.1-0.12-0.19-0.25-0.29-0.37l-0.27-0.38    c-0.36-0.51-0.68-1.04-0.97-1.59c-0.29-0.55-0.55-1.11-0.76-1.7c-0.22-0.58-0.36-1.19-0.43-1.8c0-0.03,0.02-0.05,0.05-0.06    c0.02,0,0.04,0.01,0.05,0.03l0,0c0.3,0.54,0.56,1.08,0.86,1.59c0.14,0.26,0.3,0.52,0.44,0.77c0.16,0.25,0.32,0.5,0.49,0.75    c0.33,0.49,0.68,0.97,1.06,1.42c0.19,0.23,0.38,0.45,0.57,0.67c0.19,0.22,0.4,0.44,0.59,0.63l0.01,0.01    c0.21,0.21,0.21,0.55,0,0.76S69.12,85.07,68.9,84.86L68.9,84.86z"
   id="path264" />
	</g>
	<g
   id="g270">
		<path
   class="st116"
   d="M90.94,94.46c0.08-0.06,0.12-0.08,0.18-0.12c0.05-0.03,0.11-0.06,0.16-0.09c0.1-0.05,0.21-0.11,0.31-0.15    c0.21-0.09,0.42-0.16,0.63-0.23c0.43-0.13,0.86-0.2,1.29-0.26c0.43-0.06,0.86-0.06,1.29-0.06c0.21,0,0.43,0.02,0.64,0.03    l0.63,0.06h0l-0.47,0.88c-0.15-0.18-0.26-0.34-0.39-0.51c-0.12-0.17-0.23-0.34-0.33-0.52c-0.21-0.35-0.39-0.72-0.55-1.1    c-0.31-0.76-0.52-1.58-0.56-2.43c-0.04-0.84,0.09-1.7,0.4-2.49c0.16-0.39,0.34-0.77,0.57-1.12c0.22-0.35,0.47-0.69,0.76-0.99    c0.56-0.61,1.24-1.11,1.97-1.49c0.74-0.37,1.52-0.62,2.32-0.75c0.8-0.13,1.61-0.17,2.41-0.06c0.4,0.06,0.79,0.14,1.17,0.27    c0.38,0.13,0.75,0.3,1.07,0.53c0.01,0.01,0.01,0.02,0.01,0.03c-0.01,0.01-0.02,0.01-0.03,0.01c-0.77-0.15-1.52-0.21-2.26-0.2    c-0.75,0-1.49,0.06-2.21,0.22c-1.44,0.32-2.77,1.03-3.7,2.12c-0.46,0.54-0.84,1.16-1.08,1.82c-0.24,0.66-0.34,1.36-0.3,2.06    c0.04,0.7,0.22,1.4,0.49,2.06c0.14,0.33,0.29,0.66,0.47,0.97c0.09,0.16,0.18,0.31,0.28,0.46c0.1,0.15,0.21,0.31,0.3,0.42    l0.01,0.01c0.18,0.23,0.14,0.57-0.09,0.75c-0.11,0.09-0.26,0.13-0.39,0.11h0l-0.58-0.05c-0.19-0.01-0.39-0.02-0.58-0.02    c-0.39,0-0.77,0.01-1.15,0.06c-0.38,0.04-0.75,0.11-1.11,0.22c-0.18,0.06-0.35,0.11-0.51,0.19c-0.08,0.03-0.16,0.07-0.24,0.11    c-0.04,0.02-0.08,0.04-0.11,0.06l-0.05,0.03c-0.01,0.01-0.04,0.02-0.03,0.02c-0.23,0.18-0.57,0.14-0.75-0.1    C90.66,94.98,90.71,94.64,90.94,94.46"
   id="path268" />
	</g>
	<g
   id="g274">
		<path
   class="st116"
   d="M96.35,93.75c0.02,0.02,0.07,0.06,0.1,0.09c0.04,0.03,0.08,0.06,0.13,0.1c0.09,0.06,0.18,0.13,0.27,0.19    c0.19,0.12,0.39,0.24,0.6,0.34c0.21,0.1,0.43,0.19,0.66,0.27c0.23,0.08,0.47,0.14,0.71,0.2l0,0c0.03,0.01,0.04,0.03,0.04,0.06    c0,0.02-0.02,0.03-0.03,0.04c-0.12,0.03-0.25,0.07-0.38,0.09c-0.13,0.02-0.26,0.04-0.39,0.05c-0.26,0.02-0.53,0.01-0.8-0.02    c-0.27-0.04-0.53-0.09-0.79-0.18c-0.13-0.04-0.26-0.09-0.39-0.15c-0.06-0.03-0.13-0.06-0.19-0.09c-0.07-0.03-0.12-0.06-0.2-0.12    l-0.02-0.02c-0.24-0.17-0.31-0.5-0.14-0.75c0.17-0.25,0.5-0.31,0.75-0.14C96.3,93.71,96.33,93.73,96.35,93.75"
   id="path272" />
	</g>
	<g
   id="g278">
		<path
   class="st116"
   d="M92.57,100.48c-0.06-0.1-0.09-0.16-0.12-0.24c-0.03-0.07-0.06-0.15-0.08-0.22    c-0.05-0.15-0.08-0.3-0.11-0.46c-0.05-0.31-0.06-0.62-0.02-0.93c0.04-0.31,0.11-0.61,0.24-0.88c0.12-0.28,0.29-0.53,0.5-0.75    c0.03-0.03,0.09-0.04,0.12,0c0.02,0.02,0.03,0.04,0.03,0.06l0,0.01c0.01,0.3,0.01,0.56,0.03,0.82c0.01,0.26,0.04,0.51,0.07,0.75    c0.03,0.24,0.08,0.48,0.14,0.71l0.09,0.34l0.05,0.17c0.01,0.05,0.03,0.12,0.04,0.14l0.01,0.19c0.01,0.29-0.21,0.53-0.49,0.55    C92.84,100.75,92.66,100.64,92.57,100.48"
   id="path276" />
	</g>
	<g
   id="g282">
		<path
   class="st116"
   d="M95.27,100.48c-0.06-0.1-0.09-0.16-0.12-0.24c-0.03-0.07-0.06-0.15-0.08-0.22    c-0.05-0.15-0.08-0.3-0.11-0.46c-0.05-0.31-0.06-0.62-0.02-0.93c0.04-0.31,0.11-0.61,0.24-0.88c0.12-0.28,0.29-0.53,0.5-0.75    c0.03-0.03,0.09-0.04,0.12,0c0.02,0.02,0.03,0.04,0.03,0.06l0,0.01c0.01,0.3,0.01,0.56,0.03,0.82c0.01,0.26,0.04,0.51,0.07,0.75    c0.03,0.24,0.08,0.48,0.14,0.71l0.09,0.34l0.05,0.17c0.01,0.05,0.03,0.12,0.04,0.14l0.01,0.19c0.01,0.29-0.21,0.53-0.49,0.55    C95.54,100.75,95.36,100.64,95.27,100.48"
   id="path280" />
	</g>
	<g
   id="g286">
		<path
   class="st116"
   d="M103.79,100.78H93.05c-1.48,0-2.74-0.86-3.27-2.24c-0.44-1.14-0.28-2.35,0.4-3.29    c-3.23-0.61-13.49-3.02-20.72-9.84c-0.85,1.91-3.31,7.2-6.1,10.99c-0.77,1.04-1.9,1.78-3.18,2.06c-3.15,0.71-7.33,1.14-9.34-0.86    c-1.2-1.2-1.46-2.77-0.7-4.3c0.95-1.93,3.22-3.21,5.39-3.08l6.69-10.09c-0.01-0.67,0.04-3.1,0.97-5.77    c1.44-4.13,4.33-6.83,8.34-7.81c0,0,0,0,0,0c0.06-0.02,6.51-1.53,14.14-1.44c4.5,0.05,8.52,0.64,11.97,1.75    c4.34,1.4,7.78,3.63,10.2,6.64c6.95,8.63,7.01,16.76,4.75,21.49C110.85,98.61,107.56,100.78,103.79,100.78z M69.28,83.94    c0.14,0,0.28,0.06,0.38,0.16c8.36,8.36,21.55,10.24,21.68,10.26c0.21,0.03,0.39,0.18,0.44,0.39c0.06,0.21-0.01,0.43-0.18,0.56    c-0.08,0.06-0.15,0.12-0.21,0.18c-0.9,0.82-0.91,1.91-0.62,2.66c0.29,0.75,1.05,1.56,2.28,1.56h10.75c3.4,0,6.25-1.89,7.83-5.18    c2.12-4.44,2.03-12.11-4.61-20.35c-5.2-6.45-14.47-7.91-21.32-7.99c-7.46-0.09-13.77,1.38-13.9,1.41    c-3.69,0.9-6.24,3.29-7.57,7.09c-1.02,2.89-0.92,5.56-0.92,5.58c0,0.11-0.03,0.22-0.09,0.32l-6.95,10.5    c-0.11,0.17-0.31,0.26-0.51,0.24c-2.1-0.27-3.95,1.07-4.63,2.46c-0.32,0.64-0.67,1.9,0.5,3.07c1.27,1.27,4.32,1.48,8.34,0.57    c1.03-0.23,1.93-0.82,2.55-1.66c3.32-4.5,6.26-11.42,6.29-11.49c0.07-0.16,0.22-0.28,0.39-0.32    C69.21,83.94,69.25,83.94,69.28,83.94z"
   id="path284" />
	</g>
	<g
   id="g290">
		<path
   class="st121"
   d="M122.16,90.05c-0.48,1.16-1.25,2.22-2.29,3.03c-0.02,0.02-0.04,0.04-0.07,0.05    c-3.96,3.06-7.04,0.92-7.04,0.92c0.74-0.88,1.43-2.71,1.43-2.71c-0.98,0.01-1.85-0.26-2.57-0.71c-2.35-1.49-3.12-5-1.15-7.6    c0.39-0.52,0.81-0.96,1.23-1.32c2.7-2.32,6.82-2.14,9.25,0.46C122.91,84.27,123.26,87.43,122.16,90.05"
   id="path288" />
	</g>
	<g
   id="g294">
		<path
   class="st0"
   d="M122.16,90.05c-0.48,1.16-1.25,2.22-2.29,3.03c-3.99,3.13-7.1,0.97-7.1,0.97c0.74-0.88,1.43-2.71,1.43-2.71    c-0.98,0.01-1.85-0.26-2.57-0.71c0,0,2.09,0.29,3.86-3.65C117.08,83.42,123.01,83.72,122.16,90.05"
   id="path292" />
	</g>
	<g
   class="st105"
   id="g302">
		<g
   id="g300">
			<g
   id="g298">
				<path
   class="st113"
   d="M119.8,93.13c-3.96,3.06-7.04,0.92-7.04,0.92c0.74-0.88,1.43-2.71,1.43-2.71c2.6-1.33,2.8-4.69,4.26-5.25      C118.45,86.09,123.2,88.41,119.8,93.13"
   id="path296" />
			</g>
		</g>
	</g>
	<g
   class="st109"
   id="g310">
		<g
   id="g308">
			<g
   id="g306">
				<path
   class="st0"
   d="M112.12,90.9c-1.64-1.64-2.01-4.5-0.35-6.69c0.38-0.5,0.78-0.92,1.18-1.26c2.59-2.23,6.55-2.06,8.89,0.44      c0.01,0.01,0.01,0.01,0.02,0.02c-0.25-0.44-0.55-0.85-0.9-1.23c-2.43-2.6-6.55-2.78-9.25-0.46c-0.42,0.36-0.83,0.79-1.23,1.32      c-1.97,2.6-1.19,6.11,1.15,7.6C111.78,90.73,111.95,90.81,112.12,90.9"
   id="path304" />
			</g>
		</g>
	</g>
	<g
   id="g314">
		<path
   class="st116"
   d="M114.25,90.75C114.22,90.75,114.24,90.75,114.25,90.75c0.01,0,0.02,0,0.03,0c0.02,0,0.05-0.01,0.07-0.01    c0.05-0.01,0.11-0.02,0.16-0.04c0.11-0.03,0.22-0.09,0.33-0.14c0.22-0.12,0.41-0.3,0.59-0.51c0.18-0.21,0.33-0.46,0.48-0.72    l0.19-0.41l0.17-0.43l0.18-0.49c0.07-0.16,0.13-0.33,0.21-0.49c0.15-0.32,0.33-0.64,0.56-0.94l0.09-0.11l0.11-0.11    c0.04-0.03,0.07-0.07,0.11-0.1c0.04-0.03,0.08-0.06,0.13-0.09c0.04-0.03,0.09-0.06,0.14-0.08c0.05-0.02,0.1-0.05,0.15-0.07    c0.11-0.03,0.22-0.07,0.34-0.06c0.12-0.01,0.23,0.02,0.33,0.05c0.1,0.04,0.2,0.08,0.27,0.14c0.16,0.11,0.28,0.26,0.37,0.41    c0.01,0.02,0.01,0.06-0.02,0.07c-0.01,0.01-0.03,0.01-0.05,0l0,0c-0.31-0.14-0.63-0.22-0.82-0.12c-0.05,0.01-0.09,0.06-0.14,0.08    l-0.06,0.06c-0.02,0.02-0.04,0.04-0.06,0.07c-0.02,0.03-0.04,0.05-0.06,0.07c-0.02,0.02-0.04,0.06-0.06,0.08l-0.06,0.08    l-0.05,0.09c-0.14,0.25-0.27,0.53-0.36,0.83c-0.1,0.3-0.18,0.61-0.26,0.92c-0.17,0.69-0.43,1.39-0.91,2.01    c-0.24,0.31-0.53,0.6-0.9,0.81c-0.18,0.11-0.38,0.2-0.59,0.26c-0.1,0.03-0.21,0.05-0.33,0.07c-0.06,0.01-0.11,0.01-0.17,0.02    c-0.03,0-0.06,0-0.09,0c-0.04,0-0.06,0-0.12-0.01c-0.33-0.03-0.56-0.32-0.53-0.65C113.63,90.96,113.92,90.72,114.25,90.75"
   id="path312" />
	</g>
	<g
   id="g318">
		<path
   class="st116"
   d="M115.47,95.38c-1.8,0-2.97-0.79-3.05-0.84c-0.14-0.1-0.23-0.24-0.25-0.41c-0.02-0.16,0.03-0.33,0.13-0.46    c0.38-0.46,0.76-1.22,1.02-1.79c-1.7-0.25-3.14-1.29-3.94-2.89c-1.02-2.04-0.79-4.46,0.61-6.31c0.4-0.52,0.84-1,1.31-1.41    c2.93-2.52,7.45-2.3,10.07,0.5c1.42,1.52,2.14,3.66,1.96,5.88c-0.18,2.34-1.31,4.5-3.11,5.9    C118.43,94.96,116.78,95.38,115.47,95.38z M113.64,93.84c0.97,0.4,3.17,0.88,5.86-1.22c1.53-1.2,2.5-3.05,2.66-5.06    c0.15-1.88-0.46-3.7-1.65-4.98c-2.19-2.34-5.97-2.53-8.43-0.41c-0.41,0.35-0.79,0.76-1.14,1.22c-1.13,1.49-1.32,3.43-0.5,5.06    c0.73,1.44,2.11,2.3,3.7,2.3c0.01,0,0.03,0,0.04,0c0.19,0,0.37,0.09,0.48,0.25c0.11,0.16,0.14,0.36,0.07,0.55    C114.72,91.61,114.25,92.86,113.64,93.84z"
   id="path316" />
	</g>
	<g
   id="g322">
		<path
   class="st121"
   d="M89.47,78.54c0,0-0.04,0.13-0.11,0.39c0,0,0,0.01,0,0.01c-0.07,0.24-0.16,0.57-0.28,1c0,0,0,0,0,0    c-0.94,3.28-3.48,11.68-6.68,18.38c-0.21,0.44-0.51,0.82-0.86,1.12c-0.6,0.51-1.37,0.81-2.19,0.81h-5.4    c-2.21,0-3.75-2.05-3.36-4.01h0c0.07-0.38,0.22-0.76,0.45-1.12c0.54-0.84,1.51-1.53,3.16-1.82c0,0,0.01-0.02,0.03-0.07    c0.08-0.19,0.33-0.73,0.67-1.53c1.13-2.62,3.35-8.01,4.51-12.48l0.84,0.22l1.81,0.48c0.92,0.25,1.9,0.23,2.81-0.03l3.19-0.93    l1.32-0.39L89.47,78.54z"
   id="path320" />
	</g>
	<g
   id="g326">
		<path
   class="st0"
   d="M81.45,97.7c0.22,1.3-0.76,2.53-2.08,2.54c-0.01,0-0.02,0-0.02,0h-5.4c-2.63,0-4.32-2.91-2.9-5.13    c0.54-0.84,1.51-1.53,3.16-1.82C74.22,93.29,80.56,92.56,81.45,97.7"
   id="path324" />
	</g>
	<g
   class="st105"
   id="g334">
		<g
   id="g332">
			<g
   id="g330">
				<path
   class="st113"
   d="M89.4,78.56c0,0.11-0.01,0.23-0.03,0.36c0,0,0,0.01,0,0.01c-0.04,0.27-0.13,0.6-0.28,1c0,0,0,0,0,0      c-0.94,3.28-3.48,11.68-6.68,18.38c-0.21,0.44-0.51,0.82-0.86,1.12c-0.6,0.51-1.37,0.81-2.19,0.81h-5.4      c-2.21,0-3.75-2.05-3.36-4.01h0c0,0,0.28,1.99,4.78,1.99c4.5,0,5.93-1,6.61-2.97c0.56-1.63,4.66-12.52,6.09-16.3      c0.08-0.22,0.16-0.42,0.22-0.59c0.22-0.58,1.08-0.44,1.09,0.18C89.4,78.54,89.4,78.55,89.4,78.56"
   id="path328" />
			</g>
		</g>
	</g>
	<g
   class="st105"
   id="g342">
		<g
   id="g340">
			<g
   id="g338">
				<path
   class="st113"
   d="M80.62,95.62c-1.79-3.25-6.41-2.33-6.41-2.33s0.27-0.6,0.71-1.6C80.23,91.75,80.62,95.62,80.62,95.62"
   id="path336" />
			</g>
		</g>
	</g>
	<g
   class="st109"
   id="g350">
		<g
   id="g348">
			<g
   id="g346">
				<path
   class="st0"
   d="M80.26,80.11c-0.87,4.14-2.84,9.82-4.68,12.89c0,0-0.86,0.14-1.33,0.21c0.08-0.19,0.33-0.73,0.67-1.53      c1.13-2.62,3.35-8.01,4.51-12.48c0,0,0.68-0.31,0.84,0.22C80.32,79.58,80.32,79.8,80.26,80.11"
   id="path344" />
			</g>
		</g>
	</g>
	<g
   id="g354">
		<path
   class="st116"
   d="M73.33,99.81c-0.03-0.1-0.05-0.16-0.07-0.24c-0.02-0.08-0.03-0.15-0.05-0.23c-0.03-0.15-0.04-0.3-0.05-0.45    c-0.01-0.3,0.01-0.61,0.07-0.9c0.06-0.3,0.14-0.59,0.29-0.86c0.13-0.27,0.33-0.51,0.56-0.7c0.05-0.04,0.12-0.03,0.16,0.02    c0.02,0.02,0.03,0.05,0.03,0.08l0,0.01c-0.02,0.29-0.06,0.54-0.07,0.8c-0.02,0.25-0.03,0.49-0.02,0.74    c0.01,0.24,0.03,0.48,0.06,0.72c0.02,0.12,0.04,0.24,0.06,0.35l0.06,0.33l0.01,0.06c0.06,0.29-0.13,0.57-0.42,0.63    C73.67,100.21,73.42,100.06,73.33,99.81"
   id="path352" />
	</g>
	<g
   id="g358">
		<path
   class="st116"
   d="M76.81,99.9c-0.03-0.1-0.05-0.16-0.07-0.24c-0.02-0.08-0.03-0.15-0.05-0.23c-0.03-0.15-0.04-0.3-0.05-0.45    c-0.01-0.3,0.01-0.61,0.07-0.9c0.06-0.3,0.14-0.59,0.29-0.86c0.13-0.27,0.33-0.51,0.56-0.7c0.05-0.04,0.12-0.03,0.16,0.02    c0.02,0.02,0.03,0.05,0.03,0.08l0,0.01c-0.02,0.29-0.06,0.54-0.07,0.8c-0.02,0.25-0.03,0.49-0.02,0.74    c0.01,0.24,0.03,0.48,0.06,0.72c0.02,0.12,0.04,0.24,0.06,0.35l0.06,0.33l0.01,0.06c0.06,0.29-0.13,0.57-0.42,0.63    C77.15,100.3,76.9,100.15,76.81,99.9"
   id="path356" />
	</g>
	<g
   id="g362">
		<path
   class="st116"
   d="M74.13,92.76c0.34-0.06,0.65-0.08,0.97-0.09c0.32-0.01,0.64,0,0.95,0.03c0.63,0.05,1.27,0.19,1.87,0.4    c0.3,0.11,0.6,0.25,0.88,0.4c0.28,0.16,0.55,0.35,0.79,0.56c0.49,0.42,0.88,0.95,1.1,1.53c0.01,0.04,0,0.08-0.04,0.1    c-0.03,0.01-0.06,0-0.08-0.02l0,0c-0.21-0.22-0.41-0.44-0.63-0.62c-0.11-0.09-0.23-0.18-0.35-0.26l-0.18-0.12l-0.18-0.11    c-0.49-0.28-1.03-0.46-1.57-0.59c-0.55-0.12-1.11-0.18-1.68-0.21c-0.28-0.01-0.57-0.01-0.85,0c-0.28,0.01-0.58,0.03-0.83,0.05    l-0.03,0c-0.29,0.03-0.55-0.19-0.58-0.48C73.67,93.06,73.86,92.81,74.13,92.76"
   id="path360" />
	</g>
	<g
   id="g366">
		<path
   class="st116"
   d="M89.61,78.57c-0.53,3.42-1.65,6.68-2.73,9.95c-0.56,1.63-1.14,3.25-1.76,4.86l-0.48,1.2    c-0.16,0.4-0.32,0.8-0.49,1.2l-0.51,1.19l-0.54,1.18c-0.09,0.2-0.16,0.38-0.29,0.61c-0.12,0.22-0.26,0.43-0.42,0.62    c-0.32,0.39-0.72,0.71-1.15,0.95c-0.44,0.23-0.93,0.4-1.42,0.45c-0.12,0.02-0.25,0.02-0.37,0.03l-0.09,0l-0.08,0l-0.16,0l-0.64,0    l-2.57,0l-1.29,0l-0.64,0l-0.37-0.02l-0.19-0.01l-0.18-0.04c-0.12-0.03-0.25-0.05-0.37-0.08l-0.36-0.13    c-0.12-0.04-0.23-0.1-0.34-0.16c-0.11-0.06-0.23-0.11-0.33-0.18c-0.43-0.27-0.78-0.63-1.08-1.03c-0.29-0.41-0.5-0.87-0.64-1.35    c-0.12-0.49-0.15-1-0.08-1.5c0.16-1,0.71-1.92,1.5-2.52c0.39-0.3,0.83-0.52,1.27-0.69c0.44-0.17,0.89-0.28,1.34-0.35l0,0    l-0.39,0.3l1.45-3.45c0.24-0.58,0.48-1.15,0.72-1.73c0.24-0.58,0.47-1.15,0.71-1.73c0.47-1.16,0.91-2.32,1.36-3.48    c0.45-1.16,0.9-2.33,1.38-3.49l0,0c0.02-0.05,0.07-0.07,0.12-0.05c0.04,0.02,0.06,0.06,0.06,0.1c-0.15,1.26-0.44,2.49-0.77,3.71    c-0.35,1.21-0.75,2.41-1.17,3.59c-0.22,0.59-0.43,1.18-0.66,1.77c-0.23,0.59-0.46,1.17-0.7,1.75c-0.48,1.16-0.98,2.32-1.53,3.45    c-0.08,0.16-0.23,0.27-0.39,0.3l0,0l0,0c-0.79,0.15-1.54,0.42-2.11,0.87c-0.58,0.44-0.95,1.11-1.06,1.8    c-0.04,0.35-0.02,0.71,0.07,1.05c0.1,0.34,0.25,0.67,0.46,0.96c0.22,0.28,0.47,0.54,0.78,0.72c0.07,0.06,0.16,0.08,0.23,0.13    c0.08,0.04,0.16,0.09,0.24,0.11l0.25,0.09l0.26,0.06l0.13,0.03l0.13,0.01l0.27,0.02l0.64,0l1.29,0l2.57,0l0.64,0l0.16,0l0.08,0    l0.07,0c0.09,0,0.18-0.01,0.27-0.02c0.35-0.04,0.7-0.15,1.01-0.32c0.31-0.17,0.6-0.4,0.82-0.67c0.12-0.14,0.21-0.29,0.3-0.44    c0.08-0.14,0.17-0.36,0.26-0.55l0.54-1.16l0.51-1.17c0.17-0.39,0.34-0.78,0.5-1.18l0.49-1.18c0.63-1.59,1.24-3.18,1.82-4.79    c1.17-3.22,2.11-6.5,3.4-9.69l0,0c0.03-0.07,0.11-0.11,0.18-0.08C89.58,78.45,89.62,78.51,89.61,78.57"
   id="path364" />
	</g>
	<g
   id="g370">
		<path
   class="st121"
   d="M95.53,60.98c-0.01,0.62-0.11,1.3-0.33,2.03c-0.88,2.97-3.67,6.57-9.86,8.78    c-3.95,1.41-9.3,2.26-16.41,2.01c0,0-15.43-0.43-16.76-10.23C52,62.36,52.05,61,52.37,59.49c0.24-1.14,0.64-2.38,1.21-3.71    c0,0-0.51-5.36,1.07-12.68c1.58-7.32,3.9-10.85,5.86-10.86c1.95-0.01,4.98,2.56,7.77,7.52c0,0,4.57-1.5,9.56,0.22    c0,0,6.01-10.44,10.61-8.93c0.24,0.08,0.46,0.19,0.68,0.35c1.78,1.26,2.81,4.93,3.41,8.94c0.74,4.9,0.83,10.31,0.89,12.43    c0,0,0.86,1.59,1.47,3.81C95.27,57.9,95.55,59.43,95.53,60.98"
   id="path368" />
	</g>
	<g
   id="g374">
		<path
   class="st0"
   d="M90.12,68.57c-1.19,1.16-2.76,2.27-4.78,3.21c-3.95,1.41-9.3,2.26-16.41,2.01c0,0-15.43-0.43-16.76-10.23    c-0.13-0.94-0.13-1.97,0.03-3.09c0.1-0.7,0.61-1.28,1.3-1.46c1.26-0.32,2.75-0.02,4.6,1.14c1.41,0.88,3.31,0.68,4.23-0.14    c1.6-1.43,3.25-3.21,5.99-3.08c2.23,0.11,4.08,1.08,5.54,2.31c1.86,1.55,4.6,1.43,6.35-0.24c1.54-1.47,3.61-2.75,6.06-2.58    c1.82,0.12,3.19,0.9,4.21,2C93.17,61.3,92.95,65.82,90.12,68.57"
   id="path372" />
	</g>
	<g
   class="st105"
   id="g382">
		<g
   id="g380">
			<g
   id="g378">
				<path
   class="st113"
   d="M76.77,39.67c-2.88-0.76-5.52-0.52-7.06-0.24c1.69-0.21,4.19-0.26,6.82,0.65      C76.52,40.08,76.61,39.93,76.77,39.67"
   id="path376" />
			</g>
		</g>
	</g>
	<g
   class="st105"
   id="g386">
		<path
   class="st113"
   d="M94.91,56.59c-0.62-2.22-1.47-3.81-1.47-3.81c-0.05-2.12-0.15-7.53-0.89-12.43    c-0.6-4.01-1.63-7.69-3.41-8.94c-0.21-0.15-0.44-0.27-0.68-0.35c-0.39-0.13-0.79-0.17-1.19-0.14c1.46,1.2,2.36,4.19,2.92,7.54    c-2.52-0.71-4.73-1.31-4.73-1.31s-3.47,0.14-3.66,7.92c-0.16,6.58,2.61,11.77,8.97,11.27c1.26-0.1,2.35,0.92,2.33,2.18    c0,0.01,0,0.02,0,0.03c-0.01,0.58-0.1,1.22-0.31,1.9C91.43,65,85.26,71.16,68.13,70.56c0,0-14.47-0.4-15.72-9.59    c-0.05-0.4-0.08-0.81-0.09-1.25c-0.14,0.72-0.22,1.39-0.24,2.04c0.02,0.19,0.03,0.39,0.06,0.57c1.33,9.8,16.76,10.23,16.76,10.23    c18.26,0.64,24.83-5.92,26.28-10.78c0.2-0.65,0.3-1.27,0.32-1.84C95.42,58.75,95.19,57.61,94.91,56.59z"
   id="path384" />
	</g>
	<g
   class="st105"
   id="g394">
		<g
   id="g392">
			<g
   id="g390">
				<path
   class="st113"
   d="M73.1,60.69c-0.62,0.96-1.04,1.47-2.37,1.43c-1.22-0.04-1.09-1.84-1.09-1.84l-1.34,0.03l-1.34,0.03      c0,0,0.21,1.8-1.01,1.89c-1.33,0.1-1.77-0.39-2.43-1.33c0,0-0.48,2.25,1.6,2.74c1.97,0.46,3.19,0.1,3.19-2.82      c0.12,2.91,1.36,3.22,3.31,2.68C73.67,62.91,73.1,60.69,73.1,60.69"
   id="path388" />
			</g>
		</g>
	</g>
	<g
   id="g398">
		<path
   class="st113"
   d="M74.14,56.32c0.04,1.74,1.2,3.13,2.6,3.1c1.4-0.03,2.5-1.47,2.46-3.21c-0.04-1.74-1.2-3.13-2.6-3.1    C75.2,53.13,74.1,54.57,74.14,56.32"
   id="path396" />
	</g>
	<g
   id="g402">
		<path
   class="st0"
   d="M75.3,56.73c0.01,0.62,0.42,1.11,0.92,1.1c0.49-0.01,0.88-0.52,0.87-1.13c-0.01-0.62-0.42-1.11-0.92-1.1    C75.68,55.61,75.29,56.11,75.3,56.73"
   id="path400" />
	</g>
	<g
   id="g406">
		<path
   class="st113"
   d="M58.54,56.65c0.04,1.74,1.2,3.13,2.6,3.1c1.4-0.03,2.5-1.47,2.46-3.21c-0.04-1.74-1.2-3.13-2.6-3.1    C59.61,53.47,58.5,54.91,58.54,56.65"
   id="path404" />
	</g>
	<g
   id="g410">
		<path
   class="st0"
   d="M59.77,57.03c0.01,0.62,0.42,1.11,0.92,1.1c0.49-0.01,0.88-0.52,0.87-1.13c-0.01-0.62-0.42-1.11-0.92-1.1    C60.15,55.91,59.76,56.42,59.77,57.03"
   id="path408" />
	</g>
	<g
   id="g414">
		<path
   class="st113"
   d="M71.01,59.29c-0.06-0.68-0.86-1.01-1.58-1.17c-0.79-0.17-1.61-0.15-2.4,0.05c-0.72,0.19-1.5,0.55-1.53,1.24    c-0.05,0.89,1.33,1.48,2.17,1.76c0.41,0.13,0.85,0.13,1.25-0.03C69.75,60.83,71.1,60.18,71.01,59.29"
   id="path412" />
	</g>
	<g
   id="g418">
		<path
   class="st0"
   d="M69.27,58.93c0,0.14-0.66,0.27-1.49,0.29c-0.82,0.02-1.5-0.08-1.5-0.23c0-0.14,0.66-0.27,1.49-0.29    C68.6,58.69,69.27,58.79,69.27,58.93"
   id="path416" />
	</g>
	<g
   id="g422">
		<path
   class="st113"
   d="M70.61,64c-0.83,0-1.49-0.26-1.98-0.78c-0.94-1-0.81-2.59-0.81-2.66c0.02-0.27,0.26-0.46,0.52-0.44    c0.27,0.02,0.46,0.26,0.44,0.52c0,0.02-0.09,1.23,0.55,1.92c0.31,0.33,0.75,0.49,1.34,0.47c0.69-0.01,1.2-0.2,1.53-0.56    c0.48-0.53,0.42-1.29,0.42-1.3c-0.02-0.26,0.17-0.5,0.44-0.52c0.26-0.02,0.5,0.17,0.52,0.43c0,0.05,0.1,1.17-0.65,2.02    c-0.51,0.57-1.26,0.87-2.24,0.89C70.67,64,70.64,64,70.61,64z"
   id="path420" />
	</g>
	<g
   id="g426">
		<path
   class="st113"
   d="M66.04,63.98c-0.89,0-1.6-0.26-2.09-0.77c-0.77-0.79-0.72-1.88-0.72-1.93c0.01-0.26,0.23-0.45,0.49-0.44    c0.26,0.01,0.46,0.23,0.44,0.49c0,0-0.02,0.74,0.46,1.23c0.33,0.33,0.84,0.49,1.5,0.48c0.57-0.01,0.99-0.18,1.27-0.52    c0.59-0.68,0.45-1.86,0.45-1.87c-0.03-0.26,0.15-0.49,0.4-0.52c0.26-0.03,0.49,0.15,0.52,0.4c0.01,0.06,0.2,1.59-0.67,2.6    c-0.46,0.54-1.12,0.82-1.96,0.84C66.1,63.98,66.07,63.98,66.04,63.98z"
   id="path424" />
	</g>
	<g
   id="g430">
		<path
   class="st0"
   d="M64.29,49.9c-0.22,0.7-1.14,1.04-2.07,0.75c-0.93-0.28-1.5-1.08-1.29-1.78c0.22-0.7,1.14-1.04,2.06-0.75    C63.93,48.4,64.51,49.2,64.29,49.9"
   id="path428" />
	</g>
	<g
   id="g434">
		<path
   class="st0"
   d="M73.77,50.27c0.26,0.68,1.21,0.96,2.11,0.61c0.9-0.35,1.42-1.18,1.16-1.87c-0.26-0.68-1.21-0.96-2.11-0.61    C74.03,48.75,73.51,49.59,73.77,50.27"
   id="path432" />
	</g>
	<g
   class="st109"
   id="g442">
		<g
   id="g440">
			<g
   id="g438">
				<path
   class="st0"
   d="M60.51,32.24c-1.95,0.01-4.28,3.54-5.86,10.86c-1.58,7.32-1.07,12.68-1.07,12.68      c-1.34,3.09-1.71,5.65-1.42,7.78c0.47,3.47,2.71,5.76,5.4,7.27c-2.13-1.49-3.8-3.59-4.2-6.52c-0.29-2.12,0.04-5.37,1.37-8.46      c0,0-0.14-1.44,0-3.97c0.04,0.01,0.08,0.02,0.12,0.02c0.76,0.07,1.48-1.02,1.61-2.43c0.13-1.41-0.38-2.61-1.14-2.68      c-0.01,0-0.01,0-0.02,0c0.15-0.92,0.33-1.9,0.55-2.93c1.58-7.32,3.9-10.85,5.86-10.86c0.44,0,0.94,0.13,1.48,0.39      C62.19,32.63,61.27,32.24,60.51,32.24"
   id="path436" />
			</g>
		</g>
	</g>
	<g
   class="st109"
   id="g450">
		<g
   id="g448">
			<g
   id="g446">
				<path
   class="st0"
   d="M89.13,31.41c-5.35,1.58-9.15,7.73-10.22,9.63c-0.18,0.32-0.56,0.47-0.92,0.36      c-7.96-2.51-16.58,2.05-16.58,2.05c2.55-3.23,6.86-3.68,6.86-3.68s4.57-1.5,9.56,0.22c0,0,6.01-10.44,10.61-8.93      C88.69,31.14,88.92,31.26,89.13,31.41"
   id="path444" />
			</g>
		</g>
	</g>
	<g
   id="g454">
		<path
   class="st116"
   d="M68.36,40.3c-0.28,0.05-0.61,0.12-0.91,0.19l-0.46,0.12l-0.46,0.13c-0.61,0.19-1.21,0.42-1.79,0.69    c-0.59,0.26-1.15,0.57-1.69,0.92l-0.41,0.26l-0.39,0.28c-0.27,0.18-0.51,0.4-0.78,0.6l-0.01,0c-0.03,0.03-0.08,0.02-0.11-0.02    c-0.02-0.03-0.02-0.06,0-0.09c0.39-0.54,0.83-1.07,1.35-1.5l0.19-0.17l0.2-0.16c0.14-0.1,0.27-0.21,0.41-0.31    c0.28-0.19,0.56-0.38,0.86-0.55c0.59-0.34,1.2-0.64,1.84-0.89c0.32-0.12,0.64-0.24,0.97-0.33c0.33-0.1,0.65-0.18,1.02-0.25    c0.29-0.05,0.57,0.14,0.62,0.43c0.05,0.29-0.14,0.57-0.43,0.62L68.36,40.3z"
   id="path452" />
	</g>
	<g
   id="g458">
		<path
   class="st116"
   d="M71.36,74.37c-0.79,0-1.61-0.01-2.46-0.04c-0.47-0.01-11.75-0.4-15.89-6.9c-1.98-3.1-1.97-7.05,0.03-11.73    c-0.07-0.91-0.37-5.95,1.1-12.7c1.53-7.05,3.91-11.27,6.38-11.28c0.01,0,0.01,0,0.02,0c2.31,0,5.35,2.83,8.01,7.43    c1.23-0.32,4.95-1.08,9.06,0.21c1.17-1.93,6.53-10.27,11.02-8.8c3.25,1.07,5,8.21,5.34,21.84l0.01,0.25    c0.36,0.71,2.16,4.42,2.1,8.34c-0.04,2.46-1.35,5.1-3.59,7.22C89.46,71.08,83.37,74.37,71.36,74.37z M60.53,32.78    c0,0-0.01,0-0.01,0c-1.53,0.01-3.78,3.24-5.34,10.44c-1.55,7.15-1.07,12.46-1.06,12.51c0.01,0.09-0.01,0.18-0.04,0.26    c-1.9,4.39-1.95,8.05-0.16,10.85c3.83,6.02,14.91,6.4,15.02,6.4c13.28,0.47,19.73-2.91,22.8-5.82c2.88-2.74,3.24-5.43,3.25-6.46    c0.07-3.99-2.01-7.89-2.03-7.93c-0.04-0.07-0.06-0.16-0.06-0.24l-0.01-0.38c-0.4-16.12-2.72-20.24-4.6-20.85    c-3.44-1.13-8.37,5.89-9.99,8.69c-0.13,0.22-0.4,0.32-0.64,0.24c-4.77-1.65-9.17-0.23-9.22-0.22c-0.24,0.08-0.51-0.02-0.63-0.25    C65,35.02,62.13,32.78,60.53,32.78z"
   id="path456" />
	</g>
	<g
   id="g462">
		<path
   class="st116"
   d="M60.41,31.38c0.71-1.55,2.11-3.47,4.77-3.92l-1.15-2.48c0,0-5.7,1.33-6.92,8.49h0.08    C58.58,33.47,59.83,32.64,60.41,31.38"
   id="path460" />
	</g>
	<g
   id="g466">
		<path
   class="st122"
   d="M86.04,24.97c-0.02,1.21-0.15,4.14-6.14,2.86c-5.99-1.29-11.66-0.15-15.16,0.75c-1.57,0.4-2.49,0-3.02-0.57    C61.08,27.31,61,26.37,61,26.37c5.32-5.16,13.55-4.51,19.11-3.24C83.6,23.93,86.04,24.97,86.04,24.97"
   id="path464" />
	</g>
	<g
   class="st105"
   id="g474">
		<g
   id="g472">
			<g
   id="g470">
				<path
   class="st113"
   d="M86.04,24.97c-0.02,1.21-0.15,4.14-6.14,2.86c-5.99-1.29-11.66-0.15-15.16,0.75      c-1.57,0.4-2.23,0.23-2.76-0.33c3.67-2.88,13.19-2.82,15.39-2.76c0.34,0.01,0.69-0.07,0.99-0.23c1.02-0.54,1.52-1.34,1.75-2.11      C83.6,23.93,86.04,24.97,86.04,24.97"
   id="path468" />
			</g>
		</g>
	</g>
	<g
   id="g478">
		<path
   class="st116"
   d="M63.57,29.27c-0.7,0-1.31-0.18-1.82-0.54c-1.15-0.82-1.28-2.26-1.28-2.32c-0.01-0.16,0.05-0.32,0.16-0.43    c3.66-3.55,9.26-4.93,16.21-3.99c5.19,0.7,9.24,2.41,9.41,2.48c0.2,0.09,0.33,0.28,0.33,0.5c-0.01,0.6-0.03,1.99-1.16,2.89    c-1.13,0.89-2.96,1.05-5.62,0.48c-6.53-1.41-12.84,0.21-14.91,0.74C64.41,29.21,63.97,29.27,63.57,29.27z M61.58,26.57    c0.08,0.33,0.28,0.93,0.8,1.3c0.53,0.37,1.28,0.44,2.23,0.19c2.13-0.55,8.62-2.21,15.4-0.75c2.26,0.49,3.89,0.39,4.73-0.27    c0.59-0.47,0.72-1.17,0.75-1.7c-1.08-0.42-4.61-1.71-8.82-2.27C72.14,22.45,65.88,22.57,61.58,26.57z M61,26.37L61,26.37L61,26.37    z"
   id="path476" />
	</g>
	<g
   id="g482">
		<path
   class="st123"
   d="M92.16,35.13l-3.69,0.32c0,0,0.03-0.37,0-0.99c-0.17-2.96-1.87-11.48-15.97-11c0,0-14.92-0.37-15.42,10.5    h-2.27c0,0-0.58-12.57,17.88-12.98c6.76-0.15,11.28,1.16,14.25,3.11C91.81,27.27,92.52,32.16,92.16,35.13"
   id="path480" />
	</g>
	<g
   class="st105"
   id="g490">
		<g
   id="g488">
			<g
   id="g486">
				<path
   class="st113"
   d="M92.16,35.13l-3.69,0.32c0,0,0.03-0.37,0-0.99c3.78-2.96-0.18-8.65-1.52-10.37      C91.81,27.27,92.52,32.16,92.16,35.13"
   id="path484" />
			</g>
		</g>
	</g>
	<g
   class="st109"
   id="g498">
		<g
   id="g496">
			<g
   id="g494">
				<path
   class="st0"
   d="M73.42,21.89c9-0.2,14.02,2.19,16.72,5.22c-2.47-3.44-7.56-6.35-17.44-6.13      c-18.47,0.41-17.88,12.98-17.88,12.98h0.77C55.86,31.06,57.99,22.23,73.42,21.89"
   id="path492" />
			</g>
		</g>
	</g>
	<g
   id="g502">
		<path
   class="st116"
   d="M88.47,35.98c-0.27,0-0.51-0.21-0.53-0.49c-0.03-0.29,0.19-0.55,0.49-0.58l3.25-0.28    c0.14-1.7-0.01-5.15-2.72-8.15c-3.13-3.47-8.6-5.14-16.24-4.97c-6.52,0.15-11.33,1.83-14.3,5c-2.51,2.68-2.97,5.73-3.04,6.92h1.72    c0.3,0,0.53,0.24,0.53,0.53c0,0.3-0.24,0.53-0.53,0.53h-2.27c-0.29,0-0.52-0.22-0.53-0.51c-0.01-0.18-0.16-4.45,3.33-8.19    c3.17-3.4,8.25-5.2,15.08-5.35c7.97-0.18,13.71,1.61,17.06,5.32c3.26,3.61,3.15,7.79,2.95,9.43c-0.03,0.25-0.23,0.45-0.48,0.47    l-3.69,0.32C88.5,35.98,88.48,35.98,88.47,35.98z"
   id="path500" />
	</g>
	<g
   id="g506">
		<path
   class="st116"
   d="M88.47,35.98c-0.14,0-0.28-0.06-0.38-0.16c-0.11-0.11-0.17-0.27-0.16-0.42l0,0c0-0.04,0.31-4.3-2.8-7.56    c-2.62-2.75-6.86-4.04-12.62-3.85c-0.01,0-0.02,0-0.03,0c-0.04,0-3.7-0.07-7.37,1.16c-4.79,1.61-7.31,4.58-7.51,8.83    c-0.01,0.29-0.25,0.51-0.53,0.51h-2.27c-0.29,0-0.52-0.22-0.53-0.51c-0.01-0.18-0.16-4.45,3.33-8.19c3.17-3.4,8.25-5.2,15.08-5.35    c7.96-0.18,13.71,1.61,17.06,5.32c3.26,3.61,3.15,7.79,2.95,9.43c-0.03,0.25-0.23,0.45-0.48,0.47l-3.69,0.32    C88.5,35.98,88.49,35.98,88.47,35.98z M73.63,22.91c5.5,0,9.63,1.41,12.29,4.21c2.73,2.87,3.08,6.34,3.1,7.75l2.65-0.23    c0.14-1.7-0.01-5.15-2.72-8.15c-3.14-3.47-8.6-5.14-16.25-4.97c-6.52,0.14-11.33,1.83-14.3,4.99c-2.51,2.68-2.97,5.73-3.04,6.92    h1.22c0.39-4.42,3.23-7.63,8.23-9.29c3.75-1.25,7.38-1.21,7.69-1.2C72.88,22.91,73.26,22.91,73.63,22.91z"
   id="path504" />
	</g>
	<g
   id="g510">
		<path
   class="st123"
   d="M54.68,36.68h-1.46c-0.97,0-1.86,0.52-2.33,1.36c-0.87,1.55-2.16,4.73-2.6,8.29    c-0.69,5.57,1.17,6.04,3.2,6.04C51.48,52.37,50.01,43.53,54.68,36.68"
   id="path508" />
	</g>
	<g
   class="st109"
   id="g518">
		<g
   id="g516">
			<g
   id="g514">
				<path
   class="st0"
   d="M49.01,47.06c0.44-3.56,1.73-6.74,2.6-8.29c0.47-0.84,1.36-1.36,2.33-1.36h0.27      c0.15-0.24,0.3-0.49,0.47-0.73h-1.46c-0.97,0-1.86,0.52-2.33,1.36c-0.87,1.55-2.16,4.73-2.6,8.29      c-0.44,3.54,0.15,5.02,1.16,5.63C48.92,51.11,48.7,49.63,49.01,47.06"
   id="path512" />
			</g>
		</g>
	</g>
	<g
   id="g522">
		<path
   class="st116"
   d="M51.48,52.91c-1.06,0-2.15-0.12-2.93-1c-0.9-1.01-1.15-2.81-0.8-5.64c0.44-3.55,1.71-6.79,2.66-8.49    c0.57-1.01,1.64-1.64,2.8-1.64h1.46c0.2,0,0.38,0.11,0.47,0.28c0.09,0.18,0.08,0.39-0.03,0.55c-4.49,6.58-3.13,15.22-3.11,15.3    c0.03,0.15-0.02,0.31-0.12,0.43C51.79,52.84,51.64,52.91,51.48,52.91z M53.22,37.21c-0.77,0-1.49,0.42-1.86,1.09    c-0.91,1.61-2.11,4.7-2.54,8.1c-0.3,2.44-0.12,4.05,0.54,4.8c0.36,0.41,0.87,0.57,1.51,0.62c-0.24-2.09-0.65-8.82,2.83-14.6H53.22    z"
   id="path520" />
	</g>
	<g
   id="g526">
		<path
   class="st122"
   d="M54.14,45.57c-0.8,5.01-0.62,8.84-0.62,8.84c-1.79,0-3.58-0.84-2.71-7.64c0.03-0.27,0.07-0.54,0.11-0.83    c1.12-7.56,3.76-9.27,3.76-9.27h1.86C55.31,39.71,54.58,42.82,54.14,45.57"
   id="path524" />
	</g>
	<g
   class="st105"
   id="g534">
		<g
   id="g532">
			<g
   id="g530">
				<path
   class="st113"
   d="M53.51,54.41c-1.79,0-3.58-0.84-2.71-7.64c1.27-0.15,2.38-0.61,3.33-1.2      C53.34,50.58,53.51,54.41,53.51,54.41"
   id="path528" />
			</g>
		</g>
	</g>
	<g
   id="g538">
		<path
   class="st116"
   d="M53.51,54.95c-0.68,0-1.68-0.1-2.42-0.97c-1.11-1.28-1.33-3.86-0.7-8.11c1.15-7.71,3.88-9.56,4-9.64    c0.09-0.06,0.19-0.09,0.29-0.09h1.86c0.18,0,0.34,0.09,0.44,0.24c0.1,0.15,0.12,0.33,0.05,0.5c-3.37,8.32-2.99,17.42-2.99,17.51    c0.01,0.15-0.05,0.29-0.15,0.39C53.8,54.89,53.66,54.95,53.51,54.95z M54.86,37.21c-0.48,0.42-2.48,2.52-3.41,8.81    c-0.57,3.81-0.42,6.26,0.45,7.26c0.27,0.31,0.6,0.49,1.07,0.56c-0.02-2.12,0.11-9.54,2.79-16.62H54.86z"
   id="path536" />
	</g>
	<g
   id="g542">
		<path
   class="st123"
   d="M58.5,33.47c0,0-1.38,1.69-1.96,3.21h-3.25c0,0-0.18-3.21,1.53-3.21H58.5z"
   id="path540" />
	</g>
	<g
   class="st105"
   id="g550">
		<g
   id="g548">
			<g
   id="g546">
				<path
   class="st113"
   d="M58.5,33.47c0,0-1.38,1.69-1.96,3.21h-1.23c-0.01-1.63,0.56-2.63,1.15-3.21H58.5z"
   id="path544" />
			</g>
		</g>
	</g>
	<g
   class="st109"
   id="g558">
		<g
   id="g556">
			<g
   id="g554">
				<path
   class="st0"
   d="M55.73,33.47h-0.91c-1.71,0-1.53,3.21-1.53,3.21h0.91C54.2,36.68,54.02,33.47,55.73,33.47"
   id="path552" />
			</g>
		</g>
	</g>
	<g
   id="g562">
		<path
   class="st116"
   d="M55.48,37.21c-0.29,0-0.52-0.23-0.53-0.51c-0.01-0.31-0.08-3.07,1.47-3.72c0.27-0.11,0.59,0.01,0.7,0.29    c0.11,0.27-0.01,0.59-0.29,0.7c-0.69,0.29-0.85,1.94-0.82,2.69c0.01,0.3-0.22,0.54-0.51,0.56C55.49,37.21,55.49,37.21,55.48,37.21    z"
   id="path560" />
	</g>
	<g
   id="g566">
		<path
   class="st116"
   d="M56.54,37.21h-3.25c-0.28,0-0.52-0.22-0.53-0.51c-0.01-0.23-0.1-2.26,0.83-3.24    c0.33-0.35,0.76-0.53,1.23-0.53h3.68c0.21,0,0.39,0.12,0.48,0.31c0.09,0.19,0.06,0.41-0.07,0.57c-0.01,0.02-1.33,1.64-1.88,3.06    C56.96,37.08,56.76,37.21,56.54,37.21z M53.82,36.14h2.36c0.35-0.79,0.85-1.57,1.25-2.14h-2.62c-0.19,0-0.33,0.06-0.46,0.2    C53.97,34.61,53.85,35.52,53.82,36.14z"
   id="path564" />
	</g>
	<g
   id="g570">
		<path
   class="st122"
   d="M96.5,46.92c-0.74,9.31-4.57,9.22-7.45,8.96c-2.47-0.22-5.03-2.11-5.63-7.06v0    c-0.09-0.71-0.13-1.48-0.13-2.32c0-4.28,0.95-6.58,1.76-7.69c0.4-0.55,1.04-0.87,1.71-0.87h2l5.47,6.33L96.5,46.92z"
   id="path568" />
	</g>
	<g
   class="st105"
   id="g578">
		<g
   id="g576">
			<g
   id="g574">
				<path
   class="st113"
   d="M96.5,46.92c-0.74,9.31-4.57,9.22-7.45,8.96c-2.47-0.22-5.03-2.11-5.63-7.06      c1.28,1.22,4.51,2.53,10.81-4.54L96.5,46.92z"
   id="path572" />
			</g>
		</g>
	</g>
	<g
   id="g582">
		<path
   class="st116"
   d="M90.4,56.49c-0.47,0-0.94-0.03-1.4-0.07c-1.22-0.11-2.95-0.63-4.32-2.49c-1.28-1.73-1.93-4.23-1.93-7.42    c0-4.76,1.17-7.06,1.87-8.01c0.5-0.68,1.3-1.08,2.14-1.08h2c0.16,0,0.3,0.07,0.4,0.19l7.74,8.96c0.09,0.11,0.14,0.25,0.13,0.39    c-0.34,4.19-1.32,6.92-3,8.34C92.91,56.25,91.66,56.49,90.4,56.49z M86.76,38.49c-0.5,0-0.98,0.24-1.28,0.65    c-0.62,0.84-1.66,2.91-1.66,7.37c0,7.55,3.69,8.7,5.28,8.84c1.54,0.14,3.02,0.18,4.25-0.87c1.4-1.18,2.28-3.67,2.6-7.39    l-7.43-8.61H86.76z"
   id="path580" />
	</g>
	<g
   id="g586">
		<path
   class="st123"
   d="M95.09,51.78L95.09,51.78c-0.84,1.36-2.01,2.2-3.39,2.2c-3.07,0-5.46-3.01-5.14-9.09    c0.32-6.26,2.2-6.93,2.2-6.93h-1.64l0.4-2.24c0.07-0.38,0.4-0.65,0.78-0.65h3.41c0.67,0,1.23,0.42,1.46,1    c0.07,0.17,0.11,0.36,0.11,0.56v0.68c0,0,3,2.34,3.25,7.73C96.65,47.69,96.11,50.12,95.09,51.78"
   id="path584" />
	</g>
	<g
   class="st109"
   id="g594">
		<g
   id="g592">
			<g
   id="g590">
				<path
   class="st0"
   d="M95.09,51.78c-0.84,1.36-2,2.2-3.39,2.2c-3.07,0-5.46-3.01-5.14-9.09c0.32-6.26,2.2-6.93,2.2-6.93h-1.64      l0.4-2.24c0.07-0.38,0.4-0.65,0.78-0.65h3.41c0.67,0,1.23,0.42,1.46,1h-2.5c-0.26,0-0.48,0.18-0.52,0.43l-0.39,2.07      c-0.03,0.15-0.11,0.29-0.24,0.38c-0.47,0.32-1.67,1.65-1.8,6.89C87.56,52.38,91.59,54.75,95.09,51.78"
   id="path588" />
			</g>
		</g>
	</g>
	<g
   id="g598">
		<path
   class="st116"
   d="M88.76,38.49c-0.03,0-0.07,0-0.1-0.01c-0.29-0.06-0.48-0.34-0.42-0.63l0.57-2.89    c0.06-0.29,0.34-0.48,0.63-0.42c0.29,0.06,0.48,0.34,0.42,0.63l-0.57,2.89C89.24,38.31,89.01,38.49,88.76,38.49z"
   id="path596" />
	</g>
	<g
   id="g602">
		<path
   class="st116"
   d="M91.7,54.51c-1.36,0-2.58-0.53-3.54-1.54c-1.59-1.67-2.32-4.48-2.14-8.12c0.18-3.53,0.87-5.39,1.49-6.37    h-0.39c-0.16,0-0.31-0.07-0.41-0.19c-0.1-0.12-0.14-0.28-0.12-0.44L87,35.57c0.11-0.61,0.63-1.04,1.25-1.04h3.46    c1.16,0,2.1,0.94,2.1,2.1v0.44c0.72,0.66,3.03,3.14,3.25,7.95c0.16,3.39-0.72,6.42-2.34,8.12C93.86,54.04,92.82,54.51,91.7,54.51z     M88.95,38.45c-0.14,0.08-1.58,1.07-1.86,6.46c-0.17,3.3,0.48,5.9,1.84,7.33c0.75,0.79,1.7,1.2,2.76,1.2    c0.83,0,1.59-0.35,2.25-1.05c1.4-1.47,2.18-4.28,2.04-7.33c-0.24-5.09-3.02-7.31-3.05-7.34c-0.13-0.1-0.21-0.26-0.21-0.42v-0.68    c0-0.57-0.46-1.03-1.03-1.03h-3.46c-0.1,0-0.18,0.07-0.19,0.16l-0.3,1.66h1c0.27,0,0.52,0.19,0.56,0.46    C89.35,38.14,89.21,38.38,88.95,38.45z M88.94,38.46L88.94,38.46L88.94,38.46z"
   id="path600" />
	</g>
	<g
   id="g606">
		<path
   class="st0"
   d="M94.33,45.48c0,2.62-1.07,4.75-2.4,4.75c-1.32,0-2.4-2.12-2.4-4.75c0-2.62,1.07-4.75,2.4-4.75    C93.25,40.73,94.33,42.85,94.33,45.48"
   id="path604" />
	</g>
	<g
   class="st105"
   id="g614">
		<g
   id="g612">
			<g
   id="g610">
				<path
   class="st113"
   d="M93.77,42.43c0.01,0.16,0.01,0.33,0.01,0.5c0,2.62-1.07,4.75-2.4,4.75c-0.74,0-1.4-0.66-1.84-1.7      c0.13,2.39,1.15,4.25,2.38,4.25c1.32,0,2.4-2.12,2.4-4.75C94.33,44.32,94.12,43.25,93.77,42.43"
   id="path608" />
			</g>
		</g>
	</g>
	<g
   id="g618">
		<path
   class="st116"
   d="M91.93,50.58c-1.55,0-2.76-2.24-2.76-5.11c0-2.87,1.21-5.11,2.76-5.11c1.55,0,2.76,2.24,2.76,5.11    C94.69,48.34,93.48,50.58,91.93,50.58z M91.93,41.09c-0.98,0-2.03,1.76-2.03,4.38c0,2.62,1.05,4.38,2.03,4.38    c0.98,0,2.03-1.76,2.03-4.38C93.96,42.85,92.91,41.09,91.93,41.09z"
   id="path616" />
	</g>
</g>
<g
   id="g666">
	<path
   d="M43.14,113.21h1.55l2.89,4.5v-4.5h1.61v7.59h-1.55l-2.89-4.49v4.49h-1.61V113.21z"
   id="path622" />
	<path
   d="M50.92,113.21h4.32v1.59h-2.61v1.42h2.55v1.59h-2.55v2.99h-1.71V113.21z"
   id="path624" />
	<path
   d="M56.12,117c0-2.32,1.69-3.95,3.96-3.95c2.27,0,3.97,1.63,3.97,3.95s-1.7,3.95-3.97,3.95   C57.81,120.95,56.12,119.32,56.12,117z M60.08,119.32c1.25,0,2.2-0.93,2.2-2.32s-0.95-2.32-2.2-2.32c-1.25,0-2.18,0.93-2.18,2.32   S58.83,119.32,60.08,119.32z"
   id="path626" />
	<path
   d="M67.07,117.82v2.97h-1.71v-7.59h2.58c1.61,0,2.6,0.8,2.6,2.36c0,1.04-0.63,1.82-1.7,2.09l2.17,3.13h-2.06L67.07,117.82z    M67.85,116.45c0.58,0,0.94-0.34,0.94-0.89s-0.36-0.89-0.94-0.89h-0.78v1.77H67.85z"
   id="path628" />
	<path
   d="M72.23,113.21h1.68l2.22,3.73l2.18-3.73h1.65v7.59h-1.61v-4.66l-1.73,2.97h-1.03l-1.75-2.99v4.68h-1.61V113.21z"
   id="path630" />
	<path
   d="M83.61,113.21h1.67l2.58,7.59h-1.78l-0.35-1.14h-2.56l-0.35,1.14h-1.76L83.61,113.21z M85.27,118.18l-0.83-2.69l-0.82,2.69   H85.27z"
   id="path632" />
	<path
   d="M89.53,114.79h-1.71v-1.59h5.13v1.59h-1.71v6h-1.71V114.79z"
   id="path634" />
	<path
   d="M96.1,117.83l-2.42-4.63h1.93l1.36,2.79l1.35-2.79h1.79l-2.3,4.63v2.96H96.1V117.83z"
   id="path636" />
	<path
   d="M102.59,117.64v3.15h-1.71v-7.59h1.71v2.94l2.07-2.88h2.01l-2.61,3.56l2.75,3.97h-2.08L102.59,117.64z"
   id="path638" />
	<path
   d="M109.53,113.21h1.67l2.58,7.59H112l-0.35-1.14h-2.56l-0.35,1.14h-1.76L109.53,113.21z M111.19,118.18l-0.83-2.69   l-0.82,2.69H111.19z"
   id="path640" />
	<rect
   x="36.74"
   y="113.2"
   width="1.99"
   height="1.99"
   id="rect642" />
	<rect
   x="36.75"
   y="110.4"
   width="1.99"
   height="1.99"
   id="rect644" />
	<rect
   x="36.74"
   y="121.6"
   width="1.99"
   height="1.99"
   id="rect646" />
	<rect
   x="36.74"
   y="116"
   width="1.99"
   height="1.99"
   id="rect648" />
	<rect
   x="36.74"
   y="118.8"
   width="1.99"
   height="1.99"
   id="rect650" />
	<rect
   x="39.56"
   y="107.61"
   width="1.99"
   height="1.99"
   id="rect652" />
	<rect
   x="33.95"
   y="116"
   width="1.99"
   height="1.99"
   id="rect654" />
	<rect
   x="33.95"
   y="113.2"
   width="1.99"
   height="1.99"
   id="rect656" />
	<rect
   x="33.95"
   y="124.4"
   width="1.99"
   height="1.99"
   id="rect658" />
	<rect
   x="33.95"
   y="118.8"
   width="1.99"
   height="1.99"
   id="rect660" />
	<rect
   x="33.95"
   y="121.61"
   width="1.99"
   height="1.99"
   id="rect662" />
	<rect
   x="39.61"
   y="113.21"
   width="1.94"
   height="7.59"
   id="rect664" />
</g>
<g
   id="g720">
	<path
   d="M17.89,34.08l0.62-0.77l2.91,1.38l-1.5-2.29l-0.41-0.33l0.47-0.59L23,32.71l-1.98-2.54l0.61-0.76l2.65,3.57L23.7,33.7   l-2.77-1.04l1.61,2.49l-0.59,0.74L17.89,34.08z"
   id="path668" />
	<path
   d="M22.28,28.68l0.7-0.7l2.75,1.67l-1.26-2.43l-0.38-0.37l0.53-0.53l2.88,1.54l-1.7-2.73l0.69-0.7l2.26,3.83l-0.66,0.66   l-2.64-1.33l1.34,2.64l-0.66,0.67L22.28,28.68z"
   id="path670" />
	<path
   d="M27.21,23.77l0.77-0.63l2.56,1.95l-0.99-2.55l-0.33-0.41l0.58-0.48l2.71,1.83l-1.4-2.89l0.76-0.62l1.85,4.04l-0.72,0.59   l-2.49-1.6l1.05,2.77l-0.73,0.6L27.21,23.77z"
   id="path672" />
	<path
   d="M34.9,22.21l0.68-0.48l0.44,0.63l-0.68,0.48L34.9,22.21z"
   id="path674" />
	<path
   d="M34.16,16.36l0.9-0.59l0.45,0.68l-0.91,0.59L34.16,16.36z M35.58,18.38l-0.55,0.36l-0.33-0.68l1.3-0.85l2.34,3.61   l-0.83,0.54L35.58,18.38z"
   id="path676" />
	<path
   d="M37.3,16.37l0.79-0.44l0.26,0.37c0.1-0.24,0.24-0.47,0.43-0.69s0.42-0.4,0.69-0.56c0.48-0.27,0.9-0.36,1.25-0.25   c0.35,0.1,0.66,0.39,0.93,0.88l1.36,2.43l-0.85,0.48l-1.34-2.39c-0.16-0.29-0.34-0.46-0.52-0.51c-0.19-0.05-0.44,0.02-0.76,0.2   c-0.2,0.11-0.37,0.26-0.51,0.44c-0.14,0.18-0.24,0.38-0.3,0.57l1.54,2.75l-0.86,0.48L37.3,16.37z"
   id="path678" />
	<path
   d="M42.86,14.27l-0.57,0.27l-0.33-0.7l0.57-0.27L42.3,13.1c-0.19-0.39-0.22-0.76-0.12-1.1c0.11-0.34,0.38-0.61,0.79-0.8   c0.28-0.13,0.57-0.21,0.86-0.24l0.3,0.64c-0.2,0.02-0.38,0.07-0.56,0.15c-0.26,0.12-0.41,0.25-0.47,0.39   c-0.05,0.14-0.03,0.32,0.08,0.55l0.22,0.47l1.02-0.48l0.29,0.72l-0.98,0.46l1.51,3.19l-0.89,0.42L42.86,14.27z"
   id="path680" />
	<path
   d="M45.86,14.37c-0.55-1.39-0.13-2.36,1.26-2.91c1.4-0.55,2.37-0.13,2.92,1.26c0.55,1.39,0.13,2.36-1.27,2.91   C47.38,16.18,46.41,15.76,45.86,14.37z M49.24,14.19c0.1-0.27,0.05-0.64-0.13-1.11c-0.18-0.46-0.4-0.76-0.66-0.89   c-0.26-0.13-0.6-0.11-1.02,0.05c-0.42,0.16-0.67,0.38-0.77,0.66c-0.1,0.27-0.05,0.64,0.13,1.1c0.19,0.47,0.41,0.77,0.66,0.9   c0.26,0.13,0.59,0.12,1.01-0.05C48.88,14.69,49.14,14.47,49.24,14.19z"
   id="path682" />
	<path
   d="M50.55,10.3l0.87-0.27l0.2,0.46c0.15-0.19,0.35-0.38,0.59-0.57c0.24-0.19,0.48-0.35,0.74-0.47l0.23,0.72   c-0.23,0.13-0.48,0.28-0.74,0.47s-0.45,0.36-0.58,0.51l0.94,2.96l-0.94,0.3L50.55,10.3z"
   id="path684" />
	<path
   d="M54.17,9.12l0.89-0.19l0.14,0.43c0.37-0.45,0.83-0.74,1.36-0.86c0.29-0.06,0.53-0.07,0.72-0.01   c0.19,0.05,0.35,0.16,0.49,0.33c0.17-0.22,0.38-0.4,0.62-0.56c0.24-0.15,0.52-0.27,0.85-0.34c0.48-0.11,0.87-0.06,1.15,0.14   c0.29,0.2,0.48,0.55,0.6,1.07l0.61,2.77l-0.95,0.21l-0.59-2.68C60,9.11,59.88,8.9,59.71,8.79c-0.16-0.1-0.4-0.12-0.71-0.05   c-0.2,0.04-0.38,0.12-0.55,0.23c-0.17,0.11-0.3,0.25-0.39,0.42c0.05,0.1,0.1,0.25,0.14,0.42l0.59,2.69l-0.9,0.2l-0.58-2.67   C57.24,9.72,57.14,9.5,57,9.39c-0.14-0.11-0.35-0.14-0.64-0.07c-0.37,0.08-0.7,0.33-0.98,0.74l0.67,3.06l-0.95,0.21L54.17,9.12z"
   id="path686" />
	<path
   d="M62.87,11.52c-0.31-0.19-0.49-0.5-0.54-0.92c-0.05-0.42,0.06-0.77,0.31-1.04s0.67-0.45,1.24-0.51l1.37-0.16L65.23,8.7   c-0.02-0.21-0.07-0.37-0.15-0.48C65,8.11,64.88,8.04,64.7,8c-0.18-0.03-0.42-0.03-0.73,0C63.47,8.06,63,8.19,62.58,8.39L62.5,7.66   c0.2-0.1,0.43-0.19,0.7-0.27c0.27-0.08,0.56-0.14,0.87-0.17c0.64-0.07,1.13,0,1.48,0.22c0.35,0.22,0.56,0.61,0.62,1.17l0.31,2.75   l-0.84,0.1l-0.11-0.43c-0.16,0.19-0.37,0.35-0.61,0.47c-0.25,0.12-0.56,0.2-0.93,0.24C63.55,11.78,63.18,11.71,62.87,11.52z    M64.91,10.77c0.21-0.12,0.38-0.28,0.51-0.47l-0.09-0.75l-1.35,0.15c-0.29,0.03-0.49,0.11-0.61,0.23c-0.12,0.12-0.16,0.3-0.13,0.54   c0.02,0.22,0.12,0.37,0.27,0.45c0.16,0.08,0.38,0.11,0.67,0.08C64.45,10.97,64.7,10.89,64.91,10.77z"
   id="path688" />
	<path
   d="M68.08,11.01c-0.24-0.23-0.37-0.56-0.39-0.99l-0.11-2.25L66.94,7.8L66.9,7.03L67.54,7l-0.05-0.99l0.96-0.35l0.06,1.29   l1.14-0.05l-0.03,0.77l-1.08,0.05l0.11,2.19c0.01,0.25,0.08,0.42,0.19,0.51c0.12,0.09,0.31,0.14,0.57,0.12   c0.16-0.01,0.33-0.05,0.51-0.12l0.04,0.7c-0.23,0.11-0.52,0.17-0.85,0.19C68.67,11.34,68.32,11.24,68.08,11.01z"
   id="path690" />
	<path
   d="M70.58,12.63l0.01-0.73c0.17,0.06,0.35,0.1,0.55,0.1c0.18,0,0.33-0.02,0.45-0.08c0.12-0.06,0.22-0.14,0.3-0.26   c0.09-0.12,0.19-0.29,0.31-0.52l-1.84-4.28l1.03,0.02l1.32,3.22l1.45-3.17l1.02,0.02l-1.82,4.02c-0.27,0.61-0.55,1.07-0.84,1.37   c-0.29,0.3-0.66,0.45-1.11,0.44C71.09,12.76,70.81,12.72,70.58,12.63z"
   id="path692" />
	<path
   d="M76.28,5.21l0.98,0.1l-0.35,3.52l1.96-1.54l1.13,0.11L78.1,8.95l1.59,2.74l-1.04-0.1l-1.22-2.17L76.81,9.9l-0.15,1.49   l-0.98-0.1L76.28,5.21z"
   id="path694" />
	<path
   d="M80.55,11.57c-0.25-0.27-0.33-0.62-0.26-1.04c0.07-0.42,0.27-0.72,0.6-0.91c0.32-0.19,0.77-0.24,1.34-0.14l1.36,0.24   l0.03-0.19c0.04-0.21,0.03-0.38-0.01-0.5c-0.04-0.13-0.14-0.23-0.3-0.31s-0.39-0.15-0.7-0.2c-0.5-0.09-0.98-0.09-1.44-0.02   l0.12-0.72c0.21-0.04,0.46-0.06,0.75-0.06c0.28,0,0.58,0.03,0.88,0.08C83.54,7.89,84,8.1,84.27,8.41c0.27,0.31,0.36,0.74,0.27,1.3   l-0.47,2.73l-0.83-0.14l0.01-0.44c-0.21,0.14-0.45,0.23-0.72,0.28c-0.27,0.04-0.59,0.03-0.96-0.03   C81.13,12.02,80.8,11.84,80.55,11.57z M82.72,11.43c0.24-0.06,0.44-0.16,0.62-0.31l0.13-0.74l-1.34-0.23   c-0.29-0.05-0.5-0.03-0.65,0.05c-0.15,0.08-0.24,0.24-0.28,0.48c-0.04,0.21,0.01,0.38,0.13,0.51c0.12,0.12,0.33,0.21,0.62,0.26   C82.22,11.49,82.48,11.48,82.72,11.43z"
   id="path696" />
	<path
   d="M85.26,11.93l0.81,0.19l-0.17,0.75l-0.81-0.19L85.26,11.93z"
   id="path698" />
	<path
   d="M87.3,12.94c-0.22-0.3-0.27-0.65-0.15-1.06c0.12-0.41,0.35-0.69,0.69-0.84c0.34-0.16,0.79-0.15,1.34,0.01l1.32,0.38   l0.05-0.18c0.06-0.2,0.07-0.37,0.04-0.5c-0.03-0.13-0.12-0.25-0.26-0.35c-0.15-0.1-0.37-0.19-0.67-0.28   c-0.49-0.14-0.96-0.2-1.43-0.18l0.21-0.71c0.22-0.02,0.47-0.01,0.75,0.02c0.28,0.03,0.57,0.09,0.87,0.18   c0.62,0.18,1.04,0.44,1.28,0.78c0.24,0.34,0.28,0.78,0.12,1.32l-0.77,2.66l-0.81-0.23l0.06-0.44c-0.22,0.12-0.47,0.18-0.75,0.19   c-0.28,0.01-0.59-0.03-0.95-0.14C87.83,13.45,87.51,13.24,87.3,12.94z M89.47,13.04c0.24-0.03,0.46-0.11,0.64-0.24l0.21-0.72   l-1.31-0.38c-0.28-0.08-0.5-0.09-0.65-0.02c-0.15,0.07-0.27,0.22-0.33,0.44c-0.06,0.21-0.03,0.38,0.08,0.52   c0.11,0.14,0.31,0.25,0.59,0.33C88.97,13.04,89.23,13.07,89.47,13.04z"
   id="path700" />
	<path
   d="M92.01,16.28c-0.28-0.15-0.51-0.3-0.69-0.45l0.27-0.71c0.19,0.16,0.42,0.31,0.7,0.46s0.56,0.28,0.83,0.39   c0.43,0.16,0.74,0.25,0.94,0.27c0.19,0.02,0.32-0.05,0.38-0.2c0.04-0.12,0.03-0.22-0.04-0.3c-0.08-0.08-0.24-0.17-0.48-0.27   l-1.09-0.41c-0.36-0.14-0.6-0.31-0.74-0.51c-0.14-0.2-0.16-0.43-0.06-0.68c0.07-0.18,0.18-0.31,0.33-0.41   c0.15-0.1,0.34-0.15,0.57-0.14c-0.37-0.39-0.44-0.87-0.23-1.44c0.19-0.51,0.49-0.82,0.88-0.94c0.39-0.12,0.9-0.06,1.52,0.18   c0.23,0.09,0.46,0.21,0.71,0.37l1.47,0.56l-0.26,0.59l-0.68-0.26c0.14,0.27,0.14,0.57,0.02,0.9c-0.17,0.44-0.43,0.73-0.79,0.87   c-0.35,0.14-0.79,0.11-1.31-0.09c-0.13-0.05-0.3-0.13-0.48-0.23c-0.19-0.05-0.36-0.06-0.52-0.04C93.1,13.81,93,13.89,92.95,14   c-0.03,0.09-0.02,0.16,0.03,0.22s0.16,0.12,0.32,0.18l1.13,0.43c0.4,0.15,0.68,0.36,0.83,0.61s0.17,0.55,0.04,0.88   c-0.15,0.39-0.42,0.61-0.82,0.66c-0.4,0.05-0.93-0.05-1.59-0.3C92.59,16.56,92.29,16.43,92.01,16.28z M95.07,13.49   c0.19-0.07,0.35-0.25,0.46-0.56c0.12-0.31,0.12-0.55,0.03-0.74c-0.1-0.19-0.33-0.35-0.69-0.49c-0.35-0.13-0.63-0.16-0.83-0.09   c-0.21,0.07-0.37,0.26-0.48,0.57c-0.11,0.29-0.12,0.53-0.02,0.72s0.33,0.35,0.7,0.48C94.6,13.52,94.88,13.55,95.07,13.49z"
   id="path702" />
	<path
   d="M99.24,10.92l0.89,0.43l-0.96,2.01c0.24-0.06,0.5-0.07,0.78-0.04s0.56,0.12,0.84,0.25c0.49,0.24,0.79,0.53,0.92,0.87   c0.12,0.35,0.06,0.77-0.17,1.27l-1.21,2.51l-0.88-0.42l1.19-2.47c0.14-0.3,0.18-0.54,0.11-0.72c-0.07-0.18-0.27-0.35-0.58-0.5   c-0.2-0.09-0.41-0.15-0.66-0.16c-0.24-0.01-0.46,0.02-0.66,0.09l-1.35,2.82l-0.89-0.43L99.24,10.92z"
   id="path704" />
	<path
   d="M101.63,18.08l0.73,0.4l-0.37,0.67l-0.73-0.4L101.63,18.08z"
   id="path706" />
	<path
   d="M103.58,19.51c-0.14-0.53-0.02-1.12,0.38-1.75c0.38-0.6,0.82-0.97,1.33-1.11c0.51-0.14,1.06-0.03,1.66,0.35   c0.54,0.34,0.86,0.74,0.97,1.2c0.11,0.46,0.02,0.93-0.28,1.4l-0.42,0.68l-2.67-1.67c-0.18,0.37-0.2,0.7-0.08,0.96   c0.12,0.27,0.41,0.54,0.87,0.82c0.18,0.12,0.38,0.22,0.6,0.3c0.21,0.08,0.41,0.15,0.6,0.18l-0.38,0.62   c-0.41-0.06-0.87-0.25-1.38-0.56C104.12,20.52,103.72,20.05,103.58,19.51z M106.82,19.26l0.16-0.25c0.16-0.26,0.21-0.51,0.16-0.73   c-0.06-0.23-0.25-0.44-0.56-0.64c-0.38-0.24-0.7-0.32-0.95-0.25c-0.25,0.07-0.5,0.29-0.73,0.67L106.82,19.26z"
   id="path708" />
	<path
   d="M107.66,22.23c-0.08-0.47,0.11-1,0.55-1.6c0.3-0.4,0.63-0.69,0.98-0.87c0.36-0.18,0.71-0.25,1.07-0.21   c0.36,0.04,0.7,0.17,1.02,0.41c0.2,0.15,0.37,0.31,0.5,0.49c0.13,0.17,0.23,0.36,0.3,0.58l1.25-1.68l0.79,0.59l-3.66,4.9   l-0.68-0.51l0.21-0.38c-0.27,0.03-0.52,0-0.75-0.07c-0.23-0.07-0.47-0.2-0.72-0.39C108.02,23.12,107.74,22.7,107.66,22.23z    M110.34,23.36l1.29-1.72c-0.08-0.37-0.29-0.69-0.63-0.95c-0.33-0.25-0.67-0.33-1-0.23c-0.34,0.1-0.66,0.36-0.98,0.78   c-0.3,0.4-0.44,0.74-0.4,1.01s0.22,0.54,0.57,0.8C109.53,23.32,109.92,23.42,110.34,23.36z"
   id="path710" />
	<path
   d="M111.93,25.61c-0.01-0.4,0.16-0.8,0.52-1.21l1.81-2.02l0.74,0.66l-1.81,2.02c-0.21,0.24-0.31,0.47-0.29,0.69   c0.02,0.22,0.15,0.43,0.39,0.65c0.18,0.16,0.37,0.27,0.58,0.34c0.21,0.07,0.43,0.1,0.65,0.09l2.1-2.35l0.73,0.65l-2.87,3.21   l-0.67-0.6l0.26-0.36c-0.58-0.04-1.09-0.26-1.55-0.66C112.14,26.38,111.94,26.01,111.93,25.61z"
   id="path712" />
	<path
   d="M115.78,28.58l0.59,0.59l-0.54,0.55l-0.59-0.59L115.78,28.58z"
   id="path714" />
	<path
   d="M119.84,27.65l0.57,0.64l-0.28,0.32c0.26,0.03,0.5,0.11,0.72,0.22c0.22,0.12,0.43,0.29,0.63,0.52   c0.43,0.48,0.62,0.96,0.58,1.44c-0.04,0.48-0.34,0.97-0.9,1.47c-0.57,0.51-1.12,0.76-1.64,0.75c-0.53,0-1-0.24-1.41-0.71   c-0.35-0.39-0.55-0.8-0.61-1.24l-1.67,1.48l-0.66-0.74L119.84,27.65z M119.41,32.06c0.33-0.02,0.7-0.21,1.09-0.56   c0.38-0.34,0.59-0.65,0.62-0.93c0.04-0.28-0.09-0.59-0.38-0.92c-0.29-0.33-0.65-0.51-1.07-0.53l-1.61,1.43   c0,0.39,0.15,0.74,0.43,1.06C118.77,31.93,119.08,32.08,119.41,32.06z"
   id="path716" />
	<path
   d="M120.44,34.69c0.03-0.25,0.2-0.49,0.51-0.73l4.02-3.12l0.61,0.78l-3.95,3.07c-0.13,0.1-0.2,0.19-0.21,0.28   c-0.02,0.08,0.02,0.18,0.09,0.28c0.09,0.12,0.19,0.21,0.3,0.3l-0.57,0.44c-0.18-0.11-0.35-0.27-0.51-0.48   C120.5,35.2,120.41,34.94,120.44,34.69z"
   id="path718" />
</g>
</svg>
