<?xml version="1.0" encoding="UTF-8" standalone="no"?>
<!-- Generator: Adobe Illustrator 28.3.0, SVG Export Plug-In . SVG Version: 6.00 Build 0)  -->

<svg
   version="1.1"
   id="Warstwa_1"
   x="0px"
   y="0px"
   viewBox="0 0 141.73 141.73"
   style="enable-background:new 0 0 141.73 141.73;"
   xml:space="preserve"
   sodipodi:docname="wlepki_WI_final_bez_kolek_Obszar roboczy 1 kopia 5.svgz"
   xmlns:inkscape="http://www.inkscape.org/namespaces/inkscape"
   xmlns:sodipodi="http://sodipodi.sourceforge.net/DTD/sodipodi-0.dtd"
   xmlns="http://www.w3.org/2000/svg"
   xmlns:svg="http://www.w3.org/2000/svg"><defs
   id="defs518" /><sodipodi:namedview
   id="namedview516"
   pagecolor="#ffffff"
   bordercolor="#000000"
   borderopacity="0.25"
   inkscape:showpageshadow="2"
   inkscape:pageopacity="0.0"
   inkscape:pagecheckerboard="0"
   inkscape:deskcolor="#d1d1d1" />
<style
   type="text/css"
   id="style2">
	.st0{fill:#FFFFFF;}
	
		.st1{clip-path:url(#SVGID_00000152964244651742762730000003000506777200423062_);fill:none;stroke:#766357;stroke-width:0;stroke-miterlimit:10;}
	.st2{fill:#2C130C;}
	
		.st3{clip-path:url(#SVGID_00000141429998380889552400000003862094219984970930_);fill:none;stroke:#E0965B;stroke-width:0;stroke-miterlimit:10;}
	
		.st4{clip-path:url(#SVGID_00000141429998380889552400000003862094219984970930_);fill:none;stroke:#B9723E;stroke-width:0;stroke-miterlimit:10;}
	
		.st5{clip-path:url(#SVGID_00000141429998380889552400000003862094219984970930_);fill:none;stroke:#B66F3B;stroke-width:0;stroke-miterlimit:10;}
	
		.st6{clip-path:url(#SVGID_00000141429998380889552400000003862094219984970930_);fill:none;stroke:#AF6734;stroke-width:0;stroke-miterlimit:10;}
	
		.st7{clip-path:url(#SVGID_00000141429998380889552400000003862094219984970930_);fill:none;stroke:#B06B37;stroke-width:0;stroke-miterlimit:10;}
	
		.st8{clip-path:url(#SVGID_00000141429998380889552400000003862094219984970930_);fill:none;stroke:#BA8151;stroke-width:0;stroke-miterlimit:10;}
	
		.st9{clip-path:url(#SVGID_00000141429998380889552400000003862094219984970930_);fill:none;stroke:#BC7D4B;stroke-width:0;stroke-miterlimit:10;}
	
		.st10{clip-path:url(#SVGID_00000141429998380889552400000003862094219984970930_);fill:none;stroke:#B87542;stroke-width:0;stroke-miterlimit:10;}
	
		.st11{clip-path:url(#SVGID_00000141429998380889552400000003862094219984970930_);fill:none;stroke:#BB7D4B;stroke-width:0;stroke-miterlimit:10;}
	
		.st12{clip-path:url(#SVGID_00000141429998380889552400000003862094219984970930_);fill:none;stroke:#86512C;stroke-width:0;stroke-miterlimit:10;}
	
		.st13{clip-path:url(#SVGID_00000141429998380889552400000003862094219984970930_);fill:none;stroke:#C37D47;stroke-width:0;stroke-miterlimit:10;}
	
		.st14{clip-path:url(#SVGID_00000141429998380889552400000003862094219984970930_);fill:none;stroke:#CC8A54;stroke-width:0;stroke-miterlimit:10;}
	
		.st15{clip-path:url(#SVGID_00000141429998380889552400000003862094219984970930_);fill:none;stroke:#B37447;stroke-width:0;stroke-miterlimit:10;}
	
		.st16{clip-path:url(#SVGID_00000141429998380889552400000003862094219984970930_);fill:none;stroke:#A86734;stroke-width:0;stroke-miterlimit:10;}
	
		.st17{clip-path:url(#SVGID_00000141429998380889552400000003862094219984970930_);fill:none;stroke:#E9AF79;stroke-width:0;stroke-miterlimit:10;}
	
		.st18{clip-path:url(#SVGID_00000141429998380889552400000003862094219984970930_);fill:none;stroke:#AB6531;stroke-width:0;stroke-miterlimit:10;}
	
		.st19{clip-path:url(#SVGID_00000141429998380889552400000003862094219984970930_);fill:none;stroke:#B97C4B;stroke-width:0;stroke-miterlimit:10;}
	
		.st20{clip-path:url(#SVGID_00000141429998380889552400000003862094219984970930_);fill:none;stroke:#975A2D;stroke-width:0;stroke-miterlimit:10;}
	
		.st21{clip-path:url(#SVGID_00000141429998380889552400000003862094219984970930_);fill:none;stroke:#BE7F50;stroke-width:0;stroke-miterlimit:10;}
	
		.st22{clip-path:url(#SVGID_00000141429998380889552400000003862094219984970930_);fill:none;stroke:#9D6339;stroke-width:0;stroke-miterlimit:10;}
	
		.st23{clip-path:url(#SVGID_00000141429998380889552400000003862094219984970930_);fill:none;stroke:#B98559;stroke-width:0;stroke-miterlimit:10;}
	
		.st24{clip-path:url(#SVGID_00000141429998380889552400000003862094219984970930_);fill:none;stroke:#B36B38;stroke-width:0;stroke-miterlimit:10;}
	
		.st25{clip-path:url(#SVGID_00000141429998380889552400000003862094219984970930_);fill:none;stroke:#F2B681;stroke-width:0;stroke-miterlimit:10;}
	
		.st26{clip-path:url(#SVGID_00000141429998380889552400000003862094219984970930_);fill:none;stroke:#B16D3B;stroke-width:0;stroke-miterlimit:10;}
	
		.st27{clip-path:url(#SVGID_00000141429998380889552400000003862094219984970930_);fill:none;stroke:#C58451;stroke-width:0;stroke-miterlimit:10;}
	
		.st28{clip-path:url(#SVGID_00000141429998380889552400000003862094219984970930_);fill:none;stroke:#B77E55;stroke-width:0;stroke-miterlimit:10;}
	
		.st29{clip-path:url(#SVGID_00000141429998380889552400000003862094219984970930_);fill:none;stroke:#99633E;stroke-width:0;stroke-miterlimit:10;}
	
		.st30{clip-path:url(#SVGID_00000141429998380889552400000003862094219984970930_);fill:none;stroke:#6A3D23;stroke-width:0;stroke-miterlimit:10;}
	
		.st31{clip-path:url(#SVGID_00000141429998380889552400000003862094219984970930_);fill:none;stroke:#836346;stroke-width:0;stroke-miterlimit:10;}
	
		.st32{clip-path:url(#SVGID_00000141429998380889552400000003862094219984970930_);fill:none;stroke:#9F7049;stroke-width:0;stroke-miterlimit:10;}
	
		.st33{clip-path:url(#SVGID_00000141429998380889552400000003862094219984970930_);fill:none;stroke:#B77746;stroke-width:0;stroke-miterlimit:10;}
	
		.st34{clip-path:url(#SVGID_00000141429998380889552400000003862094219984970930_);fill:none;stroke:#794525;stroke-width:0;stroke-miterlimit:10;}
	
		.st35{clip-path:url(#SVGID_00000141429998380889552400000003862094219984970930_);fill:none;stroke:#9B6842;stroke-width:0;stroke-miterlimit:10;}
	
		.st36{clip-path:url(#SVGID_00000141429998380889552400000003862094219984970930_);fill:none;stroke:#98633E;stroke-width:0;stroke-miterlimit:10;}
	
		.st37{clip-path:url(#SVGID_00000141429998380889552400000003862094219984970930_);fill:none;stroke:#9A643F;stroke-width:0;stroke-miterlimit:10;}
	
		.st38{clip-path:url(#SVGID_00000141429998380889552400000003862094219984970930_);fill:none;stroke:#6B3F23;stroke-width:0;stroke-miterlimit:10;}
	
		.st39{clip-path:url(#SVGID_00000141429998380889552400000003862094219984970930_);fill:none;stroke:#B0784C;stroke-width:0;stroke-miterlimit:10;}
	
		.st40{clip-path:url(#SVGID_00000141429998380889552400000003862094219984970930_);fill:none;stroke:#836347;stroke-width:0;stroke-miterlimit:10;}
	
		.st41{clip-path:url(#SVGID_00000141429998380889552400000003862094219984970930_);fill:none;stroke:#805B3F;stroke-width:0;stroke-miterlimit:10;}
	
		.st42{clip-path:url(#SVGID_00000141429998380889552400000003862094219984970930_);fill:none;stroke:#9D6F4A;stroke-width:0;stroke-miterlimit:10;}
	
		.st43{clip-path:url(#SVGID_00000141429998380889552400000003862094219984970930_);fill:none;stroke:#69432B;stroke-width:0;stroke-miterlimit:10;}
	
		.st44{clip-path:url(#SVGID_00000141429998380889552400000003862094219984970930_);fill:none;stroke:#816247;stroke-width:0;stroke-miterlimit:10;}
	
		.st45{clip-path:url(#SVGID_00000141429998380889552400000003862094219984970930_);fill:none;stroke:#683D22;stroke-width:0;stroke-miterlimit:10;}
	
		.st46{clip-path:url(#SVGID_00000141429998380889552400000003862094219984970930_);fill:none;stroke:#4B2F1F;stroke-width:0;stroke-miterlimit:10;}
	
		.st47{clip-path:url(#SVGID_00000141429998380889552400000003862094219984970930_);fill:none;stroke:#64361E;stroke-width:0;stroke-miterlimit:10;}
	
		.st48{clip-path:url(#SVGID_00000141429998380889552400000003862094219984970930_);fill:none;stroke:#AA6F46;stroke-width:0;stroke-miterlimit:10;}
	
		.st49{clip-path:url(#SVGID_00000141429998380889552400000003862094219984970930_);fill:none;stroke:#A9724F;stroke-width:0;stroke-miterlimit:10;}
	
		.st50{clip-path:url(#SVGID_00000141429998380889552400000003862094219984970930_);fill:none;stroke:#695342;stroke-width:0;stroke-miterlimit:10;}
	
		.st51{clip-path:url(#SVGID_00000141429998380889552400000003862094219984970930_);fill:none;stroke:#675241;stroke-width:0;stroke-miterlimit:10;}
	
		.st52{clip-path:url(#SVGID_00000141429998380889552400000003862094219984970930_);fill:none;stroke:#7A604E;stroke-width:0;stroke-miterlimit:10;}
	.st53{fill:#E99D63;}
	.st54{fill:#854016;}
	.st55{fill:#88471B;}
	.st56{fill:#9D7550;}
	.st57{fill:#D79054;}
	
		.st58{clip-path:url(#SVGID_00000076600623943521415970000012412853679341289661_);fill:none;stroke:#825032;stroke-width:0;stroke-miterlimit:10;}
	
		.st59{clip-path:url(#SVGID_00000076600623943521415970000012412853679341289661_);fill:none;stroke:#A86E45;stroke-width:0;stroke-miterlimit:10;}
	
		.st60{clip-path:url(#SVGID_00000076600623943521415970000012412853679341289661_);fill:none;stroke:#5B2F17;stroke-width:0;stroke-miterlimit:10;}
	
		.st61{clip-path:url(#SVGID_00000076600623943521415970000012412853679341289661_);fill:none;stroke:#BB865A;stroke-width:0;stroke-miterlimit:10;}
	.st62{fill:#31140D;}
	.st63{fill:#634E3C;}
	.st64{fill:#9B6842;}
	.st65{fill:#552410;}
	.st66{fill:#CF8F5E;}
	.st67{fill:#834E29;}
	.st68{fill:#F1EBE4;}
	.st69{fill:#9D744E;}
	.st70{fill:#7B3F17;}
	.st71{fill:#67513D;}
	.st72{fill:#FCCF9F;}
	.st73{fill:#7E3B11;}
	.st74{fill:#783D14;}
	.st75{fill:#F8C795;}
	.st76{fill:#8E4E22;}
	.st77{fill:#7C431B;}
	.st78{fill:#975A2F;}
	.st79{fill:#A06B43;}
	.st80{fill:#A2602F;}
	.st81{fill:#BF8353;}
	.st82{fill:#A16B42;}
	
		.st83{clip-path:url(#SVGID_00000006686923944998359110000011706054721023179670_);fill:none;stroke:#AA6F46;stroke-width:0;stroke-miterlimit:10;}
	.st84{fill:#DB935D;}
	.st85{fill:#AC7748;}
	.st86{fill:#9F6942;}
	.st87{fill:#AF6B39;}
	.st88{fill:#905A39;}
	.st89{fill:#CF9368;}
	.st90{fill:#935C3A;}
	.st91{fill:#BD845E;}
	.st92{fill:#956141;}
	.st93{fill:#564233;}
	.st94{fill:#7A6451;}
	.st95{fill:#523E30;}
	.st96{fill:#7A5C4A;}
	.st97{fill:#BBB4A8;}
	.st98{fill:#DBE2EE;}
	.st99{fill:#38276B;}
	.st100{opacity:0.25;}
	.st101{fill:#D79D77;}
	.st102{fill:#BD8560;}
	.st103{fill:#253168;}
	.st104{fill:#71B744;}
	.st105{opacity:0.3;}
	.st106{fill:#3A343F;}
	.st107{fill:#B17F4F;}
	.st108{fill:#8E5C3A;}
	.st109{opacity:0.6;}
	.st110{fill:#CECCD4;}
	.st111{fill:#FEEDE5;}
	.st112{fill:#A96B40;}
	.st113{fill:#252A5B;}
	.st114{fill:#EAE9F6;}
	.st115{fill:#888BAE;}
	.st116{fill:#262D60;}
	.st117{fill:#FFDF45;}
	.st118{fill:#E9487A;}
	.st119{fill:#7BC39F;}
	.st120{opacity:0.15;}
	.st121{fill:#F7A42D;}
	.st122{fill:#6C7092;}
	.st123{fill:#5698D2;}
	.st124{opacity:0.2;}
	.st125{fill:#262B5F;}
	.st126{fill:#9E9E9E;}
	.st127{fill:#8F90B3;}
	.st128{fill:#6A6A69;}
	.st129{fill:#3B3A3A;}
	.st130{fill:#E9E8E8;}
	.st131{opacity:0.5;}
	.st132{fill:#EF7E81;}
	.st133{fill:#EB5E67;}
	.st134{fill:#78CCF2;}
	.st135{fill:#61A2D9;}
	.st136{fill:#87CFE5;}
	.st137{fill:#4F5C6C;}
	.st138{fill:#605F82;}
	.st139{fill:#F7D5D5;}
	.st140{fill:#6F7189;}
	.st141{fill:#434880;}
	.st142{fill:#EFEFEF;}
	.st143{fill:none;stroke:#262B5F;stroke-width:47.1961;stroke-linejoin:round;stroke-miterlimit:10;}
	.st144{filter:url(#Adobe_OpacityMaskFilter);}
	.st145{filter:url(#Adobe_OpacityMaskFilter_00000115493769799630037710000017035073425003441542_);}
	
		.st146{mask:url(#SVGID_00000125560481163117275220000001824384479844051875_);fill:url(#SVGID_00000089550531026690251470000013268581176188545152_);}
	.st147{fill:url(#SVGID_00000155830284252312560310000004426597787435866000_);}
	.st148{fill:#C0BECC;}
	.st149{opacity:0.7;}
</style>
<polygon
   class="st0"
   points="49.65,42.25 54.62,44.58 56.24,39.57 "
   id="polygon4" />
<g
   id="g433">
	<g
   class="st124"
   id="g8">
		<ellipse
   class="st125"
   cx="71.19"
   cy="124.61"
   rx="36.24"
   ry="7.41"
   id="ellipse6" />
	</g>
	<g
   id="g431">
		<g
   id="g94">
			<g
   id="g50">
				<g
   id="g12">
					<path
   class="st137"
   d="M50.31,104.17c-3.23,1.55-5.76,3.83-6.99,7.49l8.32,8.6L50.31,104.17z"
   id="path10" />
				</g>
				<g
   id="g16">
					<path
   class="st125"
   d="M51.64,120.91c-0.17,0-0.34-0.07-0.47-0.2l-8.32-8.6c-0.17-0.18-0.23-0.43-0.15-0.66       c1.18-3.5,3.58-6.07,7.33-7.87c0.19-0.09,0.42-0.08,0.61,0.02c0.19,0.11,0.31,0.3,0.33,0.51l1.33,16.08       c0.02,0.28-0.13,0.54-0.38,0.65C51.82,120.89,51.73,120.91,51.64,120.91z M44.07,111.5l6.77,6.99l-1.1-13.29       C46.94,106.74,45.08,108.8,44.07,111.5z"
   id="path14" />
				</g>
				<g
   id="g20">
					
						<ellipse
   transform="matrix(0.8212 -0.5706 0.5706 0.8212 -59.5491 45.7991)"
   class="st138"
   cx="43.32"
   cy="117.94"
   rx="7.52"
   ry="9.24"
   id="ellipse18" />
				</g>
				<g
   class="st109"
   id="g24">
					<path
   class="st0"
   d="M37.5,111.74c3.41-2.37,8.54-0.89,11.45,3.29c1.83,2.63,2.35,5.71,1.63,8.22c1.42-2.69,1.1-6.47-1.08-9.61       c-2.91-4.19-8.04-5.66-11.45-3.29c-1.27,0.88-2.12,2.17-2.54,3.65C35.98,113.11,36.65,112.33,37.5,111.74z"
   id="path22" />
				</g>
				<g
   class="st105"
   id="g28">
					<path
   class="st125"
   d="M49.43,120.86c-3.41,2.37-8.54,0.89-11.45-3.29c-1.1-1.58-1.72-3.32-1.89-5       c-1.45,2.7-1.15,6.5,1.05,9.67c2.91,4.19,8.04,5.66,11.45,3.29c2.12-1.48,3.08-4.1,2.8-6.88       C50.92,119.52,50.27,120.28,49.43,120.86z"
   id="path26" />
				</g>
				<g
   id="g32">
					<path
   class="st125"
   d="M44.88,127.31c-0.78,0-1.58-0.11-2.38-0.35c-2.31-0.66-4.4-2.21-5.89-4.36       c-3.11-4.48-2.63-10.21,1.07-12.79c1.81-1.26,4.11-1.58,6.46-0.9c2.31,0.66,4.4,2.21,5.89,4.36c1.49,2.15,2.22,4.65,2.03,7.04       c-0.19,2.44-1.29,4.48-3.1,5.74C47.77,126.89,46.37,127.31,44.88,127.31z M41.76,109.87c-1.23,0-2.37,0.34-3.34,1.02       c-3.11,2.16-3.44,7.08-0.74,10.97c1.32,1.9,3.16,3.27,5.18,3.85c1.97,0.57,3.87,0.31,5.36-0.72c1.49-1.03,2.39-2.73,2.54-4.77       c0.16-2.09-0.48-4.29-1.8-6.2c-1.32-1.9-3.16-3.27-5.18-3.85C43.09,109.97,42.42,109.87,41.76,109.87z"
   id="path30" />
				</g>
				<g
   id="g36">
					
						<ellipse
   transform="matrix(0.7071 -0.7071 0.7071 0.7071 -71.9043 67.2291)"
   class="st139"
   cx="45.2"
   cy="120.41"
   rx="3.74"
   ry="3.58"
   id="ellipse34" />
				</g>
				<g
   id="g40">
					
						<ellipse
   transform="matrix(0.8212 -0.5706 0.5706 0.8212 -61.3274 43.2956)"
   class="st139"
   cx="38.43"
   cy="119.52"
   rx="1.27"
   ry="1.71"
   id="ellipse38" />
				</g>
				<g
   id="g44">
					
						<ellipse
   transform="matrix(0.8212 -0.5706 0.5706 0.8212 -58.5301 43.3107)"
   class="st139"
   cx="39.86"
   cy="115.07"
   rx="1.27"
   ry="1.71"
   id="ellipse42" />
				</g>
				<g
   id="g48">
					
						<ellipse
   transform="matrix(0.8212 -0.5706 0.5706 0.8212 -56.8891 45.6343)"
   class="st139"
   cx="44.39"
   cy="113.61"
   rx="1.27"
   ry="1.71"
   id="ellipse46" />
				</g>
			</g>
			<g
   id="g92">
				<g
   id="g54">
					<path
   class="st137"
   d="M92.31,104.17c3.23,1.55,5.76,3.83,6.99,7.49l-8.32,8.6L92.31,104.17z"
   id="path52" />
				</g>
				<g
   id="g58">
					<path
   class="st125"
   d="M90.99,120.91c-0.09,0-0.18-0.02-0.27-0.06c-0.25-0.11-0.4-0.37-0.38-0.65l1.33-16.08       c0.02-0.21,0.14-0.41,0.33-0.51c0.19-0.11,0.41-0.12,0.61-0.02c3.75,1.8,6.15,4.37,7.33,7.87c0.08,0.23,0.02,0.49-0.15,0.66       l-8.32,8.6C91.33,120.84,91.16,120.91,90.99,120.91z M92.89,105.2l-1.1,13.29l6.77-6.99C97.55,108.8,95.69,106.74,92.89,105.2z       "
   id="path56" />
				</g>
				<g
   id="g62">
					
						<ellipse
   transform="matrix(0.5706 -0.8212 0.8212 0.5706 -54.2106 132.2006)"
   class="st138"
   cx="99.31"
   cy="117.94"
   rx="9.24"
   ry="7.52"
   id="ellipse60" />
				</g>
				<g
   class="st109"
   id="g66">
					<path
   class="st0"
   d="M105.13,111.74c-3.41-2.37-8.54-0.89-11.45,3.29c-1.83,2.63-2.35,5.71-1.63,8.22       c-1.42-2.69-1.1-6.47,1.08-9.61c2.91-4.19,8.04-5.66,11.45-3.29c1.27,0.88,2.12,2.17,2.54,3.65       C106.65,113.11,105.98,112.33,105.13,111.74z"
   id="path64" />
				</g>
				<g
   class="st105"
   id="g70">
					<path
   class="st125"
   d="M93.2,120.86c3.41,2.37,8.54,0.89,11.45-3.29c1.1-1.58,1.72-3.32,1.89-5c1.45,2.7,1.15,6.5-1.05,9.67       c-2.91,4.19-8.04,5.66-11.45,3.29c-2.12-1.48-3.08-4.1-2.8-6.88C91.71,119.52,92.36,120.28,93.2,120.86z"
   id="path68" />
				</g>
				<g
   id="g74">
					<path
   class="st125"
   d="M97.75,127.31c-1.49,0-2.89-0.42-4.08-1.25c-1.81-1.26-2.92-3.3-3.1-5.74       c-0.18-2.39,0.54-4.89,2.03-7.04c1.49-2.15,3.59-3.7,5.89-4.36c2.35-0.68,4.65-0.36,6.46,0.9c3.7,2.57,4.18,8.31,1.07,12.79       c-1.49,2.15-3.59,3.7-5.89,4.36C99.32,127.2,98.52,127.31,97.75,127.31z M100.86,109.87c-0.65,0-1.33,0.1-2.02,0.29       c-2.02,0.58-3.86,1.95-5.18,3.85c-1.32,1.9-1.96,4.1-1.8,6.2c0.16,2.04,1.06,3.74,2.54,4.77c1.49,1.03,3.39,1.29,5.36,0.72       c2.02-0.58,3.86-1.95,5.18-3.85c2.7-3.89,2.37-8.81-0.74-10.97C103.24,110.22,102.09,109.87,100.86,109.87z"
   id="path72" />
				</g>
				<g
   id="g78">
					
						<ellipse
   transform="matrix(0.7071 -0.7071 0.7071 0.7071 -56.6072 104.1582)"
   class="st139"
   cx="97.43"
   cy="120.41"
   rx="3.58"
   ry="3.74"
   id="ellipse76" />
				</g>
				<g
   id="g82">
					
						<ellipse
   transform="matrix(0.5706 -0.8212 0.8212 0.5706 -53.4154 136.8925)"
   class="st139"
   cx="104.19"
   cy="119.52"
   rx="1.71"
   ry="1.27"
   id="ellipse80" />
				</g>
				<g
   id="g86">
					
						<ellipse
   transform="matrix(0.5706 -0.8212 0.8212 0.5706 -50.3671 133.8112)"
   class="st139"
   cx="102.77"
   cy="115.07"
   rx="1.71"
   ry="1.27"
   id="ellipse84" />
				</g>
				<g
   id="g90">
					
						<ellipse
   transform="matrix(0.5706 -0.8212 0.8212 0.5706 -51.1153 129.466)"
   class="st139"
   cx="98.24"
   cy="113.61"
   rx="1.71"
   ry="1.27"
   id="ellipse88" />
				</g>
			</g>
		</g>
		<g
   id="g214">
			<g
   id="g110">
				<g
   id="g98">
					<path
   class="st140"
   d="M52.65,79.72L52.3,99.7c-0.2,11.6,9.75,20.9,21.28,19.67c0.17-0.02,0.34-0.04,0.51-0.06       c9.83-1.26,17.03-9.91,16.73-19.82l-0.6-19.78H52.65z"
   id="path96" />
				</g>
				<g
   id="g102">
					<path
   class="st125"
   d="M71.57,120.13c-4.91,0-9.7-1.85-13.38-5.22c-4.26-3.9-6.65-9.45-6.55-15.23L52,79.71       c0.01-0.36,0.3-0.64,0.65-0.64h37.57c0.35,0,0.64,0.28,0.65,0.63l0.6,19.78c0.15,4.97-1.53,9.79-4.72,13.59       c-3.21,3.82-7.68,6.26-12.58,6.9c-0.17,0.02-0.35,0.04-0.52,0.06C72.96,120.1,72.26,120.13,71.57,120.13z M53.29,80.37       l-0.34,19.34c-0.1,5.4,2.14,10.59,6.12,14.24c3.92,3.59,9.19,5.33,14.44,4.77c0.16-0.02,0.33-0.04,0.49-0.06       c9.51-1.22,16.45-9.46,16.16-19.15l-0.58-19.14H53.29z"
   id="path100" />
				</g>
				<g
   class="st124"
   id="g108">
					<g
   id="g106">
						<path
   class="st125"
   d="M91.03,95.76c-0.21-1.73-0.46-3.46-0.74-5.19c-0.08-0.5-0.19-1.04-0.55-1.39        c-0.02-0.45-0.06-0.89-0.11-1.33c-0.22-1.81-0.87-3.69-2.35-4.75c-0.63-0.45-1.37-0.71-2.1-0.96        c-7.98-2.69-16.61-3.77-24.9-2.25c-1.93,0.35-3.92,0.9-5.34,2.25c-1.18,1.13-1.83,2.71-2.11,4.32        c-0.17,0.99-0.21,1.99-0.21,2.99c-0.3,0.26-0.56,0.57-0.73,0.94c-0.49,1.02-0.26,2.29,0.38,3.22        c0.65,0.93,1.66,1.55,2.72,1.94l0.71,0.67c-0.33-1.31-0.58-2.88,0.36-3.84c0.11-0.11,0.22-0.2,0.35-0.28        c0.57-0.36,1.28-0.4,1.92-0.18c0.19,0.07,0.38,0.14,0.56,0.21c2.09,0.83,4.02,2.03,6.12,2.82c3.24,1.2,6.86,1.35,10.19,0.4        c2.51-0.71,4.83-2.02,7.33-2.76c0,0,0,0,0,0c0.25-0.07,0.52-0.04,0.74,0.1c0.99,0.64,1.75,1.67,2.05,2.82        c0.46,1.76-0.09,3.7-1.25,5.1c1.19,0.25,2.4,0.5,3.61,0.37c1.21-0.13,2.43-0.72,3.02-1.78        C91.28,98.17,91.17,96.92,91.03,95.76z"
   id="path104" />
					</g>
				</g>
			</g>
			<g
   id="g212">
				<g
   id="g114">
					<path
   class="st140"
   d="M99.17,104.33c-2.51,4.5-6.12,7.4-9.86,8.05l-2.58-3.16l-3.16-3.87l1.8-1.78l3.93-3.89       c0.91-2.3,0.16-5.04-1.37-7.98l-2-5.25l4.1-2.56c1.4,1.02,2.67,2.1,3.8,3.22c3.75,3.7,5.97,7.79,6.43,11.47       c0.05,0.4,0.08,0.79,0.09,1.18C100.39,101.35,99.95,102.93,99.17,104.33z"
   id="path112" />
				</g>
				<g
   class="st109"
   id="g124">
					<g
   id="g118">
						<path
   class="st0"
   d="M84.56,105.04l3.93-3.89c0.12-0.3,0.21-0.62,0.28-0.94l-3.4,3.36l-1.8,1.78l0.3,0.37L84.56,105.04z"
   id="path116" />
					</g>
					<g
   id="g122">
						<path
   class="st0"
   d="M100.35,99.75c-0.01-0.39-0.04-0.78-0.09-1.18c-0.46-3.68-2.68-7.78-6.43-11.47        c-1.13-1.12-2.4-2.19-3.8-3.22l-4.1,2.56l0.29,0.78c1.12-0.69,2.24-1.38,3.36-2.06c1.85,1.33,3.2,2.65,4.1,3.62        c0,0,4.96,5.4,5.76,11.26c0.08,0.6,0.09,1.18,0.09,1.18c0.03,1.37-0.29,2.72-0.86,3.96c0.17-0.27,0.33-0.56,0.49-0.84        C99.95,102.93,100.39,101.35,100.35,99.75z"
   id="path120" />
					</g>
				</g>
				<g
   id="g128">
					<path
   class="st140"
   d="M61.21,100.28l-0.82,0.97h0l-3.47,4.1l-3.01,3.56c-6.9-2.18-12.46-4.99-13.5-9.89       c-0.36-2.62,0.41-5.2,1.88-7.58c1.01-1.63,2.34-3.15,3.87-4.53c1.83-1.66,3.94-3.09,6.08-4.22l2.61,4.21l-0.94,4.06l-0.72,3.98       l-0.02,0.11c0.79,0.32,1.55,0.66,2.28,1.01c0,0,0.01,0,0.01,0c0.09,0.04,0.17,0.08,0.26,0.13c0.07,0.04,0.14,0.07,0.21,0.11       c0.1,0.05,0.19,0.1,0.29,0.15c0.24,0.12,0.47,0.25,0.71,0.38c0.5,0.28,0.98,0.57,1.43,0.87c0.08,0.06,0.17,0.11,0.25,0.17       C59.65,98.59,60.54,99.39,61.21,100.28z"
   id="path126" />
				</g>
				<g
   class="st109"
   id="g132">
					<path
   class="st0"
   d="M61.21,100.28l-0.82,0.97h0c-2.75-2.78-7.68-4.99-10.04-6.98c1.77,0.44,3.48,1.03,5.1,1.8       c0,0,0.01,0,0.01,0c0.09,0.04,0.17,0.08,0.26,0.13c0.07,0.04,0.14,0.07,0.21,0.11c0.1,0.05,0.19,0.1,0.29,0.15       c0.24,0.12,0.47,0.25,0.71,0.38c0.48,0.27,0.96,0.56,1.43,0.87c0.08,0.06,0.17,0.11,0.25,0.17       C59.65,98.59,60.54,99.39,61.21,100.28z"
   id="path130" />
				</g>
				<g
   id="g136">
					<path
   class="st125"
   d="M54.26,91.02l-0.44,4.15l-0.39-0.72c2.28,0.93,4.58,2,6.53,3.57c0.66,0.54,1.28,1.14,1.81,1.84       c0.2,0.26,0.18,0.62-0.03,0.86c-1.81,2.16-5.46,6.5-7.29,8.64c-0.19,0.22-0.49,0.3-0.76,0.22c-2.82-0.9-5.62-1.92-8.2-3.43       c-3.65-2.14-6.51-5.37-5.75-9.89c1.03-6.39,6.79-11.23,12.2-14.13c0.29-0.16,0.66-0.05,0.83,0.23c0.44,0.7,0.86,1.41,1.26,2.13       c0.4,0.73,0.79,1.46,1.11,2.22c0.08,0.18-0.01,0.39-0.19,0.47c-0.15,0.06-0.31,0.02-0.41-0.1c-0.27-0.32-0.52-0.65-0.77-0.98       c-0.74-0.99-1.42-2.03-2.08-3.08l0.83,0.23c-1.54,0.82-3.01,1.77-4.38,2.84c-3.89,2.99-7.74,7.81-7.06,12.79       c0.97,4.2,5.27,6.38,8.96,7.91c1.33,0.54,2.69,1.01,4.07,1.44l-0.76,0.22c1.81-2.16,5.49-6.47,7.31-8.62       c0,0-0.03,0.86-0.03,0.86c-0.89-1.18-2.14-2.14-3.47-2.94c-1.37-0.83-2.85-1.5-4.34-2.14c-0.25-0.13-0.37-0.41-0.31-0.67       l1.03-4.04C53.68,90.48,54.3,90.59,54.26,91.02L54.26,91.02z"
   id="path134" />
				</g>
				<g
   id="g140">
					<path
   class="st125"
   d="M52.96,95.64l-3-1.42c-0.38-0.18-0.16-0.77,0.24-0.66c0,0,3.2,0.89,3.2,0.89       C54.26,94.75,53.79,95.99,52.96,95.64L52.96,95.64z"
   id="path138" />
				</g>
				<g
   id="g144">
					<path
   class="st125"
   d="M88.27,91.52c1.02,1.86,1.95,3.93,1.99,6.13c0.01,0.75-0.11,1.53-0.37,2.26       c-0.03,0.09-0.08,0.16-0.14,0.22l-5.73,5.68l0.05-0.85l5.73,7.03l-0.6-0.22c2.94-0.53,5.48-2.43,7.37-4.71       c0.6-0.73,1.15-1.5,1.64-2.31c0.68-1.09,1.23-2.28,1.42-3.56c0.52-3.69-1.29-7.47-3.42-10.39c-1.8-2.46-4.07-4.57-6.53-6.39       l0.71,0.03l-4.1,2.56c-0.71,0.42-1.36-0.61-0.67-1.07c0,0,4.1-2.56,4.1-2.56c0.22-0.14,0.5-0.12,0.71,0.03       c4.45,3.3,8.49,7.67,10.07,13.1c0.43,1.58,0.65,3.27,0.39,4.9c-0.22,1.44-0.82,2.79-1.59,4.01c-0.52,0.86-1.11,1.68-1.74,2.46       c-2.06,2.5-4.87,4.57-8.12,5.15c-0.23,0.04-0.46-0.05-0.6-0.22l-5.73-7.03c-0.21-0.25-0.18-0.62,0.05-0.85l5.73-5.68       l-0.14,0.22c0.24-0.56,0.38-1.18,0.41-1.82c0.08-2.01-0.67-3.93-1.52-5.76C87.4,91.43,88.03,91.1,88.27,91.52L88.27,91.52z"
   id="path142" />
				</g>
				<g
   id="g148">
					<rect
   x="64.38"
   y="88.91"
   class="st0"
   width="2.32"
   height="5.57"
   id="rect146" />
				</g>
				<g
   id="g152">
					<path
   class="st125"
   d="M66.7,94.95h-2.32c-0.26,0-0.47-0.21-0.47-0.47v-5.57c0-0.26,0.21-0.47,0.47-0.47h2.32       c0.26,0,0.47,0.21,0.47,0.47v5.57C67.17,94.74,66.96,94.95,66.7,94.95z M64.85,94h1.37v-4.62h-1.37V94z"
   id="path150" />
				</g>
				<g
   id="g156">
					<ellipse
   class="st141"
   cx="65.67"
   cy="95.83"
   rx="2.05"
   ry="1.43"
   id="ellipse154" />
				</g>
				<g
   id="g162">
					<ellipse
   class="st0"
   cx="65.67"
   cy="95.83"
   rx="2.05"
   ry="1.43"
   id="ellipse158" />
					<path
   class="st125"
   d="M65.67,97.73c-1.41,0-2.52-0.84-2.52-1.9c0-1.07,1.11-1.9,2.52-1.9s2.52,0.84,2.52,1.9       C68.19,96.9,67.09,97.73,65.67,97.73z M65.67,94.87c-0.84,0-1.58,0.45-1.58,0.96c0,0.51,0.74,0.96,1.58,0.96       s1.58-0.45,1.58-0.96C67.25,95.32,66.51,94.87,65.67,94.87z"
   id="path160" />
				</g>
				<g
   id="g166">
					<rect
   x="75.26"
   y="88.91"
   class="st0"
   width="2.32"
   height="5.57"
   id="rect164" />
				</g>
				<g
   class="st105"
   id="g170">
					<rect
   x="64.5"
   y="88.57"
   class="st125"
   width="2.32"
   height="5.57"
   id="rect168" />
				</g>
				<g
   class="st105"
   id="g174">
					<rect
   x="75.38"
   y="88.57"
   class="st125"
   width="2.32"
   height="5.57"
   id="rect172" />
				</g>
				<g
   id="g178">
					<path
   class="st125"
   d="M77.58,94.95h-2.32c-0.26,0-0.47-0.21-0.47-0.47v-5.57c0-0.26,0.21-0.47,0.47-0.47h2.32       c0.26,0,0.47,0.21,0.47,0.47v5.57C78.05,94.74,77.84,94.95,77.58,94.95z M75.73,94h1.37v-4.62h-1.37V94z"
   id="path176" />
				</g>
				<g
   id="g182">
					<ellipse
   class="st0"
   cx="76.55"
   cy="95.83"
   rx="2.05"
   ry="1.43"
   id="ellipse180" />
				</g>
				<g
   id="g186">
					<path
   class="st125"
   d="M76.55,97.73c-1.41,0-2.52-0.84-2.52-1.9c0-1.07,1.11-1.9,2.52-1.9s2.52,0.84,2.52,1.9       C79.07,96.9,77.96,97.73,76.55,97.73z M76.55,94.87c-0.84,0-1.58,0.45-1.58,0.96c0,0.51,0.74,0.96,1.58,0.96       s1.58-0.45,1.58-0.96C78.13,95.32,77.39,94.87,76.55,94.87z"
   id="path184" />
				</g>
				<g
   class="st105"
   id="g192">
					<g
   id="g190">
						<path
   class="st125"
   d="M44.46,86.7c0.07,0,0.14-0.01,0.21-0.01c0,0.01-0.01,0.02-0.02,0.03L44.46,86.7z"
   id="path188" />
					</g>
				</g>
				<g
   class="st124"
   id="g198">
					<g
   id="g196">
						<path
   class="st125"
   d="M54.85,86.9l-0.94,4.06l-0.72,3.98c-0.95-0.22-1.9-0.45-2.84-0.67c-0.49-0.12-1.03-0.27-1.28-0.71        c-0.28-0.48-0.07-1.08,0.04-1.63c0.26-1.32-0.13-2.76-1.02-3.77c-0.51-0.58-1.19-1.01-1.92-1.25        c1.83-1.66,3.94-3.09,6.08-4.22L54.85,86.9z"
   id="path194" />
					</g>
				</g>
				<g
   class="st124"
   id="g204">
					<g
   id="g202">
						<path
   class="st125"
   d="M56.92,105.35l-3.01,3.56c-6.9-2.18-12.46-4.99-13.5-9.89c-0.36-2.62,0.41-5.2,1.88-7.58        c0.11-0.11,0.23-0.21,0.34-0.31l0.24,0.02c-1.59,1.78-1.32,4.66,0.01,6.64c1.33,1.98,3.48,3.23,5.6,4.31        C51.17,103.45,54,104.65,56.92,105.35z"
   id="path200" />
					</g>
				</g>
				<g
   class="st124"
   id="g210">
					<g
   id="g208">
						<path
   class="st125"
   d="M99.17,104.33c-2.51,4.5-6.12,7.4-9.86,8.05l-2.58-3.16c0.11-0.26,0.22-0.52,0.33-0.78        c0.48-1.1,0.95-2.21,1.4-3.32c-1.36,0.67-2.9,0.97-4.4,0.74c0.52-0.72,0.96-1.49,1.32-2.3l3.93-3.89        c0.91-2.3,0.16-5.04-1.37-7.98l-2-5.25l4.1-2.56c1.4,1.02,2.67,2.1,3.8,3.22c-0.62,0.72-1.04,1.64-1.25,2.57        c-0.37,1.67-0.17,3.4,0.05,5.09c0.15,1.2,0.3,2.42,0.25,3.62c-0.02,0.58,0.13,1.15,0.44,1.63c0,0,0,0.01,0.01,0.01        c0.63,0.94,1.66,1.65,2.79,1.7c1.24,0.06,2.41-0.67,3.2-1.64c0.38-0.46,0.68-0.98,0.94-1.52c0.05,0.4,0.08,0.79,0.09,1.18        C100.39,101.35,99.95,102.93,99.17,104.33z"
   id="path206" />
					</g>
				</g>
			</g>
		</g>
		<g
   id="g260">
			<g
   id="g218">
				<path
   class="st142"
   d="M43.52,56.68c4.28-32.9,48.6-33.06,53.76-0.79c0.13,0.83,0.39,1.65,0.52,2.48      c2.38,15.37-1.37,25.38-24.48,25.46c-0.74-0.02-1.48-0.04-2.22-0.01c-20.77,0.83-32.17-6.92-27.83-26.26      C43.34,57.27,43.41,56.97,43.52,56.68z"
   id="path216" />
			</g>
			<g
   class="st109"
   id="g222">
				<path
   class="st0"
   d="M43.72,60.15c0.07-0.3,0.14-0.6,0.25-0.89c4.28-32.9,48.6-33.06,53.76-0.79c0.07,0.43,0.17,0.85,0.27,1.27      c-0.06-0.45-0.13-0.91-0.2-1.37c-0.13-0.83-0.38-1.65-0.52-2.48c-5.16-32.27-49.48-32.11-53.76,0.79      c-0.11,0.29-0.18,0.59-0.25,0.89c-1.12,4.97-1.19,9.17-0.33,12.66C42.62,67.3,42.87,63.95,43.72,60.15z"
   id="path220" />
			</g>
			<g
   class="st124"
   id="g226">
				<path
   class="st125"
   d="M73.32,79.11c-0.74-0.01-1.48-0.03-2.22-0.01c-16.7,0.61-27.34-3.84-28.61-14.76      c-1.46,14.37,9.68,20.17,28.61,19.48c0.74-0.03,1.48-0.01,2.22,0.01c20.81-0.06,25.92-7.46,24.99-19.16      C97.47,73.61,91.17,79.06,73.32,79.11z"
   id="path224" />
			</g>
			<g
   id="g230">
				<path
   class="st125"
   d="M67.74,63.99h3.54c0.74,0,1.25,0.68,0.97,1.3c-0.46,1.01-1.33,1.65-2.72,1.83      c-1.46-0.25-2.33-0.89-2.76-1.81C66.48,64.69,66.99,63.99,67.74,63.99z"
   id="path228" />
			</g>
			<g
   id="g234">
				<path
   class="st125"
   d="M68.17,84.67c-10.85,0-18.49-2.57-22.73-7.66c-3.84-4.6-4.82-11.2-2.93-19.61      c0.06-0.29,0.14-0.6,0.25-0.9c1.03-7.81,4.38-14.34,9.68-18.9c4.78-4.11,10.99-6.43,17.49-6.53c6.53-0.09,12.86,2.05,17.82,6.05      c5.51,4.44,9.07,10.89,10.32,18.65c0.06,0.38,0.15,0.76,0.24,1.16c0.1,0.43,0.2,0.87,0.27,1.32c1.43,9.23,0.45,15.23-3.15,19.45      c-3.95,4.62-11.18,6.88-22.1,6.92c-0.01,0-0.01,0-0.02,0l-0.22-0.01c-0.64-0.01-1.31-0.03-1.95,0      C70.12,84.65,69.14,84.67,68.17,84.67z M70.33,32.64c-0.13,0-0.26,0-0.38,0c-11.22,0.16-23.5,7.69-25.64,24.15      c-0.01,0.06-0.02,0.12-0.04,0.18c-0.09,0.24-0.15,0.51-0.22,0.78c-1.78,7.91-0.9,14.05,2.61,18.26      c4.29,5.15,12.51,7.51,24.42,7.04c0.69-0.03,1.38-0.01,2.05,0l0.21,0c10.44-0.04,17.27-2.12,20.9-6.36      c3.28-3.84,4.14-9.45,2.79-18.19c-0.06-0.39-0.15-0.79-0.25-1.2c-0.1-0.41-0.2-0.84-0.27-1.27      C93.92,39.82,81.56,32.64,70.33,32.64z"
   id="path232" />
			</g>
			<g
   id="g238">
				<path
   class="st125"
   d="M69.53,67.59c-0.03,0-0.05,0-0.08-0.01c-1.54-0.26-2.58-0.96-3.1-2.07c-0.2-0.43-0.17-0.9,0.09-1.3      c0.28-0.43,0.76-0.69,1.3-0.69h3.54c0.54,0,1.03,0.26,1.31,0.69c0.25,0.39,0.29,0.86,0.09,1.28c-0.55,1.21-1.59,1.91-3.09,2.1      C69.57,67.59,69.55,67.59,69.53,67.59z M67.74,64.47c-0.22,0-0.4,0.1-0.51,0.25c-0.04,0.07-0.11,0.22-0.03,0.39      c0.38,0.81,1.14,1.31,2.34,1.53c1.13-0.16,1.87-0.66,2.28-1.54c0.07-0.16,0.02-0.29-0.03-0.37c-0.1-0.16-0.29-0.26-0.51-0.26      H67.74z"
   id="path236" />
			</g>
			<g
   id="g242">
				<ellipse
   class="st0"
   cx="69.58"
   cy="64.44"
   rx="1.55"
   ry="0.35"
   id="ellipse240" />
			</g>
			<g
   id="g246">
				<path
   class="st138"
   d="M48.3,66.28c2.23-22.19,27.2-6.26,12.27,0.78c-0.87,0.41-1.66,1.01-2.31,1.77      c-2.89,3.34-6.57,4.09-8.74,1.56C48.57,69.28,48.15,67.76,48.3,66.28z"
   id="path244" />
			</g>
			<g
   id="g250">
				<path
   class="st138"
   d="M92.05,66.11c-2.23-22.19-27.2-6.26-12.27,0.78c0.87,0.41,1.66,1.01,2.31,1.77      c2.89,3.34,6.57,4.09,8.74,1.56C91.78,69.11,92.2,67.6,92.05,66.11z"
   id="path248" />
			</g>
			<g
   id="g254">
				<path
   class="st125"
   d="M69.52,69.93c0,0-0.01,0-0.01,0c-0.26-0.01-0.47-0.22-0.46-0.48l0.06-2.94c0.01-0.26,0.22-0.47,0.48-0.46      c0.26,0.01,0.47,0.22,0.46,0.48l-0.06,2.94C69.99,69.72,69.78,69.93,69.52,69.93z"
   id="path252" />
			</g>
			<g
   id="g258">
				<path
   class="st125"
   d="M65.7,71.31c1.42-0.33,2.24-1.74,3.67-2.13c0.1-0.03,0.2-0.03,0.3,0.01c0.52,0.18,0.98,0.46,1.39,0.76      c0.41,0.3,0.78,0.62,1.16,0.92c0.13,0.1,0.34,0.29,0.49,0.33c0.61,0.22,1.21-0.26,1.68-0.62c0.06-0.05,0.15-0.04,0.2,0.02      c0.04,0.05,0.04,0.12,0.01,0.17c-0.13,0.22-0.3,0.42-0.49,0.61c-0.62,0.62-1.47,0.8-2.22,0.26c-0.47-0.3-0.93-0.63-1.36-0.92      c-0.39-0.26-0.78-0.49-1.18-0.64l0.3,0.01c-1.35,0.4-2.41,1.88-3.94,1.65C65.46,71.71,65.46,71.35,65.7,71.31L65.7,71.31z"
   id="path256" />
			</g>
		</g>
		<g
   id="g270">
			<g
   id="g264">
				<ellipse
   class="st125"
   cx="81.79"
   cy="61.63"
   rx="3.05"
   ry="3.64"
   id="ellipse262" />
			</g>
			<g
   id="g268">
				<ellipse
   class="st0"
   cx="80.69"
   cy="61.95"
   rx="0.69"
   ry="1.24"
   id="ellipse266" />
			</g>
		</g>
		<g
   id="g280">
			<g
   id="g274">
				<ellipse
   class="st125"
   cx="59.17"
   cy="61.63"
   rx="3.05"
   ry="3.64"
   id="ellipse272" />
			</g>
			<g
   id="g278">
				<ellipse
   class="st0"
   cx="60.27"
   cy="61.95"
   rx="0.69"
   ry="1.24"
   id="ellipse276" />
			</g>
		</g>
		<g
   id="g364">
			<g
   id="g284">
				<path
   class="st140"
   d="M101.27,64.35c-0.01,0.27-0.02,0.53-0.03,0.8c-20.07-12.77-40.32-13.64-60.78,0      c-0.28-5.01,0.87-9.94,2.88-14.51c1.01-2.3,2.25-4.5,3.63-6.58c2.99-4.5,6.69-8.42,10.38-11.38c4.94-3.98,9.87-6.24,13.05-5.95      C79.37,25.92,101.79,44.35,101.27,64.35z"
   id="path282" />
			</g>
			<g
   class="st109"
   id="g294">
				<g
   id="g288">
					<path
   class="st0"
   d="M40.45,64.96c0,0.06,0,0.13,0.01,0.19c2.2-1.47,4.41-2.77,6.61-3.9C44.86,62.32,42.66,63.55,40.45,64.96z"
   id="path286" />
				</g>
				<g
   id="g292">
					<path
   class="st0"
   d="M70.39,26.74c-1.93-0.18-4.49,0.58-7.32,2.09c2.29-1.06,4.36-1.58,5.98-1.42       c8.87-0.81,30.9,17.2,30.88,36.94c0.43,0.26,0.86,0.53,1.3,0.81c0.02-0.27,0.03-0.53,0.03-0.8       C101.79,44.35,79.37,25.92,70.39,26.74z"
   id="path290" />
				</g>
			</g>
			<g
   id="g298">
				<path
   class="st125"
   d="M101.23,65.78c-0.12,0-0.24-0.03-0.34-0.1C80.2,52.52,60.55,52.52,40.81,65.68      c-0.19,0.13-0.43,0.14-0.63,0.04s-0.33-0.3-0.35-0.53c-0.32-5.72,1.12-11.63,4.28-17.57c3.38-6.36,7.81-11.01,10.92-13.8      c5.65-5.05,11.59-8.02,15.36-7.71c4.06-0.33,10.45,2.87,16.5,8.32c4.44,4,8.18,8.71,10.8,13.63c3.09,5.8,4.49,11.56,4.17,17.13      c-0.01,0.22-0.14,0.42-0.34,0.52C101.43,65.76,101.33,65.78,101.23,65.78z M70.5,54.62c0.17,0,0.33,0,0.5,0      c9.72,0.1,19.69,3.27,29.64,9.42c0.13-9.64-5.26-20.28-14.59-28.67c-5.43-4.89-11.26-7.98-14.97-8.02      c-0.09,0.05-0.19,0.08-0.3,0.08h-0.79c-0.11,0-0.21-0.03-0.3-0.08c-3.42,0.07-8.79,2.92-13.82,7.42      c-7.35,6.57-14.97,17.61-14.82,29.25C50.72,57.78,60.62,54.62,70.5,54.62z"
   id="path296" />
			</g>
			<g
   id="g302">
				<path
   class="st140"
   d="M97.24,51.63L98,50.27c7.93-13.96-5.65-24.44-15.83-16.6c-0.73,0.56-1.57,0.94-2.45,1.08L78.8,34.9      C77.65,40.03,86.36,51.63,97.24,51.63z"
   id="path300" />
			</g>
			<g
   class="st109"
   id="g306">
				<path
   class="st0"
   d="M78.8,34.9l0.27,0.2c0.83,0.62,1.96,0.72,2.86,0.21c0.25-0.14,0.48-0.29,0.71-0.47      c6.47-4.98,14.31-2.56,17.13,3.45c-2.3-6.86-10.73-9.93-17.61-4.64c-0.73,0.56-1.57,0.94-2.45,1.08L78.8,34.9"
   id="path304" />
			</g>
			<g
   class="st105"
   id="g310">
				<path
   class="st125"
   d="M92.7,31.43c4.52,3.1,6.69,9.73,2.32,17.42v0c-0.49,0.87-1.44,1.37-2.43,1.27      c-0.52-0.06-1.03-0.14-1.53-0.24c-0.28-0.06-0.41,0.35-0.14,0.46c1.46,0.6,3.01,1.02,4.61,1.2c1,0.11,1.97-0.38,2.47-1.26v0      C103.25,41.03,99.07,33.32,92.7,31.43z"
   id="path308" />
			</g>
			<g
   id="g314">
				<path
   class="st140"
   d="M62.25,34.37c0,4.03-1.72,7.54-4.39,10.44c-3.37,3.66-8.27,6.33-13.15,7.81l-0.9-1.29      c-0.16-0.23-0.32-0.46-0.47-0.69c-5.37-8.29-2.04-15.82,3.92-18.37c2.96-1.27,6.57-1.3,10.09,0.41c0.45,0.22,0.9,0.47,1.34,0.75      c0.8,0.5,1.69,0.8,2.61,0.87L62.25,34.37z"
   id="path312" />
			</g>
			<g
   class="st109"
   id="g318">
				<path
   class="st0"
   d="M47.2,33.69c2.96-1.27,6.57-1.3,10.09,0.41c0.45,0.22,0.9,0.47,1.34,0.75c0.8,0.5,1.69,0.8,2.61,0.87l0,0      c0.53,0.04,0.99-0.37,1.01-0.9c0-0.15,0.01-0.3,0.01-0.45L61.3,34.3c-0.92-0.07-1.81-0.37-2.61-0.87      c-0.44-0.28-0.89-0.53-1.34-0.75c-3.51-1.71-7.12-1.68-10.09-0.41c-3.92,1.67-6.7,5.5-6.62,10.27      C41.07,38.44,43.68,35.2,47.2,33.69z"
   id="path316" />
			</g>
			<g
   id="g322">
				<path
   class="st125"
   d="M78.7,34.28c0.22-0.03,0.69-0.12,0.9-0.15c0.44-0.08,0.87-0.22,1.28-0.41c0.71-0.34,1.3-0.9,1.97-1.31      c6.13-4.08,14.51-1.93,17.28,5.07c1.88,4.8,0.4,10.32-2.58,14.32c-0.25,0.33-0.76,0.04-0.61-0.34c0.32-0.76,0.69-1.49,1.03-2.21      c2.51-4.98,2.81-11.06-1.59-15.06c-2.28-2.07-5.52-2.96-8.55-2.4c-1.7,0.3-3.34,1.02-4.76,2.02c-0.51,0.38-1.04,0.79-1.62,1.06      c-0.78,0.39-1.68,0.53-2.53,0.65C78.09,35.64,77.88,34.45,78.7,34.28L78.7,34.28z"
   id="path320" />
			</g>
			<g
   id="g326">
				<path
   class="st125"
   d="M62.2,35c-0.23-0.01-0.71-0.05-0.93-0.07c-1.03-0.07-2.04-0.41-2.92-0.95c-0.25-0.16-0.77-0.45-1.03-0.59      c-4.23-2.23-9.62-1.8-13.06,1.64c-3.58,3.49-3.78,8.79-1.67,13.13c0.68,1.49,1.6,2.81,2.4,4.25c0.2,0.35-0.3,0.71-0.57,0.4      c-1.1-1.25-2.12-2.64-2.83-4.17c-3.35-6.72-1.16-14.6,6.2-17.27c3.3-1.17,7.06-0.75,10.13,0.87c0,0,0.57,0.31,0.57,0.31      c0.47,0.29,1.03,0.63,1.55,0.82c0.71,0.28,1.52,0.31,2.27,0.37C63.12,33.84,63.04,35.03,62.2,35L62.2,35z"
   id="path324" />
			</g>
			<g
   class="st124"
   id="g332">
				<g
   id="g330">
					<path
   class="st125"
   d="M101.27,64.34c-0.01,0.27-0.02,0.54-0.03,0.81c-19.67-12.93-39.52-13.81-59.57,0       c-0.27-5.08,0.85-10.06,2.83-14.69c-5.27-8.39-2-16.02,3.84-18.6l0.61,0.19c-2.54,1.35-4.05,4.5-3.55,7.4       c0.3,1.73,1.3,3.29,2.66,4.34c0.92,0.71,2,1.19,3.14,1.34c2.37,0.3,4.72-0.7,7.1-0.6c0.14,0.01,0.28,0.02,0.43,0.03       c2.48,0.23,4.75,1.56,7.09,2.48c5.02,1.98,10.54,2.09,15.75,3.45C89.43,52.54,96.49,57.58,101.27,64.34z"
   id="path328" />
				</g>
			</g>
			<g
   id="g336">
				<path
   class="st140"
   d="M72.9,52.15c-1.48,0.01-2.95,0.01-4.43,0c-15.75-0.14-36.99,12.77-28.03,26.02      c1.5,2.22,3.52,3.92,5.78,4.99c7.48,3.54,14.98,6.29,22.48,8.27c1.3,0.34,2.65,0.34,3.96,0c7.5-1.98,15-4.73,22.48-8.27      c2.26-1.07,4.28-2.77,5.78-4.99C109.9,64.92,88.65,52.02,72.9,52.15z M95.65,77.24c-1.24,1.59-2.89,2.8-4.75,3.56      c-6.16,2.53-12.32,4.5-18.49,5.91c-1.07,0.25-2.18,0.25-3.25,0c-6.17-1.41-12.33-3.38-18.49-5.91      c-1.86-0.76-3.52-1.98-4.75-3.56c-7.37-9.47,10.1-18.7,23.05-18.6c1.21,0.01,2.43,0.01,3.64,0      C85.55,58.54,103.02,67.76,95.65,77.24z"
   id="path334" />
			</g>
			<g
   class="st109"
   id="g342">
				<g
   id="g340">
					<path
   class="st0"
   d="M68.47,53.83c1.48,0.01,2.95,0.01,4.43,0c12.81-0.11,29.26,8.41,30.12,18.73       c0.92-11.06-16.62-20.53-30.12-20.41c-1.48,0.01-2.95,0.01-4.43,0c-13.5-0.12-31.04,9.35-30.12,20.41       C39.21,62.24,55.66,53.72,68.47,53.83z"
   id="path338" />
				</g>
			</g>
			<g
   class="st124"
   id="g348">
				<g
   id="g346">
					<path
   class="st125"
   d="M100.93,75.03c-1.5,2.22-3.52,3.92-5.78,4.99c-7.48,3.54-14.98,6.29-22.48,8.27       c-1.3,0.34-2.65,0.34-3.96,0c-7.5-1.98-15-4.73-22.48-8.27c-2.26-1.07-4.28-2.77-5.78-4.99c-1.11-1.64-1.76-3.27-2.01-4.88       c-0.4,2.59,0.16,5.3,2.01,8.03c1.5,2.22,3.52,3.92,5.78,4.99c7.48,3.54,14.98,6.29,22.48,8.27c1.3,0.34,2.65,0.34,3.96,0       c7.5-1.98,15-4.73,22.48-8.27c2.26-1.07,4.28-2.77,5.78-4.99c1.85-2.73,2.41-5.44,2.01-8.03       C102.68,71.75,102.04,73.39,100.93,75.03z"
   id="path344" />
				</g>
			</g>
			<g
   id="g352">
				<path
   class="st125"
   d="M70.78,87.53c-0.59,0-1.19-0.07-1.77-0.2c-6.19-1.42-12.45-3.42-18.59-5.94c-2-0.82-3.74-2.12-5.01-3.76      c-2.08-2.67-2.44-5.57-1.06-8.38c1.51-3.06,5.06-5.93,9.98-8.09c4.64-2.03,9.96-3.18,14.62-3.14c1.21,0.01,2.43,0.01,3.63,0      c0.07,0,0.14,0,0.21,0c4.6,0,9.84,1.14,14.41,3.14c4.93,2.16,8.47,5.03,9.98,8.09c1.39,2.81,1.02,5.71-1.06,8.38      c-1.27,1.64-3.01,2.94-5.01,3.76c-6.14,2.52-12.39,4.52-18.59,5.94C71.97,87.46,71.37,87.53,70.78,87.53z M68.76,59.27      c-4.43,0-9.49,1.1-13.91,3.04c-4.66,2.04-7.98,4.7-9.36,7.5c-1.18,2.38-0.87,4.75,0.92,7.05c1.14,1.46,2.69,2.63,4.49,3.37      c6.08,2.5,12.26,4.48,18.39,5.88c0.97,0.22,2,0.22,2.97,0c6.13-1.4,12.31-3.38,18.39-5.88c1.8-0.74,3.36-1.91,4.49-3.37      c1.79-2.3,2.1-4.67,0.92-7.05c-1.38-2.79-4.7-5.46-9.36-7.5c-4.48-1.96-9.63-3.07-14.1-3.04c-1.21,0.01-2.44,0.01-3.65,0l0,0      C68.89,59.27,68.82,59.27,68.76,59.27z"
   id="path350" />
			</g>
			<g
   id="g356">
				<path
   class="st125"
   d="M70.69,92.32c-0.72,0-1.44-0.09-2.14-0.28c-7.53-1.98-15.13-4.78-22.59-8.31      c-2.42-1.14-4.5-2.94-6.03-5.2c-2.71-4.01-2.96-8.33-0.72-12.51c2.13-3.98,6.47-7.69,12.21-10.45      c5.46-2.62,11.68-4.1,17.07-4.05c1.47,0.01,2.95,0.01,4.42,0c5.4-0.05,11.61,1.43,17.07,4.05c5.74,2.76,10.07,6.47,12.21,10.45      c2.24,4.17,1.99,8.5-0.72,12.51c-1.53,2.26-3.62,4.06-6.03,5.2c-7.46,3.53-15.06,6.33-22.59,8.31      C72.13,92.23,71.41,92.32,70.69,92.32z M68.22,52.78c-11.13,0-23.86,6.3-27.9,13.84c-2.03,3.79-1.81,7.56,0.66,11.2      c1.4,2.07,3.31,3.72,5.53,4.77c7.39,3.5,14.92,6.27,22.38,8.23c1.19,0.31,2.45,0.31,3.63,0c7.45-1.96,14.98-4.73,22.38-8.23      c2.21-1.05,4.12-2.7,5.53-4.77c2.47-3.65,2.69-7.42,0.66-11.2c-4.08-7.6-16.97-13.94-28.16-13.84c-1.47,0.01-2.97,0.01-4.44,0      l0,0C68.38,52.78,68.3,52.78,68.22,52.78z"
   id="path354" />
			</g>
			<g
   class="st105"
   id="g362">
				<g
   id="g360">
					<path
   class="st125"
   d="M70.12,27.05c-3.61-0.19-7.21,2.25-8.37,5.67c-0.1,0.29-0.18,0.59-0.38,0.83       c-0.32,0.39-0.88,0.52-1.38,0.46s-0.96-0.3-1.41-0.53c-0.38-0.19-0.82-0.49-0.76-0.92c0.03-0.21,0.17-0.37,0.31-0.53       c2.94-3.14,7.15-5.07,11.45-5.24"
   id="path358" />
				</g>
			</g>
		</g>
		<defs
   id="defs371">
			<filter
   id="Adobe_OpacityMaskFilter"
   filterUnits="userSpaceOnUse"
   x="41.62"
   y="74.12"
   width="57.53"
   height="31.06">
				<feFlood
   style="flood-color:white;flood-opacity:1"
   result="back"
   id="feFlood366" />
				<feBlend
   in="SourceGraphic"
   in2="back"
   mode="normal"
   id="feBlend368" />
			</filter>
		</defs>
		
			<mask
   maskUnits="userSpaceOnUse"
   x="41.62"
   y="74.12"
   width="57.53"
   height="31.06"
   id="mask390">
			<g
   class="st144"
   id="g388">
				<defs
   id="defs378">
					
						<filter
   id="Adobe_OpacityMaskFilter_00000120517391285585542660000003539427468073410466_"
   filterUnits="userSpaceOnUse"
   x="41.62"
   y="74.12"
   width="57.53"
   height="31.06">
						<feFlood
   style="flood-color:white;flood-opacity:1"
   result="back"
   id="feFlood373" />
						<feBlend
   in="SourceGraphic"
   in2="back"
   mode="normal"
   id="feBlend375" />
					</filter>
				</defs>
				
					<mask
   maskUnits="userSpaceOnUse"
   x="41.62"
   y="74.12"
   width="57.53"
   height="31.06"
   id="SVGID_00000136404693721648163390000013358312953087576758_">
				</mask>
				
					<linearGradient
   id="SVGID_00000147902241316564155290000001993101604954516902_"
   gradientUnits="userSpaceOnUse"
   x1="70.3875"
   y1="74.7772"
   x2="70.1491"
   y2="129.9797">
					<stop
   offset="0"
   style="stop-color:#000000"
   id="stop381" />
					<stop
   offset="0.932"
   style="stop-color:#FFFFFF"
   id="stop383" />
				</linearGradient>
				
					<polygon
   style="mask:url(#SVGID_00000136404693721648163390000013358312953087576758_);fill:url(#SVGID_00000147902241316564155290000001993101604954516902_);"
   points="      50.08,104.1 41.62,74.12 99.15,74.99 93.31,105.17     "
   mask="url(#SVGID_00000136404693721648163390000013358312953087576758_)"
   id="polygon386" />
			</g>
		</mask>
		
			<linearGradient
   id="SVGID_00000136408809771497491090000010549002574761064879_"
   gradientUnits="userSpaceOnUse"
   x1="70.3875"
   y1="74.7772"
   x2="70.1491"
   y2="129.9797">
			<stop
   offset="0"
   style="stop-color:#FFFFFF"
   id="stop392" />
			<stop
   offset="0.932"
   style="stop-color:#CFEBFC"
   id="stop394" />
		</linearGradient>
		<polygon
   style="fill:url(#SVGID_00000136408809771497491090000010549002574761064879_);"
   points="50.08,104.1 41.62,74.12     99.15,74.99 93.31,105.17   "
   id="polygon397" />
		<g
   id="g429">
			<g
   id="g401">
				<path
   class="st148"
   d="M89.12,126.51H53.2c-0.91,0-1.65-0.74-1.65-1.65v-0.16c0-0.91,0.74-1.65,1.65-1.65h35.92      c0.91,0,1.65,0.74,1.65,1.65v0.16C90.77,125.76,90.03,126.51,89.12,126.51z"
   id="path399" />
			</g>
			<g
   class="st105"
   id="g405">
				<path
   class="st125"
   d="M90.62,123.44v0.44c0,0.5-0.41,0.91-0.91,0.91H52.3c-0.31,0-0.58-0.16-0.75-0.4v1.21      c0,0.5,0.41,0.91,0.91,0.91h37.41c0.5,0,0.91-0.41,0.91-0.91v-1.65C90.77,123.76,90.72,123.58,90.62,123.44z"
   id="path403" />
			</g>
			<g
   id="g409">
				<path
   class="st148"
   d="M93.42,101.65L91.5,120.7c-0.06,0.59-0.33,1.14-0.77,1.55l-0.86,0.79H52.45l-0.86-0.79      c-0.44-0.4-0.71-0.95-0.77-1.55l-1.92-19.05c-0.04-0.37-0.01-0.75,0.1-1.1c0.27-0.83,0.91-1.29,1.77-1.51      c0.04-0.01,0.08-0.02,0.12-0.03c0.29-0.06,0.58-0.08,0.87-0.08h38.79c0.33,0,0.67,0.03,0.99,0.11c0.86,0.22,1.5,0.67,1.77,1.51      c0,0.01,0.01,0.03,0.01,0.04C93.43,100.94,93.45,101.3,93.42,101.65z"
   id="path407" />
			</g>
			<g
   class="st149"
   id="g413">
				<path
   class="st0"
   d="M52.11,122.04l-1.92-19.05c-0.04-0.37-0.01-0.75,0.1-1.1c0.27-0.83,0.91-1.29,1.77-1.51      c0.04-0.01,0.08-0.02,0.12-0.03c0.29-0.06,0.58-0.08,0.87-0.08h38.79c0.33,0,0.67,0.03,0.99,0.11c0.17,0.04,0.33,0.1,0.48,0.16      c-0.27-0.83-0.91-1.28-1.77-1.5c-0.32-0.08-0.66-0.11-0.99-0.11H51.77c-0.29,0-0.59,0.02-0.87,0.08      c-0.04,0.01-0.08,0.02-0.12,0.03c-0.86,0.22-1.5,0.67-1.77,1.51c-0.11,0.35-0.14,0.73-0.1,1.1l1.92,19.05      c0.06,0.59,0.33,1.14,0.77,1.55l0.83,0.77C52.26,122.72,52.15,122.39,52.11,122.04z"
   id="path411" />
			</g>
			<g
   id="g417">
				<path
   class="st125"
   d="M89.87,127.14H52.45c-0.85,0-1.54-0.69-1.54-1.54v-1.65c0-0.85,0.69-1.54,1.54-1.54h37.41      c0.85,0,1.54,0.69,1.54,1.54v1.65C91.4,126.45,90.71,127.14,89.87,127.14z M52.45,123.67c-0.15,0-0.28,0.13-0.28,0.28v1.65      c0,0.15,0.13,0.28,0.28,0.28h37.41c0.15,0,0.28-0.13,0.28-0.28v-1.65c0-0.15-0.13-0.28-0.28-0.28H52.45z"
   id="path415" />
			</g>
			<g
   id="g421">
				<path
   class="st125"
   d="M89.87,123.67H52.45c-0.16,0-0.31-0.06-0.43-0.17l-0.86-0.79c-0.55-0.51-0.9-1.2-0.97-1.95l-1.92-19.05      c-0.05-0.48,0-0.94,0.13-1.36c0.32-0.99,1.07-1.64,2.22-1.92c0.35-0.09,0.72-0.13,1.14-0.13h38.79c0.42,0,0.79,0.04,1.14,0.13      c1.15,0.29,1.89,0.93,2.22,1.92c0.14,0.42,0.18,0.87,0.13,1.36l-1.92,19.05c-0.08,0.75-0.42,1.44-0.97,1.95l-0.86,0.79      C90.18,123.61,90.03,123.67,89.87,123.67z M52.7,122.41h36.92l0.68-0.62c0.32-0.3,0.53-0.71,0.57-1.15l1.92-19.05      c0.03-0.31,0.01-0.59-0.08-0.84c-0.19-0.57-0.61-0.91-1.32-1.09c-0.25-0.06-0.52-0.09-0.84-0.09H51.77      c-0.32,0-0.59,0.03-0.84,0.09c-0.72,0.18-1.14,0.52-1.32,1.09c-0.08,0.25-0.11,0.53-0.08,0.84l1.92,19.05      c0.04,0.44,0.25,0.85,0.57,1.15L52.7,122.41z"
   id="path419" />
			</g>
			<g
   class="st105"
   id="g427">
				<g
   id="g425">
					<path
   class="st125"
   d="M93.42,101.65L91.5,120.7c-0.06,0.59-0.33,1.14-0.77,1.55l-0.86,0.79H52.45l-0.86-0.79       c-0.44-0.4-0.71-0.95-0.77-1.55l-1.92-19.05c-0.04-0.37-0.01-0.75,0.1-1.1c0.27-0.83,0.91-1.29,1.77-1.51       c0.04-0.01,0.08-0.02,0.12-0.03l0.72,0.1c-1.11,0.2-1.35,1.66-1.31,2.79c0.12,3.24,0.42,6.47,0.92,9.67       c0.3,1.93,0.71,3.93,1.95,5.43c1.79,2.16,4.82,2.73,7.59,3.16c5.69,0.89,11.72,1.74,17.04-0.46c2.83-1.17,5.25-3.13,7.44-5.27       c3.89-3.79,7.29-8.55,8.07-13.85C93.43,100.94,93.45,101.3,93.42,101.65z"
   id="path423" />
				</g>
			</g>
		</g>
	</g>
</g>
<g
   id="g459">
	<rect
   x="70.38"
   y="107.46"
   width="1.83"
   height="1.83"
   id="rect435" />
	<rect
   x="70.39"
   y="104.88"
   width="1.83"
   height="1.83"
   id="rect437" />
	<rect
   x="70.38"
   y="115.2"
   width="1.83"
   height="1.83"
   id="rect439" />
	<rect
   x="70.38"
   y="110.03"
   width="1.83"
   height="1.83"
   id="rect441" />
	<rect
   x="70.38"
   y="112.61"
   width="1.83"
   height="1.83"
   id="rect443" />
	<rect
   x="72.98"
   y="102.3"
   width="1.83"
   height="1.83"
   id="rect445" />
	<rect
   x="67.81"
   y="110.04"
   width="1.83"
   height="1.83"
   id="rect447" />
	<rect
   x="67.81"
   y="107.46"
   width="1.83"
   height="1.83"
   id="rect449" />
	<rect
   x="67.81"
   y="117.77"
   width="1.83"
   height="1.83"
   id="rect451" />
	<rect
   x="67.81"
   y="112.62"
   width="1.83"
   height="1.83"
   id="rect453" />
	<rect
   x="67.81"
   y="115.21"
   width="1.83"
   height="1.83"
   id="rect455" />
	<rect
   x="73.03"
   y="107.46"
   width="1.79"
   height="6.99"
   id="rect457" />
</g>
<g
   id="g513">
	<path
   d="M17.89,34.08l0.62-0.77l2.91,1.38l-1.5-2.29l-0.41-0.33l0.47-0.59L23,32.71l-1.98-2.54l0.61-0.76l2.65,3.57L23.7,33.7   l-2.77-1.04l1.61,2.49l-0.59,0.74L17.89,34.08z"
   id="path461" />
	<path
   d="M22.28,28.68l0.7-0.7l2.75,1.67l-1.26-2.43l-0.37-0.37l0.53-0.53l2.88,1.54l-1.7-2.73l0.69-0.7l2.26,3.82l-0.66,0.66   l-2.64-1.33l1.34,2.64l-0.66,0.67L22.28,28.68z"
   id="path463" />
	<path
   d="M27.21,23.77l0.77-0.63l2.56,1.95l-0.99-2.55l-0.33-0.41l0.58-0.48l2.7,1.83l-1.4-2.89l0.76-0.62l1.85,4.04l-0.72,0.59   l-2.49-1.6l1.05,2.77l-0.73,0.6L27.21,23.77z"
   id="path465" />
	<path
   d="M34.9,22.21l0.68-0.48l0.44,0.63l-0.68,0.48L34.9,22.21z"
   id="path467" />
	<path
   d="M34.16,16.36l0.9-0.59l0.45,0.68l-0.91,0.59L34.16,16.36z M35.58,18.38l-0.55,0.36l-0.33-0.68l1.3-0.85l2.34,3.61   l-0.83,0.54L35.58,18.38z"
   id="path469" />
	<path
   d="M37.3,16.37l0.79-0.44l0.26,0.37c0.1-0.24,0.24-0.47,0.43-0.69c0.19-0.22,0.42-0.4,0.69-0.56c0.49-0.27,0.9-0.36,1.25-0.25   c0.35,0.1,0.66,0.39,0.93,0.88l1.36,2.43l-0.85,0.48l-1.34-2.39c-0.16-0.29-0.34-0.46-0.52-0.51c-0.19-0.05-0.44,0.02-0.76,0.2   c-0.2,0.11-0.37,0.26-0.51,0.44c-0.14,0.18-0.24,0.38-0.3,0.57l1.54,2.75l-0.86,0.48L37.3,16.37z"
   id="path471" />
	<path
   d="M42.86,14.27l-0.57,0.27l-0.33-0.7l0.57-0.27L42.3,13.1c-0.19-0.39-0.22-0.76-0.11-1.1c0.11-0.34,0.38-0.61,0.79-0.8   c0.28-0.13,0.57-0.21,0.86-0.24l0.3,0.64c-0.2,0.02-0.38,0.07-0.56,0.15c-0.26,0.12-0.41,0.25-0.47,0.39s-0.03,0.32,0.08,0.55   l0.22,0.47l1.02-0.48l0.29,0.72l-0.98,0.46l1.5,3.19l-0.89,0.42L42.86,14.27z"
   id="path473" />
	<path
   d="M45.86,14.37c-0.55-1.39-0.13-2.36,1.26-2.91c1.4-0.55,2.37-0.13,2.92,1.26c0.55,1.39,0.13,2.36-1.27,2.91   C47.38,16.18,46.41,15.76,45.86,14.37z M49.24,14.19c0.1-0.27,0.05-0.64-0.13-1.11c-0.18-0.46-0.4-0.76-0.66-0.89   c-0.26-0.13-0.6-0.11-1.02,0.05c-0.42,0.16-0.67,0.38-0.77,0.66c-0.1,0.27-0.05,0.64,0.13,1.1c0.19,0.47,0.41,0.77,0.66,0.9   c0.26,0.13,0.59,0.12,1.01-0.05C48.88,14.69,49.14,14.47,49.24,14.19z"
   id="path475" />
	<path
   d="M50.55,10.3l0.87-0.27l0.2,0.46c0.15-0.19,0.35-0.38,0.59-0.57c0.24-0.19,0.48-0.35,0.74-0.47l0.23,0.72   c-0.23,0.13-0.48,0.28-0.74,0.47c-0.26,0.19-0.45,0.36-0.58,0.51l0.94,2.96l-0.94,0.3L50.55,10.3z"
   id="path477" />
	<path
   d="M54.17,9.12l0.89-0.19l0.14,0.43c0.37-0.45,0.83-0.74,1.36-0.86c0.29-0.06,0.53-0.07,0.72-0.01   c0.19,0.05,0.35,0.16,0.49,0.33c0.17-0.22,0.38-0.4,0.62-0.56c0.24-0.15,0.52-0.27,0.85-0.34c0.49-0.11,0.87-0.06,1.15,0.14   c0.29,0.2,0.48,0.55,0.6,1.07l0.61,2.77l-0.95,0.21l-0.59-2.68C60,9.11,59.88,8.9,59.71,8.79c-0.16-0.1-0.4-0.12-0.71-0.05   c-0.2,0.04-0.38,0.12-0.55,0.23c-0.17,0.11-0.3,0.25-0.39,0.42c0.05,0.1,0.1,0.25,0.14,0.42l0.59,2.69l-0.9,0.2l-0.58-2.67   C57.24,9.72,57.14,9.5,57,9.39c-0.14-0.11-0.35-0.14-0.64-0.07c-0.37,0.08-0.7,0.33-0.98,0.74l0.67,3.06l-0.95,0.21L54.17,9.12z"
   id="path479" />
	<path
   d="M62.87,11.52c-0.31-0.19-0.49-0.5-0.54-0.92c-0.05-0.42,0.06-0.77,0.31-1.04c0.26-0.28,0.67-0.45,1.24-0.51l1.37-0.16   L65.23,8.7c-0.02-0.21-0.07-0.37-0.15-0.48C65,8.11,64.88,8.04,64.7,8s-0.42-0.03-0.73,0c-0.5,0.06-0.97,0.19-1.39,0.39L62.5,7.66   c0.2-0.1,0.43-0.19,0.7-0.27c0.27-0.08,0.56-0.14,0.87-0.17c0.64-0.07,1.13,0,1.48,0.22c0.35,0.22,0.56,0.61,0.62,1.17l0.31,2.75   l-0.84,0.1l-0.11-0.43c-0.16,0.19-0.36,0.35-0.61,0.47c-0.25,0.12-0.56,0.2-0.93,0.24C63.56,11.78,63.18,11.71,62.87,11.52z    M64.91,10.77c0.21-0.12,0.38-0.28,0.5-0.47l-0.08-0.75l-1.35,0.15c-0.29,0.03-0.49,0.11-0.61,0.23c-0.12,0.12-0.16,0.3-0.13,0.54   c0.02,0.22,0.12,0.37,0.27,0.45c0.16,0.08,0.38,0.11,0.67,0.08C64.45,10.97,64.7,10.89,64.91,10.77z"
   id="path481" />
	<path
   d="M68.08,11.01c-0.24-0.23-0.37-0.56-0.39-0.99l-0.11-2.25L66.94,7.8L66.9,7.03L67.54,7l-0.05-0.99l0.96-0.35l0.06,1.29   l1.14-0.05l-0.03,0.77l-1.08,0.05l0.11,2.19c0.01,0.25,0.08,0.42,0.19,0.51c0.12,0.09,0.31,0.14,0.57,0.12   c0.16-0.01,0.33-0.05,0.51-0.12l0.04,0.7c-0.23,0.11-0.52,0.17-0.85,0.19C68.67,11.34,68.32,11.24,68.08,11.01z"
   id="path483" />
	<path
   d="M70.58,12.63l0.01-0.73c0.17,0.06,0.35,0.1,0.55,0.1c0.18,0,0.33-0.02,0.45-0.08c0.12-0.06,0.22-0.14,0.3-0.26   c0.09-0.12,0.19-0.29,0.31-0.52l-1.84-4.28l1.03,0.02l1.32,3.22l1.45-3.17l1.02,0.02l-1.82,4.02c-0.27,0.61-0.55,1.07-0.84,1.37   c-0.29,0.3-0.66,0.45-1.11,0.44C71.09,12.76,70.81,12.72,70.58,12.63z"
   id="path485" />
	<path
   d="M76.28,5.21l0.98,0.1l-0.35,3.52l1.96-1.54l1.13,0.11L78.1,8.95l1.59,2.74l-1.04-0.1l-1.22-2.17L76.81,9.9l-0.15,1.49   l-0.98-0.1L76.28,5.21z"
   id="path487" />
	<path
   d="M80.55,11.57c-0.25-0.27-0.33-0.62-0.26-1.04c0.07-0.42,0.27-0.72,0.6-0.91c0.32-0.19,0.77-0.24,1.34-0.14l1.36,0.24   l0.03-0.19c0.04-0.21,0.03-0.38-0.01-0.5c-0.04-0.13-0.14-0.23-0.3-0.31c-0.16-0.08-0.39-0.15-0.7-0.21   c-0.5-0.09-0.98-0.09-1.44-0.02l0.13-0.72c0.21-0.04,0.46-0.06,0.75-0.06c0.28,0,0.58,0.03,0.88,0.08C83.54,7.89,84,8.1,84.27,8.41   c0.27,0.31,0.36,0.74,0.27,1.3l-0.47,2.73l-0.83-0.14l0.01-0.44c-0.21,0.14-0.45,0.23-0.72,0.28c-0.27,0.04-0.59,0.03-0.96-0.03   C81.13,12.02,80.8,11.84,80.55,11.57z M82.72,11.43c0.24-0.06,0.44-0.16,0.61-0.31l0.13-0.74l-1.34-0.23   c-0.29-0.05-0.5-0.03-0.65,0.05c-0.15,0.08-0.24,0.24-0.28,0.48c-0.04,0.21,0.01,0.38,0.13,0.51c0.12,0.12,0.33,0.21,0.62,0.26   C82.22,11.49,82.48,11.48,82.72,11.43z"
   id="path489" />
	<path
   d="M85.26,11.93l0.81,0.19l-0.17,0.75l-0.81-0.19L85.26,11.93z"
   id="path491" />
	<path
   d="M87.3,12.94c-0.22-0.3-0.27-0.65-0.15-1.06s0.35-0.69,0.69-0.84c0.34-0.16,0.79-0.15,1.34,0.01l1.32,0.38l0.05-0.18   c0.06-0.2,0.07-0.37,0.05-0.5s-0.12-0.25-0.26-0.35c-0.15-0.1-0.37-0.19-0.67-0.28c-0.49-0.14-0.96-0.2-1.43-0.18l0.21-0.71   c0.22-0.02,0.47-0.01,0.75,0.02c0.28,0.03,0.57,0.09,0.87,0.18c0.62,0.18,1.04,0.44,1.28,0.78c0.24,0.34,0.28,0.78,0.12,1.32   l-0.77,2.66l-0.81-0.23l0.06-0.44c-0.22,0.12-0.47,0.18-0.75,0.19c-0.28,0.01-0.59-0.03-0.95-0.14   C87.83,13.45,87.51,13.24,87.3,12.94z M89.47,13.04c0.24-0.03,0.46-0.11,0.64-0.24l0.21-0.72l-1.31-0.38   c-0.28-0.08-0.5-0.09-0.65-0.02c-0.16,0.07-0.27,0.22-0.33,0.44c-0.06,0.21-0.03,0.38,0.08,0.52c0.11,0.14,0.31,0.25,0.58,0.33   C88.97,13.04,89.23,13.07,89.47,13.04z"
   id="path493" />
	<path
   d="M92.01,16.28c-0.28-0.15-0.51-0.3-0.69-0.45l0.27-0.71c0.19,0.16,0.42,0.31,0.7,0.46s0.56,0.28,0.83,0.39   c0.43,0.16,0.74,0.25,0.93,0.27c0.19,0.02,0.32-0.05,0.38-0.2c0.05-0.12,0.03-0.22-0.04-0.3c-0.08-0.08-0.24-0.17-0.48-0.27   l-1.08-0.41c-0.36-0.14-0.6-0.31-0.74-0.51c-0.14-0.2-0.16-0.43-0.06-0.68c0.07-0.18,0.18-0.31,0.33-0.41   c0.15-0.1,0.34-0.15,0.57-0.14c-0.37-0.39-0.44-0.87-0.23-1.44c0.19-0.51,0.49-0.82,0.88-0.94c0.4-0.12,0.9-0.06,1.52,0.18   c0.23,0.09,0.46,0.21,0.71,0.37l1.48,0.56l-0.26,0.59l-0.68-0.26c0.14,0.27,0.14,0.57,0.02,0.9c-0.17,0.44-0.43,0.73-0.78,0.87   c-0.35,0.14-0.79,0.11-1.31-0.09c-0.13-0.05-0.3-0.13-0.48-0.23c-0.19-0.05-0.36-0.06-0.52-0.04C93.1,13.81,93,13.89,92.95,14   c-0.03,0.09-0.02,0.16,0.03,0.22c0.05,0.06,0.16,0.12,0.32,0.18l1.13,0.43c0.4,0.15,0.68,0.36,0.83,0.61   c0.15,0.26,0.17,0.55,0.04,0.88c-0.15,0.39-0.42,0.61-0.82,0.66c-0.4,0.05-0.93-0.05-1.59-0.3C92.59,16.56,92.29,16.43,92.01,16.28   z M95.07,13.49c0.19-0.07,0.34-0.25,0.46-0.56c0.12-0.31,0.12-0.55,0.03-0.74c-0.1-0.19-0.33-0.35-0.69-0.49   c-0.35-0.13-0.63-0.16-0.83-0.09c-0.21,0.07-0.37,0.26-0.48,0.57c-0.11,0.29-0.12,0.53-0.02,0.72s0.33,0.35,0.69,0.48   C94.6,13.52,94.88,13.55,95.07,13.49z"
   id="path495" />
	<path
   d="M99.24,10.92l0.89,0.43l-0.97,2.01c0.24-0.06,0.5-0.07,0.78-0.04c0.28,0.03,0.56,0.12,0.84,0.25   c0.49,0.24,0.8,0.53,0.92,0.87c0.12,0.35,0.06,0.77-0.17,1.27l-1.21,2.51l-0.88-0.42l1.19-2.47c0.14-0.3,0.18-0.54,0.11-0.72   c-0.07-0.18-0.26-0.35-0.58-0.5c-0.2-0.09-0.42-0.15-0.66-0.16c-0.24-0.01-0.46,0.02-0.66,0.09l-1.35,2.82l-0.89-0.43L99.24,10.92z   "
   id="path497" />
	<path
   d="M101.63,18.08l0.73,0.4l-0.37,0.67l-0.73-0.4L101.63,18.08z"
   id="path499" />
	<path
   d="M103.58,19.51c-0.14-0.53-0.02-1.12,0.38-1.75c0.38-0.6,0.82-0.97,1.33-1.11c0.51-0.14,1.06-0.03,1.66,0.35   c0.54,0.34,0.86,0.74,0.97,1.2c0.11,0.46,0.02,0.93-0.28,1.4l-0.42,0.68l-2.67-1.67c-0.18,0.37-0.2,0.7-0.08,0.96   c0.12,0.27,0.41,0.54,0.87,0.82c0.18,0.12,0.38,0.22,0.6,0.3c0.21,0.08,0.41,0.15,0.6,0.18l-0.39,0.62   c-0.41-0.06-0.87-0.25-1.38-0.56C104.12,20.52,103.72,20.05,103.58,19.51z M106.82,19.26l0.16-0.25c0.16-0.26,0.22-0.51,0.16-0.73   c-0.06-0.23-0.25-0.44-0.56-0.64c-0.38-0.24-0.7-0.32-0.95-0.25c-0.25,0.07-0.5,0.29-0.73,0.67L106.82,19.26z"
   id="path501" />
	<path
   d="M107.66,22.23c-0.08-0.47,0.11-1,0.55-1.6c0.3-0.4,0.63-0.69,0.98-0.87c0.35-0.18,0.71-0.25,1.07-0.21   c0.36,0.04,0.7,0.17,1.02,0.41c0.2,0.15,0.37,0.31,0.5,0.49c0.13,0.17,0.23,0.36,0.3,0.58l1.25-1.68l0.79,0.59l-3.66,4.9   l-0.68-0.51l0.21-0.38c-0.27,0.03-0.52,0-0.75-0.07c-0.23-0.07-0.47-0.2-0.72-0.39C108.02,23.12,107.74,22.7,107.66,22.23z    M110.34,23.36l1.29-1.72c-0.08-0.37-0.29-0.69-0.63-0.95c-0.33-0.25-0.67-0.33-1-0.23c-0.34,0.1-0.66,0.36-0.98,0.78   c-0.3,0.4-0.43,0.74-0.4,1.01s0.22,0.54,0.57,0.8C109.53,23.32,109.92,23.42,110.34,23.36z"
   id="path503" />
	<path
   d="M111.93,25.61c-0.01-0.4,0.16-0.8,0.52-1.21l1.81-2.02l0.74,0.66l-1.81,2.02c-0.21,0.24-0.31,0.47-0.3,0.69   c0.02,0.22,0.15,0.43,0.39,0.65c0.18,0.16,0.37,0.27,0.58,0.34c0.21,0.07,0.43,0.1,0.65,0.09l2.1-2.35l0.73,0.65l-2.86,3.21   l-0.67-0.6l0.26-0.36c-0.58-0.04-1.09-0.26-1.55-0.66C112.14,26.38,111.94,26.01,111.93,25.61z"
   id="path505" />
	<path
   d="M115.78,28.58l0.59,0.59l-0.54,0.55l-0.59-0.59L115.78,28.58z"
   id="path507" />
	<path
   d="M119.84,27.65l0.57,0.64l-0.28,0.32c0.26,0.03,0.5,0.11,0.72,0.22c0.22,0.12,0.43,0.29,0.63,0.52   c0.43,0.48,0.62,0.96,0.58,1.44c-0.04,0.48-0.34,0.97-0.9,1.47c-0.57,0.51-1.12,0.76-1.64,0.75c-0.53,0-1-0.24-1.41-0.71   c-0.35-0.39-0.55-0.8-0.61-1.24l-1.67,1.48l-0.66-0.74L119.84,27.65z M119.41,32.06c0.33-0.02,0.7-0.21,1.09-0.56   c0.38-0.34,0.59-0.65,0.62-0.93c0.04-0.28-0.09-0.59-0.39-0.92c-0.29-0.33-0.65-0.51-1.07-0.53l-1.61,1.43   c0,0.39,0.15,0.74,0.43,1.06C118.77,31.93,119.08,32.08,119.41,32.06z"
   id="path509" />
	<path
   d="M120.44,34.69c0.03-0.25,0.2-0.49,0.51-0.73l4.02-3.12l0.61,0.78l-3.95,3.07c-0.13,0.1-0.2,0.19-0.22,0.28   c-0.02,0.08,0.02,0.18,0.09,0.28c0.09,0.12,0.19,0.21,0.3,0.3l-0.57,0.44c-0.18-0.11-0.35-0.27-0.51-0.48   C120.5,35.2,120.41,34.94,120.44,34.69z"
   id="path511" />
</g>
</svg>
